<svg width="200" height="200" viewBox="0 0 200 200" fill="none" xmlns="http://www.w3.org/2000/svg">
<rect width="200" height="200" fill="#121212"/>
<path d="M5 151.561C5 151.561 61.3839 149.24 69.6352 154.269C77.8865 159.299 76.9697 174 76.9697 174H5V151.561Z" fill="#935800"/>
<path d="M5 117.129C5 117.129 19.2106 115.968 23.7946 120.611C28.3787 125.253 29.7539 151.561 29.7539 151.561L5 151.561V117.129Z" fill="#935800"/>
<rect x="178" y="15" width="15" height="159" fill="#C4C4C4"/>
<rect x="150" y="141" width="24" height="33" fill="#6F4200"/>
<rect x="160" y="56" width="3" height="78" fill="#848484"/>
<rect x="163" y="66" width="6" height="58" fill="#848484"/>
<rect x="154" y="138" width="16" height="3" fill="#848484"/>
<path d="M167.343 123C167.343 123 167.473 128.952 166.181 132.408C165.022 135.508 162 139.029 162 139.029" stroke="#848484" stroke-width="3"/>
<rect x="103.506" y="161.038" width="21.4739" height="4.25564" fill="#001CAE"/>
<rect x="105.259" y="161.984" width="17.9679" height="2.36425" fill="#EEEEEE"/>
<rect x="100" y="156.783" width="21.4739" height="4.25564" fill="#A64702"/>
<rect x="101.753" y="157.729" width="17.9679" height="2.36425" fill="#EEEEEE"/>
<rect x="101.753" y="152.527" width="21.4739" height="4.25565" fill="#001CAE"/>
<rect x="103.506" y="153.473" width="17.9679" height="2.36425" fill="#EEEEEE"/>
<rect width="22.4433" height="4.12175" transform="matrix(0.610792 0.791821 -0.743606 0.668654 126.292 153.473)" fill="#007C05"/>
<rect width="18.7909" height="2.29137" transform="matrix(0.610854 0.791766 -0.743659 0.668587 126.726 155.531)" fill="#EEEEEE"/>
<rect x="100" y="169.55" width="21.4739" height="4.25564" fill="#C50000"/>
<rect x="101.753" y="170.495" width="17.9679" height="2.36425" fill="#EEEEEE"/>
<rect x="101.753" y="165.294" width="21.4739" height="4.25565" fill="#001CAE"/>
<rect x="103.506" y="166.24" width="17.9679" height="2.36425" fill="#EEEEEE"/>
<path d="M85.3145 128.117C84.707 128.117 84.2539 127.942 83.9551 127.593C83.7129 127.312 83.5605 126.896 83.498 126.345C83.4688 126.097 83.4541 125.602 83.4541 124.859C83.4541 124.586 83.46 124.365 83.4717 124.197C83.4834 124.02 83.501 123.896 83.5244 123.825C83.5732 123.683 83.6611 123.611 83.7881 123.611C83.9678 123.611 84.0576 123.776 84.0576 124.106V125.826C84.0576 127.01 84.4717 127.602 85.2998 127.602C86.0791 127.602 86.4688 126.605 86.4688 124.613C86.4688 124.539 86.4688 124.443 86.4688 124.326C86.4668 124.209 86.4658 124.131 86.4658 124.092C86.4658 123.971 86.4873 123.864 86.5303 123.772C86.585 123.655 86.666 123.597 86.7734 123.597C86.9688 123.597 87.0664 123.73 87.0664 123.998C87.0664 124.078 87.0674 124.199 87.0693 124.361C87.0693 124.523 87.0693 124.645 87.0693 124.725C87.0693 126.986 86.4844 128.117 85.3145 128.117ZM90.0781 128.208C89.9102 128.208 89.8154 128.116 89.7939 127.933L89.7119 127.291C89.6846 127.062 89.6709 126.849 89.6709 126.649C89.6709 126.595 89.6738 126.502 89.6797 126.371C89.6875 126.24 89.6914 126.147 89.6914 126.093C89.6914 125.671 89.6133 125.46 89.457 125.46C89.2383 125.46 89.0293 125.59 88.8301 125.85C88.6504 126.086 88.5098 126.385 88.4082 126.746C88.4043 126.822 88.3955 126.918 88.3818 127.033C88.3701 127.131 88.3643 127.226 88.3643 127.317C88.3643 127.376 88.3701 127.464 88.3818 127.581C88.3936 127.698 88.3994 127.786 88.3994 127.845C88.3994 127.933 88.3721 128.004 88.3174 128.059C88.2646 128.113 88.1963 128.141 88.1123 128.141C88.0264 128.141 87.957 128.113 87.9043 128.059C87.8516 128.004 87.8252 127.933 87.8252 127.845C87.8252 127.786 87.8184 127.698 87.8047 127.581C87.793 127.464 87.7871 127.376 87.7871 127.317C87.7871 127.116 87.8008 126.838 87.8281 126.482C87.8574 126.125 87.8721 125.846 87.8721 125.645C87.8721 125.582 87.8682 125.489 87.8604 125.366C87.8545 125.243 87.8516 125.15 87.8516 125.088C87.8516 125.004 87.8789 124.936 87.9336 124.883C87.9902 124.828 88.0596 124.801 88.1416 124.801C88.3213 124.801 88.4199 124.928 88.4375 125.182L88.4463 125.524C88.7744 125.087 89.1113 124.868 89.457 124.868C89.7695 124.868 89.9873 125.006 90.1104 125.281C90.1943 125.465 90.2402 125.736 90.248 126.096V126.392L90.2451 126.664C90.2451 126.826 90.2656 127.036 90.3066 127.294C90.3496 127.55 90.3711 127.758 90.3711 127.918C90.3711 128.004 90.3428 128.073 90.2861 128.126C90.2314 128.181 90.1621 128.208 90.0781 128.208ZM92.9316 125.504C92.8906 125.504 92.8418 125.502 92.7852 125.498C92.7305 125.494 92.6826 125.492 92.6416 125.492C92.5967 125.492 92.4639 125.507 92.2432 125.536L92.2988 127.268L92.3018 127.396L92.3047 127.546C92.3125 127.974 92.21 128.188 91.9971 128.188C91.9189 128.188 91.8506 128.162 91.792 128.111C91.7354 128.061 91.707 127.997 91.707 127.921C91.707 127.847 91.71 127.735 91.7158 127.587C91.7217 127.438 91.7246 127.327 91.7246 127.253L91.666 125.542C91.5234 125.536 91.3066 125.52 91.0156 125.492C90.8418 125.469 90.7549 125.372 90.7549 125.202C90.7549 125.116 90.7812 125.045 90.834 124.988C90.8867 124.932 90.9541 124.903 91.0361 124.903L91.6514 124.953C91.6514 124.854 91.6465 124.721 91.6367 124.555C91.6289 124.387 91.625 124.266 91.625 124.191C91.625 124.109 91.6533 124.042 91.71 123.989C91.7666 123.935 91.8359 123.907 91.918 123.907C92.0938 123.907 92.1963 124.051 92.2256 124.338C92.2314 124.41 92.2344 124.497 92.2344 124.599L92.2285 124.769L92.2256 124.95C92.4678 124.919 92.6064 124.903 92.6416 124.903C92.8447 124.903 92.9775 124.913 93.04 124.933C93.1592 124.972 93.2188 125.063 93.2188 125.208C93.2188 125.294 93.1914 125.365 93.1367 125.422C93.084 125.477 93.0156 125.504 92.9316 125.504ZM94.9004 128.173C94.5723 128.173 94.29 128.052 94.0537 127.81C93.79 127.54 93.6514 127.178 93.6377 126.723C93.626 126.281 93.7373 125.893 93.9717 125.557C94.2451 125.16 94.626 124.962 95.1143 124.962C95.5049 124.962 95.8008 125.141 96.002 125.498C96.1621 125.787 96.2393 126.135 96.2334 126.541C96.2275 126.975 96.1143 127.345 95.8936 127.651C95.6436 127.999 95.3125 128.173 94.9004 128.173ZM95.0762 125.557C94.7891 125.555 94.5654 125.691 94.4053 125.967C94.2783 126.188 94.2148 126.439 94.2148 126.723C94.2148 127.006 94.292 127.227 94.4463 127.385C94.5752 127.516 94.7266 127.581 94.9004 127.581C95.1035 127.581 95.2783 127.507 95.4248 127.358C95.5908 127.194 95.6787 126.973 95.6885 126.693C95.7158 125.938 95.5117 125.559 95.0762 125.557ZM99.3506 126.289C99.3506 126.43 99.3516 126.641 99.3535 126.922C99.3555 127.203 99.3564 127.414 99.3564 127.555C99.3564 127.598 99.3594 127.663 99.3652 127.751C99.373 127.839 99.377 127.904 99.377 127.947C99.377 128.031 99.3486 128.1 99.292 128.152C99.2354 128.207 99.166 128.234 99.084 128.234C98.9336 128.234 98.8379 128.142 98.7969 127.956C98.5527 128.083 98.2715 128.146 97.9531 128.146C97.6973 128.146 97.4854 128.09 97.3174 127.977C97.1318 127.852 97.0215 127.669 96.9863 127.429C96.9102 126.911 96.8721 126.45 96.8721 126.046C96.8721 125.778 96.9014 125.474 96.96 125.132C96.9873 124.962 97.0801 124.877 97.2383 124.877C97.3223 124.877 97.3926 124.904 97.4492 124.959C97.5059 125.012 97.5342 125.08 97.5342 125.164C97.5342 125.254 97.5195 125.397 97.4902 125.595C97.4629 125.792 97.4492 125.942 97.4492 126.046C97.4492 126.372 97.46 126.651 97.4814 126.884C97.5029 127.116 97.5352 127.303 97.5781 127.443C97.6426 127.479 97.7061 127.506 97.7686 127.525C97.8311 127.543 97.8926 127.552 97.9531 127.552C98.2148 127.552 98.4912 127.51 98.7822 127.426L98.7793 126.831L98.7734 126.263C98.7734 125.841 98.792 125.475 98.8291 125.164C98.8506 124.984 98.9453 124.895 99.1133 124.895C99.1973 124.895 99.2676 124.922 99.3242 124.977C99.3809 125.031 99.4072 125.1 99.4033 125.182L99.3506 126.289ZM101.407 128.185C101.007 128.185 100.673 128.063 100.405 127.821C100.124 127.567 99.9834 127.232 99.9834 126.816C99.9834 126.42 100.115 126.011 100.379 125.589C100.672 125.12 101.002 124.886 101.369 124.886C101.561 124.886 101.774 124.931 102.011 125.021C102.31 125.136 102.459 125.276 102.459 125.442C102.459 125.517 102.435 125.583 102.386 125.642C102.337 125.698 102.276 125.727 102.204 125.727C102.147 125.727 102.098 125.71 102.055 125.677C102.014 125.642 101.974 125.607 101.935 125.574C101.819 125.482 101.631 125.437 101.369 125.437C101.17 125.437 100.973 125.614 100.777 125.97C100.6 126.296 100.511 126.578 100.511 126.816C100.511 127.074 100.599 127.277 100.774 127.426C100.938 127.564 101.149 127.634 101.407 127.634C101.524 127.634 101.649 127.603 101.782 127.54L102.122 127.358C102.181 127.327 102.223 127.312 102.248 127.312C102.32 127.312 102.383 127.341 102.436 127.399C102.488 127.456 102.515 127.521 102.515 127.596C102.515 127.738 102.364 127.876 102.063 128.009C101.8 128.126 101.581 128.185 101.407 128.185ZM105.617 128.182C105.479 128.182 105.388 128.107 105.345 127.959C105.3 127.799 105.259 127.571 105.222 127.276C105.187 126.993 105.169 126.761 105.169 126.579C105.169 126.528 105.171 126.451 105.175 126.348C105.181 126.244 105.184 126.167 105.184 126.116C105.184 125.749 105.092 125.565 104.908 125.565C104.66 125.565 104.438 125.678 104.243 125.902C104.144 126.018 104.007 126.237 103.833 126.562C103.833 127.306 103.802 127.746 103.739 127.883C103.685 128.004 103.6 128.064 103.484 128.064C103.404 128.064 103.334 128.037 103.273 127.982C103.213 127.928 103.183 127.861 103.183 127.783C103.183 127.756 103.191 127.713 103.209 127.654C103.225 127.605 103.235 127.463 103.241 127.227L103.25 126.793L103.259 124.64C103.272 124.397 103.279 124.234 103.279 124.15C103.279 124.051 103.27 123.957 103.25 123.869C103.232 123.779 103.224 123.687 103.224 123.591C103.224 123.509 103.252 123.441 103.309 123.389C103.365 123.334 103.435 123.307 103.517 123.307C103.677 123.307 103.771 123.393 103.798 123.564C103.829 123.754 103.845 123.925 103.845 124.077C103.845 124.282 103.838 124.496 103.824 124.719C103.812 124.932 103.808 125.146 103.81 125.36L103.812 125.618C103.973 125.403 104.144 125.243 104.325 125.138C104.509 125.03 104.703 124.977 104.908 124.977C105.232 124.977 105.455 125.082 105.576 125.293C105.662 125.441 105.711 125.691 105.723 126.043L105.746 126.603L105.805 127.212C105.832 127.44 105.865 127.642 105.904 127.815C105.912 127.849 105.916 127.877 105.916 127.9C105.916 127.98 105.887 128.047 105.828 128.1C105.77 128.154 105.699 128.182 105.617 128.182ZM108.002 128.135C107.561 128.135 107.203 128.024 106.93 127.804C106.631 127.56 106.481 127.218 106.481 126.778C106.481 126.271 106.604 125.845 106.851 125.501C107.118 125.126 107.476 124.938 107.923 124.938C108.247 124.938 108.512 124.993 108.717 125.103C108.969 125.237 109.095 125.444 109.095 125.724C109.095 125.919 108.984 126.097 108.764 126.257C108.666 126.327 108.459 126.437 108.143 126.585L107.023 127.115C107.133 127.277 107.269 127.399 107.431 127.481C107.595 127.563 107.785 127.604 108.002 127.604C108.137 127.604 108.295 127.579 108.477 127.528C108.707 127.464 108.855 127.38 108.922 127.276C108.988 127.171 109.06 127.118 109.136 127.118C109.204 127.118 109.265 127.145 109.317 127.197C109.372 127.248 109.399 127.308 109.399 127.376C109.399 127.593 109.225 127.779 108.875 127.936C108.576 128.068 108.285 128.135 108.002 128.135ZM107.923 125.466C107.685 125.466 107.486 125.559 107.328 125.744C107.17 125.928 107.052 126.205 106.974 126.576L107.873 126.148C108.227 125.977 108.479 125.827 108.629 125.7C108.461 125.544 108.226 125.466 107.923 125.466ZM112.619 125.413C112.596 125.7 112.584 125.987 112.584 126.274C112.584 126.925 112.614 127.416 112.675 127.748C112.679 127.775 112.681 127.798 112.681 127.815C112.681 127.894 112.653 127.958 112.599 128.009C112.544 128.06 112.48 128.085 112.408 128.085C112.287 128.085 112.198 127.997 112.142 127.821C112.001 127.925 111.854 128.003 111.702 128.056C111.552 128.108 111.395 128.135 111.23 128.135C110.826 128.135 110.491 128 110.226 127.73C109.952 127.455 109.815 127.102 109.815 126.67C109.815 126.148 109.953 125.73 110.229 125.416C110.506 125.102 110.865 124.944 111.307 124.944C111.533 124.944 111.708 124.979 111.831 125.05L112.106 125.252C112.134 124.43 112.166 123.876 112.203 123.591C112.229 123.417 112.317 123.33 112.47 123.33C112.647 123.33 112.736 123.425 112.736 123.614C112.736 123.886 112.697 124.485 112.619 125.413ZM111.318 125.489C110.99 125.489 110.744 125.587 110.58 125.782C110.416 125.976 110.334 126.268 110.334 126.658C110.334 126.91 110.423 127.127 110.601 127.309C110.78 127.49 110.99 127.581 111.23 127.581C111.395 127.581 111.533 127.551 111.646 127.49C111.713 127.455 111.821 127.374 111.972 127.247C112.001 127.222 112.029 127.191 112.057 127.156L112.048 126.649L112.051 126.31L112.057 125.964C111.982 125.806 111.884 125.688 111.761 125.609C111.638 125.529 111.49 125.489 111.318 125.489ZM115.227 127.271C115.225 127.188 115.252 127.122 115.309 127.071C115.367 127.019 115.438 126.992 115.522 126.992C115.618 126.992 115.702 127.047 115.774 127.156C115.874 127.305 115.963 127.405 116.041 127.458C116.207 127.567 116.448 127.622 116.765 127.622C117.067 127.622 117.349 127.557 117.608 127.426C117.94 127.258 118.106 127.024 118.106 126.726C118.106 126.479 117.967 126.285 117.688 126.143C117.451 126.02 117.159 125.953 116.812 125.943C116.503 125.932 116.24 125.864 116.023 125.741C115.746 125.583 115.607 125.356 115.607 125.062C115.607 124.714 115.805 124.396 116.199 124.109C116.576 123.838 116.966 123.702 117.368 123.702C117.558 123.702 117.771 123.734 118.01 123.799C118.326 123.883 118.484 123.99 118.484 124.121C118.484 124.293 118.396 124.379 118.221 124.379C118.143 124.379 118.006 124.358 117.811 124.317C117.615 124.274 117.464 124.254 117.356 124.256C117.052 124.26 116.793 124.335 116.58 124.481C116.361 124.632 116.252 124.814 116.252 125.029C116.252 125.191 116.396 125.306 116.686 125.372C116.793 125.397 117.001 125.421 117.31 125.442C117.757 125.476 118.106 125.616 118.358 125.864C118.589 126.091 118.704 126.367 118.704 126.693C118.704 127.158 118.489 127.529 118.06 127.807C117.687 128.047 117.254 128.167 116.762 128.167C116.404 128.167 116.077 128.099 115.78 127.962C115.417 127.794 115.232 127.563 115.227 127.271ZM120.726 128.185C120.325 128.185 119.991 128.063 119.724 127.821C119.442 127.567 119.302 127.232 119.302 126.816C119.302 126.42 119.434 126.011 119.697 125.589C119.99 125.12 120.32 124.886 120.688 124.886C120.879 124.886 121.093 124.931 121.329 125.021C121.628 125.136 121.777 125.276 121.777 125.442C121.777 125.517 121.753 125.583 121.704 125.642C121.655 125.698 121.595 125.727 121.522 125.727C121.466 125.727 121.416 125.71 121.373 125.677C121.332 125.642 121.292 125.607 121.253 125.574C121.138 125.482 120.949 125.437 120.688 125.437C120.488 125.437 120.291 125.614 120.096 125.97C119.918 126.296 119.829 126.578 119.829 126.816C119.829 127.074 119.917 127.277 120.093 127.426C120.257 127.564 120.468 127.634 120.726 127.634C120.843 127.634 120.968 127.603 121.101 127.54L121.44 127.358C121.499 127.327 121.541 127.312 121.566 127.312C121.639 127.312 121.701 127.341 121.754 127.399C121.807 127.456 121.833 127.521 121.833 127.596C121.833 127.738 121.683 127.876 121.382 128.009C121.118 128.126 120.899 128.185 120.726 128.185ZM124.936 128.182C124.797 128.182 124.706 128.107 124.663 127.959C124.618 127.799 124.577 127.571 124.54 127.276C124.505 126.993 124.487 126.761 124.487 126.579C124.487 126.528 124.489 126.451 124.493 126.348C124.499 126.244 124.502 126.167 124.502 126.116C124.502 125.749 124.41 125.565 124.227 125.565C123.979 125.565 123.757 125.678 123.562 125.902C123.462 126.018 123.325 126.237 123.151 126.562C123.151 127.306 123.12 127.746 123.058 127.883C123.003 128.004 122.918 128.064 122.803 128.064C122.723 128.064 122.652 128.037 122.592 127.982C122.531 127.928 122.501 127.861 122.501 127.783C122.501 127.756 122.51 127.713 122.527 127.654C122.543 127.605 122.554 127.463 122.56 127.227L122.568 126.793L122.577 124.64C122.591 124.397 122.598 124.234 122.598 124.15C122.598 124.051 122.588 123.957 122.568 123.869C122.551 123.779 122.542 123.687 122.542 123.591C122.542 123.509 122.57 123.441 122.627 123.389C122.684 123.334 122.753 123.307 122.835 123.307C122.995 123.307 123.089 123.393 123.116 123.564C123.147 123.754 123.163 123.925 123.163 124.077C123.163 124.282 123.156 124.496 123.143 124.719C123.131 124.932 123.126 125.146 123.128 125.36L123.131 125.618C123.291 125.403 123.462 125.243 123.644 125.138C123.827 125.03 124.021 124.977 124.227 124.977C124.551 124.977 124.773 125.082 124.895 125.293C124.98 125.441 125.029 125.691 125.041 126.043L125.064 126.603L125.123 127.212C125.15 127.44 125.184 127.642 125.223 127.815C125.23 127.849 125.234 127.877 125.234 127.9C125.234 127.98 125.205 128.047 125.146 128.1C125.088 128.154 125.018 128.182 124.936 128.182ZM127.051 128.173C126.723 128.173 126.44 128.052 126.204 127.81C125.94 127.54 125.802 127.178 125.788 126.723C125.776 126.281 125.888 125.893 126.122 125.557C126.396 125.16 126.776 124.962 127.265 124.962C127.655 124.962 127.951 125.141 128.152 125.498C128.312 125.787 128.39 126.135 128.384 126.541C128.378 126.975 128.265 127.345 128.044 127.651C127.794 127.999 127.463 128.173 127.051 128.173ZM127.227 125.557C126.939 125.555 126.716 125.691 126.556 125.967C126.429 126.188 126.365 126.439 126.365 126.723C126.365 127.006 126.442 127.227 126.597 127.385C126.726 127.516 126.877 127.581 127.051 127.581C127.254 127.581 127.429 127.507 127.575 127.358C127.741 127.194 127.829 126.973 127.839 126.693C127.866 125.938 127.662 125.559 127.227 125.557ZM130.209 128.173C129.881 128.173 129.599 128.052 129.362 127.81C129.099 127.54 128.96 127.178 128.946 126.723C128.935 126.281 129.046 125.893 129.28 125.557C129.554 125.16 129.935 124.962 130.423 124.962C130.813 124.962 131.109 125.141 131.311 125.498C131.471 125.787 131.548 126.135 131.542 126.541C131.536 126.975 131.423 127.345 131.202 127.651C130.952 127.999 130.621 128.173 130.209 128.173ZM130.385 125.557C130.098 125.555 129.874 125.691 129.714 125.967C129.587 126.188 129.523 126.439 129.523 126.723C129.523 127.006 129.601 127.227 129.755 127.385C129.884 127.516 130.035 127.581 130.209 127.581C130.412 127.581 130.587 127.507 130.733 127.358C130.899 127.194 130.987 126.973 130.997 126.693C131.024 125.938 130.82 125.559 130.385 125.557ZM133.013 125.697L132.969 127.153C132.969 127.308 132.961 127.534 132.945 127.833C132.926 128.028 132.83 128.126 132.658 128.126C132.467 128.126 132.371 128.026 132.371 127.827C132.371 127.591 132.382 127.236 132.403 126.764C132.425 126.289 132.436 125.934 132.436 125.697C132.436 125.389 132.44 125.036 132.45 124.64C132.46 124.241 132.465 123.888 132.465 123.579C132.465 123.384 132.561 123.286 132.752 123.286C132.945 123.286 133.042 123.384 133.042 123.579C133.042 123.888 133.037 124.241 133.027 124.64C133.018 125.036 133.013 125.389 133.013 125.697ZM135.283 128.123C134.984 128.123 134.713 128.064 134.469 127.947C134.406 128.041 134.33 128.088 134.24 128.088C134.166 128.088 134.103 128.062 134.05 128.009C133.999 127.958 133.974 127.894 133.974 127.815C133.974 127.765 133.976 127.689 133.979 127.59C133.985 127.49 133.988 127.415 133.988 127.364C133.988 127.157 133.982 126.848 133.971 126.436C133.961 126.021 133.956 125.711 133.956 125.504C133.956 125.361 133.957 125.092 133.959 124.695C133.961 124.297 133.962 124.025 133.962 123.881C133.962 123.764 133.986 123.658 134.035 123.564C134.1 123.445 134.188 123.386 134.302 123.386C134.448 123.386 134.521 123.471 134.521 123.641C134.521 123.668 134.517 123.708 134.507 123.761C134.497 123.813 134.492 123.854 134.492 123.881L134.483 124.522L134.478 125.27C134.647 125.154 134.809 125.068 134.961 125.012C135.115 124.953 135.26 124.924 135.395 124.924C135.814 124.924 136.155 125.085 136.417 125.407C136.663 125.71 136.786 126.082 136.786 126.523C136.786 126.969 136.643 127.347 136.355 127.657C136.068 127.968 135.711 128.123 135.283 128.123ZM135.395 125.478C135.234 125.478 135.07 125.522 134.902 125.612C134.82 125.657 134.68 125.754 134.48 125.902L134.475 126.409L134.478 126.866L134.48 127.347C134.574 127.39 134.706 127.444 134.876 127.511C134.997 127.548 135.133 127.566 135.283 127.566C135.566 127.566 135.799 127.467 135.98 127.268C136.162 127.068 136.253 126.82 136.253 126.523C136.253 126.232 136.18 125.989 136.033 125.794C135.875 125.583 135.662 125.478 135.395 125.478ZM138.576 128.173C138.248 128.173 137.966 128.052 137.729 127.81C137.466 127.54 137.327 127.178 137.313 126.723C137.302 126.281 137.413 125.893 137.647 125.557C137.921 125.16 138.302 124.962 138.79 124.962C139.181 124.962 139.477 125.141 139.678 125.498C139.838 125.787 139.915 126.135 139.909 126.541C139.903 126.975 139.79 127.345 139.569 127.651C139.319 127.999 138.988 128.173 138.576 128.173ZM138.752 125.557C138.465 125.555 138.241 125.691 138.081 125.967C137.954 126.188 137.891 126.439 137.891 126.723C137.891 127.006 137.968 127.227 138.122 127.385C138.251 127.516 138.402 127.581 138.576 127.581C138.779 127.581 138.954 127.507 139.101 127.358C139.267 127.194 139.354 126.973 139.364 126.693C139.392 125.938 139.188 125.559 138.752 125.557ZM141.734 128.173C141.406 128.173 141.124 128.052 140.888 127.81C140.624 127.54 140.485 127.178 140.472 126.723C140.46 126.281 140.571 125.893 140.806 125.557C141.079 125.16 141.46 124.962 141.948 124.962C142.339 124.962 142.635 125.141 142.836 125.498C142.996 125.787 143.073 126.135 143.067 126.541C143.062 126.975 142.948 127.345 142.728 127.651C142.478 127.999 142.146 128.173 141.734 128.173ZM141.91 125.557C141.623 125.555 141.399 125.691 141.239 125.967C141.112 126.188 141.049 126.439 141.049 126.723C141.049 127.006 141.126 127.227 141.28 127.385C141.409 127.516 141.561 127.581 141.734 127.581C141.938 127.581 142.112 127.507 142.259 127.358C142.425 127.194 142.513 126.973 142.522 126.693C142.55 125.938 142.346 125.559 141.91 125.557ZM146.234 128.12C146.127 128.12 146.044 128.063 145.985 127.95C145.884 127.753 145.73 127.52 145.525 127.25L145.007 126.544C144.894 126.634 144.718 126.76 144.479 126.922C144.458 127.225 144.447 127.52 144.447 127.807C144.447 127.895 144.42 127.966 144.365 128.021C144.312 128.075 144.244 128.103 144.16 128.103C143.963 128.103 143.864 127.97 143.864 127.704C143.864 127.542 143.875 127.3 143.896 126.978C143.92 126.653 143.932 126.41 143.932 126.248C143.932 125.951 143.936 125.612 143.943 125.231C143.953 124.849 143.958 124.511 143.958 124.218C143.958 124.13 143.953 124.026 143.943 123.907C143.936 123.788 143.932 123.685 143.932 123.597C143.932 123.509 143.958 123.438 144.011 123.383C144.065 123.328 144.135 123.301 144.219 123.301C144.303 123.301 144.371 123.328 144.424 123.383C144.479 123.438 144.506 123.509 144.506 123.597C144.506 123.687 144.511 123.793 144.521 123.916C144.53 124.037 144.535 124.143 144.535 124.232L144.515 125.176C144.505 125.516 144.502 125.855 144.506 126.195C144.771 125.992 145.027 125.77 145.273 125.527L145.918 124.862C145.982 124.796 146.052 124.763 146.126 124.763C146.202 124.763 146.271 124.793 146.331 124.854C146.394 124.914 146.425 124.984 146.425 125.064C146.425 125.131 146.396 125.196 146.34 125.261C146.1 125.542 145.804 125.844 145.452 126.166L146.091 127.036C146.39 127.444 146.539 127.71 146.539 127.833C146.539 127.911 146.508 127.979 146.445 128.035C146.385 128.092 146.314 128.12 146.234 128.12ZM149.012 125.744C148.904 125.744 148.829 125.708 148.786 125.636C148.757 125.585 148.731 125.479 148.71 125.319C148.563 125.356 148.338 125.425 148.033 125.524C147.719 125.649 147.561 125.804 147.559 125.987C147.617 126.009 147.675 126.024 147.731 126.034C148.181 126.114 148.515 126.225 148.733 126.365C149.052 126.57 149.211 126.867 149.211 127.256C149.211 127.574 149.073 127.814 148.798 127.977C148.569 128.109 148.28 128.176 147.931 128.176C147.675 128.176 147.431 128.133 147.198 128.047C146.897 127.938 146.747 127.785 146.747 127.59C146.747 127.512 146.777 127.443 146.838 127.385C146.9 127.326 146.971 127.297 147.049 127.297C147.109 127.297 147.188 127.344 147.283 127.438C147.33 127.482 147.436 127.52 147.6 127.549C147.73 127.572 147.841 127.584 147.931 127.584C148.095 127.584 148.239 127.564 148.364 127.525C148.546 127.469 148.637 127.379 148.637 127.256C148.637 126.99 148.451 126.811 148.08 126.717L147.775 126.649C147.516 126.593 147.331 126.526 147.222 126.45C147.063 126.341 146.984 126.176 146.984 125.955C146.984 125.547 147.177 125.256 147.562 125.082C147.679 125.029 147.866 124.967 148.124 124.895C148.382 124.82 148.566 124.758 148.678 124.707C148.758 124.672 148.845 124.654 148.938 124.654C149.022 124.654 149.091 124.682 149.144 124.736C149.198 124.791 149.226 124.862 149.226 124.95C149.226 125.007 149.237 125.09 149.261 125.199C149.286 125.309 149.299 125.392 149.299 125.448C149.299 125.536 149.271 125.607 149.217 125.662C149.164 125.717 149.096 125.744 149.012 125.744Z" fill="white"/>
<path d="M30.709 95.335L30.3135 95.6045C29.958 95.8799 29.5557 96.3203 29.1064 96.9258L28.0781 98.4229C28.0293 98.4971 27.9814 98.5654 27.9346 98.6279L29.0742 98.584C29.5723 98.5605 29.9531 98.5488 30.2168 98.5488C30.4746 98.5488 30.665 98.5605 30.7881 98.584C30.9463 98.6152 31.0283 98.6953 31.0342 98.8242C31.0381 98.9199 31.0068 98.9961 30.9404 99.0527C30.8818 99.1016 30.8086 99.126 30.7207 99.126C30.6641 99.126 30.5791 99.1221 30.4658 99.1143C30.3525 99.1084 30.2676 99.1055 30.2109 99.1055C29.9141 99.1055 29.4678 99.1123 28.8721 99.126C28.2783 99.1416 27.833 99.1494 27.5361 99.1494C27.3115 99.1494 27.1992 99.0508 27.1992 98.8535C27.1992 98.7246 27.2598 98.5625 27.3809 98.3672L27.6943 97.9307L28.752 96.46C29.1875 95.8838 29.5928 95.4365 29.9678 95.1182L28.9424 95.1768H27.7588C27.7373 95.1768 27.7051 95.1787 27.6621 95.1826C27.6211 95.1846 27.5908 95.1855 27.5713 95.1855C27.3643 95.1855 27.2607 95.085 27.2607 94.8838C27.2607 94.751 27.3135 94.6631 27.4189 94.6201C27.4834 94.5928 27.5898 94.5791 27.7383 94.5791C27.873 94.5791 28.0732 94.5938 28.3389 94.623C28.6064 94.6504 28.8076 94.6641 28.9424 94.6641C29.0928 94.6641 29.3174 94.6543 29.6162 94.6348C29.917 94.6152 30.1436 94.6055 30.2959 94.6055C30.7979 94.6055 31.0488 94.7002 31.0488 94.8896C31.0488 95.0186 30.9355 95.167 30.709 95.335ZM33.9844 96.6299C33.8105 96.8389 33.5879 97.1416 33.3164 97.5381C33.002 97.999 32.7715 98.3252 32.625 98.5166C32.8301 98.5068 33.0088 98.502 33.1611 98.502C33.2373 98.502 33.3506 98.5166 33.501 98.5459C33.6514 98.5752 33.7646 98.5898 33.8408 98.5898C33.9268 98.5898 33.9961 98.6182 34.0488 98.6748C34.1035 98.7295 34.1309 98.7998 34.1309 98.8857C34.1309 98.9736 34.1035 99.0449 34.0488 99.0996C33.9961 99.1543 33.9268 99.1816 33.8408 99.1816C33.7646 99.1816 33.6514 99.167 33.501 99.1377C33.3506 99.1084 33.2373 99.0938 33.1611 99.0938C32.7217 99.0938 32.3047 99.1338 31.9102 99.2139C31.8691 99.2217 31.833 99.2256 31.8018 99.2256C31.6123 99.2256 31.5176 99.1426 31.5176 98.9766C31.5176 98.8789 31.5664 98.7852 31.6641 98.6953C32.1738 98.2344 32.7285 97.5166 33.3281 96.542C33.0684 96.5576 32.8799 96.5654 32.7627 96.5654C32.4736 96.5654 32.1768 96.543 31.8721 96.498C31.6982 96.4727 31.6113 96.376 31.6113 96.208C31.6113 96.1221 31.6377 96.0508 31.6904 95.9941C31.7432 95.9355 31.8096 95.9062 31.8896 95.9062C31.9854 95.9062 32.1299 95.918 32.3232 95.9414C32.5166 95.9629 32.6631 95.9736 32.7627 95.9736C32.8955 95.9736 33.0947 95.9648 33.3604 95.9473C33.626 95.9277 33.8252 95.918 33.958 95.918C34.124 95.918 34.207 95.9863 34.207 96.123C34.207 96.2812 34.1328 96.4502 33.9844 96.6299ZM37.2129 96.6299C37.0391 96.8389 36.8164 97.1416 36.5449 97.5381C36.2305 97.999 36 98.3252 35.8535 98.5166C36.0586 98.5068 36.2373 98.502 36.3896 98.502C36.4658 98.502 36.5791 98.5166 36.7295 98.5459C36.8799 98.5752 36.9932 98.5898 37.0693 98.5898C37.1553 98.5898 37.2246 98.6182 37.2773 98.6748C37.332 98.7295 37.3594 98.7998 37.3594 98.8857C37.3594 98.9736 37.332 99.0449 37.2773 99.0996C37.2246 99.1543 37.1553 99.1816 37.0693 99.1816C36.9932 99.1816 36.8799 99.167 36.7295 99.1377C36.5791 99.1084 36.4658 99.0938 36.3896 99.0938C35.9502 99.0938 35.5332 99.1338 35.1387 99.2139C35.0977 99.2217 35.0615 99.2256 35.0303 99.2256C34.8408 99.2256 34.7461 99.1426 34.7461 98.9766C34.7461 98.8789 34.7949 98.7852 34.8926 98.6953C35.4023 98.2344 35.957 97.5166 36.5566 96.542C36.2969 96.5576 36.1084 96.5654 35.9912 96.5654C35.7021 96.5654 35.4053 96.543 35.1006 96.498C34.9268 96.4727 34.8398 96.376 34.8398 96.208C34.8398 96.1221 34.8662 96.0508 34.9189 95.9941C34.9717 95.9355 35.0381 95.9062 35.1182 95.9062C35.2139 95.9062 35.3584 95.918 35.5518 95.9414C35.7451 95.9629 35.8916 95.9736 35.9912 95.9736C36.124 95.9736 36.3232 95.9648 36.5889 95.9473C36.8545 95.9277 37.0537 95.918 37.1865 95.918C37.3525 95.918 37.4355 95.9863 37.4355 96.123C37.4355 96.2812 37.3613 96.4502 37.2129 96.6299ZM40.4766 99.1816C40.3379 99.1816 40.2471 99.1074 40.2041 98.959C40.1592 98.7988 40.1182 98.5713 40.0811 98.2764C40.0459 97.9932 40.0283 97.7607 40.0283 97.5791C40.0283 97.5283 40.0303 97.4512 40.0342 97.3477C40.04 97.2441 40.043 97.167 40.043 97.1162C40.043 96.749 39.9512 96.5654 39.7676 96.5654C39.5195 96.5654 39.2979 96.6777 39.1025 96.9023C39.0029 97.0176 38.8662 97.2373 38.6924 97.5615C38.6924 98.3057 38.6611 98.7461 38.5986 98.8828C38.5439 99.0039 38.459 99.0645 38.3438 99.0645C38.2637 99.0645 38.1934 99.0371 38.1328 98.9824C38.0723 98.9277 38.042 98.8613 38.042 98.7832C38.042 98.7559 38.0508 98.7129 38.0684 98.6543C38.084 98.6055 38.0947 98.4629 38.1006 98.2266L38.1094 97.793L38.1182 95.6396C38.1318 95.3975 38.1387 95.2344 38.1387 95.1504C38.1387 95.0508 38.1289 94.957 38.1094 94.8691C38.0918 94.7793 38.083 94.6865 38.083 94.5908C38.083 94.5088 38.1113 94.4414 38.168 94.3887C38.2246 94.334 38.2939 94.3066 38.376 94.3066C38.5361 94.3066 38.6299 94.3926 38.6572 94.5645C38.6885 94.7539 38.7041 94.9248 38.7041 95.0771C38.7041 95.2822 38.6973 95.4961 38.6836 95.7188C38.6719 95.9316 38.667 96.1455 38.6689 96.3604L38.6719 96.6182C38.832 96.4033 39.0029 96.2432 39.1846 96.1377C39.3682 96.0303 39.5625 95.9766 39.7676 95.9766C40.0918 95.9766 40.3145 96.082 40.4355 96.293C40.5215 96.4414 40.5703 96.6914 40.582 97.043L40.6055 97.6025L40.6641 98.2119C40.6914 98.4404 40.7246 98.6416 40.7637 98.8154C40.7715 98.8486 40.7754 98.877 40.7754 98.9004C40.7754 98.9805 40.7461 99.0469 40.6875 99.0996C40.6289 99.1543 40.5586 99.1816 40.4766 99.1816ZM43.9453 99.1816C43.8066 99.1816 43.7158 99.1074 43.6729 98.959C43.6279 98.7988 43.5869 98.5713 43.5498 98.2764C43.5146 97.9932 43.4971 97.7607 43.4971 97.5791C43.4971 97.5283 43.499 97.4512 43.5029 97.3477C43.5088 97.2441 43.5117 97.167 43.5117 97.1162C43.5117 96.749 43.4199 96.5654 43.2363 96.5654C42.9883 96.5654 42.7666 96.6777 42.5713 96.9023C42.4717 97.0176 42.335 97.2373 42.1611 97.5615C42.1611 98.3057 42.1299 98.7461 42.0674 98.8828C42.0127 99.0039 41.9277 99.0645 41.8125 99.0645C41.7324 99.0645 41.6621 99.0371 41.6016 98.9824C41.541 98.9277 41.5107 98.8613 41.5107 98.7832C41.5107 98.7559 41.5195 98.7129 41.5371 98.6543C41.5527 98.6055 41.5635 98.4629 41.5693 98.2266L41.5781 97.793L41.5869 95.6396C41.6006 95.3975 41.6074 95.2344 41.6074 95.1504C41.6074 95.0508 41.5977 94.957 41.5781 94.8691C41.5605 94.7793 41.5518 94.6865 41.5518 94.5908C41.5518 94.5088 41.5801 94.4414 41.6367 94.3887C41.6934 94.334 41.7627 94.3066 41.8447 94.3066C42.0049 94.3066 42.0986 94.3926 42.126 94.5645C42.1572 94.7539 42.1729 94.9248 42.1729 95.0771C42.1729 95.2822 42.166 95.4961 42.1523 95.7188C42.1406 95.9316 42.1357 96.1455 42.1377 96.3604L42.1406 96.6182C42.3008 96.4033 42.4717 96.2432 42.6533 96.1377C42.8369 96.0303 43.0312 95.9766 43.2363 95.9766C43.5605 95.9766 43.7832 96.082 43.9043 96.293C43.9902 96.4414 44.0391 96.6914 44.0508 97.043L44.0742 97.6025L44.1328 98.2119C44.1602 98.4404 44.1934 98.6416 44.2324 98.8154C44.2402 98.8486 44.2441 98.877 44.2441 98.9004C44.2441 98.9805 44.2148 99.0469 44.1562 99.0996C44.0977 99.1543 44.0273 99.1816 43.9453 99.1816ZM47.4141 99.1816C47.2754 99.1816 47.1846 99.1074 47.1416 98.959C47.0967 98.7988 47.0557 98.5713 47.0186 98.2764C46.9834 97.9932 46.9658 97.7607 46.9658 97.5791C46.9658 97.5283 46.9678 97.4512 46.9717 97.3477C46.9775 97.2441 46.9805 97.167 46.9805 97.1162C46.9805 96.749 46.8887 96.5654 46.7051 96.5654C46.457 96.5654 46.2354 96.6777 46.04 96.9023C45.9404 97.0176 45.8037 97.2373 45.6299 97.5615C45.6299 98.3057 45.5986 98.7461 45.5361 98.8828C45.4814 99.0039 45.3965 99.0645 45.2812 99.0645C45.2012 99.0645 45.1309 99.0371 45.0703 98.9824C45.0098 98.9277 44.9795 98.8613 44.9795 98.7832C44.9795 98.7559 44.9883 98.7129 45.0059 98.6543C45.0215 98.6055 45.0322 98.4629 45.0381 98.2266L45.0469 97.793L45.0557 95.6396C45.0693 95.3975 45.0762 95.2344 45.0762 95.1504C45.0762 95.0508 45.0664 94.957 45.0469 94.8691C45.0293 94.7793 45.0205 94.6865 45.0205 94.5908C45.0205 94.5088 45.0488 94.4414 45.1055 94.3887C45.1621 94.334 45.2314 94.3066 45.3135 94.3066C45.4736 94.3066 45.5674 94.3926 45.5947 94.5645C45.626 94.7539 45.6416 94.9248 45.6416 95.0771C45.6416 95.2822 45.6348 95.4961 45.6211 95.7188C45.6094 95.9316 45.6045 96.1455 45.6064 96.3604L45.6094 96.6182C45.7695 96.4033 45.9404 96.2432 46.1221 96.1377C46.3057 96.0303 46.5 95.9766 46.7051 95.9766C47.0293 95.9766 47.252 96.082 47.373 96.293C47.459 96.4414 47.5078 96.6914 47.5195 97.043L47.543 97.6025L47.6016 98.2119C47.6289 98.4404 47.6621 98.6416 47.7012 98.8154C47.709 98.8486 47.7129 98.877 47.7129 98.9004C47.7129 98.9805 47.6836 99.0469 47.625 99.0996C47.5664 99.1543 47.4961 99.1816 47.4141 99.1816ZM50.8828 99.1816C50.7441 99.1816 50.6533 99.1074 50.6104 98.959C50.5654 98.7988 50.5244 98.5713 50.4873 98.2764C50.4521 97.9932 50.4346 97.7607 50.4346 97.5791C50.4346 97.5283 50.4365 97.4512 50.4404 97.3477C50.4463 97.2441 50.4492 97.167 50.4492 97.1162C50.4492 96.749 50.3574 96.5654 50.1738 96.5654C49.9258 96.5654 49.7041 96.6777 49.5088 96.9023C49.4092 97.0176 49.2725 97.2373 49.0986 97.5615C49.0986 98.3057 49.0674 98.7461 49.0049 98.8828C48.9502 99.0039 48.8652 99.0645 48.75 99.0645C48.6699 99.0645 48.5996 99.0371 48.5391 98.9824C48.4785 98.9277 48.4482 98.8613 48.4482 98.7832C48.4482 98.7559 48.457 98.7129 48.4746 98.6543C48.4902 98.6055 48.501 98.4629 48.5068 98.2266L48.5156 97.793L48.5244 95.6396C48.5381 95.3975 48.5449 95.2344 48.5449 95.1504C48.5449 95.0508 48.5352 94.957 48.5156 94.8691C48.498 94.7793 48.4893 94.6865 48.4893 94.5908C48.4893 94.5088 48.5176 94.4414 48.5742 94.3887C48.6309 94.334 48.7002 94.3066 48.7822 94.3066C48.9424 94.3066 49.0361 94.3926 49.0635 94.5645C49.0947 94.7539 49.1104 94.9248 49.1104 95.0771C49.1104 95.2822 49.1035 95.4961 49.0898 95.7188C49.0781 95.9316 49.0732 96.1455 49.0752 96.3604L49.0781 96.6182C49.2383 96.4033 49.4092 96.2432 49.5908 96.1377C49.7744 96.0303 49.9688 95.9766 50.1738 95.9766C50.498 95.9766 50.7207 96.082 50.8418 96.293C50.9277 96.4414 50.9766 96.6914 50.9883 97.043L51.0117 97.6025L51.0703 98.2119C51.0977 98.4404 51.1309 98.6416 51.1699 98.8154C51.1777 98.8486 51.1816 98.877 51.1816 98.9004C51.1816 98.9805 51.1523 99.0469 51.0938 99.0996C51.0352 99.1543 50.9648 99.1816 50.8828 99.1816Z" fill="white"/>
<path d="M113.767 150.091C113.818 150.22 113.963 150.283 114.091 150.233L116.186 149.413C116.315 149.363 116.378 149.218 116.328 149.089C116.278 148.96 116.133 148.897 116.004 148.947L114.142 149.676L113.413 147.814C113.363 147.685 113.218 147.622 113.089 147.672C112.96 147.722 112.897 147.867 112.947 147.996L113.767 150.091ZM120.771 133.9L113.771 149.9L114.229 150.1L121.229 134.1L120.771 133.9Z" fill="white"/>
<line x1="151.776" y1="66.4472" x2="143.776" y2="62.4472" stroke="#E79721"/>
<line x1="147.108" y1="82.4881" x2="138.108" y2="84.4881" stroke="#E79721"/>
<line x1="148.911" y1="75.4919" x2="137.911" y2="73.4919" stroke="#E79721"/>
<line x1="150.05" y1="96.4975" x2="140.05" y2="97.4975" stroke="#E79721"/>
<line x1="149.95" y1="109.498" x2="139.95" y2="108.498" stroke="#E79721"/>
<line x1="152.584" y1="57.2774" x2="148.584" y2="51.2774" stroke="#E79721"/>
<path d="M28 111.5C28 115.642 24.6421 119 20.5 119C16.3579 119 13 115.642 13 111.5C13 107.358 16.3579 104 20.5 104C24.6421 104 28 107.358 28 111.5ZM14.1013 111.5C14.1013 115.034 16.9661 117.899 20.5 117.899C24.0339 117.899 26.8987 115.034 26.8987 111.5C26.8987 107.966 24.0339 105.101 20.5 105.101C16.9661 105.101 14.1013 107.966 14.1013 111.5Z" fill="#E5E5E5"/>
<rect x="53.5067" y="150.125" width="1" height="17.5" transform="rotate(90.4077 53.5067 150.125)" fill="#E5E5E5"/>
<rect x="32.9922" y="135.509" width="1" height="17.5" transform="rotate(152.407 32.9922 135.509)" fill="#E5E5E5"/>
<rect x="70.4722" y="152.395" width="1" height="17.5" transform="rotate(97.8646 70.4722 152.395)" fill="#E5E5E5"/>
<rect x="43.1595" y="149.109" width="1" height="17.5" transform="rotate(143.728 43.1595 149.109)" fill="#E5E5E5"/>
<rect x="23" y="118.349" width="1" height="35" transform="rotate(-20.4146 23 118.349)" fill="#E5E5E5"/>
</svg>
