<svg width="200" height="200" viewBox="0 0 200 200" fill="none" xmlns="http://www.w3.org/2000/svg">
<rect width="200" height="200" fill="white"/>
<rect x="51.1057" y="108" width="1" height="35" transform="rotate(18.5 51.1057 108)" fill="black"/>
<rect x="51.1057" y="75" width="1" height="35" transform="rotate(18.5 51.1057 75)" fill="black"/>
<rect x="51" y="76.5948" width="1" height="17.5" transform="rotate(-36.5 51 76.5948)" fill="black"/>
<rect x="51" y="74" width="1" height="35" fill="black"/>
<rect x="51" y="108.317" width="1" height="35" transform="rotate(-18.5 51 108.317)" fill="black"/>
<path d="M64 69.5C64 73.6421 60.6421 77 56.5 77C52.3579 77 49 73.6421 49 69.5C49 65.3579 52.3579 62 56.5 62C60.6421 62 64 65.3579 64 69.5ZM50.1013 69.5C50.1013 73.0339 52.9661 75.8987 56.5 75.8987C60.0339 75.8987 62.8987 73.0339 62.8987 69.5C62.8987 65.9661 60.0339 63.1013 56.5 63.1013C52.9661 63.1013 50.1013 65.9661 50.1013 69.5Z" fill="black"/>
<rect x="56" y="74.3173" width="1" height="17.5" transform="rotate(-18.5 56 74.3173)" fill="black"/>
<rect x="155" y="35" width="15" height="107" fill="#C4C4C4"/>
<rect x="111" y="130.667" width="44" height="5.66667" fill="#6F4200"/>
<rect x="117.875" y="125" width="25.4375" height="5.66667" fill="#646464"/>
<ellipse cx="121.312" cy="134.917" rx="6.875" ry="7.08333" fill="black"/>
<ellipse cx="142.625" cy="134.917" rx="6.875" ry="7.08333" fill="black"/>
<ellipse cx="121.312" cy="134.917" rx="4.8125" ry="4.95833" fill="#CCCCCC"/>
<ellipse cx="142.625" cy="134.917" rx="4.8125" ry="4.95833" fill="#CCCCCC"/>
<line x1="150.62" y1="127.325" x2="144.62" y2="120.325" stroke="black"/>
<line x1="152.5" y1="127" x2="152.5" y2="120" stroke="black"/>
<line x1="153.312" y1="139.39" x2="148.312" y2="143.39" stroke="black"/>
<path d="M134.234 110.713C134.109 110.713 134.016 110.64 133.953 110.493C133.898 110.368 133.848 110.292 133.801 110.265C133.76 110.243 133.658 110.232 133.496 110.232C133.213 110.232 132.898 110.449 132.553 110.883C132.084 111.465 131.85 112.017 131.85 112.538C131.85 112.79 131.931 113.007 132.093 113.188C132.259 113.376 132.459 113.47 132.693 113.47C132.895 113.47 133.097 113.418 133.3 113.314C133.413 113.256 133.587 113.141 133.821 112.969C133.933 112.887 134.017 112.846 134.073 112.846C134.157 112.846 134.228 112.878 134.284 112.942C134.341 113.005 134.369 113.075 134.369 113.153C134.369 113.241 134.332 113.318 134.258 113.385C133.742 113.842 133.221 114.07 132.693 114.07C132.289 114.07 131.947 113.915 131.668 113.604C131.398 113.304 131.264 112.948 131.264 112.538C131.264 111.876 131.541 111.197 132.096 110.502C132.559 109.922 133.025 109.632 133.496 109.632C133.592 109.632 133.678 109.637 133.754 109.646C133.83 109.654 133.897 109.668 133.956 109.688C134.024 109.588 134.113 109.538 134.223 109.538C134.357 109.538 134.442 109.627 134.478 109.805C134.509 109.963 134.524 110.157 134.524 110.388C134.524 110.468 134.503 110.538 134.46 110.599C134.407 110.675 134.332 110.713 134.234 110.713ZM135.767 111.697L135.723 113.153C135.723 113.308 135.715 113.534 135.699 113.833C135.68 114.028 135.584 114.126 135.412 114.126C135.221 114.126 135.125 114.026 135.125 113.827C135.125 113.591 135.136 113.236 135.157 112.764C135.179 112.289 135.189 111.934 135.189 111.697C135.189 111.389 135.194 111.036 135.204 110.64C135.214 110.241 135.219 109.888 135.219 109.579C135.219 109.384 135.314 109.286 135.506 109.286C135.699 109.286 135.796 109.384 135.796 109.579C135.796 109.888 135.791 110.241 135.781 110.64C135.771 111.036 135.767 111.389 135.767 111.697ZM137.768 114.173C137.439 114.173 137.157 114.052 136.921 113.81C136.657 113.54 136.519 113.178 136.505 112.723C136.493 112.281 136.604 111.893 136.839 111.557C137.112 111.16 137.493 110.962 137.981 110.962C138.372 110.962 138.668 111.141 138.869 111.498C139.029 111.787 139.106 112.135 139.101 112.541C139.095 112.975 138.981 113.345 138.761 113.651C138.511 113.999 138.18 114.173 137.768 114.173ZM137.943 111.557C137.656 111.555 137.433 111.691 137.272 111.967C137.146 112.188 137.082 112.439 137.082 112.723C137.082 113.006 137.159 113.227 137.313 113.385C137.442 113.516 137.594 113.581 137.768 113.581C137.971 113.581 138.146 113.507 138.292 113.358C138.458 113.194 138.546 112.973 138.556 112.693C138.583 111.938 138.379 111.559 137.943 111.557ZM142.074 114.208C141.906 114.208 141.812 114.116 141.79 113.933L141.708 113.291C141.681 113.062 141.667 112.849 141.667 112.649C141.667 112.595 141.67 112.502 141.676 112.371C141.684 112.24 141.688 112.147 141.688 112.093C141.688 111.671 141.609 111.46 141.453 111.46C141.234 111.46 141.025 111.59 140.826 111.85C140.646 112.086 140.506 112.385 140.404 112.746C140.4 112.822 140.392 112.918 140.378 113.033C140.366 113.131 140.36 113.226 140.36 113.317C140.36 113.376 140.366 113.464 140.378 113.581C140.39 113.698 140.396 113.786 140.396 113.845C140.396 113.933 140.368 114.004 140.313 114.059C140.261 114.113 140.192 114.141 140.108 114.141C140.022 114.141 139.953 114.113 139.9 114.059C139.848 114.004 139.821 113.933 139.821 113.845C139.821 113.786 139.814 113.698 139.801 113.581C139.789 113.464 139.783 113.376 139.783 113.317C139.783 113.116 139.797 112.838 139.824 112.482C139.854 112.125 139.868 111.846 139.868 111.645C139.868 111.582 139.864 111.489 139.856 111.366C139.851 111.243 139.848 111.15 139.848 111.088C139.848 111.004 139.875 110.936 139.93 110.883C139.986 110.828 140.056 110.801 140.138 110.801C140.317 110.801 140.416 110.928 140.434 111.182L140.442 111.524C140.771 111.087 141.107 110.868 141.453 110.868C141.766 110.868 141.983 111.006 142.106 111.281C142.19 111.465 142.236 111.736 142.244 112.096V112.392L142.241 112.664C142.241 112.826 142.262 113.036 142.303 113.294C142.346 113.55 142.367 113.758 142.367 113.918C142.367 114.004 142.339 114.073 142.282 114.126C142.228 114.181 142.158 114.208 142.074 114.208ZM145.379 112.737L145.312 113.722C145.3 114.112 145.26 114.432 145.191 114.68C145.104 114.996 144.963 115.229 144.77 115.38C144.535 115.562 144.196 115.652 143.753 115.652C143.493 115.652 143.275 115.635 143.1 115.6C142.854 115.551 142.73 115.449 142.73 115.295C142.73 115.121 142.815 115.034 142.985 115.034C143.056 115.034 143.173 115.051 143.337 115.084C143.501 115.119 143.683 115.135 143.882 115.131C144.257 115.125 144.516 114.943 144.658 114.586C144.752 114.348 144.802 113.981 144.808 113.487C144.702 113.683 144.576 113.829 144.43 113.927C144.285 114.024 144.119 114.073 143.932 114.073C143.578 114.073 143.29 113.953 143.067 113.713C142.847 113.471 142.736 113.157 142.736 112.772C142.736 112.245 142.888 111.82 143.19 111.498C143.503 111.166 143.929 111 144.468 111C144.649 111 144.802 111.023 144.925 111.07C145.048 111.117 145.142 111.188 145.206 111.281C145.415 111.287 145.52 111.403 145.52 111.63C145.52 111.769 145.499 111.954 145.458 112.187C145.413 112.456 145.387 112.64 145.379 112.737ZM144.438 111.469C144.067 111.469 143.78 111.597 143.577 111.853C143.396 112.083 143.305 112.376 143.305 112.731C143.305 113.015 143.358 113.228 143.466 113.37C143.573 113.513 143.734 113.584 143.949 113.584C144.146 113.584 144.338 113.473 144.523 113.25C144.691 113.045 144.787 112.842 144.811 112.641C144.852 112.43 144.896 112.099 144.942 111.647C144.864 111.587 144.783 111.542 144.699 111.513C144.615 111.483 144.528 111.469 144.438 111.469Z" fill="black"/>
<path d="M80.2656 59.8721C80.2363 59.9541 80.2217 60.0742 80.2217 60.2324C80.2217 60.291 80.2236 60.3779 80.2275 60.4932C80.2314 60.6084 80.2334 60.6953 80.2334 60.7539C80.2334 60.9492 80.2158 61.2402 80.1807 61.627C80.1475 62.0137 80.1309 62.3047 80.1309 62.5C80.1309 62.6484 80.1416 62.8711 80.1631 63.168C80.1846 63.4648 80.1953 63.6885 80.1953 63.8389C80.1953 63.9189 80.168 63.9863 80.1133 64.041C80.0605 64.0957 79.9941 64.123 79.9141 64.123C79.8359 64.123 79.7695 64.0957 79.7148 64.041C79.6602 63.9863 79.6328 63.9189 79.6328 63.8389C79.6328 63.6885 79.6221 63.4648 79.6006 63.168C79.5791 62.8711 79.5684 62.6484 79.5684 62.5C79.5684 62.3574 79.5732 62.2129 79.583 62.0664C79.249 62.0723 78.8359 62.1221 78.3438 62.2158L77.1133 62.4561C77.1133 62.6318 77.0957 62.8818 77.0605 63.2061C77.0254 63.5283 77.0078 63.7783 77.0078 63.9561C77.0078 64.0361 76.9805 64.1035 76.9258 64.1582C76.873 64.2148 76.8066 64.2432 76.7266 64.2432C76.6465 64.2432 76.5791 64.2148 76.5244 64.1582C76.4717 64.1035 76.4453 64.0361 76.4453 63.9561C76.4453 63.749 76.4619 63.4404 76.4951 63.0303C76.5303 62.6182 76.5479 62.3086 76.5479 62.1016C76.5479 61.9941 76.5439 61.832 76.5361 61.6152C76.5283 61.3984 76.5244 61.2354 76.5244 61.126C76.5244 60.9717 76.5342 60.7402 76.5537 60.4316C76.5732 60.1211 76.583 59.8887 76.583 59.7344C76.583 59.6523 76.6094 59.584 76.6621 59.5293C76.7168 59.4746 76.7842 59.4473 76.8643 59.4473C76.9443 59.4473 77.0107 59.4746 77.0635 59.5293C77.1182 59.584 77.1455 59.6523 77.1455 59.7344C77.1455 59.8906 77.1348 60.125 77.1133 60.4375C77.0938 60.748 77.084 60.9814 77.084 61.1377L77.1016 61.8789L78.3584 61.6416C78.8604 61.5479 79.2832 61.499 79.627 61.4951C79.6484 61.2158 79.6592 60.7949 79.6592 60.2324C79.6592 60.084 79.6836 59.9336 79.7324 59.7812C79.7969 59.5723 79.8877 59.4678 80.0049 59.4678C80.0791 59.4678 80.1455 59.4951 80.2041 59.5498C80.2627 59.6025 80.292 59.6699 80.292 59.752C80.292 59.7812 80.2832 59.8213 80.2656 59.8721ZM84.7393 64.2432C84.5791 64.2432 84.4854 64.1582 84.458 63.9883C84.4229 63.7734 84.3877 63.4707 84.3525 63.0801L84.2529 62.1719C84.2334 62.0371 84.2002 61.9053 84.1533 61.7764C84.0869 61.6006 84.0146 61.5127 83.9365 61.5127C83.8643 61.5127 83.7295 61.5742 83.5322 61.6973C83.3447 61.8105 83.2217 61.9014 83.1631 61.9697C83.1611 62.1533 83.166 62.3369 83.1777 62.5205L83.2656 63.3027C83.3027 63.6113 83.3213 63.8662 83.3213 64.0674C83.3213 64.1533 83.2939 64.2236 83.2393 64.2783C83.1865 64.335 83.1182 64.3633 83.0342 64.3633C82.9502 64.3633 82.8809 64.335 82.8262 64.2783C82.7734 64.2236 82.7471 64.1533 82.7471 64.0674C82.7471 63.8311 82.7227 63.4824 82.6738 63.0215C82.627 62.5586 82.6035 62.209 82.6035 61.9727C82.6035 61.7656 82.5742 61.6045 82.5156 61.4893C82.3789 61.5518 82.2402 61.6533 82.0996 61.7939L81.7539 62.1807C81.7227 62.2275 81.6729 62.2891 81.6045 62.3652C81.6045 62.4824 81.5938 62.6553 81.5723 62.8838C81.5508 63.1123 81.54 63.2812 81.54 63.3906C81.54 63.4492 81.5488 63.5312 81.5664 63.6367C81.5859 63.7422 81.5957 63.8184 81.5957 63.8652C81.5957 63.9453 81.5654 64.0127 81.5049 64.0674C81.4463 64.1221 81.377 64.1494 81.2969 64.1494C81.0762 64.1494 80.9658 63.8984 80.9658 63.3965C80.9658 63.2793 80.9766 63.1045 80.998 62.8721C81.0195 62.6396 81.0303 62.4648 81.0303 62.3477C81.0303 62.2441 81.0205 62.0889 81.001 61.8818C80.9834 61.6748 80.9746 61.5186 80.9746 61.4131C80.9746 60.9697 81.0742 60.748 81.2734 60.748C81.3496 60.748 81.4189 60.7812 81.4814 60.8477C81.5459 60.9141 81.5781 60.9863 81.5781 61.0645C81.5781 61.1016 81.5732 61.1592 81.5635 61.2373C81.5537 61.3154 81.5488 61.375 81.5488 61.416L81.5547 61.7236C81.6562 61.5146 81.8057 61.3262 82.0029 61.1582C82.2002 60.9883 82.3682 60.9033 82.5068 60.9033C82.8135 60.9033 83.0244 61.0557 83.1396 61.3604C83.2471 61.2178 83.375 61.1113 83.5234 61.041C83.6719 60.9688 83.8418 60.9326 84.0332 60.9326C84.3594 60.9326 84.582 61.1084 84.7012 61.46C84.7246 61.5303 84.7646 61.8047 84.8213 62.2832C84.876 62.6191 84.9463 63.1787 85.0322 63.9619C85.0381 64.04 85.0117 64.1064 84.9531 64.1611C84.8945 64.2158 84.8232 64.2432 84.7393 64.2432ZM89.4033 64.2432C89.2432 64.2432 89.1494 64.1582 89.1221 63.9883C89.0869 63.7734 89.0518 63.4707 89.0166 63.0801L88.917 62.1719C88.8975 62.0371 88.8643 61.9053 88.8174 61.7764C88.751 61.6006 88.6787 61.5127 88.6006 61.5127C88.5283 61.5127 88.3936 61.5742 88.1963 61.6973C88.0088 61.8105 87.8857 61.9014 87.8271 61.9697C87.8252 62.1533 87.8301 62.3369 87.8418 62.5205L87.9297 63.3027C87.9668 63.6113 87.9854 63.8662 87.9854 64.0674C87.9854 64.1533 87.958 64.2236 87.9033 64.2783C87.8506 64.335 87.7822 64.3633 87.6982 64.3633C87.6143 64.3633 87.5449 64.335 87.4902 64.2783C87.4375 64.2236 87.4111 64.1533 87.4111 64.0674C87.4111 63.8311 87.3867 63.4824 87.3379 63.0215C87.291 62.5586 87.2676 62.209 87.2676 61.9727C87.2676 61.7656 87.2383 61.6045 87.1797 61.4893C87.043 61.5518 86.9043 61.6533 86.7637 61.7939L86.418 62.1807C86.3867 62.2275 86.3369 62.2891 86.2686 62.3652C86.2686 62.4824 86.2578 62.6553 86.2363 62.8838C86.2148 63.1123 86.2041 63.2812 86.2041 63.3906C86.2041 63.4492 86.2129 63.5312 86.2305 63.6367C86.25 63.7422 86.2598 63.8184 86.2598 63.8652C86.2598 63.9453 86.2295 64.0127 86.1689 64.0674C86.1104 64.1221 86.041 64.1494 85.9609 64.1494C85.7402 64.1494 85.6299 63.8984 85.6299 63.3965C85.6299 63.2793 85.6406 63.1045 85.6621 62.8721C85.6836 62.6396 85.6943 62.4648 85.6943 62.3477C85.6943 62.2441 85.6846 62.0889 85.665 61.8818C85.6475 61.6748 85.6387 61.5186 85.6387 61.4131C85.6387 60.9697 85.7383 60.748 85.9375 60.748C86.0137 60.748 86.083 60.7812 86.1455 60.8477C86.21 60.9141 86.2422 60.9863 86.2422 61.0645C86.2422 61.1016 86.2373 61.1592 86.2275 61.2373C86.2178 61.3154 86.2129 61.375 86.2129 61.416L86.2188 61.7236C86.3203 61.5146 86.4697 61.3262 86.667 61.1582C86.8643 60.9883 87.0322 60.9033 87.1709 60.9033C87.4775 60.9033 87.6885 61.0557 87.8037 61.3604C87.9111 61.2178 88.0391 61.1113 88.1875 61.041C88.3359 60.9688 88.5059 60.9326 88.6973 60.9326C89.0234 60.9326 89.2461 61.1084 89.3652 61.46C89.3887 61.5303 89.4287 61.8047 89.4854 62.2832C89.54 62.6191 89.6104 63.1787 89.6963 63.9619C89.7021 64.04 89.6758 64.1064 89.6172 64.1611C89.5586 64.2158 89.4873 64.2432 89.4033 64.2432ZM90.7217 64.2725C90.6201 64.2725 90.5342 64.2373 90.4639 64.167C90.3936 64.0967 90.3584 64.0107 90.3584 63.9092C90.3584 63.8096 90.3936 63.7246 90.4639 63.6543C90.5342 63.582 90.6201 63.5459 90.7217 63.5459C90.8213 63.5459 90.9062 63.582 90.9766 63.6543C91.0488 63.7246 91.085 63.8096 91.085 63.9092C91.085 64.0107 91.0488 64.0967 90.9766 64.167C90.9062 64.2373 90.8213 64.2725 90.7217 64.2725ZM92.2158 64.2725C92.1143 64.2725 92.0283 64.2373 91.958 64.167C91.8877 64.0967 91.8525 64.0107 91.8525 63.9092C91.8525 63.8096 91.8877 63.7246 91.958 63.6543C92.0283 63.582 92.1143 63.5459 92.2158 63.5459C92.3154 63.5459 92.4004 63.582 92.4707 63.6543C92.543 63.7246 92.5791 63.8096 92.5791 63.9092C92.5791 64.0107 92.543 64.0967 92.4707 64.167C92.4004 64.2373 92.3154 64.2725 92.2158 64.2725ZM93.71 64.2725C93.6084 64.2725 93.5225 64.2373 93.4521 64.167C93.3818 64.0967 93.3467 64.0107 93.3467 63.9092C93.3467 63.8096 93.3818 63.7246 93.4521 63.6543C93.5225 63.582 93.6084 63.5459 93.71 63.5459C93.8096 63.5459 93.8945 63.582 93.9648 63.6543C94.0371 63.7246 94.0732 63.8096 94.0732 63.9092C94.0732 64.0107 94.0371 64.0967 93.9648 64.167C93.8945 64.2373 93.8096 64.2725 93.71 64.2725Z" fill="black"/>
</svg>
