<svg width="200" height="200" viewBox="0 0 200 200" fill="none" xmlns="http://www.w3.org/2000/svg">
<rect width="200" height="200" fill="#121212"/>
<rect x="68.1057" y="117" width="1" height="35" transform="rotate(18.5 68.1057 117)" fill="#E6E6E6"/>
<rect x="68.1057" y="84" width="1" height="35" transform="rotate(18.5 68.1057 84)" fill="#E6E6E6"/>
<rect x="68" y="85.5948" width="1" height="17.5" transform="rotate(-36.5 68 85.5948)" fill="#E6E6E6"/>
<rect x="68" y="83" width="1" height="35" fill="#E6E6E6"/>
<rect x="68" y="117.317" width="1" height="35" transform="rotate(-18.5 68 117.317)" fill="#E6E6E6"/>
<path d="M81 78.5C81 82.6421 77.6421 86 73.5 86C69.3579 86 66 82.6421 66 78.5C66 74.3579 69.3579 71 73.5 71C77.6421 71 81 74.3579 81 78.5ZM67.1013 78.5C67.1013 82.0339 69.9661 84.8987 73.5 84.8987C77.0339 84.8987 79.8987 82.0339 79.8987 78.5C79.8987 74.9661 77.0339 72.1013 73.5 72.1013C69.9661 72.1013 67.1013 74.9661 67.1013 78.5Z" fill="#E6E6E6"/>
<rect x="73" y="83.3173" width="1" height="17.5" transform="rotate(-18.5 73 83.3173)" fill="#E6E6E6"/>
<rect x="66" y="67" width="14" height="7" fill="#E6E6E6"/>
<ellipse cx="73" cy="74.5" rx="7" ry="2.5" fill="#E6E6E6"/>
<path d="M62.2032 68.5L73.5 62.1149L84.7968 68.5L73.5 74.8851L62.2032 68.5Z" fill="#E6E6E6" stroke="black" stroke-width="0.2"/>
<line x1="63.25" y1="69" x2="63.25" y2="76" stroke="#E6E6E6" stroke-width="0.5"/>
<line x1="63.2142" y1="78" x2="63.2142" y2="76" stroke="#E6E6E6" stroke-width="0.4"/>
<line x1="63.5556" y1="76.1414" x2="62.1414" y2="77.5556" stroke="#E6E6E6" stroke-width="0.4"/>
<line x1="64.8671" y1="77.3889" x2="63.2911" y2="76.1576" stroke="#E6E6E6" stroke-width="0.4"/>
<g filter="url(#filter0_f_134_436)">
<rect x="123" y="98" width="24" height="36" fill="#392B0F"/>
</g>
<path d="M131.881 107.852C131.792 108.24 131.614 108.55 131.346 108.783C131.074 109.018 130.755 109.135 130.389 109.135C130.042 109.135 129.783 109.044 129.609 108.861C129.436 108.678 129.35 108.403 129.35 108.037C129.35 107.704 129.432 107.362 129.596 107.012C129.76 106.661 129.971 106.378 130.229 106.16C130.41 106.008 130.604 105.932 130.811 105.932C130.937 105.932 131.109 105.977 131.326 106.068C131.584 106.176 131.713 106.292 131.713 106.414C131.713 106.484 131.686 106.548 131.633 106.604C131.579 106.658 131.514 106.686 131.436 106.686C131.396 106.686 131.31 106.649 131.176 106.576C131.043 106.502 130.921 106.465 130.811 106.465C130.693 106.465 130.535 106.591 130.336 106.844C130.046 107.211 129.9 107.609 129.9 108.037C129.9 108.255 129.932 108.402 129.996 108.48C130.064 108.562 130.195 108.604 130.389 108.604C130.588 108.604 130.763 108.547 130.914 108.434C131.074 108.314 131.193 108.139 131.27 107.91C130.967 107.934 130.704 107.995 130.48 108.096C130.44 108.114 130.4 108.123 130.359 108.123C130.279 108.123 130.212 108.093 130.158 108.033C130.11 107.98 130.086 107.919 130.086 107.852C130.086 107.652 130.322 107.513 130.793 107.434C131.059 107.389 131.368 107.367 131.723 107.367C131.801 107.367 131.866 107.393 131.918 107.443C131.971 107.494 131.998 107.557 131.998 107.631C131.998 107.726 131.959 107.799 131.881 107.852ZM133.828 107.592C133.816 107.791 133.726 107.891 133.557 107.891C133.393 107.891 133.311 107.806 133.311 107.637L133.301 107.439C133.008 107.486 132.798 107.637 132.672 107.891L132.674 108.873C132.674 108.947 132.648 109.008 132.598 109.057C132.547 109.106 132.482 109.131 132.404 109.131C132.324 109.131 132.261 109.105 132.217 109.053C132.175 109.006 132.154 108.946 132.154 108.873V107.594C132.154 107.553 132.156 107.493 132.158 107.414C132.161 107.333 132.162 107.273 132.162 107.232C132.162 107.16 132.184 107.099 132.227 107.051C132.271 107.001 132.333 106.977 132.414 106.977C132.559 106.977 132.645 107.051 132.672 107.199C132.902 107.027 133.158 106.941 133.439 106.941C133.7 106.941 133.83 107.115 133.83 107.461C133.83 107.527 133.829 107.571 133.828 107.592ZM135.799 109.129C135.739 109.129 135.644 109.064 135.514 108.934C135.394 108.991 135.288 109.034 135.197 109.062C135.106 109.092 135.029 109.107 134.965 109.107C134.651 109.107 134.415 109.023 134.258 108.855C134.102 108.688 134.023 108.436 134.023 108.102C134.023 107.788 134.139 107.52 134.371 107.297C134.603 107.073 134.88 106.961 135.203 106.961C135.327 106.961 135.47 106.996 135.633 107.066C135.829 107.151 135.928 107.249 135.928 107.361C135.928 107.408 135.913 107.449 135.883 107.484C135.87 107.536 135.859 107.602 135.852 107.682C135.845 107.76 135.842 107.852 135.842 107.957C135.842 108.206 135.859 108.385 135.895 108.494C135.898 108.506 135.928 108.574 135.984 108.697C136.035 108.809 136.061 108.873 136.061 108.889C136.061 108.958 136.034 109.015 135.98 109.061C135.928 109.106 135.868 109.129 135.799 109.129ZM135.314 107.789C135.314 107.747 135.317 107.7 135.322 107.646C135.329 107.592 135.338 107.531 135.35 107.465C135.324 107.452 135.3 107.443 135.279 107.438C135.26 107.431 135.243 107.428 135.229 107.428C135.051 107.428 134.896 107.497 134.764 107.637C134.631 107.775 134.564 107.935 134.564 108.117C134.564 108.292 134.596 108.423 134.658 108.512C134.721 108.599 134.814 108.643 134.939 108.643C135.02 108.643 135.096 108.63 135.168 108.604C135.241 108.576 135.309 108.536 135.373 108.484C135.334 108.174 135.314 107.943 135.314 107.789ZM137.766 107.037C137.783 106.593 137.803 106.286 137.826 106.117C137.848 105.964 137.933 105.887 138.08 105.887C138.157 105.887 138.219 105.911 138.266 105.961C138.312 106.01 138.336 106.071 138.336 106.143C138.336 106.331 138.321 106.613 138.291 106.986C138.262 107.36 138.248 107.641 138.248 107.83C138.248 108.291 138.263 108.6 138.293 108.756C138.297 108.777 138.299 108.796 138.299 108.812C138.299 108.884 138.273 108.943 138.221 108.99C138.169 109.036 138.108 109.059 138.039 109.059C137.943 109.059 137.871 109.016 137.824 108.93C137.736 108.983 137.644 109.023 137.549 109.049C137.454 109.076 137.355 109.09 137.254 109.09C136.962 109.09 136.72 108.997 136.527 108.811C136.331 108.62 136.232 108.378 136.232 108.084C136.232 107.734 136.331 107.451 136.529 107.236C136.727 107.02 136.986 106.912 137.305 106.912C137.402 106.912 137.49 106.923 137.566 106.943C137.643 106.964 137.71 106.995 137.766 107.037ZM137.727 107.652C137.684 107.57 137.628 107.509 137.559 107.469C137.49 107.428 137.408 107.408 137.312 107.408C137.12 107.408 136.975 107.464 136.879 107.576C136.783 107.687 136.734 107.854 136.734 108.076C136.734 108.217 136.786 108.337 136.891 108.438C136.995 108.538 137.116 108.588 137.254 108.588C137.354 108.588 137.43 108.576 137.482 108.553C137.518 108.537 137.577 108.495 137.662 108.428C137.684 108.41 137.706 108.389 137.727 108.367C137.724 108.305 137.724 108.066 137.727 107.652ZM139.672 109.09C139.361 109.09 139.106 109.016 138.908 108.867C138.689 108.703 138.58 108.472 138.58 108.174C138.58 107.844 138.667 107.566 138.84 107.338C139.033 107.085 139.292 106.959 139.619 106.959C139.846 106.959 140.034 106.995 140.184 107.068C140.38 107.165 140.479 107.314 140.479 107.518C140.479 107.661 140.398 107.788 140.238 107.898C140.165 107.949 140.019 108.023 139.799 108.121L139.141 108.412C139.203 108.48 139.279 108.531 139.367 108.564C139.456 108.598 139.557 108.615 139.672 108.615C139.846 108.615 139.994 108.579 140.115 108.508C140.223 108.444 140.31 108.412 140.375 108.412C140.51 108.412 140.578 108.478 140.578 108.609C140.578 108.758 140.469 108.879 140.252 108.973C140.07 109.051 139.876 109.09 139.672 109.09ZM139.619 107.432C139.498 107.432 139.395 107.472 139.309 107.553C139.223 107.633 139.154 107.755 139.102 107.916C139.249 107.852 139.395 107.789 139.541 107.727C139.717 107.647 139.857 107.574 139.961 107.506C139.874 107.456 139.76 107.432 139.619 107.432ZM126.594 120.514C126.592 120.459 126.611 120.415 126.648 120.381C126.688 120.346 126.735 120.328 126.791 120.328C126.855 120.328 126.911 120.365 126.959 120.438C127.025 120.536 127.085 120.604 127.137 120.639C127.247 120.712 127.408 120.748 127.619 120.748C127.821 120.748 128.008 120.704 128.182 120.617C128.403 120.505 128.514 120.35 128.514 120.15C128.514 119.986 128.421 119.857 128.234 119.762C128.077 119.68 127.882 119.635 127.65 119.629C127.445 119.621 127.27 119.576 127.125 119.494C126.94 119.389 126.848 119.238 126.848 119.041C126.848 118.809 126.979 118.598 127.242 118.406C127.493 118.225 127.753 118.135 128.021 118.135C128.148 118.135 128.29 118.156 128.449 118.199C128.66 118.255 128.766 118.327 128.766 118.414C128.766 118.529 128.707 118.586 128.59 118.586C128.538 118.586 128.447 118.572 128.316 118.545C128.186 118.516 128.085 118.503 128.014 118.504C127.811 118.507 127.638 118.557 127.496 118.654C127.35 118.755 127.277 118.876 127.277 119.02C127.277 119.128 127.374 119.204 127.566 119.248C127.638 119.265 127.777 119.281 127.982 119.295C128.281 119.317 128.514 119.411 128.682 119.576C128.835 119.727 128.912 119.911 128.912 120.129C128.912 120.439 128.769 120.686 128.482 120.871C128.234 121.031 127.945 121.111 127.617 121.111C127.379 121.111 127.161 121.066 126.963 120.975C126.721 120.863 126.598 120.709 126.594 120.514ZM130.109 121.115C129.891 121.115 129.702 121.035 129.545 120.873C129.369 120.693 129.277 120.452 129.268 120.148C129.26 119.854 129.334 119.595 129.49 119.371C129.673 119.107 129.926 118.975 130.252 118.975C130.512 118.975 130.71 119.094 130.844 119.332C130.951 119.525 131.002 119.757 130.998 120.027C130.994 120.316 130.919 120.563 130.771 120.768C130.605 120.999 130.384 121.115 130.109 121.115ZM130.227 119.371C130.035 119.37 129.886 119.461 129.779 119.645C129.695 119.792 129.652 119.96 129.652 120.148C129.652 120.337 129.704 120.484 129.807 120.59C129.893 120.677 129.993 120.721 130.109 120.721C130.245 120.721 130.361 120.671 130.459 120.572C130.57 120.463 130.628 120.315 130.635 120.129C130.653 119.625 130.517 119.372 130.227 119.371ZM133.963 121.162C133.856 121.162 133.794 121.105 133.775 120.992C133.752 120.849 133.729 120.647 133.705 120.387L133.639 119.781C133.626 119.691 133.604 119.604 133.572 119.518C133.528 119.4 133.48 119.342 133.428 119.342C133.38 119.342 133.29 119.383 133.158 119.465C133.033 119.54 132.951 119.601 132.912 119.646C132.911 119.769 132.914 119.891 132.922 120.014L132.98 120.535C133.005 120.741 133.018 120.911 133.018 121.045C133.018 121.102 132.999 121.149 132.963 121.186C132.928 121.223 132.882 121.242 132.826 121.242C132.77 121.242 132.724 121.223 132.688 121.186C132.652 121.149 132.635 121.102 132.635 121.045C132.635 120.887 132.618 120.655 132.586 120.348C132.555 120.039 132.539 119.806 132.539 119.648C132.539 119.51 132.52 119.403 132.48 119.326C132.389 119.368 132.297 119.436 132.203 119.529L131.973 119.787C131.952 119.818 131.919 119.859 131.873 119.91C131.873 119.988 131.866 120.104 131.852 120.256C131.837 120.408 131.83 120.521 131.83 120.594C131.83 120.633 131.836 120.688 131.848 120.758C131.861 120.828 131.867 120.879 131.867 120.91C131.867 120.964 131.847 121.008 131.807 121.045C131.768 121.081 131.721 121.1 131.668 121.1C131.521 121.1 131.447 120.932 131.447 120.598C131.447 120.52 131.454 120.403 131.469 120.248C131.483 120.093 131.49 119.977 131.49 119.898C131.49 119.829 131.484 119.726 131.471 119.588C131.459 119.45 131.453 119.346 131.453 119.275C131.453 118.98 131.52 118.832 131.652 118.832C131.703 118.832 131.749 118.854 131.791 118.898C131.834 118.943 131.855 118.991 131.855 119.043C131.855 119.068 131.852 119.106 131.846 119.158C131.839 119.21 131.836 119.25 131.836 119.277L131.84 119.482C131.908 119.343 132.007 119.217 132.139 119.105C132.27 118.992 132.382 118.936 132.475 118.936C132.679 118.936 132.82 119.037 132.896 119.24C132.968 119.145 133.053 119.074 133.152 119.027C133.251 118.979 133.365 118.955 133.492 118.955C133.71 118.955 133.858 119.072 133.938 119.307C133.953 119.354 133.98 119.536 134.018 119.855C134.054 120.079 134.101 120.452 134.158 120.975C134.162 121.027 134.145 121.071 134.105 121.107C134.066 121.144 134.019 121.162 133.963 121.162ZM135.504 121.09C135.21 121.09 134.971 121.016 134.789 120.869C134.59 120.706 134.49 120.479 134.49 120.186C134.49 119.847 134.572 119.563 134.736 119.334C134.915 119.084 135.153 118.959 135.451 118.959C135.667 118.959 135.844 118.995 135.98 119.068C136.148 119.158 136.232 119.296 136.232 119.482C136.232 119.613 136.159 119.731 136.012 119.838C135.947 119.885 135.809 119.958 135.598 120.057L134.852 120.41C134.924 120.518 135.015 120.6 135.123 120.654C135.232 120.709 135.359 120.736 135.504 120.736C135.594 120.736 135.699 120.719 135.82 120.686C135.974 120.643 136.073 120.587 136.117 120.518C136.161 120.447 136.209 120.412 136.26 120.412C136.305 120.412 136.346 120.43 136.381 120.465C136.417 120.499 136.436 120.538 136.436 120.584C136.436 120.729 136.319 120.853 136.086 120.957C135.887 121.046 135.693 121.09 135.504 121.09ZM135.451 119.311C135.292 119.311 135.16 119.372 135.055 119.496C134.949 119.618 134.87 119.803 134.818 120.051L135.418 119.766C135.654 119.651 135.822 119.551 135.922 119.467C135.81 119.363 135.653 119.311 135.451 119.311ZM138.418 121.121C138.326 121.121 138.265 121.072 138.236 120.973C138.206 120.866 138.179 120.714 138.154 120.518C138.131 120.329 138.119 120.174 138.119 120.053C138.119 120.019 138.12 119.967 138.123 119.898C138.127 119.829 138.129 119.778 138.129 119.744C138.129 119.499 138.068 119.377 137.945 119.377C137.78 119.377 137.632 119.452 137.502 119.602C137.436 119.678 137.344 119.825 137.229 120.041C137.229 120.537 137.208 120.831 137.166 120.922C137.13 121.003 137.073 121.043 136.996 121.043C136.943 121.043 136.896 121.025 136.855 120.988C136.815 120.952 136.795 120.908 136.795 120.855C136.795 120.837 136.801 120.809 136.812 120.77C136.823 120.737 136.83 120.642 136.834 120.484L136.84 120.195L136.846 118.76C136.855 118.598 136.859 118.49 136.859 118.434C136.859 118.367 136.853 118.305 136.84 118.246C136.828 118.186 136.822 118.124 136.822 118.061C136.822 118.006 136.841 117.961 136.879 117.926C136.917 117.889 136.963 117.871 137.018 117.871C137.124 117.871 137.187 117.928 137.205 118.043C137.226 118.169 137.236 118.283 137.236 118.385C137.236 118.521 137.232 118.664 137.223 118.812C137.215 118.954 137.212 119.097 137.213 119.24L137.215 119.412C137.322 119.269 137.436 119.162 137.557 119.092C137.679 119.02 137.809 118.984 137.945 118.984C138.161 118.984 138.31 119.055 138.391 119.195C138.448 119.294 138.48 119.461 138.488 119.695L138.504 120.068L138.543 120.475C138.561 120.627 138.583 120.761 138.609 120.877C138.615 120.899 138.617 120.918 138.617 120.934C138.617 120.987 138.598 121.031 138.559 121.066C138.52 121.103 138.473 121.121 138.418 121.121ZM139.828 121.115C139.609 121.115 139.421 121.035 139.264 120.873C139.088 120.693 138.995 120.452 138.986 120.148C138.979 119.854 139.053 119.595 139.209 119.371C139.391 119.107 139.645 118.975 139.971 118.975C140.231 118.975 140.428 119.094 140.562 119.332C140.669 119.525 140.721 119.757 140.717 120.027C140.713 120.316 140.637 120.563 140.49 120.768C140.324 120.999 140.103 121.115 139.828 121.115ZM139.945 119.371C139.754 119.37 139.605 119.461 139.498 119.645C139.413 119.792 139.371 119.96 139.371 120.148C139.371 120.337 139.423 120.484 139.525 120.59C139.611 120.677 139.712 120.721 139.828 120.721C139.964 120.721 140.08 120.671 140.178 120.572C140.288 120.463 140.347 120.315 140.354 120.129C140.372 119.625 140.236 119.372 139.945 119.371ZM143.539 119.252C143.438 119.676 143.305 120.156 143.141 120.691C143.104 120.81 143.044 120.932 142.959 121.057C142.913 121.126 142.852 121.16 142.773 121.158C142.632 121.156 142.521 120.979 142.441 120.629C142.415 120.517 142.389 120.365 142.361 120.172L142.297 119.736L142.137 120.109L141.84 120.916C141.823 120.965 141.798 121.003 141.766 121.029C141.727 121.105 141.664 121.144 141.578 121.146C141.479 121.15 141.383 120.956 141.291 120.564C141.244 120.363 141.197 120.089 141.15 119.744L141.104 119.451C141.087 119.334 141.078 119.236 141.078 119.156C141.078 119.102 141.097 119.057 141.135 119.021C141.174 118.985 141.221 118.967 141.275 118.967C141.374 118.967 141.436 119.021 141.459 119.129C141.476 119.206 141.49 119.301 141.5 119.414L141.529 119.701L141.645 120.578C141.789 120.177 141.939 119.715 142.094 119.191C142.137 119.047 142.212 118.975 142.318 118.975C142.421 118.975 142.491 119.055 142.527 119.217C142.561 119.369 142.604 119.604 142.654 119.92C142.706 120.248 142.753 120.504 142.793 120.688L142.936 120.156L143.188 119.092C143.207 119.012 143.263 118.973 143.355 118.973C143.41 118.973 143.458 118.992 143.498 119.029C143.538 119.066 143.559 119.11 143.559 119.162C143.559 119.169 143.552 119.199 143.539 119.252ZM132.898 125.818C132.818 126.218 132.648 126.538 132.389 126.777C132.131 127.016 131.826 127.135 131.475 127.135C131.154 127.135 130.914 127.046 130.754 126.867C130.594 126.688 130.514 126.419 130.514 126.061C130.514 125.723 130.593 125.376 130.752 125.02C130.912 124.661 131.117 124.372 131.367 124.152C131.534 124.005 131.71 123.932 131.896 123.932C132.015 123.932 132.171 123.971 132.365 124.049C132.602 124.143 132.721 124.246 132.721 124.359C132.721 124.413 132.701 124.46 132.662 124.502C132.623 124.544 132.576 124.564 132.521 124.564C132.493 124.564 132.452 124.548 132.4 124.516C132.201 124.395 132.033 124.334 131.896 124.334C131.799 124.334 131.697 124.385 131.59 124.486C131.536 124.537 131.46 124.63 131.359 124.764C131.059 125.162 130.908 125.594 130.908 126.061C130.908 126.305 130.946 126.477 131.021 126.574C131.104 126.681 131.255 126.734 131.475 126.734C131.708 126.734 131.91 126.661 132.082 126.514C132.263 126.357 132.389 126.134 132.461 125.844C132.1 125.862 131.791 125.932 131.533 126.053C131.503 126.067 131.474 126.074 131.445 126.074C131.388 126.074 131.34 126.052 131.303 126.008C131.268 125.967 131.25 125.921 131.25 125.867C131.25 125.796 131.285 125.738 131.354 125.695C131.635 125.523 132.12 125.438 132.809 125.438C132.865 125.438 132.911 125.456 132.949 125.494C132.987 125.532 133.006 125.579 133.006 125.637C133.006 125.721 132.97 125.782 132.898 125.818ZM134.082 127.115C133.863 127.115 133.675 127.035 133.518 126.873C133.342 126.693 133.249 126.452 133.24 126.148C133.232 125.854 133.307 125.595 133.463 125.371C133.645 125.107 133.899 124.975 134.225 124.975C134.485 124.975 134.682 125.094 134.816 125.332C134.923 125.525 134.975 125.757 134.971 126.027C134.967 126.316 134.891 126.563 134.744 126.768C134.577 126.999 134.357 127.115 134.082 127.115ZM134.199 125.371C134.008 125.37 133.859 125.461 133.752 125.645C133.667 125.792 133.625 125.96 133.625 126.148C133.625 126.337 133.676 126.484 133.779 126.59C133.865 126.677 133.966 126.721 134.082 126.721C134.217 126.721 134.334 126.671 134.432 126.572C134.542 126.463 134.601 126.315 134.607 126.129C134.626 125.625 134.49 125.372 134.199 125.371ZM136.188 127.115C135.969 127.115 135.781 127.035 135.623 126.873C135.447 126.693 135.355 126.452 135.346 126.148C135.338 125.854 135.412 125.595 135.568 125.371C135.751 125.107 136.005 124.975 136.33 124.975C136.59 124.975 136.788 125.094 136.922 125.332C137.029 125.525 137.08 125.757 137.076 126.027C137.072 126.316 136.997 126.563 136.85 126.768C136.683 126.999 136.462 127.115 136.188 127.115ZM136.305 125.371C136.113 125.37 135.964 125.461 135.857 125.645C135.773 125.792 135.73 125.96 135.73 126.148C135.73 126.337 135.782 126.484 135.885 126.59C135.971 126.677 136.072 126.721 136.188 126.721C136.323 126.721 136.439 126.671 136.537 126.572C136.648 126.463 136.706 126.315 136.713 126.129C136.731 125.625 136.595 125.372 136.305 125.371ZM139.359 125.275C139.344 125.467 139.336 125.658 139.336 125.85C139.336 126.283 139.356 126.611 139.396 126.832C139.399 126.85 139.4 126.865 139.4 126.877C139.4 126.929 139.382 126.972 139.346 127.006C139.309 127.04 139.267 127.057 139.219 127.057C139.138 127.057 139.079 126.998 139.041 126.881C138.947 126.95 138.85 127.002 138.748 127.037C138.648 127.072 138.543 127.09 138.434 127.09C138.164 127.09 137.941 127 137.764 126.82C137.581 126.637 137.49 126.401 137.49 126.113C137.49 125.766 137.582 125.487 137.766 125.277C137.951 125.068 138.19 124.963 138.484 124.963C138.635 124.963 138.752 124.986 138.834 125.033L139.018 125.168C139.036 124.62 139.057 124.251 139.082 124.061C139.099 123.945 139.158 123.887 139.26 123.887C139.378 123.887 139.438 123.95 139.438 124.076C139.438 124.257 139.411 124.657 139.359 125.275ZM138.492 125.326C138.273 125.326 138.109 125.391 138 125.521C137.891 125.65 137.836 125.845 137.836 126.105C137.836 126.273 137.895 126.418 138.014 126.539C138.133 126.66 138.273 126.721 138.434 126.721C138.543 126.721 138.635 126.701 138.711 126.66C138.755 126.637 138.827 126.583 138.928 126.498C138.947 126.481 138.966 126.461 138.984 126.438L138.979 126.1L138.98 125.873L138.984 125.643C138.935 125.537 138.869 125.458 138.787 125.406C138.705 125.353 138.607 125.326 138.492 125.326Z" fill="white"/>
<path d="M86.5126 62.877C86.451 63.1462 86.6193 63.4143 86.8885 63.4759L91.2751 64.4796C91.5443 64.5412 91.8125 64.3729 91.874 64.1038C91.9356 63.8346 91.7673 63.5664 91.4982 63.5048L87.5989 62.6126L88.4911 58.7134C88.5527 58.4442 88.3844 58.1761 88.1152 58.1145C87.846 58.0529 87.5779 58.2212 87.5163 58.4904L86.5126 62.877ZM116.736 43.7362L86.7342 62.565L87.2658 63.412L117.267 44.5832L116.736 43.7362Z" fill="#E5E5E5"/>
<path d="M82.6621 41.0879C82.4824 41.0879 82.3262 40.8574 82.1934 40.3965C82.1426 40.2207 82.0791 39.9131 82.0029 39.4736C81.8037 39.501 81.543 39.5498 81.2207 39.6201L80.4414 39.7812C80.3438 40.0371 80.1768 40.4111 79.9404 40.9033C79.8779 41.0127 79.793 41.0674 79.6855 41.0674C79.6074 41.0674 79.5371 41.0391 79.4746 40.9824C79.4141 40.9258 79.3838 40.8555 79.3838 40.7715C79.3838 40.6777 79.5312 40.3213 79.8262 39.7021C79.793 39.6514 79.7764 39.5928 79.7764 39.5264C79.7764 39.3682 79.8721 39.2666 80.0635 39.2217C80.2861 38.8037 80.5674 38.3232 80.9072 37.7803C81.3701 37.04 81.6582 36.6699 81.7715 36.6699C81.9258 36.6699 82.0312 36.7773 82.0879 36.9922L82.2725 37.9766L82.709 40.0127L82.876 40.4756C82.9326 40.6338 82.9609 40.7393 82.9609 40.792C82.9609 40.876 82.9307 40.9463 82.8701 41.0029C82.8096 41.0596 82.7402 41.0879 82.6621 41.0879ZM81.6279 37.7393L80.79 39.0898C81.0264 39.0293 81.3848 38.9561 81.8652 38.8701L81.6279 37.7393ZM85.1201 41.1846C84.7197 41.1846 84.3857 41.0635 84.1182 40.8213C83.8369 40.5674 83.6963 40.2324 83.6963 39.8164C83.6963 39.4199 83.8281 39.0107 84.0918 38.5889C84.3848 38.1201 84.7148 37.8857 85.082 37.8857C85.2734 37.8857 85.4873 37.9307 85.7236 38.0205C86.0225 38.1357 86.1719 38.2764 86.1719 38.4424C86.1719 38.5166 86.1475 38.583 86.0986 38.6416C86.0498 38.6982 85.9893 38.7266 85.917 38.7266C85.8604 38.7266 85.8105 38.71 85.7676 38.6768C85.7266 38.6416 85.6865 38.6074 85.6475 38.5742C85.5322 38.4824 85.3438 38.4365 85.082 38.4365C84.8828 38.4365 84.6855 38.6143 84.4902 38.9697C84.3125 39.2959 84.2236 39.5781 84.2236 39.8164C84.2236 40.0742 84.3115 40.2773 84.4873 40.4258C84.6514 40.5645 84.8623 40.6338 85.1201 40.6338C85.2373 40.6338 85.3623 40.6025 85.4951 40.54L85.835 40.3584C85.8936 40.3271 85.9355 40.3115 85.9609 40.3115C86.0332 40.3115 86.0957 40.3408 86.1484 40.3994C86.2012 40.4561 86.2275 40.5215 86.2275 40.5957C86.2275 40.7383 86.0771 40.876 85.7764 41.0088C85.5127 41.126 85.2939 41.1846 85.1201 41.1846ZM88.8379 38.5039C88.7969 38.5039 88.748 38.502 88.6914 38.498C88.6367 38.4941 88.5889 38.4922 88.5479 38.4922C88.5029 38.4922 88.3701 38.5068 88.1494 38.5361L88.2051 40.2676L88.208 40.3965L88.2109 40.5459C88.2188 40.9736 88.1162 41.1875 87.9033 41.1875C87.8252 41.1875 87.7568 41.1621 87.6982 41.1113C87.6416 41.0605 87.6133 40.9971 87.6133 40.9209C87.6133 40.8467 87.6162 40.7354 87.6221 40.5869C87.6279 40.4385 87.6309 40.3271 87.6309 40.2529L87.5723 38.542C87.4297 38.5361 87.2129 38.5195 86.9219 38.4922C86.748 38.4688 86.6611 38.3721 86.6611 38.2021C86.6611 38.1162 86.6875 38.0449 86.7402 37.9883C86.793 37.9316 86.8604 37.9033 86.9424 37.9033L87.5576 37.9531C87.5576 37.8535 87.5527 37.7207 87.543 37.5547C87.5352 37.3867 87.5312 37.2656 87.5312 37.1914C87.5312 37.1094 87.5596 37.042 87.6162 36.9893C87.6729 36.9346 87.7422 36.9072 87.8242 36.9072C88 36.9072 88.1025 37.0508 88.1318 37.3379C88.1377 37.4102 88.1406 37.4971 88.1406 37.5986L88.1348 37.7686L88.1318 37.9502C88.374 37.9189 88.5127 37.9033 88.5479 37.9033C88.751 37.9033 88.8838 37.9131 88.9463 37.9326C89.0654 37.9717 89.125 38.0635 89.125 38.208C89.125 38.2939 89.0977 38.3652 89.043 38.4219C88.9902 38.4766 88.9219 38.5039 88.8379 38.5039ZM92.0986 39.2891C92.0986 39.4297 92.0996 39.6406 92.1016 39.9219C92.1035 40.2031 92.1045 40.4141 92.1045 40.5547C92.1045 40.5977 92.1074 40.6631 92.1133 40.751C92.1211 40.8389 92.125 40.9043 92.125 40.9473C92.125 41.0312 92.0967 41.0996 92.04 41.1523C91.9834 41.207 91.9141 41.2344 91.832 41.2344C91.6816 41.2344 91.5859 41.1416 91.5449 40.9561C91.3008 41.083 91.0195 41.1465 90.7012 41.1465C90.4453 41.1465 90.2334 41.0898 90.0654 40.9766C89.8799 40.8516 89.7695 40.6689 89.7344 40.4287C89.6582 39.9111 89.6201 39.4502 89.6201 39.0459C89.6201 38.7783 89.6494 38.4736 89.708 38.1318C89.7354 37.9619 89.8281 37.877 89.9863 37.877C90.0703 37.877 90.1406 37.9043 90.1973 37.959C90.2539 38.0117 90.2822 38.0801 90.2822 38.1641C90.2822 38.2539 90.2676 38.3975 90.2383 38.5947C90.2109 38.792 90.1973 38.9424 90.1973 39.0459C90.1973 39.3721 90.208 39.6514 90.2295 39.8838C90.251 40.1162 90.2832 40.3027 90.3262 40.4434C90.3906 40.4785 90.4541 40.5059 90.5166 40.5254C90.5791 40.543 90.6406 40.5518 90.7012 40.5518C90.9629 40.5518 91.2393 40.5098 91.5303 40.4258L91.5273 39.8311L91.5215 39.2627C91.5215 38.8408 91.54 38.4746 91.5771 38.1641C91.5986 37.9844 91.6934 37.8945 91.8613 37.8945C91.9453 37.8945 92.0156 37.9219 92.0723 37.9766C92.1289 38.0312 92.1553 38.0996 92.1514 38.1816L92.0986 39.2891ZM95.1191 41.1934C95.082 41.1934 95.0146 41.1504 94.917 41.0645C94.8291 40.9844 94.7637 40.9131 94.7207 40.8506C94.5332 40.9521 94.3682 41.0283 94.2256 41.0791C94.083 41.1318 93.9639 41.1582 93.8682 41.1582C93.4111 41.1582 93.0781 41.0293 92.8691 40.7715C92.6719 40.5293 92.5732 40.1582 92.5732 39.6582C92.5732 39.1855 92.7354 38.7812 93.0596 38.4453C93.3857 38.1094 93.7744 37.9414 94.2256 37.9414C94.3955 37.9414 94.5859 37.9854 94.7969 38.0732C95.0625 38.1826 95.1953 38.3145 95.1953 38.4688C95.1953 38.5215 95.1758 38.5684 95.1367 38.6094C95.1172 38.6836 95.1016 38.8057 95.0898 38.9756C95.0801 39.1455 95.0742 39.3633 95.0723 39.6289C95.0703 39.8711 95.0869 40.0625 95.1221 40.2031C95.1416 40.2891 95.2031 40.4609 95.3066 40.7188C95.3203 40.7539 95.3428 40.8057 95.374 40.874L95.3916 40.9238C95.3916 41.002 95.3643 41.0664 95.3096 41.1172C95.2549 41.168 95.1914 41.1934 95.1191 41.1934ZM94.5098 39.1572C94.5098 39.0732 94.5146 38.9824 94.5244 38.8848C94.5361 38.7852 94.5527 38.6797 94.5742 38.5684C94.502 38.5312 94.4395 38.5039 94.3867 38.4863C94.3359 38.4688 94.2949 38.46 94.2637 38.46C93.9609 38.46 93.6992 38.584 93.4785 38.832C93.2598 39.0781 93.1504 39.3623 93.1504 39.6846C93.1504 40.0049 93.207 40.2451 93.3203 40.4053C93.4336 40.5654 93.6035 40.6455 93.8301 40.6455C94.0176 40.6455 94.1768 40.6113 94.3076 40.543C94.3779 40.5059 94.4766 40.4316 94.6035 40.3203C94.541 39.8027 94.5098 39.415 94.5098 39.1572ZM96.6455 38.6973L96.6016 40.1533C96.6016 40.3076 96.5938 40.5342 96.5781 40.833C96.5586 41.0283 96.4629 41.126 96.291 41.126C96.0996 41.126 96.0039 41.0264 96.0039 40.8271C96.0039 40.5908 96.0146 40.2363 96.0361 39.7637C96.0576 39.2891 96.0684 38.9336 96.0684 38.6973C96.0684 38.3887 96.0732 38.0361 96.083 37.6396C96.0928 37.2412 96.0977 36.8877 96.0977 36.5791C96.0977 36.3838 96.1934 36.2861 96.3848 36.2861C96.5781 36.2861 96.6748 36.3838 96.6748 36.5791C96.6748 36.8877 96.6699 37.2412 96.6602 37.6396C96.6504 38.0361 96.6455 38.3887 96.6455 38.6973ZM98.292 38.6973L98.248 40.1533C98.248 40.3076 98.2402 40.5342 98.2246 40.833C98.2051 41.0283 98.1094 41.126 97.9375 41.126C97.7461 41.126 97.6504 41.0264 97.6504 40.8271C97.6504 40.5908 97.6611 40.2363 97.6826 39.7637C97.7041 39.2891 97.7148 38.9336 97.7148 38.6973C97.7148 38.3887 97.7197 38.0361 97.7295 37.6396C97.7393 37.2412 97.7441 36.8877 97.7441 36.5791C97.7441 36.3838 97.8398 36.2861 98.0312 36.2861C98.2246 36.2861 98.3213 36.3838 98.3213 36.5791C98.3213 36.8877 98.3164 37.2412 98.3066 37.6396C98.2969 38.0361 98.292 38.3887 98.292 38.6973ZM101.749 38.3867L100.735 40.5781C100.485 41.1113 100.294 41.5576 100.161 41.917L99.9678 42.4854C99.917 42.626 99.8291 42.6963 99.7041 42.6963C99.6221 42.6963 99.5508 42.6689 99.4902 42.6143C99.4316 42.5615 99.4023 42.4951 99.4023 42.415C99.4023 42.2197 99.6133 41.6543 100.035 40.7188L98.9863 38.7002L98.8545 38.4863C98.8018 38.3965 98.7754 38.3213 98.7754 38.2607C98.7754 38.1807 98.8057 38.1104 98.8662 38.0498C98.9287 37.9893 98.998 37.959 99.0742 37.959C99.1641 37.959 99.2334 37.9932 99.2822 38.0615C99.6143 38.5225 99.9707 39.1787 100.352 40.0303L100.785 39.0195C100.941 38.6699 101.092 38.3691 101.236 38.1172C101.299 38.0078 101.381 37.9531 101.482 37.9531C101.562 37.9531 101.633 37.9814 101.693 38.0381C101.756 38.0947 101.787 38.1621 101.787 38.2402C101.787 38.2832 101.774 38.332 101.749 38.3867ZM106.507 37.3496C106.382 37.3496 106.225 37.3369 106.035 37.3115L105.563 37.25C105.519 37.8184 105.496 38.3613 105.496 38.8789C105.496 39.0156 105.5 39.1846 105.508 39.3857C105.516 39.5869 105.52 39.7559 105.52 39.8926C105.52 40.0762 105.513 40.2432 105.499 40.3936L106.422 40.3818C106.504 40.3818 106.572 40.4111 106.627 40.4697C106.684 40.5264 106.712 40.5967 106.712 40.6807C106.712 40.7666 106.684 40.8389 106.627 40.8975C106.572 40.9541 106.504 40.9824 106.422 40.9824C106.312 40.9824 106.148 40.9854 105.93 40.9912C105.711 40.9951 105.547 40.9971 105.438 40.9971C105.309 40.9971 105.115 41.0146 104.857 41.0498C104.602 41.0869 104.408 41.1055 104.277 41.1055C104.195 41.1055 104.126 41.0762 104.069 41.0176C104.015 40.9609 103.987 40.8906 103.987 40.8066C103.987 40.7227 104.015 40.6514 104.069 40.5928C104.126 40.5342 104.195 40.5049 104.277 40.5049C104.404 40.5049 104.614 40.4844 104.907 40.4434C104.927 40.2852 104.937 40.1045 104.937 39.9014C104.937 39.7666 104.93 39.6025 104.916 39.4092C104.904 39.2139 104.898 39.0498 104.898 38.917C104.898 38.4658 104.926 37.9023 104.98 37.2266L104.6 37.2383L104.219 37.2471C104.135 37.2471 104.064 37.2188 104.008 37.1621C103.951 37.1055 103.923 37.0332 103.923 36.9453C103.923 36.7637 104.015 36.6641 104.198 36.6465C104.356 36.6309 104.652 36.623 105.086 36.623C105.475 36.623 105.962 36.665 106.548 36.749C106.722 36.7744 106.809 36.8789 106.809 37.0625C106.809 37.1543 106.775 37.2275 106.709 37.2822C106.65 37.3271 106.583 37.3496 106.507 37.3496ZM111.883 38.4131C111.859 38.7002 111.848 38.9873 111.848 39.2744C111.848 39.9248 111.878 40.416 111.938 40.748C111.942 40.7754 111.944 40.7979 111.944 40.8154C111.944 40.8936 111.917 40.958 111.862 41.0088C111.808 41.0596 111.744 41.085 111.672 41.085C111.551 41.085 111.462 40.9971 111.405 40.8213C111.265 40.9248 111.118 41.0029 110.966 41.0557C110.815 41.1084 110.658 41.1348 110.494 41.1348C110.09 41.1348 109.755 41 109.489 40.7305C109.216 40.4551 109.079 40.1016 109.079 39.6699C109.079 39.1484 109.217 38.7305 109.492 38.416C109.77 38.1016 110.129 37.9443 110.57 37.9443C110.797 37.9443 110.972 37.9795 111.095 38.0498L111.37 38.252C111.397 37.4297 111.43 36.876 111.467 36.5908C111.492 36.417 111.581 36.3301 111.733 36.3301C111.911 36.3301 112 36.4248 112 36.6143C112 36.8857 111.961 37.4854 111.883 38.4131ZM110.582 38.4893C110.254 38.4893 110.008 38.5869 109.844 38.7822C109.68 38.9756 109.598 39.2676 109.598 39.6582C109.598 39.9102 109.687 40.127 109.864 40.3086C110.044 40.4902 110.254 40.5811 110.494 40.5811C110.658 40.5811 110.797 40.5508 110.91 40.4902C110.977 40.4551 111.085 40.374 111.235 40.2471C111.265 40.2217 111.293 40.1914 111.32 40.1562L111.312 39.6494L111.314 39.3096L111.32 38.9639C111.246 38.8057 111.147 38.6875 111.024 38.6094C110.901 38.5293 110.754 38.4893 110.582 38.4893ZM113.271 37.291C113.178 37.291 113.097 37.2578 113.028 37.1914C112.96 37.125 112.926 37.0449 112.926 36.9512C112.926 36.8574 112.96 36.7773 113.028 36.7109C113.097 36.6445 113.178 36.6113 113.271 36.6113C113.365 36.6113 113.445 36.6445 113.512 36.7109C113.58 36.7773 113.614 36.8574 113.614 36.9512C113.614 37.0449 113.58 37.125 113.512 37.1914C113.445 37.2578 113.365 37.291 113.271 37.291ZM113.403 39.6699C113.403 39.7871 113.406 39.9629 113.412 40.1973C113.42 40.4297 113.424 40.6045 113.424 40.7217C113.424 40.8076 113.397 40.8779 113.345 40.9326C113.292 40.9873 113.223 41.0146 113.137 41.0146C113.053 41.0146 112.983 40.9873 112.929 40.9326C112.876 40.8779 112.85 40.8076 112.85 40.7217C112.85 40.6045 112.846 40.4297 112.838 40.1973C112.832 39.9629 112.829 39.7871 112.829 39.6699C112.829 39.4863 112.839 39.2578 112.858 38.9844C112.878 38.709 112.888 38.4795 112.888 38.2959C112.888 38.208 112.914 38.1367 112.967 38.082C113.021 38.0273 113.091 38 113.175 38C113.259 38 113.327 38.0273 113.38 38.082C113.435 38.1367 113.462 38.208 113.462 38.2959C113.462 38.4795 113.452 38.709 113.433 38.9844C113.413 39.2578 113.403 39.4863 113.403 39.6699ZM117.092 38.4131C117.068 38.7002 117.057 38.9873 117.057 39.2744C117.057 39.9248 117.087 40.416 117.147 40.748C117.151 40.7754 117.153 40.7979 117.153 40.8154C117.153 40.8936 117.126 40.958 117.071 41.0088C117.017 41.0596 116.953 41.085 116.881 41.085C116.76 41.085 116.671 40.9971 116.614 40.8213C116.474 40.9248 116.327 41.0029 116.175 41.0557C116.024 41.1084 115.867 41.1348 115.703 41.1348C115.299 41.1348 114.964 41 114.698 40.7305C114.425 40.4551 114.288 40.1016 114.288 39.6699C114.288 39.1484 114.426 38.7305 114.701 38.416C114.979 38.1016 115.338 37.9443 115.779 37.9443C116.006 37.9443 116.181 37.9795 116.304 38.0498L116.579 38.252C116.606 37.4297 116.639 36.876 116.676 36.5908C116.701 36.417 116.79 36.3301 116.942 36.3301C117.12 36.3301 117.209 36.4248 117.209 36.6143C117.209 36.8857 117.17 37.4854 117.092 38.4131ZM115.791 38.4893C115.463 38.4893 115.217 38.5869 115.053 38.7822C114.889 38.9756 114.807 39.2676 114.807 39.6582C114.807 39.9102 114.896 40.127 115.073 40.3086C115.253 40.4902 115.463 40.5811 115.703 40.5811C115.867 40.5811 116.006 40.5508 116.119 40.4902C116.186 40.4551 116.294 40.374 116.444 40.2471C116.474 40.2217 116.502 40.1914 116.529 40.1562L116.521 39.6494L116.523 39.3096L116.529 38.9639C116.455 38.8057 116.356 38.6875 116.233 38.6094C116.11 38.5293 115.963 38.4893 115.791 38.4893ZM120.168 41.208C120 41.208 119.905 41.1162 119.884 40.9326L119.802 40.291C119.774 40.0625 119.761 39.8486 119.761 39.6494C119.761 39.5947 119.764 39.502 119.77 39.3711C119.777 39.2402 119.781 39.1475 119.781 39.0928C119.781 38.6709 119.703 38.46 119.547 38.46C119.328 38.46 119.119 38.5898 118.92 38.8496C118.74 39.0859 118.6 39.3848 118.498 39.7461C118.494 39.8223 118.485 39.918 118.472 40.0332C118.46 40.1309 118.454 40.2256 118.454 40.3174C118.454 40.376 118.46 40.4639 118.472 40.5811C118.483 40.6982 118.489 40.7861 118.489 40.8447C118.489 40.9326 118.462 41.0039 118.407 41.0586C118.354 41.1133 118.286 41.1406 118.202 41.1406C118.116 41.1406 118.047 41.1133 117.994 41.0586C117.941 41.0039 117.915 40.9326 117.915 40.8447C117.915 40.7861 117.908 40.6982 117.895 40.5811C117.883 40.4639 117.877 40.376 117.877 40.3174C117.877 40.1162 117.891 39.8379 117.918 39.4824C117.947 39.125 117.962 38.8457 117.962 38.6445C117.962 38.582 117.958 38.4893 117.95 38.3662C117.944 38.2432 117.941 38.1504 117.941 38.0879C117.941 38.0039 117.969 37.9355 118.023 37.8828C118.08 37.8281 118.149 37.8008 118.231 37.8008C118.411 37.8008 118.51 37.9277 118.527 38.1816L118.536 38.5244C118.864 38.0869 119.201 37.8682 119.547 37.8682C119.859 37.8682 120.077 38.0059 120.2 38.2812C120.284 38.4648 120.33 38.7363 120.338 39.0957V39.3916L120.335 39.6641C120.335 39.8262 120.355 40.0361 120.396 40.2939C120.439 40.5498 120.461 40.7578 120.461 40.918C120.461 41.0039 120.433 41.0732 120.376 41.126C120.321 41.1807 120.252 41.208 120.168 41.208ZM121.059 37.7949C120.908 37.7949 120.83 37.7051 120.824 37.5254C120.822 37.4551 120.845 37.3145 120.892 37.1035L121.003 36.5908C121.03 36.4365 121.104 36.3594 121.226 36.3594C121.296 36.3594 121.353 36.3857 121.396 36.4385C121.44 36.4912 121.463 36.5537 121.463 36.626C121.467 36.79 121.415 37.0869 121.308 37.5166C121.261 37.7021 121.178 37.7949 121.059 37.7949ZM124.105 38.5039C124.064 38.5039 124.016 38.502 123.959 38.498C123.904 38.4941 123.856 38.4922 123.815 38.4922C123.771 38.4922 123.638 38.5068 123.417 38.5361L123.473 40.2676L123.476 40.3965L123.479 40.5459C123.486 40.9736 123.384 41.1875 123.171 41.1875C123.093 41.1875 123.024 41.1621 122.966 41.1113C122.909 41.0605 122.881 40.9971 122.881 40.9209C122.881 40.8467 122.884 40.7354 122.89 40.5869C122.896 40.4385 122.898 40.3271 122.898 40.2529L122.84 38.542C122.697 38.5361 122.48 38.5195 122.189 38.4922C122.016 38.4688 121.929 38.3721 121.929 38.2021C121.929 38.1162 121.955 38.0449 122.008 37.9883C122.061 37.9316 122.128 37.9033 122.21 37.9033L122.825 37.9531C122.825 37.8535 122.82 37.7207 122.811 37.5547C122.803 37.3867 122.799 37.2656 122.799 37.1914C122.799 37.1094 122.827 37.042 122.884 36.9893C122.94 36.9346 123.01 36.9072 123.092 36.9072C123.268 36.9072 123.37 37.0508 123.399 37.3379C123.405 37.4102 123.408 37.4971 123.408 37.5986L123.402 37.7686L123.399 37.9502C123.642 37.9189 123.78 37.9033 123.815 37.9033C124.019 37.9033 124.151 37.9131 124.214 37.9326C124.333 37.9717 124.393 38.0635 124.393 38.208C124.393 38.2939 124.365 38.3652 124.311 38.4219C124.258 38.4766 124.189 38.5039 124.105 38.5039ZM129.221 41.1816C129.082 41.1816 128.991 41.1074 128.948 40.959C128.903 40.7988 128.862 40.5713 128.825 40.2764C128.79 39.9932 128.772 39.7607 128.772 39.5791C128.772 39.5283 128.774 39.4512 128.778 39.3477C128.784 39.2441 128.787 39.167 128.787 39.1162C128.787 38.749 128.695 38.5654 128.512 38.5654C128.264 38.5654 128.042 38.6777 127.847 38.9023C127.747 39.0176 127.61 39.2373 127.437 39.5615C127.437 40.3057 127.405 40.7461 127.343 40.8828C127.288 41.0039 127.203 41.0645 127.088 41.0645C127.008 41.0645 126.938 41.0371 126.877 40.9824C126.816 40.9277 126.786 40.8613 126.786 40.7832C126.786 40.7559 126.795 40.7129 126.812 40.6543C126.828 40.6055 126.839 40.4629 126.845 40.2266L126.854 39.793L126.862 37.6396C126.876 37.3975 126.883 37.2344 126.883 37.1504C126.883 37.0508 126.873 36.957 126.854 36.8691C126.836 36.7793 126.827 36.6865 126.827 36.5908C126.827 36.5088 126.855 36.4414 126.912 36.3887C126.969 36.334 127.038 36.3066 127.12 36.3066C127.28 36.3066 127.374 36.3926 127.401 36.5645C127.433 36.7539 127.448 36.9248 127.448 37.0771C127.448 37.2822 127.441 37.4961 127.428 37.7188C127.416 37.9316 127.411 38.1455 127.413 38.3604L127.416 38.6182C127.576 38.4033 127.747 38.2432 127.929 38.1377C128.112 38.0303 128.307 37.9766 128.512 37.9766C128.836 37.9766 129.059 38.082 129.18 38.293C129.266 38.4414 129.314 38.6914 129.326 39.043L129.35 39.6025L129.408 40.2119C129.436 40.4404 129.469 40.6416 129.508 40.8154C129.516 40.8486 129.52 40.877 129.52 40.9004C129.52 40.9805 129.49 41.0469 129.432 41.0996C129.373 41.1543 129.303 41.1816 129.221 41.1816ZM132.525 41.1934C132.488 41.1934 132.421 41.1504 132.323 41.0645C132.235 40.9844 132.17 40.9131 132.127 40.8506C131.939 40.9521 131.774 41.0283 131.632 41.0791C131.489 41.1318 131.37 41.1582 131.274 41.1582C130.817 41.1582 130.484 41.0293 130.275 40.7715C130.078 40.5293 129.979 40.1582 129.979 39.6582C129.979 39.1855 130.142 38.7812 130.466 38.4453C130.792 38.1094 131.181 37.9414 131.632 37.9414C131.802 37.9414 131.992 37.9854 132.203 38.0732C132.469 38.1826 132.602 38.3145 132.602 38.4688C132.602 38.5215 132.582 38.5684 132.543 38.6094C132.523 38.6836 132.508 38.8057 132.496 38.9756C132.486 39.1455 132.48 39.3633 132.479 39.6289C132.477 39.8711 132.493 40.0625 132.528 40.2031C132.548 40.2891 132.609 40.4609 132.713 40.7188C132.727 40.7539 132.749 40.8057 132.78 40.874L132.798 40.9238C132.798 41.002 132.771 41.0664 132.716 41.1172C132.661 41.168 132.598 41.1934 132.525 41.1934ZM131.916 39.1572C131.916 39.0732 131.921 38.9824 131.931 38.8848C131.942 38.7852 131.959 38.6797 131.98 38.5684C131.908 38.5312 131.846 38.5039 131.793 38.4863C131.742 38.4688 131.701 38.46 131.67 38.46C131.367 38.46 131.105 38.584 130.885 38.832C130.666 39.0781 130.557 39.3623 130.557 39.6846C130.557 40.0049 130.613 40.2451 130.727 40.4053C130.84 40.5654 131.01 40.6455 131.236 40.6455C131.424 40.6455 131.583 40.6113 131.714 40.543C131.784 40.5059 131.883 40.4316 132.01 40.3203C131.947 39.8027 131.916 39.415 131.916 39.1572ZM134.658 40.8477C134.652 41.0273 134.563 41.1172 134.392 41.1172C134.249 41.1172 134.146 41.0332 134.081 40.8652L133.633 39.6758L133.111 38.3311C133.092 38.2803 133.082 38.2354 133.082 38.1963C133.082 38.1162 133.112 38.0479 133.173 37.9912C133.233 37.9346 133.304 37.9062 133.384 37.9062C133.501 37.9062 133.585 37.9658 133.636 38.085L134.38 40.1328C134.526 39.8203 134.711 39.3672 134.934 38.7734C134.986 38.6172 135.069 38.3965 135.183 38.1113C135.243 37.9863 135.329 37.9238 135.44 37.9238C135.521 37.9238 135.591 37.9521 135.651 38.0088C135.712 38.0654 135.742 38.1328 135.742 38.2109C135.742 38.2852 135.581 38.7031 135.259 39.4648L134.658 40.8477ZM137.594 41.1348C137.152 41.1348 136.795 41.0244 136.521 40.8037C136.223 40.5596 136.073 40.2178 136.073 39.7783C136.073 39.2705 136.196 38.8447 136.442 38.501C136.71 38.126 137.067 37.9385 137.515 37.9385C137.839 37.9385 138.104 37.9932 138.309 38.1025C138.561 38.2373 138.687 38.4443 138.687 38.7236C138.687 38.9189 138.576 39.0967 138.355 39.2568C138.258 39.3271 138.051 39.4365 137.734 39.585L136.615 40.1152C136.725 40.2773 136.86 40.3994 137.022 40.4814C137.187 40.5635 137.377 40.6045 137.594 40.6045C137.729 40.6045 137.887 40.5791 138.068 40.5283C138.299 40.4639 138.447 40.3799 138.514 40.2764C138.58 40.1709 138.651 40.1182 138.728 40.1182C138.796 40.1182 138.856 40.1445 138.909 40.1973C138.964 40.248 138.991 40.3076 138.991 40.376C138.991 40.5928 138.816 40.7793 138.467 40.9355C138.168 41.0684 137.877 41.1348 137.594 41.1348ZM137.515 38.4658C137.276 38.4658 137.078 38.5586 136.92 38.7441C136.762 38.9277 136.644 39.2051 136.565 39.5762L137.465 39.1484C137.818 38.9766 138.07 38.8271 138.221 38.7002C138.053 38.5439 137.817 38.4658 137.515 38.4658ZM143.283 38.7441C143.176 38.7441 143.101 38.708 143.058 38.6357C143.028 38.585 143.003 38.4795 142.981 38.3193C142.835 38.3564 142.609 38.4248 142.305 38.5244C141.99 38.6494 141.832 38.8037 141.83 38.9873C141.889 39.0088 141.946 39.0244 142.003 39.0342C142.452 39.1143 142.786 39.2246 143.005 39.3652C143.323 39.5703 143.482 39.8672 143.482 40.2559C143.482 40.5742 143.345 40.8145 143.069 40.9766C142.841 41.1094 142.552 41.1758 142.202 41.1758C141.946 41.1758 141.702 41.1328 141.47 41.0469C141.169 40.9375 141.019 40.7852 141.019 40.5898C141.019 40.5117 141.049 40.4434 141.109 40.3848C141.172 40.3262 141.242 40.2969 141.32 40.2969C141.381 40.2969 141.459 40.3438 141.555 40.4375C141.602 40.4824 141.707 40.5195 141.871 40.5488C142.002 40.5723 142.112 40.584 142.202 40.584C142.366 40.584 142.511 40.5645 142.636 40.5254C142.817 40.4688 142.908 40.3789 142.908 40.2559C142.908 39.9902 142.723 39.8105 142.352 39.7168L142.047 39.6494C141.787 39.5928 141.603 39.5264 141.493 39.4502C141.335 39.3408 141.256 39.1758 141.256 38.9551C141.256 38.5469 141.448 38.2559 141.833 38.082C141.95 38.0293 142.138 37.9668 142.396 37.8945C142.653 37.8203 142.838 37.7578 142.949 37.707C143.029 37.6719 143.116 37.6543 143.21 37.6543C143.294 37.6543 143.362 37.6816 143.415 37.7363C143.47 37.791 143.497 37.8623 143.497 37.9502C143.497 38.0068 143.509 38.0898 143.532 38.1992C143.558 38.3086 143.57 38.3916 143.57 38.4482C143.57 38.5361 143.543 38.6074 143.488 38.6621C143.436 38.7168 143.367 38.7441 143.283 38.7441ZM146.62 39.2891C146.62 39.4297 146.621 39.6406 146.623 39.9219C146.625 40.2031 146.626 40.4141 146.626 40.5547C146.626 40.5977 146.629 40.6631 146.635 40.751C146.643 40.8389 146.646 40.9043 146.646 40.9473C146.646 41.0312 146.618 41.0996 146.562 41.1523C146.505 41.207 146.436 41.2344 146.354 41.2344C146.203 41.2344 146.107 41.1416 146.066 40.9561C145.822 41.083 145.541 41.1465 145.223 41.1465C144.967 41.1465 144.755 41.0898 144.587 40.9766C144.401 40.8516 144.291 40.6689 144.256 40.4287C144.18 39.9111 144.142 39.4502 144.142 39.0459C144.142 38.7783 144.171 38.4736 144.229 38.1318C144.257 37.9619 144.35 37.877 144.508 37.877C144.592 37.877 144.662 37.9043 144.719 37.959C144.775 38.0117 144.804 38.0801 144.804 38.1641C144.804 38.2539 144.789 38.3975 144.76 38.5947C144.732 38.792 144.719 38.9424 144.719 39.0459C144.719 39.3721 144.729 39.6514 144.751 39.8838C144.772 40.1162 144.805 40.3027 144.848 40.4434C144.912 40.4785 144.976 40.5059 145.038 40.5254C145.101 40.543 145.162 40.5518 145.223 40.5518C145.484 40.5518 145.761 40.5098 146.052 40.4258L146.049 39.8311L146.043 39.2627C146.043 38.8408 146.062 38.4746 146.099 38.1641C146.12 37.9844 146.215 37.8945 146.383 37.8945C146.467 37.8945 146.537 37.9219 146.594 37.9766C146.65 38.0312 146.677 38.0996 146.673 38.1816L146.62 39.2891ZM148.677 41.1846C148.276 41.1846 147.942 41.0635 147.675 40.8213C147.394 40.5674 147.253 40.2324 147.253 39.8164C147.253 39.4199 147.385 39.0107 147.648 38.5889C147.941 38.1201 148.271 37.8857 148.639 37.8857C148.83 37.8857 149.044 37.9307 149.28 38.0205C149.579 38.1357 149.729 38.2764 149.729 38.4424C149.729 38.5166 149.704 38.583 149.655 38.6416C149.606 38.6982 149.546 38.7266 149.474 38.7266C149.417 38.7266 149.367 38.71 149.324 38.6768C149.283 38.6416 149.243 38.6074 149.204 38.5742C149.089 38.4824 148.9 38.4365 148.639 38.4365C148.439 38.4365 148.242 38.6143 148.047 38.9697C147.869 39.2959 147.78 39.5781 147.78 39.8164C147.78 40.0742 147.868 40.2773 148.044 40.4258C148.208 40.5645 148.419 40.6338 148.677 40.6338C148.794 40.6338 148.919 40.6025 149.052 40.54L149.392 40.3584C149.45 40.3271 149.492 40.3115 149.518 40.3115C149.59 40.3115 149.652 40.3408 149.705 40.3994C149.758 40.4561 149.784 40.5215 149.784 40.5957C149.784 40.7383 149.634 40.876 149.333 41.0088C149.069 41.126 148.851 41.1846 148.677 41.1846ZM152.887 41.1816C152.748 41.1816 152.657 41.1074 152.614 40.959C152.569 40.7988 152.528 40.5713 152.491 40.2764C152.456 39.9932 152.438 39.7607 152.438 39.5791C152.438 39.5283 152.44 39.4512 152.444 39.3477C152.45 39.2441 152.453 39.167 152.453 39.1162C152.453 38.749 152.361 38.5654 152.178 38.5654C151.93 38.5654 151.708 38.6777 151.513 38.9023C151.413 39.0176 151.276 39.2373 151.103 39.5615C151.103 40.3057 151.071 40.7461 151.009 40.8828C150.954 41.0039 150.869 41.0645 150.754 41.0645C150.674 41.0645 150.604 41.0371 150.543 40.9824C150.482 40.9277 150.452 40.8613 150.452 40.7832C150.452 40.7559 150.461 40.7129 150.479 40.6543C150.494 40.6055 150.505 40.4629 150.511 40.2266L150.52 39.793L150.528 37.6396C150.542 37.3975 150.549 37.2344 150.549 37.1504C150.549 37.0508 150.539 36.957 150.52 36.8691C150.502 36.7793 150.493 36.6865 150.493 36.5908C150.493 36.5088 150.521 36.4414 150.578 36.3887C150.635 36.334 150.704 36.3066 150.786 36.3066C150.946 36.3066 151.04 36.3926 151.067 36.5645C151.099 36.7539 151.114 36.9248 151.114 37.0771C151.114 37.2822 151.107 37.4961 151.094 37.7188C151.082 37.9316 151.077 38.1455 151.079 38.3604L151.082 38.6182C151.242 38.4033 151.413 38.2432 151.595 38.1377C151.778 38.0303 151.973 37.9766 152.178 37.9766C152.502 37.9766 152.725 38.082 152.846 38.293C152.932 38.4414 152.98 38.6914 152.992 39.043L153.016 39.6025L153.074 40.2119C153.102 40.4404 153.135 40.6416 153.174 40.8154C153.182 40.8486 153.186 40.877 153.186 40.9004C153.186 40.9805 153.156 41.0469 153.098 41.0996C153.039 41.1543 152.969 41.1816 152.887 41.1816ZM157.984 41.1934C157.947 41.1934 157.88 41.1504 157.782 41.0645C157.694 40.9844 157.629 40.9131 157.586 40.8506C157.398 40.9521 157.233 41.0283 157.091 41.0791C156.948 41.1318 156.829 41.1582 156.733 41.1582C156.276 41.1582 155.943 41.0293 155.734 40.7715C155.537 40.5293 155.438 40.1582 155.438 39.6582C155.438 39.1855 155.601 38.7812 155.925 38.4453C156.251 38.1094 156.64 37.9414 157.091 37.9414C157.261 37.9414 157.451 37.9854 157.662 38.0732C157.928 38.1826 158.061 38.3145 158.061 38.4688C158.061 38.5215 158.041 38.5684 158.002 38.6094C157.982 38.6836 157.967 38.8057 157.955 38.9756C157.945 39.1455 157.939 39.3633 157.938 39.6289C157.936 39.8711 157.952 40.0625 157.987 40.2031C158.007 40.2891 158.068 40.4609 158.172 40.7188C158.186 40.7539 158.208 40.8057 158.239 40.874L158.257 40.9238C158.257 41.002 158.229 41.0664 158.175 41.1172C158.12 41.168 158.057 41.1934 157.984 41.1934ZM157.375 39.1572C157.375 39.0732 157.38 38.9824 157.39 38.8848C157.401 38.7852 157.418 38.6797 157.439 38.5684C157.367 38.5312 157.305 38.5039 157.252 38.4863C157.201 38.4688 157.16 38.46 157.129 38.46C156.826 38.46 156.564 38.584 156.344 38.832C156.125 39.0781 156.016 39.3623 156.016 39.6846C156.016 40.0049 156.072 40.2451 156.186 40.4053C156.299 40.5654 156.469 40.6455 156.695 40.6455C156.883 40.6455 157.042 40.6113 157.173 40.543C157.243 40.5059 157.342 40.4316 157.469 40.3203C157.406 39.8027 157.375 39.415 157.375 39.1572ZM161.884 41.1846C161.483 41.1846 161.149 41.0635 160.882 40.8213C160.601 40.5674 160.46 40.2324 160.46 39.8164C160.46 39.4199 160.592 39.0107 160.855 38.5889C161.148 38.1201 161.479 37.8857 161.846 37.8857C162.037 37.8857 162.251 37.9307 162.487 38.0205C162.786 38.1357 162.936 38.2764 162.936 38.4424C162.936 38.5166 162.911 38.583 162.862 38.6416C162.813 38.6982 162.753 38.7266 162.681 38.7266C162.624 38.7266 162.574 38.71 162.531 38.6768C162.49 38.6416 162.45 38.6074 162.411 38.5742C162.296 38.4824 162.107 38.4365 161.846 38.4365C161.646 38.4365 161.449 38.6143 161.254 38.9697C161.076 39.2959 160.987 39.5781 160.987 39.8164C160.987 40.0742 161.075 40.2773 161.251 40.4258C161.415 40.5645 161.626 40.6338 161.884 40.6338C162.001 40.6338 162.126 40.6025 162.259 40.54L162.599 40.3584C162.657 40.3271 162.699 40.3115 162.725 40.3115C162.797 40.3115 162.859 40.3408 162.912 40.3994C162.965 40.4561 162.991 40.5215 162.991 40.5957C162.991 40.7383 162.841 40.876 162.54 41.0088C162.276 41.126 162.058 41.1846 161.884 41.1846ZM164.74 41.1729C164.412 41.1729 164.13 41.0518 163.894 40.8096C163.63 40.54 163.491 40.1777 163.478 39.7227C163.466 39.2812 163.577 38.8926 163.812 38.5566C164.085 38.1602 164.466 37.9619 164.954 37.9619C165.345 37.9619 165.641 38.1406 165.842 38.498C166.002 38.7871 166.079 39.1348 166.073 39.541C166.067 39.9746 165.954 40.3447 165.733 40.6514C165.483 40.999 165.152 41.1729 164.74 41.1729ZM164.916 38.5566C164.629 38.5547 164.405 38.6914 164.245 38.9668C164.118 39.1875 164.055 39.4395 164.055 39.7227C164.055 40.0059 164.132 40.2266 164.286 40.3848C164.415 40.5156 164.566 40.5811 164.74 40.5811C164.943 40.5811 165.118 40.5068 165.265 40.3584C165.431 40.1943 165.519 39.9727 165.528 39.6934C165.556 38.9375 165.352 38.5586 164.916 38.5566ZM167.898 41.1729C167.57 41.1729 167.288 41.0518 167.052 40.8096C166.788 40.54 166.649 40.1777 166.636 39.7227C166.624 39.2812 166.735 38.8926 166.97 38.5566C167.243 38.1602 167.624 37.9619 168.112 37.9619C168.503 37.9619 168.799 38.1406 169 38.498C169.16 38.7871 169.237 39.1348 169.231 39.541C169.226 39.9746 169.112 40.3447 168.892 40.6514C168.642 40.999 168.311 41.1729 167.898 41.1729ZM168.074 38.5566C167.787 38.5547 167.563 38.6914 167.403 38.9668C167.276 39.1875 167.213 39.4395 167.213 39.7227C167.213 40.0059 167.29 40.2266 167.444 40.3848C167.573 40.5156 167.725 40.5811 167.898 40.5811C168.102 40.5811 168.276 40.5068 168.423 40.3584C168.589 40.1943 168.677 39.9727 168.687 39.6934C168.714 38.9375 168.51 38.5586 168.074 38.5566ZM170.702 38.6973L170.658 40.1533C170.658 40.3076 170.65 40.5342 170.635 40.833C170.615 41.0283 170.52 41.126 170.348 41.126C170.156 41.126 170.061 41.0264 170.061 40.8271C170.061 40.5908 170.071 40.2363 170.093 39.7637C170.114 39.2891 170.125 38.9336 170.125 38.6973C170.125 38.3887 170.13 38.0361 170.14 37.6396C170.149 37.2412 170.154 36.8877 170.154 36.5791C170.154 36.3838 170.25 36.2861 170.441 36.2861C170.635 36.2861 170.731 36.3838 170.731 36.5791C170.731 36.8877 170.727 37.2412 170.717 37.6396C170.707 38.0361 170.702 38.3887 170.702 38.6973ZM175.85 41.1816C175.711 41.1816 175.62 41.1074 175.577 40.959C175.532 40.7988 175.491 40.5713 175.454 40.2764C175.419 39.9932 175.401 39.7607 175.401 39.5791C175.401 39.5283 175.403 39.4512 175.407 39.3477C175.413 39.2441 175.416 39.167 175.416 39.1162C175.416 38.749 175.324 38.5654 175.141 38.5654C174.893 38.5654 174.671 38.6777 174.476 38.9023C174.376 39.0176 174.239 39.2373 174.065 39.5615C174.065 40.3057 174.034 40.7461 173.972 40.8828C173.917 41.0039 173.832 41.0645 173.717 41.0645C173.637 41.0645 173.566 41.0371 173.506 40.9824C173.445 40.9277 173.415 40.8613 173.415 40.7832C173.415 40.7559 173.424 40.7129 173.441 40.6543C173.457 40.6055 173.468 40.4629 173.474 40.2266L173.482 39.793L173.491 37.6396C173.505 37.3975 173.512 37.2344 173.512 37.1504C173.512 37.0508 173.502 36.957 173.482 36.8691C173.465 36.7793 173.456 36.6865 173.456 36.5908C173.456 36.5088 173.484 36.4414 173.541 36.3887C173.598 36.334 173.667 36.3066 173.749 36.3066C173.909 36.3066 174.003 36.3926 174.03 36.5645C174.062 36.7539 174.077 36.9248 174.077 37.0771C174.077 37.2822 174.07 37.4961 174.057 37.7188C174.045 37.9316 174.04 38.1455 174.042 38.3604L174.045 38.6182C174.205 38.4033 174.376 38.2432 174.558 38.1377C174.741 38.0303 174.936 37.9766 175.141 37.9766C175.465 37.9766 175.688 38.082 175.809 38.293C175.895 38.4414 175.943 38.6914 175.955 39.043L175.979 39.6025L176.037 40.2119C176.064 40.4404 176.098 40.6416 176.137 40.8154C176.145 40.8486 176.148 40.877 176.148 40.9004C176.148 40.9805 176.119 41.0469 176.061 41.0996C176.002 41.1543 175.932 41.1816 175.85 41.1816ZM179.154 41.1934C179.117 41.1934 179.05 41.1504 178.952 41.0645C178.864 40.9844 178.799 40.9131 178.756 40.8506C178.568 40.9521 178.403 41.0283 178.261 41.0791C178.118 41.1318 177.999 41.1582 177.903 41.1582C177.446 41.1582 177.113 41.0293 176.904 40.7715C176.707 40.5293 176.608 40.1582 176.608 39.6582C176.608 39.1855 176.771 38.7812 177.095 38.4453C177.421 38.1094 177.81 37.9414 178.261 37.9414C178.431 37.9414 178.621 37.9854 178.832 38.0732C179.098 38.1826 179.23 38.3145 179.23 38.4688C179.23 38.5215 179.211 38.5684 179.172 38.6094C179.152 38.6836 179.137 38.8057 179.125 38.9756C179.115 39.1455 179.109 39.3633 179.107 39.6289C179.105 39.8711 179.122 40.0625 179.157 40.2031C179.177 40.2891 179.238 40.4609 179.342 40.7188C179.355 40.7539 179.378 40.8057 179.409 40.874L179.427 40.9238C179.427 41.002 179.399 41.0664 179.345 41.1172C179.29 41.168 179.227 41.1934 179.154 41.1934ZM178.545 39.1572C178.545 39.0732 178.55 38.9824 178.56 38.8848C178.571 38.7852 178.588 38.6797 178.609 38.5684C178.537 38.5312 178.475 38.5039 178.422 38.4863C178.371 38.4688 178.33 38.46 178.299 38.46C177.996 38.46 177.734 38.584 177.514 38.832C177.295 39.0781 177.186 39.3623 177.186 39.6846C177.186 40.0049 177.242 40.2451 177.355 40.4053C177.469 40.5654 177.639 40.6455 177.865 40.6455C178.053 40.6455 178.212 40.6113 178.343 40.543C178.413 40.5059 178.512 40.4316 178.639 40.3203C178.576 39.8027 178.545 39.415 178.545 39.1572ZM181.896 38.5039C181.855 38.5039 181.807 38.502 181.75 38.498C181.695 38.4941 181.647 38.4922 181.606 38.4922C181.562 38.4922 181.429 38.5068 181.208 38.5361L181.264 40.2676L181.267 40.3965L181.27 40.5459C181.277 40.9736 181.175 41.1875 180.962 41.1875C180.884 41.1875 180.815 41.1621 180.757 41.1113C180.7 41.0605 180.672 40.9971 180.672 40.9209C180.672 40.8467 180.675 40.7354 180.681 40.5869C180.687 40.4385 180.689 40.3271 180.689 40.2529L180.631 38.542C180.488 38.5361 180.271 38.5195 179.98 38.4922C179.807 38.4688 179.72 38.3721 179.72 38.2021C179.72 38.1162 179.746 38.0449 179.799 37.9883C179.852 37.9316 179.919 37.9033 180.001 37.9033L180.616 37.9531C180.616 37.8535 180.611 37.7207 180.602 37.5547C180.594 37.3867 180.59 37.2656 180.59 37.1914C180.59 37.1094 180.618 37.042 180.675 36.9893C180.731 36.9346 180.801 36.9072 180.883 36.9072C181.059 36.9072 181.161 37.0508 181.19 37.3379C181.196 37.4102 181.199 37.4971 181.199 37.5986L181.193 37.7686L181.19 37.9502C181.433 37.9189 181.571 37.9033 181.606 37.9033C181.81 37.9033 181.942 37.9131 182.005 37.9326C182.124 37.9717 182.184 38.0635 182.184 38.208C182.184 38.2939 182.156 38.3652 182.102 38.4219C182.049 38.4766 181.98 38.5039 181.896 38.5039Z" fill="#E5E5E5"/>
<defs>
<filter id="filter0_f_134_436" x="122.5" y="97.5" width="25" height="37" filterUnits="userSpaceOnUse" color-interpolation-filters="sRGB">
<feFlood flood-opacity="0" result="BackgroundImageFix"/>
<feBlend mode="normal" in="SourceGraphic" in2="BackgroundImageFix" result="shape"/>
<feGaussianBlur stdDeviation="0.25" result="effect1_foregroundBlur_134_436"/>
</filter>
</defs>
</svg>
