<svg width="200" height="200" viewBox="0 0 200 200" fill="none" xmlns="http://www.w3.org/2000/svg">
<rect width="200" height="200" fill="white"/>
<rect x="99.1057" y="108" width="1" height="35" transform="rotate(18.5 99.1057 108)" fill="black"/>
<rect x="99" y="74" width="1" height="35" fill="black"/>
<path d="M107 66.5C107 70.6421 103.642 74 99.5 74C95.3579 74 92 70.6421 92 66.5C92 62.3579 95.3579 59 99.5 59C103.642 59 107 62.3579 107 66.5ZM93.1013 66.5C93.1013 70.0339 95.9661 72.8987 99.5 72.8987C103.034 72.8987 105.899 70.0339 105.899 66.5C105.899 62.9661 103.034 60.1013 99.5 60.1013C95.9661 60.1013 93.1013 62.9661 93.1013 66.5Z" fill="black"/>
<rect x="99.2504" y="76.3498" width="1" height="17.5" transform="rotate(-104.5 99.2504 76.3498)" fill="black"/>
<rect x="115" y="71.6293" width="1" height="17.5" transform="rotate(-39 115 71.6293)" fill="black"/>
<rect width="1" height="17.5" transform="matrix(0.25038 -0.968148 -0.968148 -0.25038 99.5399 76.3498)" fill="black"/>
<rect width="1" height="17.5" transform="matrix(-0.777146 -0.62932 -0.62932 0.777146 83.7902 71.6293)" fill="black"/>
<rect x="99" y="109.814" width="1" height="17.5" transform="rotate(-54.5 99 109.814)" fill="black"/>
<rect x="113" y="119.292" width="1" height="17.5" transform="rotate(-17 113 119.292)" fill="black"/>
<rect x="114" y="140.286" width="12" height="1.71429" fill="#C4C4C4"/>
<path d="M116.37 138.176C117.823 137.941 122.366 137.941 123.637 138.176C124.909 138.41 124.909 140.286 124.909 140.286H115.098C115.098 140.286 114.917 138.41 116.37 138.176Z" fill="#C4C4C4"/>
<rect x="125" y="89.2857" width="12" height="1.71429" fill="#C4C4C4"/>
<path d="M127.37 87.1758C128.823 86.9414 133.366 86.9414 134.637 87.1758C135.909 87.4103 135.909 89.2857 135.909 89.2857H126.098C126.098 89.2857 125.917 87.4103 127.37 87.1758Z" fill="#C4C4C4"/>
<rect x="66" y="89.2857" width="12" height="1.71429" fill="#C4C4C4"/>
<path d="M68.37 87.1758C69.8234 86.9414 74.3655 86.9414 75.6373 87.1758C76.9091 87.4103 76.9091 89.2857 76.9091 89.2857H67.0982C67.0982 89.2857 66.9165 87.4103 68.37 87.1758Z" fill="#C4C4C4"/>
<path d="M42.3846 84.8485C42.7692 84.4242 43.0256 84 44.4359 84C45.9744 84 46.2308 84.4242 46.6154 84.8485C47 85.2727 47 88.4545 47 88.4545H42C42 88.4545 42 85.2727 42.3846 84.8485Z" fill="#FF0000"/>
<rect x="43.0526" y="88.4545" width="0.263158" height="2.54545" fill="#FF0000"/>
<rect x="45.6842" y="88.4545" width="0.263157" height="2.54545" fill="#FF0000"/>
<path d="M152.385 84.8485C152.769 84.4242 153.026 84 154.436 84C155.974 84 156.231 84.4242 156.615 84.8485C157 85.2727 157 88.4545 157 88.4545H152C152 88.4545 152 85.2727 152.385 84.8485Z" fill="#007C05"/>
<rect x="153.053" y="88.4545" width="0.263158" height="2.54545" fill="#007C05"/>
<rect x="155.684" y="88.4545" width="0.263157" height="2.54545" fill="#007C05"/>
<path d="M132.385 135.848C132.769 135.424 133.026 135 134.436 135C135.974 135 136.231 135.424 136.615 135.848C137 136.273 137 139.455 137 139.455H132C132 139.455 132 136.273 132.385 135.848Z" fill="#001CAE"/>
<rect x="133.053" y="139.455" width="0.263158" height="2.54545" fill="#001CAE"/>
<rect x="135.684" y="139.455" width="0.263157" height="2.54545" fill="#001CAE"/>
<rect x="18" y="91" width="68" height="3" fill="#C4C4C4"/>
<rect x="75" y="142" width="48" height="2" transform="rotate(-90 75 142)" fill="#C4C4C4"/>
<rect x="31" y="142" width="48" height="2" transform="rotate(-90 31 142)" fill="#C4C4C4"/>
<rect x="127" y="142" width="48" height="2" transform="rotate(-90 127 142)" fill="#C4C4C4"/>
<rect x="174" y="142" width="48" height="2" transform="rotate(-90 174 142)" fill="#C4C4C4"/>
<rect x="119" y="91" width="68" height="3" fill="#C4C4C4"/>
<line x1="151.201" y1="81.8511" x2="152.533" y2="83.647" stroke="#E79721" stroke-width="0.5"/>
<line x1="156.788" y1="83.4587" x2="157.788" y2="81.867" stroke="#E79721" stroke-width="0.5"/>
<line x1="147.069" y1="84.7598" x2="150.541" y2="85.7598" stroke="#E79721" stroke-width="0.5"/>
<line x1="158" y1="86.75" x2="161" y2="86.75" stroke="#E79721" stroke-width="0.5"/>
<line x1="154.75" y1="82" x2="154.75" y2="79" stroke="#E79721" stroke-width="0.5"/>
<line x1="131.201" y1="132.851" x2="132.533" y2="134.647" stroke="#E79721" stroke-width="0.5"/>
<line x1="136.788" y1="134.459" x2="137.788" y2="132.867" stroke="#E79721" stroke-width="0.5"/>
<line x1="127.069" y1="135.76" x2="130.541" y2="136.76" stroke="#E79721" stroke-width="0.5"/>
<line x1="138" y1="137.75" x2="141" y2="137.75" stroke="#E79721" stroke-width="0.5"/>
<line x1="134.75" y1="133" x2="134.75" y2="130" stroke="#E79721" stroke-width="0.5"/>
<line x1="41.2008" y1="81.8511" x2="42.5329" y2="83.647" stroke="#E79721" stroke-width="0.5"/>
<line x1="46.7883" y1="83.4587" x2="47.7883" y2="81.867" stroke="#E79721" stroke-width="0.5"/>
<line x1="37.0692" y1="84.7598" x2="40.5413" y2="85.7598" stroke="#E79721" stroke-width="0.5"/>
<line x1="48" y1="86.75" x2="51" y2="86.75" stroke="#E79721" stroke-width="0.5"/>
<line x1="44.75" y1="82" x2="44.75" y2="79" stroke="#E79721" stroke-width="0.5"/>
</svg>
