<svg width="200" height="200" viewBox="0 0 200 200" fill="none" xmlns="http://www.w3.org/2000/svg">
<rect width="200" height="200" fill="white"/>
<rect x="99.1057" y="108" width="1" height="35" transform="rotate(18.5 99.1057 108)" fill="black"/>
<rect x="99.1057" y="75" width="1" height="35" transform="rotate(18.5 99.1057 75)" fill="black"/>
<rect x="99" y="74" width="1" height="35" fill="black"/>
<rect x="99" y="108.317" width="1" height="35" transform="rotate(-18.5 99 108.317)" fill="black"/>
<path d="M107 66.5C107 70.6421 103.642 74 99.5 74C95.3579 74 92 70.6421 92 66.5C92 62.3579 95.3579 59 99.5 59C103.642 59 107 62.3579 107 66.5ZM93.1013 66.5C93.1013 70.0339 95.9661 72.8987 99.5 72.8987C103.034 72.8987 105.899 70.0339 105.899 66.5C105.899 62.9661 103.034 60.1013 99.5 60.1013C95.9661 60.1013 93.1013 62.9661 93.1013 66.5Z" fill="black"/>
<rect x="99" y="75.6157" width="1" height="16.9958" transform="rotate(-38 99 75.6157)" fill="black"/>
<rect x="121.588" y="76" width="1" height="17.5" transform="rotate(46 121.588 76)" fill="black"/>
<rect x="121" y="68" width="0.656716" height="12" fill="#6F4200"/>
<rect x="121.657" y="68" width="10.3433" height="6.4918" fill="#C4C4C4"/>
<rect x="121.657" y="68" width="10.3433" height="2.16393" fill="black"/>
<rect x="121.657" y="70.1639" width="10.3433" height="2.16393" fill="#FF0000"/>
<rect x="121.657" y="72.3279" width="10.3433" height="2.16393" fill="#FAFF00"/>
<path d="M143.24 39.1504C143.205 39.1504 143.168 39.1426 143.129 39.127C142.887 39.0371 142.566 38.9922 142.168 38.9922C142.039 38.9922 141.888 39.002 141.714 39.0215C141.542 39.0391 141.349 39.0674 141.134 39.1064L141.128 40.3721C141.505 40.2725 141.788 40.2227 141.978 40.2227C142.278 40.2227 142.59 40.2402 142.912 40.2754C143.096 40.2949 143.188 40.3945 143.188 40.5742C143.188 40.6621 143.159 40.7354 143.103 40.7939C143.046 40.8506 142.976 40.8789 142.892 40.8789C142.79 40.8789 142.638 40.8701 142.435 40.8525C142.231 40.835 142.079 40.8262 141.978 40.8262C141.845 40.8262 141.558 40.8828 141.116 40.9961L141.09 43.0117C141.09 43.0957 141.062 43.166 141.008 43.2227C140.953 43.2812 140.884 43.3105 140.8 43.3105C140.716 43.3105 140.646 43.2812 140.589 43.2227C140.534 43.166 140.507 43.0957 140.507 43.0117C140.507 42.627 140.514 42.0498 140.527 41.2803C140.543 40.5088 140.551 39.9307 140.551 39.5459C140.551 39.46 140.549 39.3311 140.545 39.1592C140.543 38.9854 140.542 38.8555 140.542 38.7695C140.542 38.6836 140.568 38.6113 140.621 38.5527C140.676 38.4941 140.746 38.4648 140.832 38.4648C140.896 38.4648 140.954 38.4824 141.005 38.5176C141.247 38.4746 141.465 38.4434 141.658 38.4238C141.852 38.4023 142.021 38.3916 142.168 38.3916C142.393 38.3916 142.649 38.4238 142.938 38.4883C143.331 38.5781 143.527 38.6953 143.527 38.8398C143.527 38.918 143.502 38.9873 143.451 39.0479C143.395 39.1162 143.324 39.1504 143.24 39.1504ZM146.331 40.835C146.317 41.0791 146.22 41.2012 146.038 41.2012C145.87 41.2012 145.786 41.1045 145.786 40.9111C145.786 40.874 145.783 40.8057 145.777 40.7061L145.769 40.46C145.46 40.4971 145.213 40.584 145.027 40.7207C144.854 40.8477 144.709 41.0391 144.594 41.2949L144.6 42.9004C144.6 43.0977 144.503 43.1963 144.31 43.1963C144.138 43.1963 144.052 43.0977 144.052 42.9004V40.8438C144.052 40.7793 144.054 40.6826 144.058 40.5537C144.063 40.4248 144.066 40.3281 144.066 40.2637C144.066 40.0664 144.152 39.9678 144.324 39.9678C144.516 39.9678 144.612 40.1299 144.614 40.4541C144.989 40.0928 145.405 39.9121 145.862 39.9121C146.021 39.9121 146.139 39.9717 146.217 40.0908C146.295 40.21 146.334 40.3896 146.334 40.6299C146.334 40.7314 146.333 40.7998 146.331 40.835ZM148.033 43.1729C147.705 43.1729 147.423 43.0518 147.187 42.8096C146.923 42.54 146.784 42.1777 146.771 41.7227C146.759 41.2812 146.87 40.8926 147.104 40.5566C147.378 40.1602 147.759 39.9619 148.247 39.9619C148.638 39.9619 148.934 40.1406 149.135 40.498C149.295 40.7871 149.372 41.1348 149.366 41.541C149.36 41.9746 149.247 42.3447 149.026 42.6514C148.776 42.999 148.445 43.1729 148.033 43.1729ZM148.209 40.5566C147.922 40.5547 147.698 40.6914 147.538 40.9668C147.411 41.1875 147.348 41.4395 147.348 41.7227C147.348 42.0059 147.425 42.2266 147.579 42.3848C147.708 42.5156 147.859 42.5811 148.033 42.5811C148.236 42.5811 148.411 42.5068 148.558 42.3584C148.724 42.1943 148.812 41.9727 148.821 41.6934C148.849 40.9375 148.645 40.5586 148.209 40.5566ZM153.813 43.2432C153.653 43.2432 153.56 43.1582 153.532 42.9883C153.497 42.7734 153.462 42.4707 153.427 42.0801L153.327 41.1719C153.308 41.0371 153.274 40.9053 153.228 40.7764C153.161 40.6006 153.089 40.5127 153.011 40.5127C152.938 40.5127 152.804 40.5742 152.606 40.6973C152.419 40.8105 152.296 40.9014 152.237 40.9697C152.235 41.1533 152.24 41.3369 152.252 41.5205L152.34 42.3027C152.377 42.6113 152.396 42.8662 152.396 43.0674C152.396 43.1533 152.368 43.2236 152.313 43.2783C152.261 43.335 152.192 43.3633 152.108 43.3633C152.024 43.3633 151.955 43.335 151.9 43.2783C151.848 43.2236 151.821 43.1533 151.821 43.0674C151.821 42.8311 151.797 42.4824 151.748 42.0215C151.701 41.5586 151.678 41.209 151.678 40.9727C151.678 40.7656 151.648 40.6045 151.59 40.4893C151.453 40.5518 151.314 40.6533 151.174 40.7939L150.828 41.1807C150.797 41.2275 150.747 41.2891 150.679 41.3652C150.679 41.4824 150.668 41.6553 150.646 41.8838C150.625 42.1123 150.614 42.2812 150.614 42.3906C150.614 42.4492 150.623 42.5312 150.641 42.6367C150.66 42.7422 150.67 42.8184 150.67 42.8652C150.67 42.9453 150.64 43.0127 150.579 43.0674C150.521 43.1221 150.451 43.1494 150.371 43.1494C150.15 43.1494 150.04 42.8984 150.04 42.3965C150.04 42.2793 150.051 42.1045 150.072 41.8721C150.094 41.6396 150.104 41.4648 150.104 41.3477C150.104 41.2441 150.095 41.0889 150.075 40.8818C150.058 40.6748 150.049 40.5186 150.049 40.4131C150.049 39.9697 150.148 39.748 150.348 39.748C150.424 39.748 150.493 39.7812 150.556 39.8477C150.62 39.9141 150.652 39.9863 150.652 40.0645C150.652 40.1016 150.647 40.1592 150.638 40.2373C150.628 40.3154 150.623 40.375 150.623 40.416L150.629 40.7236C150.73 40.5146 150.88 40.3262 151.077 40.1582C151.274 39.9883 151.442 39.9033 151.581 39.9033C151.888 39.9033 152.099 40.0557 152.214 40.3604C152.321 40.2178 152.449 40.1113 152.598 40.041C152.746 39.9688 152.916 39.9326 153.107 39.9326C153.434 39.9326 153.656 40.1084 153.775 40.46C153.799 40.5303 153.839 40.8047 153.896 41.2832C153.95 41.6191 154.021 42.1787 154.106 42.9619C154.112 43.04 154.086 43.1064 154.027 43.1611C153.969 43.2158 153.897 43.2432 153.813 43.2432ZM159.951 41.2275C159.83 41.8271 159.575 42.3066 159.187 42.666C158.8 43.0234 158.343 43.2021 157.815 43.2021C157.335 43.2021 156.975 43.0684 156.734 42.8008C156.494 42.5312 156.374 42.1279 156.374 41.5908C156.374 41.085 156.493 40.5645 156.731 40.0293C156.972 39.4922 157.279 39.0586 157.654 38.7285C157.904 38.5078 158.169 38.3975 158.448 38.3975C158.626 38.3975 158.86 38.4561 159.151 38.5732C159.507 38.7139 159.685 38.8691 159.685 39.0391C159.685 39.1191 159.655 39.1904 159.597 39.2529C159.538 39.3154 159.468 39.3467 159.386 39.3467C159.343 39.3467 159.282 39.3223 159.204 39.2734C158.905 39.0918 158.653 39.001 158.448 39.001C158.302 39.001 158.148 39.0771 157.988 39.2295C157.908 39.3057 157.793 39.4443 157.643 39.6455C157.191 40.2432 156.966 40.8916 156.966 41.5908C156.966 41.958 157.022 42.2148 157.136 42.3613C157.259 42.5215 157.485 42.6016 157.815 42.6016C158.165 42.6016 158.469 42.4912 158.727 42.2705C158.998 42.0361 159.188 41.7012 159.295 41.2656C158.754 41.293 158.29 41.3975 157.903 41.5791C157.858 41.6006 157.814 41.6113 157.771 41.6113C157.686 41.6113 157.614 41.5781 157.558 41.5117C157.505 41.4512 157.479 41.3809 157.479 41.3008C157.479 41.1934 157.53 41.1074 157.634 41.043C158.056 40.7852 158.783 40.6562 159.816 40.6562C159.9 40.6562 159.971 40.6846 160.027 40.7412C160.084 40.7979 160.112 40.8691 160.112 40.9551C160.112 41.082 160.059 41.1729 159.951 41.2275ZM161.996 43.1348C161.555 43.1348 161.197 43.0244 160.924 42.8037C160.625 42.5596 160.476 42.2178 160.476 41.7783C160.476 41.2705 160.599 40.8447 160.845 40.501C161.112 40.126 161.47 39.9385 161.917 39.9385C162.241 39.9385 162.506 39.9932 162.711 40.1025C162.963 40.2373 163.089 40.4443 163.089 40.7236C163.089 40.9189 162.979 41.0967 162.758 41.2568C162.66 41.3271 162.453 41.4365 162.137 41.585L161.018 42.1152C161.127 42.2773 161.263 42.3994 161.425 42.4814C161.589 42.5635 161.779 42.6045 161.996 42.6045C162.131 42.6045 162.289 42.5791 162.471 42.5283C162.701 42.4639 162.85 42.3799 162.916 42.2764C162.982 42.1709 163.054 42.1182 163.13 42.1182C163.198 42.1182 163.259 42.1445 163.312 42.1973C163.366 42.248 163.394 42.3076 163.394 42.376C163.394 42.5928 163.219 42.7793 162.869 42.9355C162.57 43.0684 162.279 43.1348 161.996 43.1348ZM161.917 40.4658C161.679 40.4658 161.48 40.5586 161.322 40.7441C161.164 40.9277 161.046 41.2051 160.968 41.5762L161.867 41.1484C162.221 40.9766 162.473 40.8271 162.623 40.7002C162.455 40.5439 162.22 40.4658 161.917 40.4658ZM166.194 40.835C166.181 41.0791 166.083 41.2012 165.901 41.2012C165.733 41.2012 165.649 41.1045 165.649 40.9111C165.649 40.874 165.646 40.8057 165.641 40.7061L165.632 40.46C165.323 40.4971 165.076 40.584 164.891 40.7207C164.717 40.8477 164.572 41.0391 164.457 41.2949L164.463 42.9004C164.463 43.0977 164.366 43.1963 164.173 43.1963C164.001 43.1963 163.915 43.0977 163.915 42.9004V40.8438C163.915 40.7793 163.917 40.6826 163.921 40.5537C163.927 40.4248 163.93 40.3281 163.93 40.2637C163.93 40.0664 164.016 39.9678 164.188 39.9678C164.379 39.9678 164.476 40.1299 164.478 40.4541C164.853 40.0928 165.269 39.9121 165.726 39.9121C165.884 39.9121 166.002 39.9717 166.08 40.0908C166.158 40.21 166.197 40.3896 166.197 40.6299C166.197 40.7314 166.196 40.7998 166.194 40.835ZM170.519 43.2432C170.358 43.2432 170.265 43.1582 170.237 42.9883C170.202 42.7734 170.167 42.4707 170.132 42.0801L170.032 41.1719C170.013 41.0371 169.979 40.9053 169.933 40.7764C169.866 40.6006 169.794 40.5127 169.716 40.5127C169.644 40.5127 169.509 40.5742 169.312 40.6973C169.124 40.8105 169.001 40.9014 168.942 40.9697C168.94 41.1533 168.945 41.3369 168.957 41.5205L169.045 42.3027C169.082 42.6113 169.101 42.8662 169.101 43.0674C169.101 43.1533 169.073 43.2236 169.019 43.2783C168.966 43.335 168.897 43.3633 168.813 43.3633C168.729 43.3633 168.66 43.335 168.605 43.2783C168.553 43.2236 168.526 43.1533 168.526 43.0674C168.526 42.8311 168.502 42.4824 168.453 42.0215C168.406 41.5586 168.383 41.209 168.383 40.9727C168.383 40.7656 168.354 40.6045 168.295 40.4893C168.158 40.5518 168.02 40.6533 167.879 40.7939L167.533 41.1807C167.502 41.2275 167.452 41.2891 167.384 41.3652C167.384 41.4824 167.373 41.6553 167.352 41.8838C167.33 42.1123 167.319 42.2812 167.319 42.3906C167.319 42.4492 167.328 42.5312 167.346 42.6367C167.365 42.7422 167.375 42.8184 167.375 42.8652C167.375 42.9453 167.345 43.0127 167.284 43.0674C167.226 43.1221 167.156 43.1494 167.076 43.1494C166.855 43.1494 166.745 42.8984 166.745 42.3965C166.745 42.2793 166.756 42.1045 166.777 41.8721C166.799 41.6396 166.81 41.4648 166.81 41.3477C166.81 41.2441 166.8 41.0889 166.78 40.8818C166.763 40.6748 166.754 40.5186 166.754 40.4131C166.754 39.9697 166.854 39.748 167.053 39.748C167.129 39.748 167.198 39.7812 167.261 39.8477C167.325 39.9141 167.357 39.9863 167.357 40.0645C167.357 40.1016 167.353 40.1592 167.343 40.2373C167.333 40.3154 167.328 40.375 167.328 40.416L167.334 40.7236C167.436 40.5146 167.585 40.3262 167.782 40.1582C167.979 39.9883 168.147 39.9033 168.286 39.9033C168.593 39.9033 168.804 40.0557 168.919 40.3604C169.026 40.2178 169.154 40.1113 169.303 40.041C169.451 39.9688 169.621 39.9326 169.812 39.9326C170.139 39.9326 170.361 40.1084 170.48 40.46C170.504 40.5303 170.544 40.8047 170.601 41.2832C170.655 41.6191 170.726 42.1787 170.812 42.9619C170.817 43.04 170.791 43.1064 170.732 43.1611C170.674 43.2158 170.603 43.2432 170.519 43.2432ZM173.75 43.1934C173.713 43.1934 173.646 43.1504 173.548 43.0645C173.46 42.9844 173.395 42.9131 173.352 42.8506C173.164 42.9521 172.999 43.0283 172.856 43.0791C172.714 43.1318 172.595 43.1582 172.499 43.1582C172.042 43.1582 171.709 43.0293 171.5 42.7715C171.303 42.5293 171.204 42.1582 171.204 41.6582C171.204 41.1855 171.366 40.7812 171.69 40.4453C172.017 40.1094 172.405 39.9414 172.856 39.9414C173.026 39.9414 173.217 39.9854 173.428 40.0732C173.693 40.1826 173.826 40.3145 173.826 40.4688C173.826 40.5215 173.807 40.5684 173.768 40.6094C173.748 40.6836 173.732 40.8057 173.721 40.9756C173.711 41.1455 173.705 41.3633 173.703 41.6289C173.701 41.8711 173.718 42.0625 173.753 42.2031C173.772 42.2891 173.834 42.4609 173.938 42.7188C173.951 42.7539 173.974 42.8057 174.005 42.874L174.022 42.9238C174.022 43.002 173.995 43.0664 173.94 43.1172C173.886 43.168 173.822 43.1934 173.75 43.1934ZM173.141 41.1572C173.141 41.0732 173.146 40.9824 173.155 40.8848C173.167 40.7852 173.184 40.6797 173.205 40.5684C173.133 40.5312 173.07 40.5039 173.018 40.4863C172.967 40.4688 172.926 40.46 172.895 40.46C172.592 40.46 172.33 40.584 172.109 40.832C171.891 41.0781 171.781 41.3623 171.781 41.6846C171.781 42.0049 171.838 42.2451 171.951 42.4053C172.064 42.5654 172.234 42.6455 172.461 42.6455C172.648 42.6455 172.808 42.6113 172.938 42.543C173.009 42.5059 173.107 42.4316 173.234 42.3203C173.172 41.8027 173.141 41.415 173.141 41.1572ZM176.779 43.208C176.611 43.208 176.517 43.1162 176.495 42.9326L176.413 42.291C176.386 42.0625 176.372 41.8486 176.372 41.6494C176.372 41.5947 176.375 41.502 176.381 41.3711C176.389 41.2402 176.393 41.1475 176.393 41.0928C176.393 40.6709 176.314 40.46 176.158 40.46C175.939 40.46 175.73 40.5898 175.531 40.8496C175.352 41.0859 175.211 41.3848 175.109 41.7461C175.105 41.8223 175.097 41.918 175.083 42.0332C175.071 42.1309 175.065 42.2256 175.065 42.3174C175.065 42.376 175.071 42.4639 175.083 42.5811C175.095 42.6982 175.101 42.7861 175.101 42.8447C175.101 42.9326 175.073 43.0039 175.019 43.0586C174.966 43.1133 174.897 43.1406 174.813 43.1406C174.728 43.1406 174.658 43.1133 174.605 43.0586C174.553 43.0039 174.526 42.9326 174.526 42.8447C174.526 42.7861 174.52 42.6982 174.506 42.5811C174.494 42.4639 174.488 42.376 174.488 42.3174C174.488 42.1162 174.502 41.8379 174.529 41.4824C174.559 41.125 174.573 40.8457 174.573 40.6445C174.573 40.582 174.569 40.4893 174.562 40.3662C174.556 40.2432 174.553 40.1504 174.553 40.0879C174.553 40.0039 174.58 39.9355 174.635 39.8828C174.691 39.8281 174.761 39.8008 174.843 39.8008C175.022 39.8008 175.121 39.9277 175.139 40.1816L175.147 40.5244C175.476 40.0869 175.812 39.8682 176.158 39.8682C176.471 39.8682 176.688 40.0059 176.812 40.2812C176.896 40.4648 176.941 40.7363 176.949 41.0957V41.3916L176.946 41.6641C176.946 41.8262 176.967 42.0361 177.008 42.2939C177.051 42.5498 177.072 42.7578 177.072 42.918C177.072 43.0039 177.044 43.0732 176.987 43.126C176.933 43.1807 176.863 43.208 176.779 43.208ZM180.228 40.3867L179.214 42.5781C178.964 43.1113 178.772 43.5576 178.64 43.917L178.446 44.4854C178.396 44.626 178.308 44.6963 178.183 44.6963C178.101 44.6963 178.029 44.6689 177.969 44.6143C177.91 44.5615 177.881 44.4951 177.881 44.415C177.881 44.2197 178.092 43.6543 178.514 42.7188L177.465 40.7002L177.333 40.4863C177.28 40.3965 177.254 40.3213 177.254 40.2607C177.254 40.1807 177.284 40.1104 177.345 40.0498C177.407 39.9893 177.477 39.959 177.553 39.959C177.643 39.959 177.712 39.9932 177.761 40.0615C178.093 40.5225 178.449 41.1787 178.83 42.0303L179.264 41.0195C179.42 40.6699 179.57 40.3691 179.715 40.1172C179.777 40.0078 179.859 39.9531 179.961 39.9531C180.041 39.9531 180.111 39.9814 180.172 40.0381C180.234 40.0947 180.266 40.1621 180.266 40.2402C180.266 40.2832 180.253 40.332 180.228 40.3867Z" fill="black"/>
<path d="M136.75 63.9929C136.746 64.1309 136.855 64.246 136.993 64.2499L139.242 64.3142C139.38 64.3181 139.495 64.2094 139.499 64.0714C139.503 63.9334 139.394 63.8183 139.256 63.8144L137.257 63.7572L137.314 61.7581C137.318 61.62 137.209 61.505 137.071 61.501C136.933 61.4971 136.818 61.6058 136.814 61.7438L136.75 63.9929ZM154.828 46.8182L136.828 63.8182L137.172 64.1818L155.172 47.1818L154.828 46.8182Z" fill="black"/>
<path d="M83.0935 64.2318C83.2216 64.1802 83.2835 64.0345 83.2318 63.9065L82.3899 61.8199C82.3382 61.6919 82.1926 61.63 82.0645 61.6816C81.9365 61.7333 81.8746 61.879 81.9262 62.007L82.6746 63.8617L80.8199 64.6101C80.6919 64.6618 80.63 64.8074 80.6816 64.9355C80.7333 65.0635 80.879 65.1254 81.007 65.0738L83.0935 64.2318ZM42.9022 47.2301L82.9022 64.2301L83.0978 63.7699L43.0978 46.7699L42.9022 47.2301Z" fill="black"/>
<path d="M83.2262 94.1065C83.285 93.9815 83.2314 93.8326 83.1064 93.7738L81.0706 92.8158C80.9457 92.757 80.7967 92.8106 80.738 92.9355C80.6792 93.0604 80.7328 93.2094 80.8577 93.2682L82.6673 94.1198L81.8158 95.9294C81.757 96.0543 81.8106 96.2033 81.9355 96.262C82.0604 96.3208 82.2094 96.2672 82.2682 96.1423L83.2262 94.1065ZM33.0847 112.235L83.0847 94.2352L82.9153 93.7648L32.9153 111.765L33.0847 112.235Z" fill="black"/>
<path d="M15.21 40.2803C15.1553 40.2803 15.0361 40.2676 14.8525 40.2422C14.8369 40.5371 14.8291 41.0537 14.8291 41.792C14.8291 41.8701 14.8037 41.9365 14.7529 41.9912C14.7021 42.0439 14.6387 42.0703 14.5625 42.0703C14.4844 42.0703 14.4199 42.0439 14.3691 41.9912C14.3184 41.9365 14.293 41.8701 14.293 41.792V40.9307C14.293 40.6436 14.3105 40.2393 14.3457 39.7178C14.3848 39.1533 14.4062 38.749 14.4102 38.5049V38.1006C14.4102 37.9072 14.4219 37.7666 14.4453 37.6787C14.4902 37.5068 14.5859 37.4326 14.7324 37.4561C14.7949 37.4365 14.8838 37.4219 14.999 37.4121C15.1143 37.4023 15.2559 37.3975 15.4238 37.3975C15.7812 37.3975 16.1162 37.5195 16.4287 37.7637C16.7725 38.0332 16.9443 38.3574 16.9443 38.7363C16.9443 39.2207 16.7607 39.6064 16.3936 39.8936C16.0654 40.1514 15.6709 40.2803 15.21 40.2803ZM15.3564 37.9541C15.2705 37.9541 15.1934 37.9561 15.125 37.96C15.0586 37.9639 15.002 37.9697 14.9551 37.9775L14.9492 38.5166L14.8877 39.6826L15.21 39.7207C15.5381 39.7207 15.8145 39.6377 16.0391 39.4717C16.2852 39.29 16.4082 39.0449 16.4082 38.7363C16.4082 38.5176 16.291 38.3291 16.0566 38.1709C15.8398 38.0264 15.6064 37.9541 15.3564 37.9541ZM18.0898 38.291C17.9961 38.291 17.915 38.2578 17.8467 38.1914C17.7783 38.125 17.7441 38.0449 17.7441 37.9512C17.7441 37.8574 17.7783 37.7773 17.8467 37.7109C17.915 37.6445 17.9961 37.6113 18.0898 37.6113C18.1836 37.6113 18.2637 37.6445 18.3301 37.7109C18.3984 37.7773 18.4326 37.8574 18.4326 37.9512C18.4326 38.0449 18.3984 38.125 18.3301 38.1914C18.2637 38.2578 18.1836 38.291 18.0898 38.291ZM18.2217 40.6699C18.2217 40.7871 18.2246 40.9629 18.2305 41.1973C18.2383 41.4297 18.2422 41.6045 18.2422 41.7217C18.2422 41.8076 18.2158 41.8779 18.1631 41.9326C18.1104 41.9873 18.041 42.0146 17.9551 42.0146C17.8711 42.0146 17.8018 41.9873 17.7471 41.9326C17.6943 41.8779 17.668 41.8076 17.668 41.7217C17.668 41.6045 17.6641 41.4297 17.6562 41.1973C17.6504 40.9629 17.6475 40.7871 17.6475 40.6699C17.6475 40.4863 17.6572 40.2578 17.6768 39.9844C17.6963 39.709 17.7061 39.4795 17.7061 39.2959C17.7061 39.208 17.7324 39.1367 17.7852 39.082C17.8398 39.0273 17.9092 39 17.9932 39C18.0771 39 18.1455 39.0273 18.1982 39.082C18.2529 39.1367 18.2803 39.208 18.2803 39.2959C18.2803 39.4795 18.2705 39.709 18.251 39.9844C18.2314 40.2578 18.2217 40.4863 18.2217 40.6699ZM20.5361 42.1846C20.1357 42.1846 19.8018 42.0635 19.5342 41.8213C19.2529 41.5674 19.1123 41.2324 19.1123 40.8164C19.1123 40.4199 19.2441 40.0107 19.5078 39.5889C19.8008 39.1201 20.1309 38.8857 20.498 38.8857C20.6895 38.8857 20.9033 38.9307 21.1396 39.0205C21.4385 39.1357 21.5879 39.2764 21.5879 39.4424C21.5879 39.5166 21.5635 39.583 21.5146 39.6416C21.4658 39.6982 21.4053 39.7266 21.333 39.7266C21.2764 39.7266 21.2266 39.71 21.1836 39.6768C21.1426 39.6416 21.1025 39.6074 21.0635 39.5742C20.9482 39.4824 20.7598 39.4365 20.498 39.4365C20.2988 39.4365 20.1016 39.6143 19.9062 39.9697C19.7285 40.2959 19.6396 40.5781 19.6396 40.8164C19.6396 41.0742 19.7275 41.2773 19.9033 41.4258C20.0674 41.5645 20.2783 41.6338 20.5361 41.6338C20.6533 41.6338 20.7783 41.6025 20.9111 41.54L21.251 41.3584C21.3096 41.3271 21.3516 41.3115 21.377 41.3115C21.4492 41.3115 21.5117 41.3408 21.5645 41.3994C21.6172 41.4561 21.6436 41.5215 21.6436 41.5957C21.6436 41.7383 21.4932 41.876 21.1924 42.0088C20.9287 42.126 20.71 42.1846 20.5361 42.1846ZM24.2539 39.5039C24.2129 39.5039 24.1641 39.502 24.1074 39.498C24.0527 39.4941 24.0049 39.4922 23.9639 39.4922C23.9189 39.4922 23.7861 39.5068 23.5654 39.5361L23.6211 41.2676L23.624 41.3965L23.627 41.5459C23.6348 41.9736 23.5322 42.1875 23.3193 42.1875C23.2412 42.1875 23.1729 42.1621 23.1143 42.1113C23.0576 42.0605 23.0293 41.9971 23.0293 41.9209C23.0293 41.8467 23.0322 41.7354 23.0381 41.5869C23.0439 41.4385 23.0469 41.3271 23.0469 41.2529L22.9883 39.542C22.8457 39.5361 22.6289 39.5195 22.3379 39.4922C22.1641 39.4688 22.0771 39.3721 22.0771 39.2021C22.0771 39.1162 22.1035 39.0449 22.1562 38.9883C22.209 38.9316 22.2764 38.9033 22.3584 38.9033L22.9736 38.9531C22.9736 38.8535 22.9688 38.7207 22.959 38.5547C22.9512 38.3867 22.9473 38.2656 22.9473 38.1914C22.9473 38.1094 22.9756 38.042 23.0322 37.9893C23.0889 37.9346 23.1582 37.9072 23.2402 37.9072C23.416 37.9072 23.5186 38.0508 23.5479 38.3379C23.5537 38.4102 23.5566 38.4971 23.5566 38.5986L23.5508 38.7686L23.5479 38.9502C23.79 38.9189 23.9287 38.9033 23.9639 38.9033C24.167 38.9033 24.2998 38.9131 24.3623 38.9326C24.4814 38.9717 24.541 39.0635 24.541 39.208C24.541 39.2939 24.5137 39.3652 24.459 39.4219C24.4062 39.4766 24.3379 39.5039 24.2539 39.5039ZM27.5146 40.2891C27.5146 40.4297 27.5156 40.6406 27.5176 40.9219C27.5195 41.2031 27.5205 41.4141 27.5205 41.5547C27.5205 41.5977 27.5234 41.6631 27.5293 41.751C27.5371 41.8389 27.541 41.9043 27.541 41.9473C27.541 42.0312 27.5127 42.0996 27.4561 42.1523C27.3994 42.207 27.3301 42.2344 27.248 42.2344C27.0977 42.2344 27.002 42.1416 26.9609 41.9561C26.7168 42.083 26.4355 42.1465 26.1172 42.1465C25.8613 42.1465 25.6494 42.0898 25.4814 41.9766C25.2959 41.8516 25.1855 41.6689 25.1504 41.4287C25.0742 40.9111 25.0361 40.4502 25.0361 40.0459C25.0361 39.7783 25.0654 39.4736 25.124 39.1318C25.1514 38.9619 25.2441 38.877 25.4023 38.877C25.4863 38.877 25.5566 38.9043 25.6133 38.959C25.6699 39.0117 25.6982 39.0801 25.6982 39.1641C25.6982 39.2539 25.6836 39.3975 25.6543 39.5947C25.627 39.792 25.6133 39.9424 25.6133 40.0459C25.6133 40.3721 25.624 40.6514 25.6455 40.8838C25.667 41.1162 25.6992 41.3027 25.7422 41.4434C25.8066 41.4785 25.8701 41.5059 25.9326 41.5254C25.9951 41.543 26.0566 41.5518 26.1172 41.5518C26.3789 41.5518 26.6553 41.5098 26.9463 41.4258L26.9434 40.8311L26.9375 40.2627C26.9375 39.8408 26.9561 39.4746 26.9932 39.1641C27.0146 38.9844 27.1094 38.8945 27.2773 38.8945C27.3613 38.8945 27.4316 38.9219 27.4883 38.9766C27.5449 39.0312 27.5713 39.0996 27.5674 39.1816L27.5146 40.2891ZM30.5264 39.835C30.5127 40.0791 30.415 40.2012 30.2334 40.2012C30.0654 40.2012 29.9814 40.1045 29.9814 39.9111C29.9814 39.874 29.9785 39.8057 29.9727 39.7061L29.9639 39.46C29.6553 39.4971 29.4082 39.584 29.2227 39.7207C29.0488 39.8477 28.9043 40.0391 28.7891 40.2949L28.7949 41.9004C28.7949 42.0977 28.6982 42.1963 28.5049 42.1963C28.333 42.1963 28.2471 42.0977 28.2471 41.9004V39.8438C28.2471 39.7793 28.249 39.6826 28.2529 39.5537C28.2588 39.4248 28.2617 39.3281 28.2617 39.2637C28.2617 39.0664 28.3477 38.9678 28.5195 38.9678C28.7109 38.9678 28.8076 39.1299 28.8096 39.4541C29.1846 39.0928 29.6006 38.9121 30.0576 38.9121C30.2158 38.9121 30.334 38.9717 30.4121 39.0908C30.4902 39.21 30.5293 39.3896 30.5293 39.6299C30.5293 39.7314 30.5283 39.7998 30.5264 39.835ZM32.498 42.1348C32.0566 42.1348 31.6992 42.0244 31.4258 41.8037C31.127 41.5596 30.9775 41.2178 30.9775 40.7783C30.9775 40.2705 31.1006 39.8447 31.3467 39.501C31.6143 39.126 31.9717 38.9385 32.4189 38.9385C32.7432 38.9385 33.0078 38.9932 33.2129 39.1025C33.4648 39.2373 33.5908 39.4443 33.5908 39.7236C33.5908 39.9189 33.4805 40.0967 33.2598 40.2568C33.1621 40.3271 32.9551 40.4365 32.6387 40.585L31.5195 41.1152C31.6289 41.2773 31.7646 41.3994 31.9268 41.4814C32.0908 41.5635 32.2812 41.6045 32.498 41.6045C32.6328 41.6045 32.791 41.5791 32.9727 41.5283C33.2031 41.4639 33.3516 41.3799 33.418 41.2764C33.4844 41.1709 33.5557 41.1182 33.6318 41.1182C33.7002 41.1182 33.7607 41.1445 33.8135 41.1973C33.8682 41.248 33.8955 41.3076 33.8955 41.376C33.8955 41.5928 33.7207 41.7793 33.3711 41.9355C33.0723 42.0684 32.7812 42.1348 32.498 42.1348ZM32.4189 39.4658C32.1807 39.4658 31.9824 39.5586 31.8242 39.7441C31.666 39.9277 31.5479 40.2051 31.4697 40.5762L32.3691 40.1484C32.7227 39.9766 32.9746 39.8271 33.125 39.7002C32.957 39.5439 32.7217 39.4658 32.4189 39.4658ZM37.3086 42.1729C36.9805 42.1729 36.6982 42.0518 36.4619 41.8096C36.1982 41.54 36.0596 41.1777 36.0459 40.7227C36.0342 40.2812 36.1455 39.8926 36.3799 39.5566C36.6533 39.1602 37.0342 38.9619 37.5225 38.9619C37.9131 38.9619 38.209 39.1406 38.4102 39.498C38.5703 39.7871 38.6475 40.1348 38.6416 40.541C38.6357 40.9746 38.5225 41.3447 38.3018 41.6514C38.0518 41.999 37.7207 42.1729 37.3086 42.1729ZM37.4844 39.5566C37.1973 39.5547 36.9736 39.6914 36.8135 39.9668C36.6865 40.1875 36.623 40.4395 36.623 40.7227C36.623 41.0059 36.7002 41.2266 36.8545 41.3848C36.9834 41.5156 37.1348 41.5811 37.3086 41.5811C37.5117 41.5811 37.6865 41.5068 37.833 41.3584C37.999 41.1943 38.0869 40.9727 38.0967 40.6934C38.124 39.9375 37.9199 39.5586 37.4844 39.5566ZM41.3369 37.8809C40.8643 37.8809 40.5996 38.209 40.543 38.8652L40.5342 39.0469C40.8662 39.0234 41.0811 39.0117 41.1787 39.0117C41.4893 39.0117 41.6445 39.1094 41.6445 39.3047C41.6445 39.4473 41.5684 39.5322 41.416 39.5596C41.3496 39.5713 41.2715 39.5762 41.1816 39.5742C41.0938 39.5703 40.8691 39.583 40.5078 39.6123L40.4844 40.2803C40.4844 40.4014 40.4883 40.583 40.4961 40.8252C40.5039 41.0674 40.5078 41.248 40.5078 41.3672C40.5078 41.7383 40.4863 42.0273 40.4434 42.2344C40.4102 42.3906 40.3193 42.4688 40.1709 42.4688C40.0908 42.4688 40.0225 42.4424 39.9658 42.3896C39.9092 42.3389 39.8809 42.2744 39.8809 42.1963C39.8809 42.1807 39.8828 42.1611 39.8867 42.1377C39.9277 41.8838 39.9482 41.6074 39.9482 41.3086L39.9395 40.5088V39.6592C39.6953 39.6787 39.541 39.6885 39.4766 39.6885C39.2793 39.6885 39.1807 39.5938 39.1807 39.4043C39.1807 39.2109 39.3516 39.1094 39.6934 39.0996L39.9746 39.0908C39.9805 38.9814 39.9951 38.833 40.0186 38.6455C40.0693 38.2119 40.1787 37.8926 40.3467 37.6875C40.5498 37.4395 40.8672 37.3154 41.2988 37.3154C41.5781 37.3154 41.7178 37.4102 41.7178 37.5996C41.7178 37.7871 41.5908 37.8809 41.3369 37.8809ZM47.9346 42.2432C47.7744 42.2432 47.6807 42.1582 47.6533 41.9883C47.6182 41.7734 47.583 41.4707 47.5479 41.0801L47.4482 40.1719C47.4287 40.0371 47.3955 39.9053 47.3486 39.7764C47.2822 39.6006 47.21 39.5127 47.1318 39.5127C47.0596 39.5127 46.9248 39.5742 46.7275 39.6973C46.54 39.8105 46.417 39.9014 46.3584 39.9697C46.3564 40.1533 46.3613 40.3369 46.373 40.5205L46.4609 41.3027C46.498 41.6113 46.5166 41.8662 46.5166 42.0674C46.5166 42.1533 46.4893 42.2236 46.4346 42.2783C46.3818 42.335 46.3135 42.3633 46.2295 42.3633C46.1455 42.3633 46.0762 42.335 46.0215 42.2783C45.9688 42.2236 45.9424 42.1533 45.9424 42.0674C45.9424 41.8311 45.918 41.4824 45.8691 41.0215C45.8223 40.5586 45.7988 40.209 45.7988 39.9727C45.7988 39.7656 45.7695 39.6045 45.7109 39.4893C45.5742 39.5518 45.4355 39.6533 45.2949 39.7939L44.9492 40.1807C44.918 40.2275 44.8682 40.2891 44.7998 40.3652C44.7998 40.4824 44.7891 40.6553 44.7676 40.8838C44.7461 41.1123 44.7354 41.2812 44.7354 41.3906C44.7354 41.4492 44.7441 41.5312 44.7617 41.6367C44.7812 41.7422 44.791 41.8184 44.791 41.8652C44.791 41.9453 44.7607 42.0127 44.7002 42.0674C44.6416 42.1221 44.5723 42.1494 44.4922 42.1494C44.2715 42.1494 44.1611 41.8984 44.1611 41.3965C44.1611 41.2793 44.1719 41.1045 44.1934 40.8721C44.2148 40.6396 44.2256 40.4648 44.2256 40.3477C44.2256 40.2441 44.2158 40.0889 44.1963 39.8818C44.1787 39.6748 44.1699 39.5186 44.1699 39.4131C44.1699 38.9697 44.2695 38.748 44.4688 38.748C44.5449 38.748 44.6143 38.7812 44.6768 38.8477C44.7412 38.9141 44.7734 38.9863 44.7734 39.0645C44.7734 39.1016 44.7686 39.1592 44.7588 39.2373C44.749 39.3154 44.7441 39.375 44.7441 39.416L44.75 39.7236C44.8516 39.5146 45.001 39.3262 45.1982 39.1582C45.3955 38.9883 45.5635 38.9033 45.7021 38.9033C46.0088 38.9033 46.2197 39.0557 46.335 39.3604C46.4424 39.2178 46.5703 39.1113 46.7188 39.041C46.8672 38.9688 47.0371 38.9326 47.2285 38.9326C47.5547 38.9326 47.7773 39.1084 47.8965 39.46C47.9199 39.5303 47.96 39.8047 48.0166 40.2832C48.0713 40.6191 48.1416 41.1787 48.2275 41.9619C48.2334 42.04 48.207 42.1064 48.1484 42.1611C48.0898 42.2158 48.0186 42.2432 47.9346 42.2432ZM50.2461 42.1348C49.8047 42.1348 49.4473 42.0244 49.1738 41.8037C48.875 41.5596 48.7256 41.2178 48.7256 40.7783C48.7256 40.2705 48.8486 39.8447 49.0947 39.501C49.3623 39.126 49.7197 38.9385 50.167 38.9385C50.4912 38.9385 50.7559 38.9932 50.9609 39.1025C51.2129 39.2373 51.3389 39.4443 51.3389 39.7236C51.3389 39.9189 51.2285 40.0967 51.0078 40.2568C50.9102 40.3271 50.7031 40.4365 50.3867 40.585L49.2676 41.1152C49.377 41.2773 49.5127 41.3994 49.6748 41.4814C49.8389 41.5635 50.0293 41.6045 50.2461 41.6045C50.3809 41.6045 50.5391 41.5791 50.7207 41.5283C50.9512 41.4639 51.0996 41.3799 51.166 41.2764C51.2324 41.1709 51.3037 41.1182 51.3799 41.1182C51.4482 41.1182 51.5088 41.1445 51.5615 41.1973C51.6162 41.248 51.6436 41.3076 51.6436 41.376C51.6436 41.5928 51.4688 41.7793 51.1191 41.9355C50.8203 42.0684 50.5293 42.1348 50.2461 42.1348ZM50.167 39.4658C49.9287 39.4658 49.7305 39.5586 49.5723 39.7441C49.4141 39.9277 49.2959 40.2051 49.2178 40.5762L50.1172 40.1484C50.4707 39.9766 50.7227 39.8271 50.873 39.7002C50.7051 39.5439 50.4697 39.4658 50.167 39.4658ZM55.5898 37.5674C55.5898 37.6357 55.5293 37.7354 55.4082 37.8662C55.3184 37.9561 55.2295 38.0459 55.1416 38.1357C54.9248 38.3818 54.7549 38.7334 54.6318 39.1904C54.5244 39.5889 54.4707 39.9805 54.4707 40.3652C54.4707 41.3574 54.6953 42.085 55.1445 42.5479C55.2344 42.6182 55.3252 42.6885 55.417 42.7588C55.5303 42.8486 55.5869 42.9375 55.5869 43.0254C55.5869 43.0898 55.5615 43.1455 55.5107 43.1924C55.46 43.2412 55.4014 43.2656 55.335 43.2656C55.2764 43.2656 55.2061 43.2432 55.124 43.1982C54.2979 42.7354 53.8848 41.7686 53.8848 40.2979C53.8848 39.7686 53.9912 39.2324 54.2041 38.6895C54.4424 38.0859 54.7549 37.6484 55.1416 37.377C55.2197 37.3223 55.2812 37.2949 55.3262 37.2949C55.3965 37.2949 55.458 37.3232 55.5107 37.3799C55.5635 37.4346 55.5898 37.4971 55.5898 37.5674ZM59.2549 38.209C59.2197 38.209 59.1592 38.2021 59.0732 38.1885C58.9893 38.1729 58.9238 38.165 58.877 38.165C58.7812 38.165 58.6689 38.168 58.54 38.1738L58.5547 38.5225C58.5547 39.9756 58.458 41.0332 58.2646 41.6953C58.1357 42.1328 57.9102 42.3516 57.5879 42.3516C57.248 42.3516 56.9111 42.2285 56.5771 41.9824C56.208 41.709 56.0234 41.3955 56.0234 41.042C56.0234 40.8018 56.1221 40.6816 56.3193 40.6816C56.5166 40.6816 56.6152 40.7998 56.6152 41.0361C56.6152 41.1982 56.7305 41.3594 56.9609 41.5195C57.1816 41.6719 57.3906 41.748 57.5879 41.748C57.748 41.748 57.8594 41.2568 57.9219 40.2744C57.9512 39.8096 57.9658 39.2256 57.9658 38.5225C57.9658 38.4678 57.9609 38.3623 57.9512 38.2061L57.7725 38.209C57.6963 38.209 57.5811 38.207 57.4268 38.2031C57.2744 38.1973 57.1592 38.1943 57.0811 38.1943C56.9951 38.1943 56.9229 38.167 56.8643 38.1123C56.8057 38.0576 56.7764 37.9834 56.7764 37.8896C56.7764 37.6885 56.9121 37.5879 57.1836 37.5879C57.25 37.5879 57.3486 37.5908 57.4795 37.5967C57.6104 37.6025 57.708 37.6055 57.7725 37.6055C57.8955 37.6055 58.0791 37.5986 58.3232 37.585C58.5693 37.5693 58.7539 37.5615 58.877 37.5615C59.3223 37.5615 59.5449 37.6748 59.5449 37.9014C59.5449 37.9795 59.5186 38.0488 59.4658 38.1094C59.4092 38.1758 59.3389 38.209 59.2549 38.209ZM62.5361 40.2891C62.5361 40.4297 62.5371 40.6406 62.5391 40.9219C62.541 41.2031 62.542 41.4141 62.542 41.5547C62.542 41.5977 62.5449 41.6631 62.5508 41.751C62.5586 41.8389 62.5625 41.9043 62.5625 41.9473C62.5625 42.0312 62.5342 42.0996 62.4775 42.1523C62.4209 42.207 62.3516 42.2344 62.2695 42.2344C62.1191 42.2344 62.0234 42.1416 61.9824 41.9561C61.7383 42.083 61.457 42.1465 61.1387 42.1465C60.8828 42.1465 60.6709 42.0898 60.5029 41.9766C60.3174 41.8516 60.207 41.6689 60.1719 41.4287C60.0957 40.9111 60.0576 40.4502 60.0576 40.0459C60.0576 39.7783 60.0869 39.4736 60.1455 39.1318C60.1729 38.9619 60.2656 38.877 60.4238 38.877C60.5078 38.877 60.5781 38.9043 60.6348 38.959C60.6914 39.0117 60.7197 39.0801 60.7197 39.1641C60.7197 39.2539 60.7051 39.3975 60.6758 39.5947C60.6484 39.792 60.6348 39.9424 60.6348 40.0459C60.6348 40.3721 60.6455 40.6514 60.667 40.8838C60.6885 41.1162 60.7207 41.3027 60.7637 41.4434C60.8281 41.4785 60.8916 41.5059 60.9541 41.5254C61.0166 41.543 61.0781 41.5518 61.1387 41.5518C61.4004 41.5518 61.6768 41.5098 61.9678 41.4258L61.9648 40.8311L61.959 40.2627C61.959 39.8408 61.9775 39.4746 62.0146 39.1641C62.0361 38.9844 62.1309 38.8945 62.2988 38.8945C62.3828 38.8945 62.4531 38.9219 62.5098 38.9766C62.5664 39.0312 62.5928 39.0996 62.5889 39.1816L62.5361 40.2891ZM65.5156 42.208C65.3477 42.208 65.2529 42.1162 65.2314 41.9326L65.1494 41.291C65.1221 41.0625 65.1084 40.8486 65.1084 40.6494C65.1084 40.5947 65.1113 40.502 65.1172 40.3711C65.125 40.2402 65.1289 40.1475 65.1289 40.0928C65.1289 39.6709 65.0508 39.46 64.8945 39.46C64.6758 39.46 64.4668 39.5898 64.2676 39.8496C64.0879 40.0859 63.9473 40.3848 63.8457 40.7461C63.8418 40.8223 63.833 40.918 63.8193 41.0332C63.8076 41.1309 63.8018 41.2256 63.8018 41.3174C63.8018 41.376 63.8076 41.4639 63.8193 41.5811C63.8311 41.6982 63.8369 41.7861 63.8369 41.8447C63.8369 41.9326 63.8096 42.0039 63.7549 42.0586C63.7021 42.1133 63.6338 42.1406 63.5498 42.1406C63.4639 42.1406 63.3945 42.1133 63.3418 42.0586C63.2891 42.0039 63.2627 41.9326 63.2627 41.8447C63.2627 41.7861 63.2559 41.6982 63.2422 41.5811C63.2305 41.4639 63.2246 41.376 63.2246 41.3174C63.2246 41.1162 63.2383 40.8379 63.2656 40.4824C63.2949 40.125 63.3096 39.8457 63.3096 39.6445C63.3096 39.582 63.3057 39.4893 63.2979 39.3662C63.292 39.2432 63.2891 39.1504 63.2891 39.0879C63.2891 39.0039 63.3164 38.9355 63.3711 38.8828C63.4277 38.8281 63.4971 38.8008 63.5791 38.8008C63.7588 38.8008 63.8574 38.9277 63.875 39.1816L63.8838 39.5244C64.2119 39.0869 64.5488 38.8682 64.8945 38.8682C65.207 38.8682 65.4248 39.0059 65.5479 39.2812C65.6318 39.4648 65.6777 39.7363 65.6855 40.0957V40.3916L65.6826 40.6641C65.6826 40.8262 65.7031 41.0361 65.7441 41.2939C65.7871 41.5498 65.8086 41.7578 65.8086 41.918C65.8086 42.0039 65.7803 42.0732 65.7236 42.126C65.6689 42.1807 65.5996 42.208 65.5156 42.208ZM67.7773 42.1348C67.3359 42.1348 66.9785 42.0244 66.7051 41.8037C66.4062 41.5596 66.2568 41.2178 66.2568 40.7783C66.2568 40.2705 66.3799 39.8447 66.626 39.501C66.8936 39.126 67.251 38.9385 67.6982 38.9385C68.0225 38.9385 68.2871 38.9932 68.4922 39.1025C68.7441 39.2373 68.8701 39.4443 68.8701 39.7236C68.8701 39.9189 68.7598 40.0967 68.5391 40.2568C68.4414 40.3271 68.2344 40.4365 67.918 40.585L66.7988 41.1152C66.9082 41.2773 67.0439 41.3994 67.2061 41.4814C67.3701 41.5635 67.5605 41.6045 67.7773 41.6045C67.9121 41.6045 68.0703 41.5791 68.252 41.5283C68.4824 41.4639 68.6309 41.3799 68.6973 41.2764C68.7637 41.1709 68.835 41.1182 68.9111 41.1182C68.9795 41.1182 69.04 41.1445 69.0928 41.1973C69.1475 41.248 69.1748 41.3076 69.1748 41.376C69.1748 41.5928 69 41.7793 68.6504 41.9355C68.3516 42.0684 68.0605 42.1348 67.7773 42.1348ZM67.6982 39.4658C67.46 39.4658 67.2617 39.5586 67.1035 39.7441C66.9453 39.9277 66.8271 40.2051 66.749 40.5762L67.6484 40.1484C68.002 39.9766 68.2539 39.8271 68.4043 39.7002C68.2363 39.5439 68.001 39.4658 67.6982 39.4658ZM74.0352 42.0059C73.9863 42.0059 73.917 41.9912 73.8271 41.9619C73.7393 41.9307 73.6719 41.915 73.625 41.915C73.5254 41.915 73.376 41.9209 73.1768 41.9326C72.9775 41.9443 72.8271 41.9502 72.7256 41.9502C72.6494 41.9502 72.5361 41.96 72.3857 41.9795C72.2373 41.999 72.125 42.0088 72.0488 42.0088C72.0273 42.0088 71.9961 42.0049 71.9551 41.9971C71.9141 41.9893 71.8828 41.9854 71.8613 41.9854C71.7266 41.9854 71.6387 41.9199 71.5977 41.7891C71.5742 41.7207 71.5625 41.6035 71.5625 41.4375C71.5625 40.9824 71.6865 40.6162 71.9346 40.3389C72.0479 40.2119 72.3535 39.9775 72.8516 39.6357C73.1309 39.4443 73.3174 39.2949 73.4111 39.1875C73.5791 39 73.6631 38.7803 73.6631 38.5283C73.6631 38.4033 73.582 38.292 73.4199 38.1943C73.2773 38.1064 73.1377 38.0625 73.001 38.0625C72.8213 38.0625 72.6504 38.1143 72.4883 38.2178L72.0693 38.5459C71.9854 38.6123 71.918 38.6455 71.8672 38.6455C71.666 38.6455 71.5654 38.5654 71.5654 38.4053C71.5654 38.3135 71.6025 38.2344 71.6768 38.168C71.9053 37.9531 72.1035 37.7979 72.2715 37.7021C72.5078 37.5674 72.751 37.5 73.001 37.5C73.3174 37.5 73.5996 37.5859 73.8477 37.7578C74.125 37.9512 74.2637 38.1992 74.2637 38.502C74.2637 38.7012 74.2354 38.8848 74.1787 39.0527C74.1221 39.2207 74.0361 39.374 73.9209 39.5127C73.7744 39.6885 73.5264 39.8848 73.1768 40.1016C72.8096 40.332 72.5684 40.5068 72.4531 40.626C72.2363 40.8506 72.1299 41.123 72.1338 41.4434L72.7373 41.3877C73.1514 41.3643 73.4473 41.3525 73.625 41.3525C73.7734 41.3525 73.9141 41.3779 74.0469 41.4287C74.2227 41.4971 74.3105 41.5918 74.3105 41.7129C74.3105 41.7891 74.2842 41.8574 74.2314 41.918C74.1787 41.9766 74.1133 42.0059 74.0352 42.0059ZM76.5342 42.1143C75.9404 42.1143 75.5068 41.8428 75.2334 41.2998C75.0264 40.8818 74.9229 40.3379 74.9229 39.668C74.9229 39.1016 75.0576 38.6074 75.3271 38.1855C75.6455 37.6914 76.0781 37.4443 76.625 37.4443C77.1387 37.4443 77.5391 37.6631 77.8262 38.1006C78.0742 38.4795 78.1982 38.9414 78.1982 39.4863C78.1982 40.3613 78.0596 41.0186 77.7822 41.458C77.5049 41.8955 77.0889 42.1143 76.5342 42.1143ZM76.6221 38.0098C76.2588 38.0098 75.9707 38.1943 75.7578 38.5635C75.5801 38.8721 75.4912 39.2246 75.4912 39.6211C75.4912 40.2637 75.5781 40.7461 75.752 41.0684C75.9258 41.3906 76.1865 41.5518 76.5342 41.5518C76.9482 41.5518 77.2451 41.3154 77.4248 40.8428C77.5498 40.5146 77.6123 40.0986 77.6123 39.5947C77.6123 39.0654 77.5293 38.6689 77.3633 38.4053C77.1992 38.1416 76.9521 38.0098 76.6221 38.0098ZM81.3594 42.0059C81.3105 42.0059 81.2412 41.9912 81.1514 41.9619C81.0635 41.9307 80.9961 41.915 80.9492 41.915C80.8496 41.915 80.7002 41.9209 80.501 41.9326C80.3018 41.9443 80.1514 41.9502 80.0498 41.9502C79.9736 41.9502 79.8604 41.96 79.71 41.9795C79.5615 41.999 79.4492 42.0088 79.373 42.0088C79.3516 42.0088 79.3203 42.0049 79.2793 41.9971C79.2383 41.9893 79.207 41.9854 79.1855 41.9854C79.0508 41.9854 78.9629 41.9199 78.9219 41.7891C78.8984 41.7207 78.8867 41.6035 78.8867 41.4375C78.8867 40.9824 79.0107 40.6162 79.2588 40.3389C79.3721 40.2119 79.6777 39.9775 80.1758 39.6357C80.4551 39.4443 80.6416 39.2949 80.7354 39.1875C80.9033 39 80.9873 38.7803 80.9873 38.5283C80.9873 38.4033 80.9062 38.292 80.7441 38.1943C80.6016 38.1064 80.4619 38.0625 80.3252 38.0625C80.1455 38.0625 79.9746 38.1143 79.8125 38.2178L79.3936 38.5459C79.3096 38.6123 79.2422 38.6455 79.1914 38.6455C78.9902 38.6455 78.8896 38.5654 78.8896 38.4053C78.8896 38.3135 78.9268 38.2344 79.001 38.168C79.2295 37.9531 79.4277 37.7979 79.5957 37.7021C79.832 37.5674 80.0752 37.5 80.3252 37.5C80.6416 37.5 80.9238 37.5859 81.1719 37.7578C81.4492 37.9512 81.5879 38.1992 81.5879 38.502C81.5879 38.7012 81.5596 38.8848 81.5029 39.0527C81.4463 39.2207 81.3604 39.374 81.2451 39.5127C81.0986 39.6885 80.8506 39.8848 80.501 40.1016C80.1338 40.332 79.8926 40.5068 79.7773 40.626C79.5605 40.8506 79.4541 41.123 79.458 41.4434L80.0615 41.3877C80.4756 41.3643 80.7715 41.3525 80.9492 41.3525C81.0977 41.3525 81.2383 41.3779 81.3711 41.4287C81.5469 41.4971 81.6348 41.5918 81.6348 41.7129C81.6348 41.7891 81.6084 41.8574 81.5557 41.918C81.5029 41.9766 81.4375 42.0059 81.3594 42.0059ZM83.8584 42.1143C83.2646 42.1143 82.8311 41.8428 82.5576 41.2998C82.3506 40.8818 82.2471 40.3379 82.2471 39.668C82.2471 39.1016 82.3818 38.6074 82.6514 38.1855C82.9697 37.6914 83.4023 37.4443 83.9492 37.4443C84.4629 37.4443 84.8633 37.6631 85.1504 38.1006C85.3984 38.4795 85.5225 38.9414 85.5225 39.4863C85.5225 40.3613 85.3838 41.0186 85.1064 41.458C84.8291 41.8955 84.4131 42.1143 83.8584 42.1143ZM83.9463 38.0098C83.583 38.0098 83.2949 38.1943 83.082 38.5635C82.9043 38.8721 82.8154 39.2246 82.8154 39.6211C82.8154 40.2637 82.9023 40.7461 83.0762 41.0684C83.25 41.3906 83.5107 41.5518 83.8584 41.5518C84.2725 41.5518 84.5693 41.3154 84.749 40.8428C84.874 40.5146 84.9365 40.0986 84.9365 39.5947C84.9365 39.0654 84.8535 38.6689 84.6875 38.4053C84.5234 38.1416 84.2764 38.0098 83.9463 38.0098ZM87.7695 40.2979C87.7695 41.7686 87.3555 42.7354 86.5273 43.1982C86.4473 43.2432 86.3779 43.2656 86.3193 43.2656C86.2529 43.2656 86.1943 43.2412 86.1436 43.1924C86.0928 43.1455 86.0674 43.0898 86.0674 43.0254C86.0674 42.9375 86.124 42.8486 86.2373 42.7588C86.3271 42.6885 86.418 42.6182 86.5098 42.5479C86.959 42.085 87.1836 41.3574 87.1836 40.3652C87.1836 39.9805 87.1299 39.5889 87.0225 39.1904C86.8975 38.7334 86.7275 38.3818 86.5127 38.1357C86.4229 38.0459 86.334 37.9561 86.2461 37.8662C86.125 37.7354 86.0645 37.6357 86.0645 37.5674C86.0645 37.4971 86.0898 37.4346 86.1406 37.3799C86.1934 37.3232 86.2549 37.2949 86.3252 37.2949C86.3701 37.2949 86.4326 37.3223 86.5127 37.377C86.8994 37.6484 87.2119 38.0859 87.4502 38.6895C87.6631 39.2324 87.7695 39.7686 87.7695 40.2979Z" fill="black"/>
<path d="M16.5957 119.883C16.1562 120.055 15.5947 120.141 14.9111 120.141C14.8271 120.141 14.7471 120.101 14.6709 120.021C14.5967 119.942 14.5596 119.861 14.5596 119.777V118.925C14.5596 118.646 14.5771 118.247 14.6123 117.729C14.6514 117.171 14.6729 116.767 14.6768 116.517C14.6748 116.337 14.6855 116.069 14.709 115.714C14.7227 115.616 14.7549 115.552 14.8057 115.521C15.0713 115.438 15.373 115.397 15.7109 115.397C16.0547 115.397 16.3848 115.515 16.7012 115.749C17.0664 116.019 17.249 116.352 17.249 116.748C17.249 117.25 17.0537 117.646 16.6631 117.935C16.9561 118.06 17.1748 118.198 17.3193 118.351C17.4658 118.503 17.5391 118.669 17.5391 118.849C17.5391 119.085 17.4111 119.313 17.1553 119.534C16.9775 119.69 16.791 119.807 16.5957 119.883ZM15.7109 115.995C15.498 115.995 15.3486 116.002 15.2627 116.016L15.2568 116.528L15.1982 117.662C15.4756 117.686 15.624 117.696 15.6436 117.694C15.9385 117.671 16.1797 117.579 16.3672 117.419C16.5684 117.245 16.6689 117.021 16.6689 116.748C16.6689 116.562 16.5664 116.391 16.3613 116.232C16.1562 116.074 15.9395 115.995 15.7109 115.995ZM16.0391 118.342L15.7285 118.292C15.7031 118.292 15.6641 118.294 15.6113 118.298C15.5605 118.3 15.5215 118.301 15.4941 118.301C15.3887 118.301 15.2764 118.292 15.1572 118.274C15.1455 118.521 15.1396 118.74 15.1396 118.934V119.54C15.6514 119.522 16.0684 119.45 16.3906 119.323C16.5273 119.271 16.6582 119.188 16.7832 119.077C16.9023 118.976 16.9619 118.899 16.9619 118.849C16.9619 118.757 16.8369 118.653 16.5869 118.538C16.3994 118.45 16.2168 118.385 16.0391 118.342ZM19.291 120.173C18.9629 120.173 18.6807 120.052 18.4443 119.81C18.1807 119.54 18.042 119.178 18.0283 118.723C18.0166 118.281 18.1279 117.893 18.3623 117.557C18.6357 117.16 19.0166 116.962 19.5049 116.962C19.8955 116.962 20.1914 117.141 20.3926 117.498C20.5527 117.787 20.6299 118.135 20.624 118.541C20.6182 118.975 20.5049 119.345 20.2842 119.651C20.0342 119.999 19.7031 120.173 19.291 120.173ZM19.4668 117.557C19.1797 117.555 18.9561 117.691 18.7959 117.967C18.6689 118.188 18.6055 118.439 18.6055 118.723C18.6055 119.006 18.6826 119.227 18.8369 119.385C18.9658 119.516 19.1172 119.581 19.291 119.581C19.4941 119.581 19.6689 119.507 19.8154 119.358C19.9814 119.194 20.0693 118.973 20.0791 118.693C20.1064 117.938 19.9023 117.559 19.4668 117.557ZM23.6299 117.835C23.6162 118.079 23.5186 118.201 23.3369 118.201C23.1689 118.201 23.085 118.104 23.085 117.911C23.085 117.874 23.082 117.806 23.0762 117.706L23.0674 117.46C22.7588 117.497 22.5117 117.584 22.3262 117.721C22.1523 117.848 22.0078 118.039 21.8926 118.295L21.8984 119.9C21.8984 120.098 21.8018 120.196 21.6084 120.196C21.4365 120.196 21.3506 120.098 21.3506 119.9V117.844C21.3506 117.779 21.3525 117.683 21.3564 117.554C21.3623 117.425 21.3652 117.328 21.3652 117.264C21.3652 117.066 21.4512 116.968 21.623 116.968C21.8145 116.968 21.9111 117.13 21.9131 117.454C22.2881 117.093 22.7041 116.912 23.1611 116.912C23.3193 116.912 23.4375 116.972 23.5156 117.091C23.5938 117.21 23.6328 117.39 23.6328 117.63C23.6328 117.731 23.6318 117.8 23.6299 117.835ZM26.4805 120.208C26.3125 120.208 26.2178 120.116 26.1963 119.933L26.1143 119.291C26.0869 119.062 26.0732 118.849 26.0732 118.649C26.0732 118.595 26.0762 118.502 26.082 118.371C26.0898 118.24 26.0938 118.147 26.0938 118.093C26.0938 117.671 26.0156 117.46 25.8594 117.46C25.6406 117.46 25.4316 117.59 25.2324 117.85C25.0527 118.086 24.9121 118.385 24.8105 118.746C24.8066 118.822 24.7979 118.918 24.7842 119.033C24.7725 119.131 24.7666 119.226 24.7666 119.317C24.7666 119.376 24.7725 119.464 24.7842 119.581C24.7959 119.698 24.8018 119.786 24.8018 119.845C24.8018 119.933 24.7744 120.004 24.7197 120.059C24.667 120.113 24.5986 120.141 24.5146 120.141C24.4287 120.141 24.3594 120.113 24.3066 120.059C24.2539 120.004 24.2275 119.933 24.2275 119.845C24.2275 119.786 24.2207 119.698 24.207 119.581C24.1953 119.464 24.1895 119.376 24.1895 119.317C24.1895 119.116 24.2031 118.838 24.2305 118.482C24.2598 118.125 24.2744 117.846 24.2744 117.645C24.2744 117.582 24.2705 117.489 24.2627 117.366C24.2568 117.243 24.2539 117.15 24.2539 117.088C24.2539 117.004 24.2812 116.936 24.3359 116.883C24.3926 116.828 24.4619 116.801 24.5439 116.801C24.7236 116.801 24.8223 116.928 24.8398 117.182L24.8486 117.524C25.1768 117.087 25.5137 116.868 25.8594 116.868C26.1719 116.868 26.3896 117.006 26.5127 117.281C26.5967 117.465 26.6426 117.736 26.6504 118.096V118.392L26.6475 118.664C26.6475 118.826 26.668 119.036 26.709 119.294C26.752 119.55 26.7734 119.758 26.7734 119.918C26.7734 120.004 26.7451 120.073 26.6885 120.126C26.6338 120.181 26.5645 120.208 26.4805 120.208ZM29.7266 116.291C29.6328 116.291 29.5518 116.258 29.4834 116.191C29.415 116.125 29.3809 116.045 29.3809 115.951C29.3809 115.857 29.415 115.777 29.4834 115.711C29.5518 115.645 29.6328 115.611 29.7266 115.611C29.8203 115.611 29.9004 115.645 29.9668 115.711C30.0352 115.777 30.0693 115.857 30.0693 115.951C30.0693 116.045 30.0352 116.125 29.9668 116.191C29.9004 116.258 29.8203 116.291 29.7266 116.291ZM29.8584 118.67C29.8584 118.787 29.8613 118.963 29.8672 119.197C29.875 119.43 29.8789 119.604 29.8789 119.722C29.8789 119.808 29.8525 119.878 29.7998 119.933C29.7471 119.987 29.6777 120.015 29.5918 120.015C29.5078 120.015 29.4385 119.987 29.3838 119.933C29.3311 119.878 29.3047 119.808 29.3047 119.722C29.3047 119.604 29.3008 119.43 29.293 119.197C29.2871 118.963 29.2842 118.787 29.2842 118.67C29.2842 118.486 29.2939 118.258 29.3135 117.984C29.333 117.709 29.3428 117.479 29.3428 117.296C29.3428 117.208 29.3691 117.137 29.4219 117.082C29.4766 117.027 29.5459 117 29.6299 117C29.7139 117 29.7822 117.027 29.835 117.082C29.8896 117.137 29.917 117.208 29.917 117.296C29.917 117.479 29.9072 117.709 29.8877 117.984C29.8682 118.258 29.8584 118.486 29.8584 118.67ZM33.0957 120.208C32.9277 120.208 32.833 120.116 32.8115 119.933L32.7295 119.291C32.7021 119.062 32.6885 118.849 32.6885 118.649C32.6885 118.595 32.6914 118.502 32.6973 118.371C32.7051 118.24 32.709 118.147 32.709 118.093C32.709 117.671 32.6309 117.46 32.4746 117.46C32.2559 117.46 32.0469 117.59 31.8477 117.85C31.668 118.086 31.5273 118.385 31.4258 118.746C31.4219 118.822 31.4131 118.918 31.3994 119.033C31.3877 119.131 31.3818 119.226 31.3818 119.317C31.3818 119.376 31.3877 119.464 31.3994 119.581C31.4111 119.698 31.417 119.786 31.417 119.845C31.417 119.933 31.3896 120.004 31.335 120.059C31.2822 120.113 31.2139 120.141 31.1299 120.141C31.0439 120.141 30.9746 120.113 30.9219 120.059C30.8691 120.004 30.8428 119.933 30.8428 119.845C30.8428 119.786 30.8359 119.698 30.8223 119.581C30.8105 119.464 30.8047 119.376 30.8047 119.317C30.8047 119.116 30.8184 118.838 30.8457 118.482C30.875 118.125 30.8896 117.846 30.8896 117.645C30.8896 117.582 30.8857 117.489 30.8779 117.366C30.8721 117.243 30.8691 117.15 30.8691 117.088C30.8691 117.004 30.8965 116.936 30.9512 116.883C31.0078 116.828 31.0771 116.801 31.1592 116.801C31.3389 116.801 31.4375 116.928 31.4551 117.182L31.4639 117.524C31.792 117.087 32.1289 116.868 32.4746 116.868C32.7871 116.868 33.0049 117.006 33.1279 117.281C33.2119 117.465 33.2578 117.736 33.2656 118.096V118.392L33.2627 118.664C33.2627 118.826 33.2832 119.036 33.3242 119.294C33.3672 119.55 33.3887 119.758 33.3887 119.918C33.3887 120.004 33.3604 120.073 33.3037 120.126C33.249 120.181 33.1797 120.208 33.0957 120.208ZM38.3281 120.006C38.2793 120.006 38.21 119.991 38.1201 119.962C38.0322 119.931 37.9648 119.915 37.918 119.915C37.8184 119.915 37.6689 119.921 37.4697 119.933C37.2705 119.944 37.1201 119.95 37.0186 119.95C36.9424 119.95 36.8291 119.96 36.6787 119.979C36.5303 119.999 36.418 120.009 36.3418 120.009C36.3203 120.009 36.2891 120.005 36.248 119.997C36.207 119.989 36.1758 119.985 36.1543 119.985C36.0195 119.985 35.9316 119.92 35.8906 119.789C35.8672 119.721 35.8555 119.604 35.8555 119.438C35.8555 118.982 35.9795 118.616 36.2275 118.339C36.3408 118.212 36.6465 117.978 37.1445 117.636C37.4238 117.444 37.6104 117.295 37.7041 117.188C37.8721 117 37.9561 116.78 37.9561 116.528C37.9561 116.403 37.875 116.292 37.7129 116.194C37.5703 116.106 37.4307 116.062 37.2939 116.062C37.1143 116.062 36.9434 116.114 36.7812 116.218L36.3623 116.546C36.2783 116.612 36.2109 116.646 36.1602 116.646C35.959 116.646 35.8584 116.565 35.8584 116.405C35.8584 116.313 35.8955 116.234 35.9697 116.168C36.1982 115.953 36.3965 115.798 36.5645 115.702C36.8008 115.567 37.0439 115.5 37.2939 115.5C37.6104 115.5 37.8926 115.586 38.1406 115.758C38.418 115.951 38.5566 116.199 38.5566 116.502C38.5566 116.701 38.5283 116.885 38.4717 117.053C38.415 117.221 38.3291 117.374 38.2139 117.513C38.0674 117.688 37.8193 117.885 37.4697 118.102C37.1025 118.332 36.8613 118.507 36.7461 118.626C36.5293 118.851 36.4229 119.123 36.4268 119.443L37.0303 119.388C37.4443 119.364 37.7402 119.353 37.918 119.353C38.0664 119.353 38.207 119.378 38.3398 119.429C38.5156 119.497 38.6035 119.592 38.6035 119.713C38.6035 119.789 38.5771 119.857 38.5244 119.918C38.4717 119.977 38.4062 120.006 38.3281 120.006ZM40.8271 120.114C40.2334 120.114 39.7998 119.843 39.5264 119.3C39.3193 118.882 39.2158 118.338 39.2158 117.668C39.2158 117.102 39.3506 116.607 39.6201 116.186C39.9385 115.691 40.3711 115.444 40.918 115.444C41.4316 115.444 41.832 115.663 42.1191 116.101C42.3672 116.479 42.4912 116.941 42.4912 117.486C42.4912 118.361 42.3525 119.019 42.0752 119.458C41.7979 119.896 41.3818 120.114 40.8271 120.114ZM40.915 116.01C40.5518 116.01 40.2637 116.194 40.0508 116.563C39.873 116.872 39.7842 117.225 39.7842 117.621C39.7842 118.264 39.8711 118.746 40.0449 119.068C40.2188 119.391 40.4795 119.552 40.8271 119.552C41.2412 119.552 41.5381 119.315 41.7178 118.843C41.8428 118.515 41.9053 118.099 41.9053 117.595C41.9053 117.065 41.8223 116.669 41.6562 116.405C41.4922 116.142 41.2451 116.01 40.915 116.01ZM44.4893 120.114C43.8955 120.114 43.4619 119.843 43.1885 119.3C42.9814 118.882 42.8779 118.338 42.8779 117.668C42.8779 117.102 43.0127 116.607 43.2822 116.186C43.6006 115.691 44.0332 115.444 44.5801 115.444C45.0938 115.444 45.4941 115.663 45.7812 116.101C46.0293 116.479 46.1533 116.941 46.1533 117.486C46.1533 118.361 46.0146 119.019 45.7373 119.458C45.46 119.896 45.0439 120.114 44.4893 120.114ZM44.5771 116.01C44.2139 116.01 43.9258 116.194 43.7129 116.563C43.5352 116.872 43.4463 117.225 43.4463 117.621C43.4463 118.264 43.5332 118.746 43.707 119.068C43.8809 119.391 44.1416 119.552 44.4893 119.552C44.9033 119.552 45.2002 119.315 45.3799 118.843C45.5049 118.515 45.5674 118.099 45.5674 117.595C45.5674 117.065 45.4844 116.669 45.3184 116.405C45.1543 116.142 44.9072 116.01 44.5771 116.01ZM48.1338 120.135C47.8389 120.135 47.5742 120.073 47.3398 119.95C47.0762 119.808 46.8984 119.607 46.8066 119.35C46.7949 119.314 46.7891 119.28 46.7891 119.247C46.7891 119.169 46.8184 119.104 46.877 119.054C46.9375 119.001 47.0068 118.975 47.085 118.975C47.1631 118.975 47.2305 119.011 47.2871 119.083L47.4219 119.285C47.4922 119.381 47.5869 119.453 47.7061 119.502C47.8252 119.549 47.9678 119.572 48.1338 119.572C48.3467 119.572 48.5332 119.506 48.6934 119.373C48.8633 119.232 48.9482 119.061 48.9482 118.857C48.9482 118.562 48.8398 118.327 48.623 118.151C48.4316 117.999 48.1777 117.906 47.8613 117.873C47.6445 117.852 47.5361 117.764 47.5361 117.609C47.5361 117.494 47.6211 117.406 47.791 117.346L48.4912 117.173C48.626 117.124 48.7275 117.059 48.7959 116.977C48.8643 116.893 48.8994 116.791 48.9014 116.672C48.9053 116.5 48.8389 116.361 48.7021 116.256C48.5596 116.146 48.3594 116.092 48.1016 116.092C47.9688 116.092 47.8398 116.124 47.7148 116.188L47.3838 116.396C47.3193 116.438 47.2676 116.458 47.2285 116.458C47.1504 116.458 47.083 116.429 47.0264 116.37C46.9717 116.31 46.9443 116.241 46.9443 116.165C46.9443 116.011 47.0938 115.862 47.3926 115.72C47.6523 115.593 47.8662 115.529 48.0342 115.529C48.4541 115.529 48.7871 115.622 49.0332 115.808C49.2969 116.007 49.4287 116.291 49.4287 116.66C49.4287 117.119 49.2432 117.422 48.8721 117.568C48.8389 117.582 48.8008 117.596 48.7578 117.609C49.0176 117.705 49.2119 117.849 49.3408 118.04C49.4697 118.229 49.5342 118.467 49.5342 118.752C49.5342 119.137 49.3984 119.464 49.127 119.733C48.8555 120.001 48.5244 120.135 48.1338 120.135Z" fill="black"/>
</svg>
