<svg width="200" height="200" viewBox="0 0 200 200" fill="none" xmlns="http://www.w3.org/2000/svg">
<rect width="200" height="200" fill="#121212"/>
<path d="M51 133.846H52C52 133.846 51.5212 138.244 50 140.931C47.785 144.843 42 150 42 150H41C41 150 46.785 144.843 49 140.931C50.5212 138.244 51 133.846 51 133.846Z" fill="#C4C4C4"/>
<path d="M53 133.846H52C52 133.846 52.4788 138.244 54 140.931C56.215 144.843 62 150 62 150H63C63 150 57.215 144.843 55 140.931C53.4788 138.244 53 133.846 53 133.846Z" fill="#C4C4C4"/>
<path d="M43.8947 128.677C45.6316 127.385 58.3684 127.385 60.1053 128.677C61.8421 129.969 63 133.846 63 133.846H41C41 133.846 42.1579 129.969 43.8947 128.677Z" fill="#C4C4C4"/>
<path d="M45.9668 110.721C47.0637 112.353 47.0637 124.324 45.9668 125.956C44.8698 127.589 41.579 128.677 41.579 128.677V108C41.579 108 44.8698 109.088 45.9668 110.721Z" fill="#C4C4C4"/>
<rect x="41" y="108" width="0.578947" height="25.8462" fill="#C4C4C4"/>
<path d="M60 86.5C60 90.6421 56.6421 94 52.5 94C48.3579 94 45 90.6421 45 86.5C45 82.3579 48.3579 79 52.5 79C56.6421 79 60 82.3579 60 86.5ZM46.1013 86.5C46.1013 90.0339 48.9661 92.8987 52.5 92.8987C56.0339 92.8987 58.8987 90.0339 58.8987 86.5C58.8987 82.9661 56.0339 80.1013 52.5 80.1013C48.9661 80.1013 46.1013 82.9661 46.1013 86.5Z" fill="#E5E5E5"/>
<rect x="48" y="127" width="1" height="17.5" transform="rotate(-90 48 127)" fill="#E5E5E5"/>
<rect x="49.0934" y="126.63" width="1" height="17.5" transform="rotate(-95.3593 49.0934 126.63)" fill="#E5E5E5"/>
<rect x="48" y="95.7721" width="1" height="17.5" transform="rotate(-50.5445 48 95.7721)" fill="#E5E5E5"/>
<rect x="49" y="96.8448" width="1" height="17.5" transform="rotate(-57.6518 49 96.8448)" fill="#E5E5E5"/>
<rect x="61" y="106.977" width="1" height="17.5" transform="rotate(-77.8045 61 106.977)" fill="#E5E5E5"/>
<rect x="63" y="105.955" width="1" height="16.4793" transform="rotate(-72.7159 63 105.955)" fill="#E5E5E5"/>
<rect x="65" y="126.374" width="1" height="17.5" transform="rotate(-21.9829 65 126.374)" fill="#E5E5E5"/>
<rect x="66" y="124.374" width="1" height="17.5" transform="rotate(-21.9829 66 124.374)" fill="#E5E5E5"/>
<rect x="48" y="92" width="1" height="35" fill="#E5E5E5"/>
<rect x="67" y="112" width="52" height="3" fill="#C4C4C4"/>
<rect x="77" y="115" width="3" height="35" fill="#C4C4C4"/>
<rect x="106" y="115" width="3" height="35" fill="#C4C4C4"/>
<rect x="71" y="110.475" width="18.1604" height="1.52542" fill="#C4C4C4"/>
<rect width="1.23094" height="17.699" transform="matrix(0.987348 0.158566 -0.161332 0.9869 90.7847 94)" fill="#C4C4C4"/>
<path d="M74.6602 100.533C74.5638 100.533 74.4154 100.525 74.2148 100.51C74.0195 100.495 73.8711 100.489 73.7695 100.49H73.6309C73.6348 100.67 73.6523 100.962 73.6836 101.365C73.7122 101.742 73.7266 102.034 73.7266 102.242C73.7266 102.288 73.7311 102.357 73.7402 102.449C73.7493 102.542 73.7539 102.611 73.7539 102.658C73.7539 102.747 73.7396 102.823 73.7109 102.887C73.6745 102.973 73.6178 103.016 73.541 103.016C73.4889 103.016 73.4421 102.997 73.4004 102.961C73.3587 102.924 73.3379 102.878 73.3379 102.82C73.3379 102.801 73.3411 102.771 73.3477 102.732C73.3542 102.693 73.3574 102.664 73.3574 102.645C73.3574 102.581 73.3529 102.485 73.3438 102.357C73.3359 102.23 73.332 102.133 73.332 102.068C73.332 101.882 73.3171 101.62 73.2871 101.283C73.2559 100.919 73.2383 100.657 73.2344 100.498L73.0566 100.5C72.7715 100.5 72.5475 100.479 72.3848 100.438C72.2793 100.41 72.2266 100.346 72.2266 100.244C72.2266 100.191 72.2435 100.144 72.2773 100.104C72.3164 100.058 72.3665 100.037 72.4277 100.041C72.4733 100.044 72.5775 100.055 72.7402 100.076C72.8704 100.092 72.9759 100.1 73.0566 100.1C73.1348 100.1 73.2533 100.098 73.4121 100.096C73.571 100.092 73.6895 100.09 73.7676 100.09C73.8678 100.09 74.0163 100.097 74.2129 100.111C74.4108 100.126 74.5599 100.133 74.6602 100.133C74.7161 100.133 74.763 100.152 74.8008 100.191C74.8385 100.229 74.8574 100.277 74.8574 100.334C74.8574 100.39 74.8385 100.438 74.8008 100.477C74.763 100.514 74.7161 100.533 74.6602 100.533ZM75.3633 100.527C75.3008 100.527 75.2467 100.505 75.2012 100.461C75.1556 100.417 75.1328 100.363 75.1328 100.301C75.1328 100.238 75.1556 100.185 75.2012 100.141C75.2467 100.096 75.3008 100.074 75.3633 100.074C75.4258 100.074 75.4792 100.096 75.5234 100.141C75.569 100.185 75.5918 100.238 75.5918 100.301C75.5918 100.363 75.569 100.417 75.5234 100.461C75.4792 100.505 75.4258 100.527 75.3633 100.527ZM75.4512 102.113C75.4512 102.191 75.4531 102.309 75.457 102.465C75.4622 102.62 75.4648 102.736 75.4648 102.814C75.4648 102.872 75.4473 102.919 75.4121 102.955C75.377 102.992 75.3307 103.01 75.2734 103.01C75.2174 103.01 75.1712 102.992 75.1348 102.955C75.0996 102.919 75.082 102.872 75.082 102.814C75.082 102.736 75.0794 102.62 75.0742 102.465C75.0703 102.309 75.0684 102.191 75.0684 102.113C75.0684 101.991 75.0749 101.839 75.0879 101.656C75.1009 101.473 75.1074 101.32 75.1074 101.197C75.1074 101.139 75.125 101.091 75.1602 101.055C75.1966 101.018 75.2428 101 75.2988 101C75.3548 101 75.4004 101.018 75.4355 101.055C75.472 101.091 75.4902 101.139 75.4902 101.197C75.4902 101.32 75.4837 101.473 75.4707 101.656C75.4577 101.839 75.4512 101.991 75.4512 102.113ZM76.9941 103.123C76.7272 103.123 76.5046 103.042 76.3262 102.881C76.1387 102.712 76.0449 102.488 76.0449 102.211C76.0449 101.947 76.1328 101.674 76.3086 101.393C76.5039 101.08 76.724 100.924 76.9688 100.924C77.0964 100.924 77.2389 100.954 77.3965 101.014C77.5957 101.09 77.6953 101.184 77.6953 101.295C77.6953 101.344 77.679 101.389 77.6465 101.428C77.6139 101.465 77.5736 101.484 77.5254 101.484C77.4876 101.484 77.4544 101.473 77.4258 101.451C77.3984 101.428 77.3717 101.405 77.3457 101.383C77.2689 101.322 77.1432 101.291 76.9688 101.291C76.8359 101.291 76.7044 101.41 76.5742 101.646C76.4557 101.864 76.3965 102.052 76.3965 102.211C76.3965 102.383 76.4551 102.518 76.5723 102.617C76.6816 102.71 76.8223 102.756 76.9941 102.756C77.0723 102.756 77.1556 102.735 77.2441 102.693L77.4707 102.572C77.5098 102.551 77.5378 102.541 77.5547 102.541C77.6029 102.541 77.6445 102.561 77.6797 102.6C77.7148 102.637 77.7324 102.681 77.7324 102.73C77.7324 102.826 77.6322 102.917 77.4316 103.006C77.2559 103.084 77.11 103.123 76.9941 103.123Z" fill="white"/>
<path d="M74.6602 81.5332C74.5638 81.5332 74.4154 81.5254 74.2148 81.5098C74.0195 81.4954 73.8711 81.4889 73.7695 81.4902H73.6309C73.6348 81.6699 73.6523 81.9616 73.6836 82.3652C73.7122 82.7415 73.7266 83.0339 73.7266 83.2422C73.7266 83.2878 73.7311 83.3568 73.7402 83.4492C73.7493 83.5417 73.7539 83.6113 73.7539 83.6582C73.7539 83.7467 73.7396 83.8229 73.7109 83.8867C73.6745 83.9727 73.6178 84.0156 73.541 84.0156C73.4889 84.0156 73.4421 83.9974 73.4004 83.9609C73.3587 83.9245 73.3379 83.8776 73.3379 83.8203C73.3379 83.8008 73.3411 83.7715 73.3477 83.7324C73.3542 83.6934 73.3574 83.6641 73.3574 83.6445C73.3574 83.5807 73.3529 83.485 73.3438 83.3574C73.3359 83.2298 73.332 83.1335 73.332 83.0684C73.332 82.8822 73.3171 82.6204 73.2871 82.2832C73.2559 81.9186 73.2383 81.6569 73.2344 81.498L73.0566 81.5C72.7715 81.5 72.5475 81.4792 72.3848 81.4375C72.2793 81.4102 72.2266 81.3457 72.2266 81.2441C72.2266 81.1908 72.2435 81.1439 72.2773 81.1035C72.3164 81.0579 72.3665 81.0371 72.4277 81.041C72.4733 81.0436 72.5775 81.0553 72.7402 81.0762C72.8704 81.0918 72.9759 81.0996 73.0566 81.0996C73.1348 81.0996 73.2533 81.0983 73.4121 81.0957C73.571 81.0918 73.6895 81.0898 73.7676 81.0898C73.8678 81.0898 74.0163 81.097 74.2129 81.1113C74.4108 81.1257 74.5599 81.1328 74.6602 81.1328C74.7161 81.1328 74.763 81.1523 74.8008 81.1914C74.8385 81.2292 74.8574 81.2767 74.8574 81.334C74.8574 81.39 74.8385 81.4375 74.8008 81.4766C74.763 81.5143 74.7161 81.5332 74.6602 81.5332ZM75.3633 81.5273C75.3008 81.5273 75.2467 81.5052 75.2012 81.4609C75.1556 81.4167 75.1328 81.3633 75.1328 81.3008C75.1328 81.2383 75.1556 81.1849 75.2012 81.1406C75.2467 81.0964 75.3008 81.0742 75.3633 81.0742C75.4258 81.0742 75.4792 81.0964 75.5234 81.1406C75.569 81.1849 75.5918 81.2383 75.5918 81.3008C75.5918 81.3633 75.569 81.4167 75.5234 81.4609C75.4792 81.5052 75.4258 81.5273 75.3633 81.5273ZM75.4512 83.1133C75.4512 83.1914 75.4531 83.3086 75.457 83.4648C75.4622 83.6198 75.4648 83.7363 75.4648 83.8145C75.4648 83.8717 75.4473 83.9186 75.4121 83.9551C75.377 83.9915 75.3307 84.0098 75.2734 84.0098C75.2174 84.0098 75.1712 83.9915 75.1348 83.9551C75.0996 83.9186 75.082 83.8717 75.082 83.8145C75.082 83.7363 75.0794 83.6198 75.0742 83.4648C75.0703 83.3086 75.0684 83.1914 75.0684 83.1133C75.0684 82.9909 75.0749 82.8385 75.0879 82.6562C75.1009 82.4727 75.1074 82.3197 75.1074 82.1973C75.1074 82.1387 75.125 82.0911 75.1602 82.0547C75.1966 82.0182 75.2428 82 75.2988 82C75.3548 82 75.4004 82.0182 75.4355 82.0547C75.472 82.0911 75.4902 82.1387 75.4902 82.1973C75.4902 82.3197 75.4837 82.4727 75.4707 82.6562C75.4577 82.8385 75.4512 82.9909 75.4512 83.1133ZM76.9941 84.123C76.7272 84.123 76.5046 84.0423 76.3262 83.8809C76.1387 83.7116 76.0449 83.4883 76.0449 83.2109C76.0449 82.9466 76.1328 82.6738 76.3086 82.3926C76.5039 82.0801 76.724 81.9238 76.9688 81.9238C77.0964 81.9238 77.2389 81.9538 77.3965 82.0137C77.5957 82.0905 77.6953 82.1842 77.6953 82.2949C77.6953 82.3444 77.679 82.3887 77.6465 82.4277C77.6139 82.4655 77.5736 82.4844 77.5254 82.4844C77.4876 82.4844 77.4544 82.4733 77.4258 82.4512C77.3984 82.4277 77.3717 82.4049 77.3457 82.3828C77.2689 82.3216 77.1432 82.291 76.9688 82.291C76.8359 82.291 76.7044 82.4095 76.5742 82.6465C76.4557 82.8639 76.3965 83.0521 76.3965 83.2109C76.3965 83.3828 76.4551 83.5182 76.5723 83.6172C76.6816 83.7096 76.8223 83.7559 76.9941 83.7559C77.0723 83.7559 77.1556 83.735 77.2441 83.6934L77.4707 83.5723C77.5098 83.5514 77.5378 83.541 77.5547 83.541C77.6029 83.541 77.6445 83.5605 77.6797 83.5996C77.7148 83.6374 77.7324 83.681 77.7324 83.7305C77.7324 83.8255 77.6322 83.9173 77.4316 84.0059C77.2559 84.084 77.11 84.123 76.9941 84.123Z" fill="white"/>
<path d="M81.6602 92.5332C81.5638 92.5332 81.4154 92.5254 81.2148 92.5098C81.0195 92.4954 80.8711 92.4889 80.7695 92.4902H80.6309C80.6348 92.6699 80.6523 92.9616 80.6836 93.3652C80.7122 93.7415 80.7266 94.0339 80.7266 94.2422C80.7266 94.2878 80.7311 94.3568 80.7402 94.4492C80.7493 94.5417 80.7539 94.6113 80.7539 94.6582C80.7539 94.7467 80.7396 94.8229 80.7109 94.8867C80.6745 94.9727 80.6178 95.0156 80.541 95.0156C80.4889 95.0156 80.4421 94.9974 80.4004 94.9609C80.3587 94.9245 80.3379 94.8776 80.3379 94.8203C80.3379 94.8008 80.3411 94.7715 80.3477 94.7324C80.3542 94.6934 80.3574 94.6641 80.3574 94.6445C80.3574 94.5807 80.3529 94.485 80.3438 94.3574C80.3359 94.2298 80.332 94.1335 80.332 94.0684C80.332 93.8822 80.3171 93.6204 80.2871 93.2832C80.2559 92.9186 80.2383 92.6569 80.2344 92.498L80.0566 92.5C79.7715 92.5 79.5475 92.4792 79.3848 92.4375C79.2793 92.4102 79.2266 92.3457 79.2266 92.2441C79.2266 92.1908 79.2435 92.1439 79.2773 92.1035C79.3164 92.0579 79.3665 92.0371 79.4277 92.041C79.4733 92.0436 79.5775 92.0553 79.7402 92.0762C79.8704 92.0918 79.9759 92.0996 80.0566 92.0996C80.1348 92.0996 80.2533 92.0983 80.4121 92.0957C80.571 92.0918 80.6895 92.0898 80.7676 92.0898C80.8678 92.0898 81.0163 92.097 81.2129 92.1113C81.4108 92.1257 81.5599 92.1328 81.6602 92.1328C81.7161 92.1328 81.763 92.1523 81.8008 92.1914C81.8385 92.2292 81.8574 92.2767 81.8574 92.334C81.8574 92.39 81.8385 92.4375 81.8008 92.4766C81.763 92.5143 81.7161 92.5332 81.6602 92.5332ZM82.3633 92.5273C82.3008 92.5273 82.2467 92.5052 82.2012 92.4609C82.1556 92.4167 82.1328 92.3633 82.1328 92.3008C82.1328 92.2383 82.1556 92.1849 82.2012 92.1406C82.2467 92.0964 82.3008 92.0742 82.3633 92.0742C82.4258 92.0742 82.4792 92.0964 82.5234 92.1406C82.569 92.1849 82.5918 92.2383 82.5918 92.3008C82.5918 92.3633 82.569 92.4167 82.5234 92.4609C82.4792 92.5052 82.4258 92.5273 82.3633 92.5273ZM82.4512 94.1133C82.4512 94.1914 82.4531 94.3086 82.457 94.4648C82.4622 94.6198 82.4648 94.7363 82.4648 94.8145C82.4648 94.8717 82.4473 94.9186 82.4121 94.9551C82.377 94.9915 82.3307 95.0098 82.2734 95.0098C82.2174 95.0098 82.1712 94.9915 82.1348 94.9551C82.0996 94.9186 82.082 94.8717 82.082 94.8145C82.082 94.7363 82.0794 94.6198 82.0742 94.4648C82.0703 94.3086 82.0684 94.1914 82.0684 94.1133C82.0684 93.9909 82.0749 93.8385 82.0879 93.6562C82.1009 93.4727 82.1074 93.3197 82.1074 93.1973C82.1074 93.1387 82.125 93.0911 82.1602 93.0547C82.1966 93.0182 82.2428 93 82.2988 93C82.3548 93 82.4004 93.0182 82.4355 93.0547C82.472 93.0911 82.4902 93.1387 82.4902 93.1973C82.4902 93.3197 82.4837 93.4727 82.4707 93.6562C82.4577 93.8385 82.4512 93.9909 82.4512 94.1133ZM83.9941 95.123C83.7272 95.123 83.5046 95.0423 83.3262 94.8809C83.1387 94.7116 83.0449 94.4883 83.0449 94.2109C83.0449 93.9466 83.1328 93.6738 83.3086 93.3926C83.5039 93.0801 83.724 92.9238 83.9688 92.9238C84.0964 92.9238 84.2389 92.9538 84.3965 93.0137C84.5957 93.0905 84.6953 93.1842 84.6953 93.2949C84.6953 93.3444 84.679 93.3887 84.6465 93.4277C84.6139 93.4655 84.5736 93.4844 84.5254 93.4844C84.4876 93.4844 84.4544 93.4733 84.4258 93.4512C84.3984 93.4277 84.3717 93.4049 84.3457 93.3828C84.2689 93.3216 84.1432 93.291 83.9688 93.291C83.8359 93.291 83.7044 93.4095 83.5742 93.6465C83.4557 93.8639 83.3965 94.0521 83.3965 94.2109C83.3965 94.3828 83.4551 94.5182 83.5723 94.6172C83.6816 94.7096 83.8223 94.7559 83.9941 94.7559C84.0723 94.7559 84.1556 94.735 84.2441 94.6934L84.4707 94.5723C84.5098 94.5514 84.5378 94.541 84.5547 94.541C84.6029 94.541 84.6445 94.5605 84.6797 94.5996C84.7148 94.6374 84.7324 94.681 84.7324 94.7305C84.7324 94.8255 84.6322 94.9173 84.4316 95.0059C84.2559 95.084 84.11 95.123 83.9941 95.123Z" fill="white"/>
<path d="M87.6602 76.5332C87.5638 76.5332 87.4154 76.5254 87.2148 76.5098C87.0195 76.4954 86.8711 76.4889 86.7695 76.4902H86.6309C86.6348 76.6699 86.6523 76.9616 86.6836 77.3652C86.7122 77.7415 86.7266 78.0339 86.7266 78.2422C86.7266 78.2878 86.7311 78.3568 86.7402 78.4492C86.7493 78.5417 86.7539 78.6113 86.7539 78.6582C86.7539 78.7467 86.7396 78.8229 86.7109 78.8867C86.6745 78.9727 86.6178 79.0156 86.541 79.0156C86.4889 79.0156 86.4421 78.9974 86.4004 78.9609C86.3587 78.9245 86.3379 78.8776 86.3379 78.8203C86.3379 78.8008 86.3411 78.7715 86.3477 78.7324C86.3542 78.6934 86.3574 78.6641 86.3574 78.6445C86.3574 78.5807 86.3529 78.485 86.3438 78.3574C86.3359 78.2298 86.332 78.1335 86.332 78.0684C86.332 77.8822 86.3171 77.6204 86.2871 77.2832C86.2559 76.9186 86.2383 76.6569 86.2344 76.498L86.0566 76.5C85.7715 76.5 85.5475 76.4792 85.3848 76.4375C85.2793 76.4102 85.2266 76.3457 85.2266 76.2441C85.2266 76.1908 85.2435 76.1439 85.2773 76.1035C85.3164 76.0579 85.3665 76.0371 85.4277 76.041C85.4733 76.0436 85.5775 76.0553 85.7402 76.0762C85.8704 76.0918 85.9759 76.0996 86.0566 76.0996C86.1348 76.0996 86.2533 76.0983 86.4121 76.0957C86.571 76.0918 86.6895 76.0898 86.7676 76.0898C86.8678 76.0898 87.0163 76.097 87.2129 76.1113C87.4108 76.1257 87.5599 76.1328 87.6602 76.1328C87.7161 76.1328 87.763 76.1523 87.8008 76.1914C87.8385 76.2292 87.8574 76.2767 87.8574 76.334C87.8574 76.39 87.8385 76.4375 87.8008 76.4766C87.763 76.5143 87.7161 76.5332 87.6602 76.5332ZM88.3633 76.5273C88.3008 76.5273 88.2467 76.5052 88.2012 76.4609C88.1556 76.4167 88.1328 76.3633 88.1328 76.3008C88.1328 76.2383 88.1556 76.1849 88.2012 76.1406C88.2467 76.0964 88.3008 76.0742 88.3633 76.0742C88.4258 76.0742 88.4792 76.0964 88.5234 76.1406C88.569 76.1849 88.5918 76.2383 88.5918 76.3008C88.5918 76.3633 88.569 76.4167 88.5234 76.4609C88.4792 76.5052 88.4258 76.5273 88.3633 76.5273ZM88.4512 78.1133C88.4512 78.1914 88.4531 78.3086 88.457 78.4648C88.4622 78.6198 88.4648 78.7363 88.4648 78.8145C88.4648 78.8717 88.4473 78.9186 88.4121 78.9551C88.377 78.9915 88.3307 79.0098 88.2734 79.0098C88.2174 79.0098 88.1712 78.9915 88.1348 78.9551C88.0996 78.9186 88.082 78.8717 88.082 78.8145C88.082 78.7363 88.0794 78.6198 88.0742 78.4648C88.0703 78.3086 88.0684 78.1914 88.0684 78.1133C88.0684 77.9909 88.0749 77.8385 88.0879 77.6562C88.1009 77.4727 88.1074 77.3197 88.1074 77.1973C88.1074 77.1387 88.125 77.0911 88.1602 77.0547C88.1966 77.0182 88.2428 77 88.2988 77C88.3548 77 88.4004 77.0182 88.4355 77.0547C88.472 77.0911 88.4902 77.1387 88.4902 77.1973C88.4902 77.3197 88.4837 77.4727 88.4707 77.6562C88.4577 77.8385 88.4512 77.9909 88.4512 78.1133ZM89.9941 79.123C89.7272 79.123 89.5046 79.0423 89.3262 78.8809C89.1387 78.7116 89.0449 78.4883 89.0449 78.2109C89.0449 77.9466 89.1328 77.6738 89.3086 77.3926C89.5039 77.0801 89.724 76.9238 89.9688 76.9238C90.0964 76.9238 90.2389 76.9538 90.3965 77.0137C90.5957 77.0905 90.6953 77.1842 90.6953 77.2949C90.6953 77.3444 90.679 77.3887 90.6465 77.4277C90.6139 77.4655 90.5736 77.4844 90.5254 77.4844C90.4876 77.4844 90.4544 77.4733 90.4258 77.4512C90.3984 77.4277 90.3717 77.4049 90.3457 77.3828C90.2689 77.3216 90.1432 77.291 89.9688 77.291C89.8359 77.291 89.7044 77.4095 89.5742 77.6465C89.4557 77.8639 89.3965 78.0521 89.3965 78.2109C89.3965 78.3828 89.4551 78.5182 89.5723 78.6172C89.6816 78.7096 89.8223 78.7559 89.9941 78.7559C90.0723 78.7559 90.1556 78.735 90.2441 78.6934L90.4707 78.5723C90.5098 78.5514 90.5378 78.541 90.5547 78.541C90.6029 78.541 90.6445 78.5605 90.6797 78.5996C90.7148 78.6374 90.7324 78.681 90.7324 78.7305C90.7324 78.8255 90.6322 78.9173 90.4316 79.0059C90.2559 79.084 90.11 79.123 89.9941 79.123Z" fill="white"/>
<path d="M90.6602 85.5332C90.5638 85.5332 90.4154 85.5254 90.2148 85.5098C90.0195 85.4954 89.8711 85.4889 89.7695 85.4902H89.6309C89.6348 85.6699 89.6523 85.9616 89.6836 86.3652C89.7122 86.7415 89.7266 87.0339 89.7266 87.2422C89.7266 87.2878 89.7311 87.3568 89.7402 87.4492C89.7493 87.5417 89.7539 87.6113 89.7539 87.6582C89.7539 87.7467 89.7396 87.8229 89.7109 87.8867C89.6745 87.9727 89.6178 88.0156 89.541 88.0156C89.4889 88.0156 89.4421 87.9974 89.4004 87.9609C89.3587 87.9245 89.3379 87.8776 89.3379 87.8203C89.3379 87.8008 89.3411 87.7715 89.3477 87.7324C89.3542 87.6934 89.3574 87.6641 89.3574 87.6445C89.3574 87.5807 89.3529 87.485 89.3438 87.3574C89.3359 87.2298 89.332 87.1335 89.332 87.0684C89.332 86.8822 89.3171 86.6204 89.2871 86.2832C89.2559 85.9186 89.2383 85.6569 89.2344 85.498L89.0566 85.5C88.7715 85.5 88.5475 85.4792 88.3848 85.4375C88.2793 85.4102 88.2266 85.3457 88.2266 85.2441C88.2266 85.1908 88.2435 85.1439 88.2773 85.1035C88.3164 85.0579 88.3665 85.0371 88.4277 85.041C88.4733 85.0436 88.5775 85.0553 88.7402 85.0762C88.8704 85.0918 88.9759 85.0996 89.0566 85.0996C89.1348 85.0996 89.2533 85.0983 89.4121 85.0957C89.571 85.0918 89.6895 85.0898 89.7676 85.0898C89.8678 85.0898 90.0163 85.097 90.2129 85.1113C90.4108 85.1257 90.5599 85.1328 90.6602 85.1328C90.7161 85.1328 90.763 85.1523 90.8008 85.1914C90.8385 85.2292 90.8574 85.2767 90.8574 85.334C90.8574 85.39 90.8385 85.4375 90.8008 85.4766C90.763 85.5143 90.7161 85.5332 90.6602 85.5332ZM91.3633 85.5273C91.3008 85.5273 91.2467 85.5052 91.2012 85.4609C91.1556 85.4167 91.1328 85.3633 91.1328 85.3008C91.1328 85.2383 91.1556 85.1849 91.2012 85.1406C91.2467 85.0964 91.3008 85.0742 91.3633 85.0742C91.4258 85.0742 91.4792 85.0964 91.5234 85.1406C91.569 85.1849 91.5918 85.2383 91.5918 85.3008C91.5918 85.3633 91.569 85.4167 91.5234 85.4609C91.4792 85.5052 91.4258 85.5273 91.3633 85.5273ZM91.4512 87.1133C91.4512 87.1914 91.4531 87.3086 91.457 87.4648C91.4622 87.6198 91.4648 87.7363 91.4648 87.8145C91.4648 87.8717 91.4473 87.9186 91.4121 87.9551C91.377 87.9915 91.3307 88.0098 91.2734 88.0098C91.2174 88.0098 91.1712 87.9915 91.1348 87.9551C91.0996 87.9186 91.082 87.8717 91.082 87.8145C91.082 87.7363 91.0794 87.6198 91.0742 87.4648C91.0703 87.3086 91.0684 87.1914 91.0684 87.1133C91.0684 86.9909 91.0749 86.8385 91.0879 86.6562C91.1009 86.4727 91.1074 86.3197 91.1074 86.1973C91.1074 86.1387 91.125 86.0911 91.1602 86.0547C91.1966 86.0182 91.2428 86 91.2988 86C91.3548 86 91.4004 86.0182 91.4355 86.0547C91.472 86.0911 91.4902 86.1387 91.4902 86.1973C91.4902 86.3197 91.4837 86.4727 91.4707 86.6562C91.4577 86.8385 91.4512 86.9909 91.4512 87.1133ZM92.9941 88.123C92.7272 88.123 92.5046 88.0423 92.3262 87.8809C92.1387 87.7116 92.0449 87.4883 92.0449 87.2109C92.0449 86.9466 92.1328 86.6738 92.3086 86.3926C92.5039 86.0801 92.724 85.9238 92.9688 85.9238C93.0964 85.9238 93.2389 85.9538 93.3965 86.0137C93.5957 86.0905 93.6953 86.1842 93.6953 86.2949C93.6953 86.3444 93.679 86.3887 93.6465 86.4277C93.6139 86.4655 93.5736 86.4844 93.5254 86.4844C93.4876 86.4844 93.4544 86.4733 93.4258 86.4512C93.3984 86.4277 93.3717 86.4049 93.3457 86.3828C93.2689 86.3216 93.1432 86.291 92.9688 86.291C92.8359 86.291 92.7044 86.4095 92.5742 86.6465C92.4557 86.8639 92.3965 87.0521 92.3965 87.2109C92.3965 87.3828 92.4551 87.5182 92.5723 87.6172C92.6816 87.7096 92.8223 87.7559 92.9941 87.7559C93.0723 87.7559 93.1556 87.735 93.2441 87.6934L93.4707 87.5723C93.5098 87.5514 93.5378 87.541 93.5547 87.541C93.6029 87.541 93.6445 87.5605 93.6797 87.5996C93.7148 87.6374 93.7324 87.681 93.7324 87.7305C93.7324 87.8255 93.6322 87.9173 93.4316 88.0059C93.2559 88.084 93.11 88.123 92.9941 88.123Z" fill="white"/>
<path d="M70.6602 91.5332C70.5638 91.5332 70.4154 91.5254 70.2148 91.5098C70.0195 91.4954 69.8711 91.4889 69.7695 91.4902H69.6309C69.6348 91.6699 69.6523 91.9616 69.6836 92.3652C69.7122 92.7415 69.7266 93.0339 69.7266 93.2422C69.7266 93.2878 69.7311 93.3568 69.7402 93.4492C69.7493 93.5417 69.7539 93.6113 69.7539 93.6582C69.7539 93.7467 69.7396 93.8229 69.7109 93.8867C69.6745 93.9727 69.6178 94.0156 69.541 94.0156C69.4889 94.0156 69.4421 93.9974 69.4004 93.9609C69.3587 93.9245 69.3379 93.8776 69.3379 93.8203C69.3379 93.8008 69.3411 93.7715 69.3477 93.7324C69.3542 93.6934 69.3574 93.6641 69.3574 93.6445C69.3574 93.5807 69.3529 93.485 69.3438 93.3574C69.3359 93.2298 69.332 93.1335 69.332 93.0684C69.332 92.8822 69.3171 92.6204 69.2871 92.2832C69.2559 91.9186 69.2383 91.6569 69.2344 91.498L69.0566 91.5C68.7715 91.5 68.5475 91.4792 68.3848 91.4375C68.2793 91.4102 68.2266 91.3457 68.2266 91.2441C68.2266 91.1908 68.2435 91.1439 68.2773 91.1035C68.3164 91.0579 68.3665 91.0371 68.4277 91.041C68.4733 91.0436 68.5775 91.0553 68.7402 91.0762C68.8704 91.0918 68.9759 91.0996 69.0566 91.0996C69.1348 91.0996 69.2533 91.0983 69.4121 91.0957C69.571 91.0918 69.6895 91.0898 69.7676 91.0898C69.8678 91.0898 70.0163 91.097 70.2129 91.1113C70.4108 91.1257 70.5599 91.1328 70.6602 91.1328C70.7161 91.1328 70.763 91.1523 70.8008 91.1914C70.8385 91.2292 70.8574 91.2767 70.8574 91.334C70.8574 91.39 70.8385 91.4375 70.8008 91.4766C70.763 91.5143 70.7161 91.5332 70.6602 91.5332ZM71.3633 91.5273C71.3008 91.5273 71.2467 91.5052 71.2012 91.4609C71.1556 91.4167 71.1328 91.3633 71.1328 91.3008C71.1328 91.2383 71.1556 91.1849 71.2012 91.1406C71.2467 91.0964 71.3008 91.0742 71.3633 91.0742C71.4258 91.0742 71.4792 91.0964 71.5234 91.1406C71.569 91.1849 71.5918 91.2383 71.5918 91.3008C71.5918 91.3633 71.569 91.4167 71.5234 91.4609C71.4792 91.5052 71.4258 91.5273 71.3633 91.5273ZM71.4512 93.1133C71.4512 93.1914 71.4531 93.3086 71.457 93.4648C71.4622 93.6198 71.4648 93.7363 71.4648 93.8145C71.4648 93.8717 71.4473 93.9186 71.4121 93.9551C71.377 93.9915 71.3307 94.0098 71.2734 94.0098C71.2174 94.0098 71.1712 93.9915 71.1348 93.9551C71.0996 93.9186 71.082 93.8717 71.082 93.8145C71.082 93.7363 71.0794 93.6198 71.0742 93.4648C71.0703 93.3086 71.0684 93.1914 71.0684 93.1133C71.0684 92.9909 71.0749 92.8385 71.0879 92.6562C71.1009 92.4727 71.1074 92.3197 71.1074 92.1973C71.1074 92.1387 71.125 92.0911 71.1602 92.0547C71.1966 92.0182 71.2428 92 71.2988 92C71.3548 92 71.4004 92.0182 71.4355 92.0547C71.472 92.0911 71.4902 92.1387 71.4902 92.1973C71.4902 92.3197 71.4837 92.4727 71.4707 92.6562C71.4577 92.8385 71.4512 92.9909 71.4512 93.1133ZM72.9941 94.123C72.7272 94.123 72.5046 94.0423 72.3262 93.8809C72.1387 93.7116 72.0449 93.4883 72.0449 93.2109C72.0449 92.9466 72.1328 92.6738 72.3086 92.3926C72.5039 92.0801 72.724 91.9238 72.9688 91.9238C73.0964 91.9238 73.2389 91.9538 73.3965 92.0137C73.5957 92.0905 73.6953 92.1842 73.6953 92.2949C73.6953 92.3444 73.679 92.3887 73.6465 92.4277C73.6139 92.4655 73.5736 92.4844 73.5254 92.4844C73.4876 92.4844 73.4544 92.4733 73.4258 92.4512C73.3984 92.4277 73.3717 92.4049 73.3457 92.3828C73.2689 92.3216 73.1432 92.291 72.9688 92.291C72.8359 92.291 72.7044 92.4095 72.5742 92.6465C72.4557 92.8639 72.3965 93.0521 72.3965 93.2109C72.3965 93.3828 72.4551 93.5182 72.5723 93.6172C72.6816 93.7096 72.8223 93.7559 72.9941 93.7559C73.0723 93.7559 73.1556 93.735 73.2441 93.6934L73.4707 93.5723C73.5098 93.5514 73.5378 93.541 73.5547 93.541C73.6029 93.541 73.6445 93.5605 73.6797 93.5996C73.7148 93.6374 73.7324 93.681 73.7324 93.7305C73.7324 93.8255 73.6322 93.9173 73.4316 94.0059C73.2559 94.084 73.11 94.123 72.9941 94.123Z" fill="white"/>
<path d="M126.99 88.2998C126.846 88.2998 126.623 88.2881 126.322 88.2646C126.029 88.2432 125.807 88.2334 125.654 88.2354H125.446C125.452 88.5049 125.479 88.9424 125.525 89.5479C125.568 90.1123 125.59 90.5508 125.59 90.8633C125.59 90.9316 125.597 91.0352 125.61 91.1738C125.624 91.3125 125.631 91.417 125.631 91.4873C125.631 91.6201 125.609 91.7344 125.566 91.8301C125.512 91.959 125.427 92.0234 125.312 92.0234C125.233 92.0234 125.163 91.9961 125.101 91.9414C125.038 91.8867 125.007 91.8164 125.007 91.7305C125.007 91.7012 125.012 91.6572 125.021 91.5986C125.031 91.54 125.036 91.4961 125.036 91.4668C125.036 91.3711 125.029 91.2275 125.016 91.0361C125.004 90.8447 124.998 90.7002 124.998 90.6025C124.998 90.3232 124.976 89.9307 124.931 89.4248C124.884 88.8779 124.857 88.4854 124.852 88.2471L124.585 88.25C124.157 88.25 123.821 88.2188 123.577 88.1562C123.419 88.1152 123.34 88.0186 123.34 87.8662C123.34 87.7861 123.365 87.7158 123.416 87.6553C123.475 87.5869 123.55 87.5557 123.642 87.5615C123.71 87.5654 123.866 87.583 124.11 87.6143C124.306 87.6377 124.464 87.6494 124.585 87.6494C124.702 87.6494 124.88 87.6475 125.118 87.6436C125.356 87.6377 125.534 87.6348 125.651 87.6348C125.802 87.6348 126.024 87.6455 126.319 87.667C126.616 87.6885 126.84 87.6992 126.99 87.6992C127.074 87.6992 127.145 87.7285 127.201 87.7871C127.258 87.8438 127.286 87.915 127.286 88.001C127.286 88.085 127.258 88.1562 127.201 88.2148C127.145 88.2715 127.074 88.2998 126.99 88.2998ZM129.938 92.1816C129.799 92.1816 129.708 92.1074 129.665 91.959C129.62 91.7988 129.579 91.5713 129.542 91.2764C129.507 90.9932 129.489 90.7607 129.489 90.5791C129.489 90.5283 129.491 90.4512 129.495 90.3477C129.501 90.2441 129.504 90.167 129.504 90.1162C129.504 89.749 129.412 89.5654 129.229 89.5654C128.98 89.5654 128.759 89.6777 128.563 89.9023C128.464 90.0176 128.327 90.2373 128.153 90.5615C128.153 91.3057 128.122 91.7461 128.06 91.8828C128.005 92.0039 127.92 92.0645 127.805 92.0645C127.725 92.0645 127.654 92.0371 127.594 91.9824C127.533 91.9277 127.503 91.8613 127.503 91.7832C127.503 91.7559 127.512 91.7129 127.529 91.6543C127.545 91.6055 127.556 91.4629 127.562 91.2266L127.57 90.793L127.579 88.6396C127.593 88.3975 127.6 88.2344 127.6 88.1504C127.6 88.0508 127.59 87.957 127.57 87.8691C127.553 87.7793 127.544 87.6865 127.544 87.5908C127.544 87.5088 127.572 87.4414 127.629 87.3887C127.686 87.334 127.755 87.3066 127.837 87.3066C127.997 87.3066 128.091 87.3926 128.118 87.5645C128.149 87.7539 128.165 87.9248 128.165 88.0771C128.165 88.2822 128.158 88.4961 128.145 88.7188C128.133 88.9316 128.128 89.1455 128.13 89.3604L128.133 89.6182C128.293 89.4033 128.464 89.2432 128.646 89.1377C128.829 89.0303 129.023 88.9766 129.229 88.9766C129.553 88.9766 129.775 89.082 129.896 89.293C129.982 89.4414 130.031 89.6914 130.043 90.043L130.066 90.6025L130.125 91.2119C130.152 91.4404 130.186 91.6416 130.225 91.8154C130.232 91.8486 130.236 91.877 130.236 91.9004C130.236 91.9805 130.207 92.0469 130.148 92.0996C130.09 92.1543 130.02 92.1816 129.938 92.1816ZM132.322 92.1348C131.881 92.1348 131.523 92.0244 131.25 91.8037C130.951 91.5596 130.802 91.2178 130.802 90.7783C130.802 90.2705 130.925 89.8447 131.171 89.501C131.438 89.126 131.796 88.9385 132.243 88.9385C132.567 88.9385 132.832 88.9932 133.037 89.1025C133.289 89.2373 133.415 89.4443 133.415 89.7236C133.415 89.9189 133.305 90.0967 133.084 90.2568C132.986 90.3271 132.779 90.4365 132.463 90.585L131.344 91.1152C131.453 91.2773 131.589 91.3994 131.751 91.4814C131.915 91.5635 132.105 91.6045 132.322 91.6045C132.457 91.6045 132.615 91.5791 132.797 91.5283C133.027 91.4639 133.176 91.3799 133.242 91.2764C133.309 91.1709 133.38 91.1182 133.456 91.1182C133.524 91.1182 133.585 91.1445 133.638 91.1973C133.692 91.248 133.72 91.3076 133.72 91.376C133.72 91.5928 133.545 91.7793 133.195 91.9355C132.896 92.0684 132.605 92.1348 132.322 92.1348ZM132.243 89.4658C132.005 89.4658 131.807 89.5586 131.648 89.7441C131.49 89.9277 131.372 90.2051 131.294 90.5762L132.193 90.1484C132.547 89.9766 132.799 89.8271 132.949 89.7002C132.781 89.5439 132.546 89.4658 132.243 89.4658ZM138.58 92.0059C138.531 92.0059 138.462 91.9912 138.372 91.9619C138.284 91.9307 138.217 91.915 138.17 91.915C138.07 91.915 137.921 91.9209 137.722 91.9326C137.522 91.9443 137.372 91.9502 137.271 91.9502C137.194 91.9502 137.081 91.96 136.931 91.9795C136.782 91.999 136.67 92.0088 136.594 92.0088C136.572 92.0088 136.541 92.0049 136.5 91.9971C136.459 91.9893 136.428 91.9854 136.406 91.9854C136.271 91.9854 136.184 91.9199 136.143 91.7891C136.119 91.7207 136.107 91.6035 136.107 91.4375C136.107 90.9824 136.231 90.6162 136.479 90.3389C136.593 90.2119 136.898 89.9775 137.396 89.6357C137.676 89.4443 137.862 89.2949 137.956 89.1875C138.124 89 138.208 88.7803 138.208 88.5283C138.208 88.4033 138.127 88.292 137.965 88.1943C137.822 88.1064 137.683 88.0625 137.546 88.0625C137.366 88.0625 137.195 88.1143 137.033 88.2178L136.614 88.5459C136.53 88.6123 136.463 88.6455 136.412 88.6455C136.211 88.6455 136.11 88.5654 136.11 88.4053C136.11 88.3135 136.147 88.2344 136.222 88.168C136.45 87.9531 136.648 87.7979 136.816 87.7021C137.053 87.5674 137.296 87.5 137.546 87.5C137.862 87.5 138.145 87.5859 138.393 87.7578C138.67 87.9512 138.809 88.1992 138.809 88.502C138.809 88.7012 138.78 88.8848 138.724 89.0527C138.667 89.2207 138.581 89.374 138.466 89.5127C138.319 89.6885 138.071 89.8848 137.722 90.1016C137.354 90.332 137.113 90.5068 136.998 90.626C136.781 90.8506 136.675 91.123 136.679 91.4434L137.282 91.3877C137.696 91.3643 137.992 91.3525 138.17 91.3525C138.318 91.3525 138.459 91.3779 138.592 91.4287C138.768 91.4971 138.855 91.5918 138.855 91.7129C138.855 91.7891 138.829 91.8574 138.776 91.918C138.724 91.9766 138.658 92.0059 138.58 92.0059ZM141.079 92.1143C140.485 92.1143 140.052 91.8428 139.778 91.2998C139.571 90.8818 139.468 90.3379 139.468 89.668C139.468 89.1016 139.603 88.6074 139.872 88.1855C140.19 87.6914 140.623 87.4443 141.17 87.4443C141.684 87.4443 142.084 87.6631 142.371 88.1006C142.619 88.4795 142.743 88.9414 142.743 89.4863C142.743 90.3613 142.604 91.0186 142.327 91.458C142.05 91.8955 141.634 92.1143 141.079 92.1143ZM141.167 88.0098C140.804 88.0098 140.516 88.1943 140.303 88.5635C140.125 88.8721 140.036 89.2246 140.036 89.6211C140.036 90.2637 140.123 90.7461 140.297 91.0684C140.471 91.3906 140.731 91.5518 141.079 91.5518C141.493 91.5518 141.79 91.3154 141.97 90.8428C142.095 90.5146 142.157 90.0986 142.157 89.5947C142.157 89.0654 142.074 88.6689 141.908 88.4053C141.744 88.1416 141.497 88.0098 141.167 88.0098ZM145.014 92.0029H144.431L143.851 92C143.714 92 143.618 91.9912 143.563 91.9736C143.464 91.9385 143.414 91.8643 143.414 91.751C143.414 91.5537 143.567 91.4551 143.874 91.4551L144.015 91.458L144.135 91.4639C144.135 91.3701 144.126 91.2314 144.108 91.0479C144.093 90.8643 144.085 90.7266 144.085 90.6348C144.085 90.3867 144.107 90.0098 144.152 89.5039C144.195 89.0059 144.216 88.6279 144.214 88.3701C143.952 88.5732 143.785 88.6748 143.713 88.6748C143.635 88.6748 143.566 88.6455 143.508 88.5869C143.451 88.5283 143.423 88.4609 143.423 88.3848C143.423 88.293 143.507 88.1816 143.675 88.0508C143.78 87.9766 143.93 87.8574 144.123 87.6934C144.295 87.5195 144.459 87.4326 144.615 87.4326C144.746 87.4326 144.812 87.5078 144.812 87.6582C144.812 87.7031 144.806 87.7705 144.794 87.8604C144.782 87.9482 144.776 88.0146 144.776 88.0596C144.776 88.124 144.779 88.2217 144.785 88.3525C144.793 88.4834 144.797 88.5811 144.797 88.6455C144.797 88.8682 144.773 89.2002 144.727 89.6416C144.68 90.083 144.656 90.4141 144.656 90.6348C144.656 90.748 144.664 90.8857 144.68 91.0479C144.695 91.21 144.704 91.3428 144.706 91.4463L145.014 91.4404C145.096 91.4404 145.163 91.4678 145.216 91.5225C145.271 91.5752 145.298 91.6416 145.298 91.7217C145.298 91.8037 145.271 91.8711 145.216 91.9238C145.163 91.9766 145.096 92.0029 145.014 92.0029ZM147.401 92.2109C146.892 92.2109 146.517 92.0244 146.276 91.6514C146.077 91.3447 145.978 90.9355 145.978 90.4238C145.978 89.459 146.369 88.6221 147.152 87.9131L147.428 87.6348C147.562 87.5059 147.664 87.4414 147.732 87.4414C147.811 87.4414 147.879 87.4697 147.938 87.5264C147.996 87.5811 148.026 87.6465 148.028 87.7227C148.032 87.793 147.933 87.9287 147.729 88.1299L147.132 88.7129C146.974 88.873 146.838 89.1152 146.725 89.4395C146.895 89.3613 147.043 89.3037 147.17 89.2666C147.297 89.2275 147.401 89.208 147.483 89.208C147.94 89.208 148.291 89.3301 148.535 89.5742C148.779 89.8184 148.901 90.1631 148.901 90.6084C148.901 91.0752 148.77 91.4561 148.506 91.751C148.23 92.0576 147.862 92.2109 147.401 92.2109ZM147.401 89.8057C147.233 89.8057 147.083 89.835 146.95 89.8936C146.899 89.917 146.771 89.9922 146.566 90.1191C146.555 90.2227 146.549 90.3242 146.549 90.4238C146.549 90.7734 146.607 91.0586 146.725 91.2793C146.873 91.5605 147.104 91.7012 147.419 91.7012C147.714 91.7012 147.942 91.5957 148.104 91.3848C148.255 91.1895 148.33 90.9307 148.33 90.6084C148.33 90.3408 148.253 90.1406 148.099 90.0078C147.944 89.873 147.712 89.8057 147.401 89.8057ZM155.868 92.2432C155.763 92.2432 155.676 92.1885 155.607 92.0791C155.549 91.9854 155.496 91.8291 155.449 91.6104L155.344 91.1064C155.264 90.7939 155.137 90.1045 154.963 89.0381L154.377 90.8047L154.204 91.3613C154.134 91.582 154.061 91.7627 153.984 91.9033C153.902 92.0518 153.792 92.126 153.653 92.126C153.538 92.126 153.447 92.0635 153.381 91.9385C153.338 91.8564 153.299 91.752 153.264 91.625L153.179 91.2998C152.981 90.6104 152.808 89.8721 152.657 89.085L152.552 89.6094L152.174 91.1562C152.158 91.3379 152.109 91.6064 152.027 91.9619C151.969 92.1143 151.872 92.1904 151.737 92.1904C151.642 92.1904 151.565 92.1562 151.509 92.0879C151.46 92.0293 151.436 91.957 151.436 91.8711C151.436 91.5449 151.503 91.1445 151.638 90.6699L151.96 89.4893L152.13 88.5664C152.216 88.1348 152.307 87.8525 152.402 87.7197C152.48 87.6064 152.577 87.5498 152.692 87.5498C152.819 87.5498 152.914 87.6221 152.977 87.7666C153.053 87.9404 153.135 88.2949 153.223 88.8301C153.326 89.4727 153.487 90.168 153.706 90.916C153.995 90.1641 154.245 89.3809 154.456 88.5664L154.544 88.1387C154.579 87.9668 154.625 87.8281 154.682 87.7227C154.758 87.5781 154.862 87.5059 154.995 87.5059C155.163 87.5059 155.291 87.668 155.379 87.9922C155.41 88.1035 155.448 88.334 155.493 88.6836C155.608 89.5664 155.752 90.3203 155.924 90.9453L156.067 91.4492C156.142 91.7188 156.179 91.8848 156.179 91.9473C156.179 92.0312 156.146 92.1016 156.082 92.1582C156.02 92.2148 155.948 92.2432 155.868 92.2432ZM159.1 92.1934C159.062 92.1934 158.995 92.1504 158.897 92.0645C158.81 91.9844 158.744 91.9131 158.701 91.8506C158.514 91.9521 158.349 92.0283 158.206 92.0791C158.063 92.1318 157.944 92.1582 157.849 92.1582C157.392 92.1582 157.059 92.0293 156.85 91.7715C156.652 91.5293 156.554 91.1582 156.554 90.6582C156.554 90.1855 156.716 89.7812 157.04 89.4453C157.366 89.1094 157.755 88.9414 158.206 88.9414C158.376 88.9414 158.566 88.9854 158.777 89.0732C159.043 89.1826 159.176 89.3145 159.176 89.4688C159.176 89.5215 159.156 89.5684 159.117 89.6094C159.098 89.6836 159.082 89.8057 159.07 89.9756C159.061 90.1455 159.055 90.3633 159.053 90.6289C159.051 90.8711 159.067 91.0625 159.103 91.2031C159.122 91.2891 159.184 91.4609 159.287 91.7188C159.301 91.7539 159.323 91.8057 159.354 91.874L159.372 91.9238C159.372 92.002 159.345 92.0664 159.29 92.1172C159.235 92.168 159.172 92.1934 159.1 92.1934ZM158.49 90.1572C158.49 90.0732 158.495 89.9824 158.505 89.8848C158.517 89.7852 158.533 89.6797 158.555 89.5684C158.482 89.5312 158.42 89.5039 158.367 89.4863C158.316 89.4688 158.275 89.46 158.244 89.46C157.941 89.46 157.68 89.584 157.459 89.832C157.24 90.0781 157.131 90.3623 157.131 90.6846C157.131 91.0049 157.188 91.2451 157.301 91.4053C157.414 91.5654 157.584 91.6455 157.811 91.6455C157.998 91.6455 158.157 91.6113 158.288 91.543C158.358 91.5059 158.457 91.4316 158.584 91.3203C158.521 90.8027 158.49 90.415 158.49 90.1572ZM161.206 92.1846C160.806 92.1846 160.472 92.0635 160.204 91.8213C159.923 91.5674 159.782 91.2324 159.782 90.8164C159.782 90.4199 159.914 90.0107 160.178 89.5889C160.471 89.1201 160.801 88.8857 161.168 88.8857C161.359 88.8857 161.573 88.9307 161.81 89.0205C162.108 89.1357 162.258 89.2764 162.258 89.4424C162.258 89.5166 162.233 89.583 162.185 89.6416C162.136 89.6982 162.075 89.7266 162.003 89.7266C161.946 89.7266 161.896 89.71 161.854 89.6768C161.812 89.6416 161.772 89.6074 161.733 89.5742C161.618 89.4824 161.43 89.4365 161.168 89.4365C160.969 89.4365 160.771 89.6143 160.576 89.9697C160.398 90.2959 160.31 90.5781 160.31 90.8164C160.31 91.0742 160.397 91.2773 160.573 91.4258C160.737 91.5645 160.948 91.6338 161.206 91.6338C161.323 91.6338 161.448 91.6025 161.581 91.54L161.921 91.3584C161.979 91.3271 162.021 91.3115 162.047 91.3115C162.119 91.3115 162.182 91.3408 162.234 91.3994C162.287 91.4561 162.313 91.5215 162.313 91.5957C162.313 91.7383 162.163 91.876 161.862 92.0088C161.599 92.126 161.38 92.1846 161.206 92.1846ZM165.152 91.8828C164.713 92.0547 164.151 92.1406 163.468 92.1406C163.384 92.1406 163.304 92.1006 163.228 92.0205C163.153 91.9424 163.116 91.8613 163.116 91.7773V90.9248C163.116 90.6455 163.134 90.2471 163.169 89.7295C163.208 89.1709 163.229 88.7666 163.233 88.5166C163.231 88.3369 163.242 88.0693 163.266 87.7139C163.279 87.6162 163.312 87.5518 163.362 87.5205C163.628 87.4385 163.93 87.3975 164.268 87.3975C164.611 87.3975 164.941 87.5146 165.258 87.749C165.623 88.0186 165.806 88.3516 165.806 88.748C165.806 89.25 165.61 89.6455 165.22 89.9346C165.513 90.0596 165.731 90.1982 165.876 90.3506C166.022 90.5029 166.096 90.6689 166.096 90.8486C166.096 91.085 165.968 91.3135 165.712 91.5342C165.534 91.6904 165.348 91.8066 165.152 91.8828ZM164.268 87.9951C164.055 87.9951 163.905 88.002 163.819 88.0156L163.813 88.5283L163.755 89.6621C164.032 89.6855 164.181 89.6963 164.2 89.6943C164.495 89.6709 164.736 89.5791 164.924 89.4189C165.125 89.2451 165.226 89.0215 165.226 88.748C165.226 88.5625 165.123 88.3906 164.918 88.2324C164.713 88.0742 164.496 87.9951 164.268 87.9951ZM164.596 90.3418L164.285 90.292C164.26 90.292 164.221 90.2939 164.168 90.2979C164.117 90.2998 164.078 90.3008 164.051 90.3008C163.945 90.3008 163.833 90.292 163.714 90.2744C163.702 90.5205 163.696 90.7402 163.696 90.9336V91.54C164.208 91.5225 164.625 91.4502 164.947 91.3232C165.084 91.2705 165.215 91.1885 165.34 91.0771C165.459 90.9756 165.519 90.8994 165.519 90.8486C165.519 90.7568 165.394 90.6533 165.144 90.5381C164.956 90.4502 164.773 90.3848 164.596 90.3418ZM167.848 92.1729C167.52 92.1729 167.237 92.0518 167.001 91.8096C166.737 91.54 166.599 91.1777 166.585 90.7227C166.573 90.2812 166.685 89.8926 166.919 89.5566C167.192 89.1602 167.573 88.9619 168.062 88.9619C168.452 88.9619 168.748 89.1406 168.949 89.498C169.109 89.7871 169.187 90.1348 169.181 90.541C169.175 90.9746 169.062 91.3447 168.841 91.6514C168.591 91.999 168.26 92.1729 167.848 92.1729ZM168.023 89.5566C167.736 89.5547 167.513 89.6914 167.353 89.9668C167.226 90.1875 167.162 90.4395 167.162 90.7227C167.162 91.0059 167.239 91.2266 167.394 91.3848C167.522 91.5156 167.674 91.5811 167.848 91.5811C168.051 91.5811 168.226 91.5068 168.372 91.3584C168.538 91.1943 168.626 90.9727 168.636 90.6934C168.663 89.9375 168.459 89.5586 168.023 89.5566ZM171.006 92.1729C170.678 92.1729 170.396 92.0518 170.159 91.8096C169.896 91.54 169.757 91.1777 169.743 90.7227C169.731 90.2812 169.843 89.8926 170.077 89.5566C170.351 89.1602 170.731 88.9619 171.22 88.9619C171.61 88.9619 171.906 89.1406 172.107 89.498C172.268 89.7871 172.345 90.1348 172.339 90.541C172.333 90.9746 172.22 91.3447 171.999 91.6514C171.749 91.999 171.418 92.1729 171.006 92.1729ZM171.182 89.5566C170.895 89.5547 170.671 89.6914 170.511 89.9668C170.384 90.1875 170.32 90.4395 170.32 90.7227C170.32 91.0059 170.397 91.2266 170.552 91.3848C170.681 91.5156 170.832 91.5811 171.006 91.5811C171.209 91.5811 171.384 91.5068 171.53 91.3584C171.696 91.1943 171.784 90.9727 171.794 90.6934C171.821 89.9375 171.617 89.5586 171.182 89.5566ZM175.506 92.1201C175.398 92.1201 175.315 92.0635 175.257 91.9502C175.155 91.7529 175.002 91.5195 174.797 91.25L174.278 90.5439C174.165 90.6338 173.989 90.7598 173.751 90.9219C173.729 91.2246 173.719 91.5195 173.719 91.8066C173.719 91.8945 173.691 91.9658 173.637 92.0205C173.584 92.0752 173.516 92.1025 173.432 92.1025C173.234 92.1025 173.136 91.9697 173.136 91.7041C173.136 91.542 173.146 91.2998 173.168 90.9775C173.191 90.6533 173.203 90.4102 173.203 90.248C173.203 89.9512 173.207 89.6123 173.215 89.2314C173.225 88.8486 173.229 88.5107 173.229 88.2178C173.229 88.1299 173.225 88.0264 173.215 87.9072C173.207 87.7881 173.203 87.6846 173.203 87.5967C173.203 87.5088 173.229 87.4375 173.282 87.3828C173.337 87.3281 173.406 87.3008 173.49 87.3008C173.574 87.3008 173.643 87.3281 173.695 87.3828C173.75 87.4375 173.777 87.5088 173.777 87.5967C173.777 87.6865 173.782 87.793 173.792 87.916C173.802 88.0371 173.807 88.1426 173.807 88.2324L173.786 89.1758C173.776 89.5156 173.773 89.8555 173.777 90.1953C174.043 89.9922 174.299 89.7695 174.545 89.5273L175.189 88.8623C175.254 88.7959 175.323 88.7627 175.397 88.7627C175.474 88.7627 175.542 88.793 175.603 88.8535C175.665 88.9141 175.696 88.9844 175.696 89.0645C175.696 89.1309 175.668 89.1963 175.611 89.2607C175.371 89.542 175.075 89.8438 174.724 90.166L175.362 91.0361C175.661 91.4443 175.811 91.71 175.811 91.833C175.811 91.9111 175.779 91.9785 175.717 92.0352C175.656 92.0918 175.586 92.1201 175.506 92.1201ZM178.901 90.2803C178.847 90.2803 178.728 90.2676 178.544 90.2422C178.528 90.5371 178.521 91.0537 178.521 91.792C178.521 91.8701 178.495 91.9365 178.444 91.9912C178.394 92.0439 178.33 92.0703 178.254 92.0703C178.176 92.0703 178.111 92.0439 178.061 91.9912C178.01 91.9365 177.984 91.8701 177.984 91.792V90.9307C177.984 90.6436 178.002 90.2393 178.037 89.7178C178.076 89.1533 178.098 88.749 178.102 88.5049V88.1006C178.102 87.9072 178.113 87.7666 178.137 87.6787C178.182 87.5068 178.277 87.4326 178.424 87.4561C178.486 87.4365 178.575 87.4219 178.69 87.4121C178.806 87.4023 178.947 87.3975 179.115 87.3975C179.473 87.3975 179.808 87.5195 180.12 87.7637C180.464 88.0332 180.636 88.3574 180.636 88.7363C180.636 89.2207 180.452 89.6064 180.085 89.8936C179.757 90.1514 179.362 90.2803 178.901 90.2803ZM179.048 87.9541C178.962 87.9541 178.885 87.9561 178.816 87.96C178.75 87.9639 178.693 87.9697 178.646 87.9775L178.641 88.5166L178.579 89.6826L178.901 89.7207C179.229 89.7207 179.506 89.6377 179.73 89.4717C179.977 89.29 180.1 89.0449 180.1 88.7363C180.1 88.5176 179.982 88.3291 179.748 88.1709C179.531 88.0264 179.298 87.9541 179.048 87.9541ZM183.501 89.835C183.487 90.0791 183.39 90.2012 183.208 90.2012C183.04 90.2012 182.956 90.1045 182.956 89.9111C182.956 89.874 182.953 89.8057 182.947 89.7061L182.938 89.46C182.63 89.4971 182.383 89.584 182.197 89.7207C182.023 89.8477 181.879 90.0391 181.764 90.2949L181.77 91.9004C181.77 92.0977 181.673 92.1963 181.479 92.1963C181.308 92.1963 181.222 92.0977 181.222 91.9004V89.8438C181.222 89.7793 181.224 89.6826 181.228 89.5537C181.233 89.4248 181.236 89.3281 181.236 89.2637C181.236 89.0664 181.322 88.9678 181.494 88.9678C181.686 88.9678 181.782 89.1299 181.784 89.4541C182.159 89.0928 182.575 88.9121 183.032 88.9121C183.19 88.9121 183.309 88.9717 183.387 89.0908C183.465 89.21 183.504 89.3896 183.504 89.6299C183.504 89.7314 183.503 89.7998 183.501 89.835ZM185.203 92.1729C184.875 92.1729 184.593 92.0518 184.356 91.8096C184.093 91.54 183.954 91.1777 183.94 90.7227C183.929 90.2812 184.04 89.8926 184.274 89.5566C184.548 89.1602 184.929 88.9619 185.417 88.9619C185.808 88.9619 186.104 89.1406 186.305 89.498C186.465 89.7871 186.542 90.1348 186.536 90.541C186.53 90.9746 186.417 91.3447 186.196 91.6514C185.946 91.999 185.615 92.1729 185.203 92.1729ZM185.379 89.5566C185.092 89.5547 184.868 89.6914 184.708 89.9668C184.581 90.1875 184.518 90.4395 184.518 90.7227C184.518 91.0059 184.595 91.2266 184.749 91.3848C184.878 91.5156 185.029 91.5811 185.203 91.5811C185.406 91.5811 185.581 91.5068 185.728 91.3584C185.894 91.1943 185.981 90.9727 185.991 90.6934C186.019 89.9375 185.814 89.5586 185.379 89.5566ZM126.378 100.12C126.081 100.12 125.658 99.8594 125.109 99.3379L124.233 98.4561V98.4971L124.23 100.032C124.23 100.226 124.146 100.322 123.976 100.322C123.864 100.322 123.775 100.273 123.709 100.176C123.654 100.096 123.627 100.009 123.627 99.915C123.627 99.458 123.641 98.7744 123.668 97.8643C123.695 96.9541 123.709 96.2715 123.709 95.8164C123.709 95.7324 123.736 95.6611 123.791 95.6025C123.848 95.5439 123.917 95.5146 123.999 95.5146C124.083 95.5146 124.152 95.5439 124.207 95.6025C124.264 95.6611 124.292 95.7324 124.292 95.8164C124.292 96.0059 124.28 96.3008 124.257 96.7012C124.233 97.0879 124.223 97.3838 124.225 97.5889C124.486 97.3408 124.782 97.0293 125.112 96.6543L125.953 95.6787C126.02 95.6025 126.094 95.5645 126.176 95.5645C126.254 95.5645 126.323 95.5938 126.384 95.6523C126.444 95.7109 126.475 95.7822 126.475 95.8662C126.475 95.9951 126.223 96.3389 125.719 96.8975C125.371 97.2783 125.012 97.6514 124.641 98.0166C124.875 98.2627 125.242 98.6162 125.742 99.0771L126.05 99.335C126.161 99.4209 126.281 99.4854 126.41 99.5283C126.564 99.5791 126.642 99.6758 126.642 99.8184C126.642 99.8848 126.621 99.9482 126.58 100.009C126.529 100.083 126.462 100.12 126.378 100.12ZM128.443 100.135C128.002 100.135 127.645 100.024 127.371 99.8037C127.072 99.5596 126.923 99.2178 126.923 98.7783C126.923 98.2705 127.046 97.8447 127.292 97.501C127.56 97.126 127.917 96.9385 128.364 96.9385C128.688 96.9385 128.953 96.9932 129.158 97.1025C129.41 97.2373 129.536 97.4443 129.536 97.7236C129.536 97.9189 129.426 98.0967 129.205 98.2568C129.107 98.3271 128.9 98.4365 128.584 98.585L127.465 99.1152C127.574 99.2773 127.71 99.3994 127.872 99.4814C128.036 99.5635 128.227 99.6045 128.443 99.6045C128.578 99.6045 128.736 99.5791 128.918 99.5283C129.148 99.4639 129.297 99.3799 129.363 99.2764C129.43 99.1709 129.501 99.1182 129.577 99.1182C129.646 99.1182 129.706 99.1445 129.759 99.1973C129.813 99.248 129.841 99.3076 129.841 99.376C129.841 99.5928 129.666 99.7793 129.316 99.9355C129.018 100.068 128.727 100.135 128.443 100.135ZM128.364 97.4658C128.126 97.4658 127.928 97.5586 127.77 97.7441C127.611 97.9277 127.493 98.2051 127.415 98.5762L128.314 98.1484C128.668 97.9766 128.92 97.8271 129.07 97.7002C128.902 97.5439 128.667 97.4658 128.364 97.4658ZM132.917 97.3867L131.903 99.5781C131.653 100.111 131.462 100.558 131.329 100.917L131.136 101.485C131.085 101.626 130.997 101.696 130.872 101.696C130.79 101.696 130.719 101.669 130.658 101.614C130.6 101.562 130.57 101.495 130.57 101.415C130.57 101.22 130.781 100.654 131.203 99.7188L130.154 97.7002L130.022 97.4863C129.97 97.3965 129.943 97.3213 129.943 97.2607C129.943 97.1807 129.974 97.1104 130.034 97.0498C130.097 96.9893 130.166 96.959 130.242 96.959C130.332 96.959 130.401 96.9932 130.45 97.0615C130.782 97.5225 131.139 98.1787 131.52 99.0303L131.953 98.0195C132.109 97.6699 132.26 97.3691 132.404 97.1172C132.467 97.0078 132.549 96.9531 132.65 96.9531C132.73 96.9531 132.801 96.9814 132.861 97.0381C132.924 97.0947 132.955 97.1621 132.955 97.2402C132.955 97.2832 132.942 97.332 132.917 97.3867ZM134.854 100.123C134.555 100.123 134.283 100.064 134.039 99.9473C133.977 100.041 133.9 100.088 133.811 100.088C133.736 100.088 133.673 100.062 133.62 100.009C133.569 99.958 133.544 99.8936 133.544 99.8154C133.544 99.7646 133.546 99.6895 133.55 99.5898C133.556 99.4902 133.559 99.415 133.559 99.3643C133.559 99.1572 133.553 98.8477 133.541 98.4355C133.531 98.0215 133.526 97.7109 133.526 97.5039C133.526 97.3613 133.527 97.0918 133.529 96.6953C133.531 96.2969 133.532 96.0254 133.532 95.8809C133.532 95.7637 133.557 95.6582 133.605 95.5645C133.67 95.4453 133.759 95.3857 133.872 95.3857C134.019 95.3857 134.092 95.4707 134.092 95.6406C134.092 95.668 134.087 95.708 134.077 95.7607C134.067 95.8135 134.062 95.8535 134.062 95.8809L134.054 96.5225L134.048 97.2695C134.218 97.1543 134.379 97.0684 134.531 97.0117C134.686 96.9531 134.83 96.9238 134.965 96.9238C135.385 96.9238 135.726 97.085 135.987 97.4072C136.233 97.71 136.356 98.082 136.356 98.5234C136.356 98.9688 136.213 99.3467 135.926 99.6572C135.639 99.9678 135.281 100.123 134.854 100.123ZM134.965 97.4775C134.805 97.4775 134.641 97.5225 134.473 97.6123C134.391 97.6572 134.25 97.7539 134.051 97.9023L134.045 98.4092L134.048 98.8662L134.051 99.3467C134.145 99.3896 134.276 99.4443 134.446 99.5107C134.567 99.5479 134.703 99.5664 134.854 99.5664C135.137 99.5664 135.369 99.4668 135.551 99.2676C135.732 99.0684 135.823 98.8203 135.823 98.5234C135.823 98.2324 135.75 97.9893 135.604 97.7939C135.445 97.583 135.232 97.4775 134.965 97.4775ZM138.146 100.173C137.818 100.173 137.536 100.052 137.3 99.8096C137.036 99.54 136.897 99.1777 136.884 98.7227C136.872 98.2812 136.983 97.8926 137.218 97.5566C137.491 97.1602 137.872 96.9619 138.36 96.9619C138.751 96.9619 139.047 97.1406 139.248 97.498C139.408 97.7871 139.485 98.1348 139.479 98.541C139.474 98.9746 139.36 99.3447 139.14 99.6514C138.89 99.999 138.559 100.173 138.146 100.173ZM138.322 97.5566C138.035 97.5547 137.812 97.6914 137.651 97.9668C137.524 98.1875 137.461 98.4395 137.461 98.7227C137.461 99.0059 137.538 99.2266 137.692 99.3848C137.821 99.5156 137.973 99.5811 138.146 99.5811C138.35 99.5811 138.524 99.5068 138.671 99.3584C138.837 99.1943 138.925 98.9727 138.935 98.6934C138.962 97.9375 138.758 97.5586 138.322 97.5566ZM142.485 97.835C142.472 98.0791 142.374 98.2012 142.192 98.2012C142.024 98.2012 141.94 98.1045 141.94 97.9111C141.94 97.874 141.938 97.8057 141.932 97.7061L141.923 97.46C141.614 97.4971 141.367 97.584 141.182 97.7207C141.008 97.8477 140.863 98.0391 140.748 98.2949L140.754 99.9004C140.754 100.098 140.657 100.196 140.464 100.196C140.292 100.196 140.206 100.098 140.206 99.9004V97.8438C140.206 97.7793 140.208 97.6826 140.212 97.5537C140.218 97.4248 140.221 97.3281 140.221 97.2637C140.221 97.0664 140.307 96.9678 140.479 96.9678C140.67 96.9678 140.767 97.1299 140.769 97.4541C141.144 97.0928 141.56 96.9121 142.017 96.9121C142.175 96.9121 142.293 96.9717 142.371 97.0908C142.449 97.21 142.488 97.3896 142.488 97.6299C142.488 97.7314 142.487 97.7998 142.485 97.835ZM145.787 97.4131C145.764 97.7002 145.752 97.9873 145.752 98.2744C145.752 98.9248 145.782 99.416 145.843 99.748C145.847 99.7754 145.849 99.7979 145.849 99.8154C145.849 99.8936 145.821 99.958 145.767 100.009C145.712 100.06 145.648 100.085 145.576 100.085C145.455 100.085 145.366 99.9971 145.31 99.8213C145.169 99.9248 145.022 100.003 144.87 100.056C144.72 100.108 144.562 100.135 144.398 100.135C143.994 100.135 143.659 100 143.394 99.7305C143.12 99.4551 142.983 99.1016 142.983 98.6699C142.983 98.1484 143.121 97.7305 143.396 97.416C143.674 97.1016 144.033 96.9443 144.475 96.9443C144.701 96.9443 144.876 96.9795 144.999 97.0498L145.274 97.252C145.302 96.4297 145.334 95.876 145.371 95.5908C145.396 95.417 145.485 95.3301 145.638 95.3301C145.815 95.3301 145.904 95.4248 145.904 95.6143C145.904 95.8857 145.865 96.4854 145.787 97.4131ZM144.486 97.4893C144.158 97.4893 143.912 97.5869 143.748 97.7822C143.584 97.9756 143.502 98.2676 143.502 98.6582C143.502 98.9102 143.591 99.127 143.769 99.3086C143.948 99.4902 144.158 99.5811 144.398 99.5811C144.562 99.5811 144.701 99.5508 144.814 99.4902C144.881 99.4551 144.989 99.374 145.14 99.2471C145.169 99.2217 145.197 99.1914 145.225 99.1562L145.216 98.6494L145.219 98.3096L145.225 97.9639C145.15 97.8057 145.052 97.6875 144.929 97.6094C144.806 97.5293 144.658 97.4893 144.486 97.4893ZM148.969 96.291C148.875 96.291 148.794 96.2578 148.726 96.1914C148.657 96.125 148.623 96.0449 148.623 95.9512C148.623 95.8574 148.657 95.7773 148.726 95.7109C148.794 95.6445 148.875 95.6113 148.969 95.6113C149.062 95.6113 149.143 95.6445 149.209 95.7109C149.277 95.7773 149.312 95.8574 149.312 95.9512C149.312 96.0449 149.277 96.125 149.209 96.1914C149.143 96.2578 149.062 96.291 148.969 96.291ZM149.101 98.6699C149.101 98.7871 149.104 98.9629 149.109 99.1973C149.117 99.4297 149.121 99.6045 149.121 99.7217C149.121 99.8076 149.095 99.8779 149.042 99.9326C148.989 99.9873 148.92 100.015 148.834 100.015C148.75 100.015 148.681 99.9873 148.626 99.9326C148.573 99.8779 148.547 99.8076 148.547 99.7217C148.547 99.6045 148.543 99.4297 148.535 99.1973C148.529 98.9629 148.526 98.7871 148.526 98.6699C148.526 98.4863 148.536 98.2578 148.556 97.9844C148.575 97.709 148.585 97.4795 148.585 97.2959C148.585 97.208 148.611 97.1367 148.664 97.082C148.719 97.0273 148.788 97 148.872 97C148.956 97 149.024 97.0273 149.077 97.082C149.132 97.1367 149.159 97.208 149.159 97.2959C149.159 97.4795 149.149 97.709 149.13 97.9844C149.11 98.2578 149.101 98.4863 149.101 98.6699ZM152.068 97.7441C151.961 97.7441 151.886 97.708 151.843 97.6357C151.813 97.585 151.788 97.4795 151.767 97.3193C151.62 97.3564 151.395 97.4248 151.09 97.5244C150.775 97.6494 150.617 97.8037 150.615 97.9873C150.674 98.0088 150.731 98.0244 150.788 98.0342C151.237 98.1143 151.571 98.2246 151.79 98.3652C152.108 98.5703 152.268 98.8672 152.268 99.2559C152.268 99.5742 152.13 99.8145 151.854 99.9766C151.626 100.109 151.337 100.176 150.987 100.176C150.731 100.176 150.487 100.133 150.255 100.047C149.954 99.9375 149.804 99.7852 149.804 99.5898C149.804 99.5117 149.834 99.4434 149.895 99.3848C149.957 99.3262 150.027 99.2969 150.105 99.2969C150.166 99.2969 150.244 99.3438 150.34 99.4375C150.387 99.4824 150.492 99.5195 150.656 99.5488C150.787 99.5723 150.897 99.584 150.987 99.584C151.151 99.584 151.296 99.5645 151.421 99.5254C151.603 99.4688 151.693 99.3789 151.693 99.2559C151.693 98.9902 151.508 98.8105 151.137 98.7168L150.832 98.6494C150.572 98.5928 150.388 98.5264 150.278 98.4502C150.12 98.3408 150.041 98.1758 150.041 97.9551C150.041 97.5469 150.233 97.2559 150.618 97.082C150.735 97.0293 150.923 96.9668 151.181 96.8945C151.438 96.8203 151.623 96.7578 151.734 96.707C151.814 96.6719 151.901 96.6543 151.995 96.6543C152.079 96.6543 152.147 96.6816 152.2 96.7363C152.255 96.791 152.282 96.8623 152.282 96.9502C152.282 97.0068 152.294 97.0898 152.317 97.1992C152.343 97.3086 152.355 97.3916 152.355 97.4482C152.355 97.5361 152.328 97.6074 152.273 97.6621C152.221 97.7168 152.152 97.7441 152.068 97.7441ZM157.087 97.835C157.073 98.0791 156.976 98.2012 156.794 98.2012C156.626 98.2012 156.542 98.1045 156.542 97.9111C156.542 97.874 156.539 97.8057 156.533 97.7061L156.524 97.46C156.216 97.4971 155.969 97.584 155.783 97.7207C155.609 97.8477 155.465 98.0391 155.35 98.2949L155.355 99.9004C155.355 100.098 155.259 100.196 155.065 100.196C154.894 100.196 154.808 100.098 154.808 99.9004V97.8438C154.808 97.7793 154.81 97.6826 154.813 97.5537C154.819 97.4248 154.822 97.3281 154.822 97.2637C154.822 97.0664 154.908 96.9678 155.08 96.9678C155.271 96.9678 155.368 97.1299 155.37 97.4541C155.745 97.0928 156.161 96.9121 156.618 96.9121C156.776 96.9121 156.895 96.9717 156.973 97.0908C157.051 97.21 157.09 97.3896 157.09 97.6299C157.09 97.7314 157.089 97.7998 157.087 97.835ZM159.059 100.135C158.617 100.135 158.26 100.024 157.986 99.8037C157.688 99.5596 157.538 99.2178 157.538 98.7783C157.538 98.2705 157.661 97.8447 157.907 97.501C158.175 97.126 158.532 96.9385 158.979 96.9385C159.304 96.9385 159.568 96.9932 159.773 97.1025C160.025 97.2373 160.151 97.4443 160.151 97.7236C160.151 97.9189 160.041 98.0967 159.82 98.2568C159.723 98.3271 159.516 98.4365 159.199 98.585L158.08 99.1152C158.189 99.2773 158.325 99.3994 158.487 99.4814C158.651 99.5635 158.842 99.6045 159.059 99.6045C159.193 99.6045 159.352 99.5791 159.533 99.5283C159.764 99.4639 159.912 99.3799 159.979 99.2764C160.045 99.1709 160.116 99.1182 160.192 99.1182C160.261 99.1182 160.321 99.1445 160.374 99.1973C160.429 99.248 160.456 99.3076 160.456 99.376C160.456 99.5928 160.281 99.7793 159.932 99.9355C159.633 100.068 159.342 100.135 159.059 100.135ZM158.979 97.4658C158.741 97.4658 158.543 97.5586 158.385 97.7441C158.227 97.9277 158.108 98.2051 158.03 98.5762L158.93 98.1484C159.283 97.9766 159.535 97.8271 159.686 97.7002C159.518 97.5439 159.282 97.4658 158.979 97.4658ZM163.266 100.193C163.229 100.193 163.161 100.15 163.063 100.064C162.976 99.9844 162.91 99.9131 162.867 99.8506C162.68 99.9521 162.515 100.028 162.372 100.079C162.229 100.132 162.11 100.158 162.015 100.158C161.558 100.158 161.225 100.029 161.016 99.7715C160.818 99.5293 160.72 99.1582 160.72 98.6582C160.72 98.1855 160.882 97.7812 161.206 97.4453C161.532 97.1094 161.921 96.9414 162.372 96.9414C162.542 96.9414 162.732 96.9854 162.943 97.0732C163.209 97.1826 163.342 97.3145 163.342 97.4688C163.342 97.5215 163.322 97.5684 163.283 97.6094C163.264 97.6836 163.248 97.8057 163.236 97.9756C163.227 98.1455 163.221 98.3633 163.219 98.6289C163.217 98.8711 163.233 99.0625 163.269 99.2031C163.288 99.2891 163.35 99.4609 163.453 99.7188C163.467 99.7539 163.489 99.8057 163.521 99.874L163.538 99.9238C163.538 100.002 163.511 100.066 163.456 100.117C163.401 100.168 163.338 100.193 163.266 100.193ZM162.656 98.1572C162.656 98.0732 162.661 97.9824 162.671 97.8848C162.683 97.7852 162.699 97.6797 162.721 97.5684C162.648 97.5312 162.586 97.5039 162.533 97.4863C162.482 97.4688 162.441 97.46 162.41 97.46C162.107 97.46 161.846 97.584 161.625 97.832C161.406 98.0781 161.297 98.3623 161.297 98.6846C161.297 99.0049 161.354 99.2451 161.467 99.4053C161.58 99.5654 161.75 99.6455 161.977 99.6455C162.164 99.6455 162.323 99.6113 162.454 99.543C162.524 99.5059 162.623 99.4316 162.75 99.3203C162.688 98.8027 162.656 98.415 162.656 98.1572ZM164.792 97.6973L164.748 99.1533C164.748 99.3076 164.74 99.5342 164.725 99.833C164.705 100.028 164.609 100.126 164.438 100.126C164.246 100.126 164.15 100.026 164.15 99.8271C164.15 99.5908 164.161 99.2363 164.183 98.7637C164.204 98.2891 164.215 97.9336 164.215 97.6973C164.215 97.3887 164.22 97.0361 164.229 96.6396C164.239 96.2412 164.244 95.8877 164.244 95.5791C164.244 95.3838 164.34 95.2861 164.531 95.2861C164.725 95.2861 164.821 95.3838 164.821 95.5791C164.821 95.8877 164.816 96.2412 164.807 96.6396C164.797 97.0361 164.792 97.3887 164.792 97.6973ZM166.438 97.6973L166.395 99.1533C166.395 99.3076 166.387 99.5342 166.371 99.833C166.352 100.028 166.256 100.126 166.084 100.126C165.893 100.126 165.797 100.026 165.797 99.8271C165.797 99.5908 165.808 99.2363 165.829 98.7637C165.851 98.2891 165.861 97.9336 165.861 97.6973C165.861 97.3887 165.866 97.0361 165.876 96.6396C165.886 96.2412 165.891 95.8877 165.891 95.5791C165.891 95.3838 165.986 95.2861 166.178 95.2861C166.371 95.2861 166.468 95.3838 166.468 95.5791C166.468 95.8877 166.463 96.2412 166.453 96.6396C166.443 97.0361 166.438 97.3887 166.438 97.6973ZM169.896 97.3867L168.882 99.5781C168.632 100.111 168.44 100.558 168.308 100.917L168.114 101.485C168.063 101.626 167.976 101.696 167.851 101.696C167.769 101.696 167.697 101.669 167.637 101.614C167.578 101.562 167.549 101.495 167.549 101.415C167.549 101.22 167.76 100.654 168.182 99.7188L167.133 97.7002L167.001 97.4863C166.948 97.3965 166.922 97.3213 166.922 97.2607C166.922 97.1807 166.952 97.1104 167.013 97.0498C167.075 96.9893 167.145 96.959 167.221 96.959C167.311 96.959 167.38 96.9932 167.429 97.0615C167.761 97.5225 168.117 98.1787 168.498 99.0303L168.932 98.0195C169.088 97.6699 169.238 97.3691 169.383 97.1172C169.445 97.0078 169.527 96.9531 169.629 96.9531C169.709 96.9531 169.779 96.9814 169.84 97.0381C169.902 97.0947 169.934 97.1621 169.934 97.2402C169.934 97.2832 169.921 97.332 169.896 97.3867ZM174.504 100.208C174.336 100.208 174.241 100.116 174.22 99.9326L174.138 99.291C174.11 99.0625 174.097 98.8486 174.097 98.6494C174.097 98.5947 174.1 98.502 174.105 98.3711C174.113 98.2402 174.117 98.1475 174.117 98.0928C174.117 97.6709 174.039 97.46 173.883 97.46C173.664 97.46 173.455 97.5898 173.256 97.8496C173.076 98.0859 172.936 98.3848 172.834 98.7461C172.83 98.8223 172.821 98.918 172.808 99.0332C172.796 99.1309 172.79 99.2256 172.79 99.3174C172.79 99.376 172.796 99.4639 172.808 99.5811C172.819 99.6982 172.825 99.7861 172.825 99.8447C172.825 99.9326 172.798 100.004 172.743 100.059C172.69 100.113 172.622 100.141 172.538 100.141C172.452 100.141 172.383 100.113 172.33 100.059C172.277 100.004 172.251 99.9326 172.251 99.8447C172.251 99.7861 172.244 99.6982 172.23 99.5811C172.219 99.4639 172.213 99.376 172.213 99.3174C172.213 99.1162 172.227 98.8379 172.254 98.4824C172.283 98.125 172.298 97.8457 172.298 97.6445C172.298 97.582 172.294 97.4893 172.286 97.3662C172.28 97.2432 172.277 97.1504 172.277 97.0879C172.277 97.0039 172.305 96.9355 172.359 96.8828C172.416 96.8281 172.485 96.8008 172.567 96.8008C172.747 96.8008 172.846 96.9277 172.863 97.1816L172.872 97.5244C173.2 97.0869 173.537 96.8682 173.883 96.8682C174.195 96.8682 174.413 97.0059 174.536 97.2812C174.62 97.4648 174.666 97.7363 174.674 98.0957V98.3916L174.671 98.6641C174.671 98.8262 174.691 99.0361 174.732 99.2939C174.775 99.5498 174.797 99.7578 174.797 99.918C174.797 100.004 174.769 100.073 174.712 100.126C174.657 100.181 174.588 100.208 174.504 100.208ZM176.496 100.173C176.168 100.173 175.886 100.052 175.649 99.8096C175.386 99.54 175.247 99.1777 175.233 98.7227C175.222 98.2812 175.333 97.8926 175.567 97.5566C175.841 97.1602 176.222 96.9619 176.71 96.9619C177.101 96.9619 177.396 97.1406 177.598 97.498C177.758 97.7871 177.835 98.1348 177.829 98.541C177.823 98.9746 177.71 99.3447 177.489 99.6514C177.239 99.999 176.908 100.173 176.496 100.173ZM176.672 97.5566C176.385 97.5547 176.161 97.6914 176.001 97.9668C175.874 98.1875 175.811 98.4395 175.811 98.7227C175.811 99.0059 175.888 99.2266 176.042 99.3848C176.171 99.5156 176.322 99.5811 176.496 99.5811C176.699 99.5811 176.874 99.5068 177.021 99.3584C177.187 99.1943 177.274 98.9727 177.284 98.6934C177.312 97.9375 177.107 97.5586 176.672 97.5566ZM179.115 96.291C179.021 96.291 178.94 96.2578 178.872 96.1914C178.804 96.125 178.77 96.0449 178.77 95.9512C178.77 95.8574 178.804 95.7773 178.872 95.7109C178.94 95.6445 179.021 95.6113 179.115 95.6113C179.209 95.6113 179.289 95.6445 179.355 95.7109C179.424 95.7773 179.458 95.8574 179.458 95.9512C179.458 96.0449 179.424 96.125 179.355 96.1914C179.289 96.2578 179.209 96.291 179.115 96.291ZM179.247 98.6699C179.247 98.7871 179.25 98.9629 179.256 99.1973C179.264 99.4297 179.268 99.6045 179.268 99.7217C179.268 99.8076 179.241 99.8779 179.188 99.9326C179.136 99.9873 179.066 100.015 178.98 100.015C178.896 100.015 178.827 99.9873 178.772 99.9326C178.72 99.8779 178.693 99.8076 178.693 99.7217C178.693 99.6045 178.689 99.4297 178.682 99.1973C178.676 98.9629 178.673 98.7871 178.673 98.6699C178.673 98.4863 178.683 98.2578 178.702 97.9844C178.722 97.709 178.731 97.4795 178.731 97.2959C178.731 97.208 178.758 97.1367 178.811 97.082C178.865 97.0273 178.935 97 179.019 97C179.103 97 179.171 97.0273 179.224 97.082C179.278 97.1367 179.306 97.208 179.306 97.2959C179.306 97.4795 179.296 97.709 179.276 97.9844C179.257 98.2578 179.247 98.4863 179.247 98.6699ZM182.215 97.7441C182.107 97.7441 182.032 97.708 181.989 97.6357C181.96 97.585 181.935 97.4795 181.913 97.3193C181.767 97.3564 181.541 97.4248 181.236 97.5244C180.922 97.6494 180.764 97.8037 180.762 97.9873C180.82 98.0088 180.878 98.0244 180.935 98.0342C181.384 98.1143 181.718 98.2246 181.937 98.3652C182.255 98.5703 182.414 98.8672 182.414 99.2559C182.414 99.5742 182.276 99.8145 182.001 99.9766C181.772 100.109 181.483 100.176 181.134 100.176C180.878 100.176 180.634 100.133 180.401 100.047C180.101 99.9375 179.95 99.7852 179.95 99.5898C179.95 99.5117 179.98 99.4434 180.041 99.3848C180.104 99.3262 180.174 99.2969 180.252 99.2969C180.312 99.2969 180.391 99.3438 180.486 99.4375C180.533 99.4824 180.639 99.5195 180.803 99.5488C180.934 99.5723 181.044 99.584 181.134 99.584C181.298 99.584 181.442 99.5645 181.567 99.5254C181.749 99.4688 181.84 99.3789 181.84 99.2559C181.84 98.9902 181.654 98.8105 181.283 98.7168L180.979 98.6494C180.719 98.5928 180.534 98.5264 180.425 98.4502C180.267 98.3408 180.188 98.1758 180.188 97.9551C180.188 97.5469 180.38 97.2559 180.765 97.082C180.882 97.0293 181.069 96.9668 181.327 96.8945C181.585 96.8203 181.77 96.7578 181.881 96.707C181.961 96.6719 182.048 96.6543 182.142 96.6543C182.226 96.6543 182.294 96.6816 182.347 96.7363C182.401 96.791 182.429 96.8623 182.429 96.9502C182.429 97.0068 182.44 97.0898 182.464 97.1992C182.489 97.3086 182.502 97.3916 182.502 97.4482C182.502 97.5361 182.475 97.6074 182.42 97.6621C182.367 97.7168 182.299 97.7441 182.215 97.7441ZM185.716 97.3867L184.702 99.5781C184.452 100.111 184.261 100.558 184.128 100.917L183.935 101.485C183.884 101.626 183.796 101.696 183.671 101.696C183.589 101.696 183.518 101.669 183.457 101.614C183.398 101.562 183.369 101.495 183.369 101.415C183.369 101.22 183.58 100.654 184.002 99.7188L182.953 97.7002L182.821 97.4863C182.769 97.3965 182.742 97.3213 182.742 97.2607C182.742 97.1807 182.772 97.1104 182.833 97.0498C182.896 96.9893 182.965 96.959 183.041 96.959C183.131 96.959 183.2 96.9932 183.249 97.0615C183.581 97.5225 183.938 98.1787 184.318 99.0303L184.752 98.0195C184.908 97.6699 185.059 97.3691 185.203 97.1172C185.266 97.0078 185.348 96.9531 185.449 96.9531C185.529 96.9531 185.6 96.9814 185.66 97.0381C185.723 97.0947 185.754 97.1621 185.754 97.2402C185.754 97.2832 185.741 97.332 185.716 97.3867Z" fill="white"/>
<path d="M96.8714 82.7856C96.753 82.8567 96.7146 83.0102 96.7856 83.1286L97.9432 85.058C98.0143 85.1764 98.1678 85.2148 98.2862 85.1437C98.4046 85.0727 98.443 84.9191 98.372 84.8007L97.343 83.0857L99.058 82.0568C99.1764 81.9857 99.2148 81.8322 99.1437 81.7138C99.0727 81.5954 98.9191 81.557 98.8007 81.628L96.8714 82.7856ZM121.061 88.7575L97.0606 82.7575L96.9394 83.2425L120.939 89.2425L121.061 88.7575Z" fill="white"/>
</svg>
