<svg width="200" height="200" viewBox="0 0 200 200" fill="none" xmlns="http://www.w3.org/2000/svg">
<rect width="200" height="200" fill="white"/>
<rect x="72.1057" y="112" width="1" height="35" transform="rotate(18.5 72.1057 112)" fill="black"/>
<rect x="72.1057" y="79" width="1" height="35" transform="rotate(18.5 72.1057 79)" fill="black"/>
<rect x="72" y="79.3173" width="1" height="35" transform="rotate(-18.5 72 79.3173)" fill="black"/>
<rect x="72" y="78" width="1" height="35" fill="black"/>
<rect x="72" y="112.317" width="1" height="35" transform="rotate(-18.5 72 112.317)" fill="black"/>
<path d="M80 70.5C80 74.6421 76.6421 78 72.5 78C68.3579 78 65 74.6421 65 70.5C65 66.3579 68.3579 63 72.5 63C76.6421 63 80 66.3579 80 70.5ZM66.1013 70.5C66.1013 74.0339 68.9661 76.8987 72.5 76.8987C76.0339 76.8987 78.8987 74.0339 78.8987 70.5C78.8987 66.9661 76.0339 64.1013 72.5 64.1013C68.9661 64.1013 66.1013 66.9661 66.1013 70.5Z" fill="black"/>
<path d="M92.1689 61.2812C92.0791 61.2812 92 61.2559 91.9316 61.2051C91.8535 61.1465 91.8145 61.0742 91.8145 60.9883C91.7246 60.752 91.668 60.5596 91.6445 60.4111C91.6211 60.2627 91.5439 59.8418 91.4131 59.1484C91.3135 58.623 91.2471 58.2012 91.2139 57.8828C91.04 58.5273 90.8535 59.0732 90.6543 59.5205C90.4238 60.0381 90.2744 60.4434 90.2061 60.7363C90.2295 60.7812 90.2412 60.8252 90.2412 60.8682C90.2412 60.9561 90.2021 61.0283 90.124 61.085C90.0537 61.1377 89.9736 61.1641 89.8838 61.1641C89.6201 61.1641 89.4883 61.0459 89.4883 60.8096L89.3975 60.4375L89.0781 59.002C88.9512 58.5176 88.7344 57.8232 88.4277 56.9189C88.4141 56.876 88.4072 56.8369 88.4072 56.8018C88.4072 56.6201 88.5098 56.5293 88.7148 56.5293C88.8418 56.5293 88.9395 56.5986 89.0078 56.7373C89.043 56.8076 89.1143 57.0098 89.2217 57.3438C89.3369 57.6973 89.4521 58.123 89.5674 58.6211L89.8516 59.916C90.0605 59.4316 90.2686 58.8418 90.4756 58.1465C90.6025 57.7227 90.6992 57.4287 90.7656 57.2646C90.9414 56.833 91.1123 56.6172 91.2783 56.6172C91.415 56.6172 91.5117 56.6865 91.5684 56.8252C91.6387 56.9932 91.71 57.3936 91.7822 58.0264C91.8213 58.3467 91.8877 58.7314 91.9814 59.1807L92.2334 60.332C92.4951 59.7031 92.8223 58.8525 93.2148 57.7803C93.2363 57.7217 93.2852 57.5371 93.3613 57.2266C93.418 56.998 93.4873 56.8203 93.5693 56.6934C93.6396 56.5859 93.7314 56.5322 93.8447 56.5322C94.042 56.5322 94.1406 56.6299 94.1406 56.8252C94.1406 56.8584 94.1094 56.9561 94.0469 57.1182L93.9297 57.4346L93.7686 57.9561L92.8984 60.0713C92.8184 60.3037 92.6807 60.6416 92.4854 61.085C92.415 61.2158 92.3096 61.2812 92.1689 61.2812ZM97.0996 61.1816C96.9609 61.1816 96.8701 61.1074 96.8271 60.959C96.7822 60.7988 96.7412 60.5713 96.7041 60.2764C96.6689 59.9932 96.6514 59.7607 96.6514 59.5791C96.6514 59.5283 96.6533 59.4512 96.6572 59.3477C96.6631 59.2441 96.666 59.167 96.666 59.1162C96.666 58.749 96.5742 58.5654 96.3906 58.5654C96.1426 58.5654 95.9209 58.6777 95.7256 58.9023C95.626 59.0176 95.4893 59.2373 95.3154 59.5615C95.3154 60.3057 95.2842 60.7461 95.2217 60.8828C95.167 61.0039 95.082 61.0645 94.9668 61.0645C94.8867 61.0645 94.8164 61.0371 94.7559 60.9824C94.6953 60.9277 94.665 60.8613 94.665 60.7832C94.665 60.7559 94.6738 60.7129 94.6914 60.6543C94.707 60.6055 94.7178 60.4629 94.7236 60.2266L94.7324 59.793L94.7412 57.6396C94.7549 57.3975 94.7617 57.2344 94.7617 57.1504C94.7617 57.0508 94.752 56.957 94.7324 56.8691C94.7148 56.7793 94.7061 56.6865 94.7061 56.5908C94.7061 56.5088 94.7344 56.4414 94.791 56.3887C94.8477 56.334 94.917 56.3066 94.999 56.3066C95.1592 56.3066 95.2529 56.3926 95.2803 56.5645C95.3115 56.7539 95.3271 56.9248 95.3271 57.0771C95.3271 57.2822 95.3203 57.4961 95.3066 57.7188C95.2949 57.9316 95.29 58.1455 95.292 58.3604L95.2949 58.6182C95.4551 58.4033 95.626 58.2432 95.8076 58.1377C95.9912 58.0303 96.1855 57.9766 96.3906 57.9766C96.7148 57.9766 96.9375 58.082 97.0586 58.293C97.1445 58.4414 97.1934 58.6914 97.2051 59.043L97.2285 59.6025L97.2871 60.2119C97.3145 60.4404 97.3477 60.6416 97.3867 60.8154C97.3945 60.8486 97.3984 60.877 97.3984 60.9004C97.3984 60.9805 97.3691 61.0469 97.3105 61.0996C97.252 61.1543 97.1816 61.1816 97.0996 61.1816ZM100.404 61.1934C100.367 61.1934 100.3 61.1504 100.202 61.0645C100.114 60.9844 100.049 60.9131 100.006 60.8506C99.8184 60.9521 99.6533 61.0283 99.5107 61.0791C99.3682 61.1318 99.249 61.1582 99.1533 61.1582C98.6963 61.1582 98.3633 61.0293 98.1543 60.7715C97.957 60.5293 97.8584 60.1582 97.8584 59.6582C97.8584 59.1855 98.0205 58.7812 98.3447 58.4453C98.6709 58.1094 99.0596 57.9414 99.5107 57.9414C99.6807 57.9414 99.8711 57.9854 100.082 58.0732C100.348 58.1826 100.48 58.3145 100.48 58.4688C100.48 58.5215 100.461 58.5684 100.422 58.6094C100.402 58.6836 100.387 58.8057 100.375 58.9756C100.365 59.1455 100.359 59.3633 100.357 59.6289C100.355 59.8711 100.372 60.0625 100.407 60.2031C100.427 60.2891 100.488 60.4609 100.592 60.7188C100.605 60.7539 100.628 60.8057 100.659 60.874L100.677 60.9238C100.677 61.002 100.649 61.0664 100.595 61.1172C100.54 61.168 100.477 61.1934 100.404 61.1934ZM99.7949 59.1572C99.7949 59.0732 99.7998 58.9824 99.8096 58.8848C99.8213 58.7852 99.8379 58.6797 99.8594 58.5684C99.7871 58.5312 99.7246 58.5039 99.6719 58.4863C99.6211 58.4688 99.5801 58.46 99.5488 58.46C99.2461 58.46 98.9844 58.584 98.7637 58.832C98.5449 59.0781 98.4355 59.3623 98.4355 59.6846C98.4355 60.0049 98.4922 60.2451 98.6055 60.4053C98.7188 60.5654 98.8887 60.6455 99.1152 60.6455C99.3027 60.6455 99.4619 60.6113 99.5928 60.543C99.6631 60.5059 99.7617 60.4316 99.8887 60.3203C99.8262 59.8027 99.7949 59.415 99.7949 59.1572ZM103.146 58.5039C103.105 58.5039 103.057 58.502 103 58.498C102.945 58.4941 102.897 58.4922 102.856 58.4922C102.812 58.4922 102.679 58.5068 102.458 58.5361L102.514 60.2676L102.517 60.3965L102.52 60.5459C102.527 60.9736 102.425 61.1875 102.212 61.1875C102.134 61.1875 102.065 61.1621 102.007 61.1113C101.95 61.0605 101.922 60.9971 101.922 60.9209C101.922 60.8467 101.925 60.7354 101.931 60.5869C101.937 60.4385 101.939 60.3271 101.939 60.2529L101.881 58.542C101.738 58.5361 101.521 58.5195 101.23 58.4922C101.057 58.4688 100.97 58.3721 100.97 58.2021C100.97 58.1162 100.996 58.0449 101.049 57.9883C101.102 57.9316 101.169 57.9033 101.251 57.9033L101.866 57.9531C101.866 57.8535 101.861 57.7207 101.852 57.5547C101.844 57.3867 101.84 57.2656 101.84 57.1914C101.84 57.1094 101.868 57.042 101.925 56.9893C101.981 56.9346 102.051 56.9072 102.133 56.9072C102.309 56.9072 102.411 57.0508 102.44 57.3379C102.446 57.4102 102.449 57.4971 102.449 57.5986L102.443 57.7686L102.44 57.9502C102.683 57.9189 102.821 57.9033 102.856 57.9033C103.06 57.9033 103.192 57.9131 103.255 57.9326C103.374 57.9717 103.434 58.0635 103.434 58.208C103.434 58.2939 103.406 58.3652 103.352 58.4219C103.299 58.4766 103.23 58.5039 103.146 58.5039ZM107.77 58.5039C107.729 58.5039 107.68 58.502 107.623 58.498C107.568 58.4941 107.521 58.4922 107.479 58.4922C107.435 58.4922 107.302 58.5068 107.081 58.5361L107.137 60.2676L107.14 60.3965L107.143 60.5459C107.15 60.9736 107.048 61.1875 106.835 61.1875C106.757 61.1875 106.688 61.1621 106.63 61.1113C106.573 61.0605 106.545 60.9971 106.545 60.9209C106.545 60.8467 106.548 60.7354 106.554 60.5869C106.56 60.4385 106.562 60.3271 106.562 60.2529L106.504 58.542C106.361 58.5361 106.145 58.5195 105.854 58.4922C105.68 58.4688 105.593 58.3721 105.593 58.2021C105.593 58.1162 105.619 58.0449 105.672 57.9883C105.725 57.9316 105.792 57.9033 105.874 57.9033L106.489 57.9531C106.489 57.8535 106.484 57.7207 106.475 57.5547C106.467 57.3867 106.463 57.2656 106.463 57.1914C106.463 57.1094 106.491 57.042 106.548 56.9893C106.604 56.9346 106.674 56.9072 106.756 56.9072C106.932 56.9072 107.034 57.0508 107.063 57.3379C107.069 57.4102 107.072 57.4971 107.072 57.5986L107.066 57.7686L107.063 57.9502C107.306 57.9189 107.444 57.9033 107.479 57.9033C107.683 57.9033 107.815 57.9131 107.878 57.9326C107.997 57.9717 108.057 58.0635 108.057 58.208C108.057 58.2939 108.029 58.3652 107.975 58.4219C107.922 58.4766 107.854 58.5039 107.77 58.5039ZM111.092 61.1816C110.953 61.1816 110.862 61.1074 110.819 60.959C110.774 60.7988 110.733 60.5713 110.696 60.2764C110.661 59.9932 110.644 59.7607 110.644 59.5791C110.644 59.5283 110.646 59.4512 110.649 59.3477C110.655 59.2441 110.658 59.167 110.658 59.1162C110.658 58.749 110.566 58.5654 110.383 58.5654C110.135 58.5654 109.913 58.6777 109.718 58.9023C109.618 59.0176 109.481 59.2373 109.308 59.5615C109.308 60.3057 109.276 60.7461 109.214 60.8828C109.159 61.0039 109.074 61.0645 108.959 61.0645C108.879 61.0645 108.809 61.0371 108.748 60.9824C108.688 60.9277 108.657 60.8613 108.657 60.7832C108.657 60.7559 108.666 60.7129 108.684 60.6543C108.699 60.6055 108.71 60.4629 108.716 60.2266L108.725 59.793L108.733 57.6396C108.747 57.3975 108.754 57.2344 108.754 57.1504C108.754 57.0508 108.744 56.957 108.725 56.8691C108.707 56.7793 108.698 56.6865 108.698 56.5908C108.698 56.5088 108.727 56.4414 108.783 56.3887C108.84 56.334 108.909 56.3066 108.991 56.3066C109.151 56.3066 109.245 56.3926 109.272 56.5645C109.304 56.7539 109.319 56.9248 109.319 57.0771C109.319 57.2822 109.312 57.4961 109.299 57.7188C109.287 57.9316 109.282 58.1455 109.284 58.3604L109.287 58.6182C109.447 58.4033 109.618 58.2432 109.8 58.1377C109.983 58.0303 110.178 57.9766 110.383 57.9766C110.707 57.9766 110.93 58.082 111.051 58.293C111.137 58.4414 111.186 58.6914 111.197 59.043L111.221 59.6025L111.279 60.2119C111.307 60.4404 111.34 60.6416 111.379 60.8154C111.387 60.8486 111.391 60.877 111.391 60.9004C111.391 60.9805 111.361 61.0469 111.303 61.0996C111.244 61.1543 111.174 61.1816 111.092 61.1816ZM113.477 61.1348C113.035 61.1348 112.678 61.0244 112.404 60.8037C112.105 60.5596 111.956 60.2178 111.956 59.7783C111.956 59.2705 112.079 58.8447 112.325 58.501C112.593 58.126 112.95 57.9385 113.397 57.9385C113.722 57.9385 113.986 57.9932 114.191 58.1025C114.443 58.2373 114.569 58.4443 114.569 58.7236C114.569 58.9189 114.459 59.0967 114.238 59.2568C114.141 59.3271 113.934 59.4365 113.617 59.585L112.498 60.1152C112.607 60.2773 112.743 60.3994 112.905 60.4814C113.069 60.5635 113.26 60.6045 113.477 60.6045C113.611 60.6045 113.77 60.5791 113.951 60.5283C114.182 60.4639 114.33 60.3799 114.396 60.2764C114.463 60.1709 114.534 60.1182 114.61 60.1182C114.679 60.1182 114.739 60.1445 114.792 60.1973C114.847 60.248 114.874 60.3076 114.874 60.376C114.874 60.5928 114.699 60.7793 114.35 60.9355C114.051 61.0684 113.76 61.1348 113.477 61.1348ZM113.397 58.4658C113.159 58.4658 112.961 58.5586 112.803 58.7441C112.645 58.9277 112.526 59.2051 112.448 59.5762L113.348 59.1484C113.701 58.9766 113.953 58.8271 114.104 58.7002C113.936 58.5439 113.7 58.4658 113.397 58.4658ZM119.641 61.1816C119.502 61.1816 119.411 61.1074 119.368 60.959C119.323 60.7988 119.282 60.5713 119.245 60.2764C119.21 59.9932 119.192 59.7607 119.192 59.5791C119.192 59.5283 119.194 59.4512 119.198 59.3477C119.204 59.2441 119.207 59.167 119.207 59.1162C119.207 58.749 119.115 58.5654 118.932 58.5654C118.684 58.5654 118.462 58.6777 118.267 58.9023C118.167 59.0176 118.03 59.2373 117.856 59.5615C117.856 60.3057 117.825 60.7461 117.763 60.8828C117.708 61.0039 117.623 61.0645 117.508 61.0645C117.428 61.0645 117.357 61.0371 117.297 60.9824C117.236 60.9277 117.206 60.8613 117.206 60.7832C117.206 60.7559 117.215 60.7129 117.232 60.6543C117.248 60.6055 117.259 60.4629 117.265 60.2266L117.273 59.793L117.282 57.6396C117.296 57.3975 117.303 57.2344 117.303 57.1504C117.303 57.0508 117.293 56.957 117.273 56.8691C117.256 56.7793 117.247 56.6865 117.247 56.5908C117.247 56.5088 117.275 56.4414 117.332 56.3887C117.389 56.334 117.458 56.3066 117.54 56.3066C117.7 56.3066 117.794 56.3926 117.821 56.5645C117.853 56.7539 117.868 56.9248 117.868 57.0771C117.868 57.2822 117.861 57.4961 117.848 57.7188C117.836 57.9316 117.831 58.1455 117.833 58.3604L117.836 58.6182C117.996 58.4033 118.167 58.2432 118.349 58.1377C118.532 58.0303 118.727 57.9766 118.932 57.9766C119.256 57.9766 119.479 58.082 119.6 58.293C119.686 58.4414 119.734 58.6914 119.746 59.043L119.77 59.6025L119.828 60.2119C119.855 60.4404 119.889 60.6416 119.928 60.8154C119.936 60.8486 119.939 60.877 119.939 60.9004C119.939 60.9805 119.91 61.0469 119.852 61.0996C119.793 61.1543 119.723 61.1816 119.641 61.1816ZM122.025 61.1348C121.584 61.1348 121.227 61.0244 120.953 60.8037C120.654 60.5596 120.505 60.2178 120.505 59.7783C120.505 59.2705 120.628 58.8447 120.874 58.501C121.142 58.126 121.499 57.9385 121.946 57.9385C122.271 57.9385 122.535 57.9932 122.74 58.1025C122.992 58.2373 123.118 58.4443 123.118 58.7236C123.118 58.9189 123.008 59.0967 122.787 59.2568C122.689 59.3271 122.482 59.4365 122.166 59.585L121.047 60.1152C121.156 60.2773 121.292 60.3994 121.454 60.4814C121.618 60.5635 121.809 60.6045 122.025 60.6045C122.16 60.6045 122.318 60.5791 122.5 60.5283C122.73 60.4639 122.879 60.3799 122.945 60.2764C123.012 60.1709 123.083 60.1182 123.159 60.1182C123.228 60.1182 123.288 60.1445 123.341 60.1973C123.396 60.248 123.423 60.3076 123.423 60.376C123.423 60.5928 123.248 60.7793 122.898 60.9355C122.6 61.0684 122.309 61.1348 122.025 61.1348ZM121.946 58.4658C121.708 58.4658 121.51 58.5586 121.352 58.7441C121.193 58.9277 121.075 59.2051 120.997 59.5762L121.896 59.1484C122.25 58.9766 122.502 58.8271 122.652 58.7002C122.484 58.5439 122.249 58.4658 121.946 58.4658ZM125.269 61.1846C124.868 61.1846 124.534 61.0635 124.267 60.8213C123.985 60.5674 123.845 60.2324 123.845 59.8164C123.845 59.4199 123.977 59.0107 124.24 58.5889C124.533 58.1201 124.863 57.8857 125.23 57.8857C125.422 57.8857 125.636 57.9307 125.872 58.0205C126.171 58.1357 126.32 58.2764 126.32 58.4424C126.32 58.5166 126.296 58.583 126.247 58.6416C126.198 58.6982 126.138 58.7266 126.065 58.7266C126.009 58.7266 125.959 58.71 125.916 58.6768C125.875 58.6416 125.835 58.6074 125.796 58.5742C125.681 58.4824 125.492 58.4365 125.23 58.4365C125.031 58.4365 124.834 58.6143 124.639 58.9697C124.461 59.2959 124.372 59.5781 124.372 59.8164C124.372 60.0742 124.46 60.2773 124.636 60.4258C124.8 60.5645 125.011 60.6338 125.269 60.6338C125.386 60.6338 125.511 60.6025 125.644 60.54L125.983 60.3584C126.042 60.3271 126.084 60.3115 126.109 60.3115C126.182 60.3115 126.244 60.3408 126.297 60.3994C126.35 60.4561 126.376 60.5215 126.376 60.5957C126.376 60.7383 126.226 60.876 125.925 61.0088C125.661 61.126 125.442 61.1846 125.269 61.1846ZM129.467 61.1201C129.359 61.1201 129.276 61.0635 129.218 60.9502C129.116 60.7529 128.963 60.5195 128.758 60.25L128.239 59.5439C128.126 59.6338 127.95 59.7598 127.712 59.9219C127.69 60.2246 127.68 60.5195 127.68 60.8066C127.68 60.8945 127.652 60.9658 127.598 61.0205C127.545 61.0752 127.477 61.1025 127.393 61.1025C127.195 61.1025 127.097 60.9697 127.097 60.7041C127.097 60.542 127.107 60.2998 127.129 59.9775C127.152 59.6533 127.164 59.4102 127.164 59.248C127.164 58.9512 127.168 58.6123 127.176 58.2314C127.186 57.8486 127.19 57.5107 127.19 57.2178C127.19 57.1299 127.186 57.0264 127.176 56.9072C127.168 56.7881 127.164 56.6846 127.164 56.5967C127.164 56.5088 127.19 56.4375 127.243 56.3828C127.298 56.3281 127.367 56.3008 127.451 56.3008C127.535 56.3008 127.604 56.3281 127.656 56.3828C127.711 56.4375 127.738 56.5088 127.738 56.5967C127.738 56.6865 127.743 56.793 127.753 56.916C127.763 57.0371 127.768 57.1426 127.768 57.2324L127.747 58.1758C127.737 58.5156 127.734 58.8555 127.738 59.1953C128.004 58.9922 128.26 58.7695 128.506 58.5273L129.15 57.8623C129.215 57.7959 129.284 57.7627 129.358 57.7627C129.435 57.7627 129.503 57.793 129.563 57.8535C129.626 57.9141 129.657 57.9844 129.657 58.0645C129.657 58.1309 129.629 58.1963 129.572 58.2607C129.332 58.542 129.036 58.8438 128.685 59.166L129.323 60.0361C129.622 60.4443 129.771 60.71 129.771 60.833C129.771 60.9111 129.74 60.9785 129.678 61.0352C129.617 61.0918 129.547 61.1201 129.467 61.1201ZM130.946 60.0977C130.866 60.0977 130.796 60.0674 130.735 60.0068C130.675 59.9443 130.645 59.874 130.645 59.7959C130.645 59.6611 130.77 59.4951 131.02 59.2979L131.72 58.7705C131.972 58.5537 132.098 58.3555 132.098 58.1758C132.098 57.9492 131.991 57.7402 131.778 57.5488C131.573 57.3633 131.355 57.2705 131.125 57.2705C131.002 57.2705 130.846 57.334 130.656 57.4609C130.467 57.5859 130.35 57.6484 130.305 57.6484C130.225 57.6484 130.155 57.6162 130.097 57.5518C130.04 57.4873 130.012 57.415 130.012 57.335C130.012 57.1807 130.161 57.0273 130.46 56.875C130.728 56.7383 130.949 56.6699 131.125 56.6699C131.518 56.6699 131.874 56.8232 132.194 57.1299C132.515 57.4365 132.675 57.7852 132.675 58.1758C132.675 58.4609 132.583 58.7139 132.399 58.9346C132.29 59.0674 132.087 59.2393 131.79 59.4502C131.491 59.667 131.283 59.8428 131.166 59.9775C131.098 60.0576 131.024 60.0977 130.946 60.0977ZM130.785 61.2109C130.699 61.2109 130.621 61.1816 130.551 61.123C130.482 61.0664 130.448 60.9971 130.448 60.915C130.448 60.7939 130.48 60.6846 130.545 60.5869C130.617 60.4775 130.71 60.4229 130.823 60.4229C131.011 60.4229 131.104 60.5381 131.104 60.7686C131.104 60.876 131.079 60.9727 131.028 61.0586C130.966 61.1602 130.885 61.2109 130.785 61.2109ZM133.976 56.5586V59.8193C133.976 59.9932 133.889 60.0801 133.715 60.0801C133.541 60.0801 133.454 59.9932 133.454 59.8193C133.454 59.7393 133.451 59.6201 133.445 59.4619C133.441 59.3018 133.439 59.1826 133.439 59.1045C133.439 58.8213 133.441 58.3975 133.445 57.833C133.451 57.2666 133.454 56.8418 133.454 56.5586C133.454 56.3848 133.541 56.2979 133.715 56.2979C133.889 56.2979 133.976 56.3848 133.976 56.5586ZM133.979 60.9326C133.979 61.0029 133.95 61.0635 133.894 61.1143C133.839 61.167 133.776 61.1934 133.706 61.1934C133.628 61.1934 133.55 61.1426 133.472 61.041C133.396 60.9453 133.357 60.8574 133.357 60.7773C133.357 60.707 133.385 60.6465 133.439 60.5957C133.496 60.5449 133.561 60.5195 133.633 60.5195C133.709 60.5195 133.787 60.5703 133.867 60.6719C133.941 60.7676 133.979 60.8545 133.979 60.9326ZM135.522 60.0977C135.442 60.0977 135.372 60.0674 135.312 60.0068C135.251 59.9443 135.221 59.874 135.221 59.7959C135.221 59.6611 135.346 59.4951 135.596 59.2979L136.296 58.7705C136.548 58.5537 136.674 58.3555 136.674 58.1758C136.674 57.9492 136.567 57.7402 136.354 57.5488C136.149 57.3633 135.932 57.2705 135.701 57.2705C135.578 57.2705 135.422 57.334 135.232 57.4609C135.043 57.5859 134.926 57.6484 134.881 57.6484C134.801 57.6484 134.731 57.6162 134.673 57.5518C134.616 57.4873 134.588 57.415 134.588 57.335C134.588 57.1807 134.737 57.0273 135.036 56.875C135.304 56.7383 135.525 56.6699 135.701 56.6699C136.094 56.6699 136.45 56.8232 136.771 57.1299C137.091 57.4365 137.251 57.7852 137.251 58.1758C137.251 58.4609 137.159 58.7139 136.976 58.9346C136.866 59.0674 136.663 59.2393 136.366 59.4502C136.067 59.667 135.859 59.8428 135.742 59.9775C135.674 60.0576 135.601 60.0977 135.522 60.0977ZM135.361 61.2109C135.275 61.2109 135.197 61.1816 135.127 61.123C135.059 61.0664 135.024 60.9971 135.024 60.915C135.024 60.7939 135.057 60.6846 135.121 60.5869C135.193 60.4775 135.286 60.4229 135.399 60.4229C135.587 60.4229 135.681 60.5381 135.681 60.7686C135.681 60.876 135.655 60.9727 135.604 61.0586C135.542 61.1602 135.461 61.2109 135.361 61.2109ZM139.513 57.1475C139.513 57.0752 139.538 57.0107 139.589 56.9541C139.64 56.8975 139.7 56.8691 139.771 56.8691C139.817 56.8691 140.082 56.9639 140.564 57.1533C140.549 56.8818 140.541 56.6943 140.541 56.5908C140.541 56.5146 140.565 56.4521 140.614 56.4033C140.665 56.3545 140.728 56.3301 140.802 56.3301C140.878 56.3301 140.94 56.3545 140.989 56.4033C141.04 56.4521 141.065 56.5146 141.065 56.5908C141.065 56.6982 141.071 56.8633 141.083 57.0859C141.552 57.0156 141.839 56.9805 141.944 56.9805C142.017 56.9805 142.076 57.0068 142.123 57.0596C142.172 57.1104 142.196 57.1729 142.196 57.2471C142.196 57.3838 142.123 57.4678 141.977 57.499C141.84 57.5283 141.599 57.5635 141.253 57.6045C141.366 57.708 141.489 57.8408 141.622 58.0029C141.796 58.2178 141.883 58.3672 141.883 58.4512C141.883 58.5215 141.855 58.583 141.801 58.6357C141.746 58.6865 141.684 58.7119 141.613 58.7119C141.539 58.7119 141.472 58.6768 141.411 58.6064C141.292 58.4463 141.098 58.2168 140.828 57.918C140.426 58.373 140.153 58.6006 140.011 58.6006C139.94 58.6006 139.878 58.5732 139.823 58.5186C139.771 58.4639 139.744 58.4014 139.744 58.3311C139.744 58.2646 139.775 58.2002 139.838 58.1377C139.963 58.0322 140.145 57.8633 140.383 57.6309C140.223 57.5801 139.988 57.4951 139.68 57.376C139.568 57.3271 139.513 57.251 139.513 57.1475ZM144.619 61.0029H144.036L143.456 61C143.319 61 143.224 60.9912 143.169 60.9736C143.069 60.9385 143.02 60.8643 143.02 60.751C143.02 60.5537 143.173 60.4551 143.479 60.4551L143.62 60.458L143.74 60.4639C143.74 60.3701 143.731 60.2314 143.714 60.0479C143.698 59.8643 143.69 59.7266 143.69 59.6348C143.69 59.3867 143.713 59.0098 143.758 58.5039C143.801 58.0059 143.821 57.6279 143.819 57.3701C143.558 57.5732 143.391 57.6748 143.318 57.6748C143.24 57.6748 143.172 57.6455 143.113 57.5869C143.057 57.5283 143.028 57.4609 143.028 57.3848C143.028 57.293 143.112 57.1816 143.28 57.0508C143.386 56.9766 143.535 56.8574 143.729 56.6934C143.9 56.5195 144.064 56.4326 144.221 56.4326C144.352 56.4326 144.417 56.5078 144.417 56.6582C144.417 56.7031 144.411 56.7705 144.399 56.8604C144.388 56.9482 144.382 57.0146 144.382 57.0596C144.382 57.124 144.385 57.2217 144.391 57.3525C144.398 57.4834 144.402 57.5811 144.402 57.6455C144.402 57.8682 144.379 58.2002 144.332 58.6416C144.285 59.083 144.262 59.4141 144.262 59.6348C144.262 59.748 144.27 59.8857 144.285 60.0479C144.301 60.21 144.31 60.3428 144.312 60.4463L144.619 60.4404C144.701 60.4404 144.769 60.4678 144.821 60.5225C144.876 60.5752 144.903 60.6416 144.903 60.7217C144.903 60.8037 144.876 60.8711 144.821 60.9238C144.769 60.9766 144.701 61.0029 144.619 61.0029Z" fill="black"/>
<path d="M7.1377 178.147C7.1377 178.075 7.16309 178.011 7.21387 177.954C7.26465 177.897 7.3252 177.869 7.39551 177.869C7.44238 177.869 7.70703 177.964 8.18945 178.153C8.17383 177.882 8.16602 177.694 8.16602 177.591C8.16602 177.515 8.19043 177.452 8.23926 177.403C8.29004 177.354 8.35254 177.33 8.42676 177.33C8.50293 177.33 8.56543 177.354 8.61426 177.403C8.66504 177.452 8.69043 177.515 8.69043 177.591C8.69043 177.698 8.69629 177.863 8.70801 178.086C9.17676 178.016 9.46387 177.98 9.56934 177.98C9.6416 177.98 9.70117 178.007 9.74805 178.06C9.79688 178.11 9.82129 178.173 9.82129 178.247C9.82129 178.384 9.74805 178.468 9.60156 178.499C9.46484 178.528 9.22363 178.563 8.87793 178.604C8.99121 178.708 9.11426 178.841 9.24707 179.003C9.4209 179.218 9.50781 179.367 9.50781 179.451C9.50781 179.521 9.48047 179.583 9.42578 179.636C9.37109 179.687 9.30859 179.712 9.23828 179.712C9.16406 179.712 9.09668 179.677 9.03613 179.606C8.91699 179.446 8.72266 179.217 8.45312 178.918C8.05078 179.373 7.77832 179.601 7.63574 179.601C7.56543 179.601 7.50293 179.573 7.44824 179.519C7.39551 179.464 7.36914 179.401 7.36914 179.331C7.36914 179.265 7.40039 179.2 7.46289 179.138C7.58789 179.032 7.76953 178.863 8.00781 178.631C7.84766 178.58 7.61328 178.495 7.30469 178.376C7.19336 178.327 7.1377 178.251 7.1377 178.147ZM12.2441 182.003H11.6611L11.0811 182C10.9443 182 10.8486 181.991 10.7939 181.974C10.6943 181.938 10.6445 181.864 10.6445 181.751C10.6445 181.554 10.7979 181.455 11.1045 181.455L11.2451 181.458L11.3652 181.464C11.3652 181.37 11.3564 181.231 11.3389 181.048C11.3232 180.864 11.3154 180.727 11.3154 180.635C11.3154 180.387 11.3379 180.01 11.3828 179.504C11.4258 179.006 11.4463 178.628 11.4443 178.37C11.1826 178.573 11.0156 178.675 10.9434 178.675C10.8652 178.675 10.7969 178.646 10.7383 178.587C10.6816 178.528 10.6533 178.461 10.6533 178.385C10.6533 178.293 10.7373 178.182 10.9053 178.051C11.0107 177.977 11.1602 177.857 11.3535 177.693C11.5254 177.52 11.6895 177.433 11.8457 177.433C11.9766 177.433 12.042 177.508 12.042 177.658C12.042 177.703 12.0361 177.771 12.0244 177.86C12.0127 177.948 12.0068 178.015 12.0068 178.06C12.0068 178.124 12.0098 178.222 12.0156 178.353C12.0234 178.483 12.0273 178.581 12.0273 178.646C12.0273 178.868 12.0039 179.2 11.957 179.642C11.9102 180.083 11.8867 180.414 11.8867 180.635C11.8867 180.748 11.8945 180.886 11.9102 181.048C11.9258 181.21 11.9346 181.343 11.9365 181.446L12.2441 181.44C12.3262 181.44 12.3936 181.468 12.4463 181.522C12.501 181.575 12.5283 181.642 12.5283 181.722C12.5283 181.804 12.501 181.871 12.4463 181.924C12.3936 181.977 12.3262 182.003 12.2441 182.003ZM14.0957 181.338C14.0957 181.426 14.0674 181.498 14.0107 181.555C13.9541 181.611 13.8818 181.64 13.7939 181.64C13.7061 181.64 13.6348 181.611 13.5801 181.555C13.5234 181.498 13.4951 181.426 13.4951 181.338C13.4951 181.301 13.4883 181.247 13.4746 181.177C13.4629 181.104 13.457 181.051 13.457 181.016C13.457 180.934 13.4873 180.865 13.5479 180.811C13.6104 180.756 13.6836 180.729 13.7676 180.729C13.9863 180.729 14.0957 180.932 14.0957 181.338ZM14.0459 179.199C14.0459 179.287 14.0176 179.359 13.9609 179.416C13.9062 179.473 13.835 179.501 13.7471 179.501C13.6592 179.501 13.5869 179.473 13.5303 179.416C13.4736 179.359 13.4453 179.287 13.4453 179.199C13.4453 179.176 13.4404 179.141 13.4307 179.094C13.4229 179.045 13.4189 179.008 13.4189 178.982C13.4189 178.898 13.4482 178.829 13.5068 178.774C13.5654 178.72 13.6377 178.692 13.7236 178.692C13.9385 178.692 14.0459 178.861 14.0459 179.199ZM20.459 178.3C20.3145 178.3 20.0918 178.288 19.791 178.265C19.498 178.243 19.2754 178.233 19.123 178.235H18.915C18.9209 178.505 18.9473 178.942 18.9941 179.548C19.0371 180.112 19.0586 180.551 19.0586 180.863C19.0586 180.932 19.0654 181.035 19.0791 181.174C19.0928 181.312 19.0996 181.417 19.0996 181.487C19.0996 181.62 19.0781 181.734 19.0352 181.83C18.9805 181.959 18.8955 182.023 18.7803 182.023C18.7021 182.023 18.6318 181.996 18.5693 181.941C18.5068 181.887 18.4756 181.816 18.4756 181.73C18.4756 181.701 18.4805 181.657 18.4902 181.599C18.5 181.54 18.5049 181.496 18.5049 181.467C18.5049 181.371 18.498 181.228 18.4844 181.036C18.4727 180.845 18.4668 180.7 18.4668 180.603C18.4668 180.323 18.4443 179.931 18.3994 179.425C18.3525 178.878 18.3262 178.485 18.3203 178.247L18.0537 178.25C17.626 178.25 17.29 178.219 17.0459 178.156C16.8877 178.115 16.8086 178.019 16.8086 177.866C16.8086 177.786 16.834 177.716 16.8848 177.655C16.9434 177.587 17.0186 177.556 17.1104 177.562C17.1787 177.565 17.335 177.583 17.5791 177.614C17.7744 177.638 17.9326 177.649 18.0537 177.649C18.1709 177.649 18.3486 177.647 18.5869 177.644C18.8252 177.638 19.0029 177.635 19.1201 177.635C19.2705 177.635 19.4932 177.646 19.7881 177.667C20.085 177.688 20.3086 177.699 20.459 177.699C20.543 177.699 20.6133 177.729 20.6699 177.787C20.7266 177.844 20.7549 177.915 20.7549 178.001C20.7549 178.085 20.7266 178.156 20.6699 178.215C20.6133 178.271 20.543 178.3 20.459 178.3ZM23.2334 179.835C23.2197 180.079 23.1221 180.201 22.9404 180.201C22.7725 180.201 22.6885 180.104 22.6885 179.911C22.6885 179.874 22.6855 179.806 22.6797 179.706L22.6709 179.46C22.3623 179.497 22.1152 179.584 21.9297 179.721C21.7559 179.848 21.6113 180.039 21.4961 180.295L21.502 181.9C21.502 182.098 21.4053 182.196 21.2119 182.196C21.04 182.196 20.9541 182.098 20.9541 181.9V179.844C20.9541 179.779 20.9561 179.683 20.96 179.554C20.9658 179.425 20.9688 179.328 20.9688 179.264C20.9688 179.066 21.0547 178.968 21.2266 178.968C21.418 178.968 21.5146 179.13 21.5166 179.454C21.8916 179.093 22.3076 178.912 22.7646 178.912C22.9229 178.912 23.041 178.972 23.1191 179.091C23.1973 179.21 23.2363 179.39 23.2363 179.63C23.2363 179.731 23.2354 179.8 23.2334 179.835ZM26.3916 179.387L25.3779 181.578C25.1279 182.111 24.9365 182.558 24.8037 182.917L24.6104 183.485C24.5596 183.626 24.4717 183.696 24.3467 183.696C24.2646 183.696 24.1934 183.669 24.1328 183.614C24.0742 183.562 24.0449 183.495 24.0449 183.415C24.0449 183.22 24.2559 182.654 24.6777 181.719L23.6289 179.7L23.4971 179.486C23.4443 179.396 23.418 179.321 23.418 179.261C23.418 179.181 23.4482 179.11 23.5088 179.05C23.5713 178.989 23.6406 178.959 23.7168 178.959C23.8066 178.959 23.876 178.993 23.9248 179.062C24.2568 179.522 24.6133 180.179 24.9941 181.03L25.4277 180.02C25.584 179.67 25.7344 179.369 25.8789 179.117C25.9414 179.008 26.0234 178.953 26.125 178.953C26.2051 178.953 26.2754 178.981 26.3359 179.038C26.3984 179.095 26.4297 179.162 26.4297 179.24C26.4297 179.283 26.417 179.332 26.3916 179.387ZM30.7129 179.504C30.6719 179.504 30.623 179.502 30.5664 179.498C30.5117 179.494 30.4639 179.492 30.4229 179.492C30.3779 179.492 30.2451 179.507 30.0244 179.536L30.0801 181.268L30.083 181.396L30.0859 181.546C30.0938 181.974 29.9912 182.188 29.7783 182.188C29.7002 182.188 29.6318 182.162 29.5732 182.111C29.5166 182.061 29.4883 181.997 29.4883 181.921C29.4883 181.847 29.4912 181.735 29.4971 181.587C29.5029 181.438 29.5059 181.327 29.5059 181.253L29.4473 179.542C29.3047 179.536 29.0879 179.52 28.7969 179.492C28.623 179.469 28.5361 179.372 28.5361 179.202C28.5361 179.116 28.5625 179.045 28.6152 178.988C28.668 178.932 28.7354 178.903 28.8174 178.903L29.4326 178.953C29.4326 178.854 29.4277 178.721 29.418 178.555C29.4102 178.387 29.4062 178.266 29.4062 178.191C29.4062 178.109 29.4346 178.042 29.4912 177.989C29.5479 177.935 29.6172 177.907 29.6992 177.907C29.875 177.907 29.9775 178.051 30.0068 178.338C30.0127 178.41 30.0156 178.497 30.0156 178.599L30.0098 178.769L30.0068 178.95C30.249 178.919 30.3877 178.903 30.4229 178.903C30.626 178.903 30.7588 178.913 30.8213 178.933C30.9404 178.972 31 179.063 31 179.208C31 179.294 30.9727 179.365 30.918 179.422C30.8652 179.477 30.7969 179.504 30.7129 179.504ZM32.6816 182.173C32.3535 182.173 32.0713 182.052 31.835 181.81C31.5713 181.54 31.4326 181.178 31.4189 180.723C31.4072 180.281 31.5186 179.893 31.7529 179.557C32.0264 179.16 32.4072 178.962 32.8955 178.962C33.2861 178.962 33.582 179.141 33.7832 179.498C33.9434 179.787 34.0205 180.135 34.0146 180.541C34.0088 180.975 33.8955 181.345 33.6748 181.651C33.4248 181.999 33.0938 182.173 32.6816 182.173ZM32.8574 179.557C32.5703 179.555 32.3467 179.691 32.1865 179.967C32.0596 180.188 31.9961 180.439 31.9961 180.723C31.9961 181.006 32.0732 181.227 32.2275 181.385C32.3564 181.516 32.5078 181.581 32.6816 181.581C32.8848 181.581 33.0596 181.507 33.2061 181.358C33.3721 181.194 33.46 180.973 33.4697 180.693C33.4971 179.938 33.293 179.559 32.8574 179.557ZM38.5029 177.881C38.0303 177.881 37.7656 178.209 37.709 178.865L37.7002 179.047C38.0322 179.023 38.2471 179.012 38.3447 179.012C38.6553 179.012 38.8105 179.109 38.8105 179.305C38.8105 179.447 38.7344 179.532 38.582 179.56C38.5156 179.571 38.4375 179.576 38.3477 179.574C38.2598 179.57 38.0352 179.583 37.6738 179.612L37.6504 180.28C37.6504 180.401 37.6543 180.583 37.6621 180.825C37.6699 181.067 37.6738 181.248 37.6738 181.367C37.6738 181.738 37.6523 182.027 37.6094 182.234C37.5762 182.391 37.4854 182.469 37.3369 182.469C37.2568 182.469 37.1885 182.442 37.1318 182.39C37.0752 182.339 37.0469 182.274 37.0469 182.196C37.0469 182.181 37.0488 182.161 37.0527 182.138C37.0938 181.884 37.1143 181.607 37.1143 181.309L37.1055 180.509V179.659C36.8613 179.679 36.707 179.688 36.6426 179.688C36.4453 179.688 36.3467 179.594 36.3467 179.404C36.3467 179.211 36.5176 179.109 36.8594 179.1L37.1406 179.091C37.1465 178.981 37.1611 178.833 37.1846 178.646C37.2354 178.212 37.3447 177.893 37.5127 177.688C37.7158 177.439 38.0332 177.315 38.4648 177.315C38.7441 177.315 38.8838 177.41 38.8838 177.6C38.8838 177.787 38.7568 177.881 38.5029 177.881ZM40.1465 178.291C40.0527 178.291 39.9717 178.258 39.9033 178.191C39.835 178.125 39.8008 178.045 39.8008 177.951C39.8008 177.857 39.835 177.777 39.9033 177.711C39.9717 177.645 40.0527 177.611 40.1465 177.611C40.2402 177.611 40.3203 177.645 40.3867 177.711C40.4551 177.777 40.4893 177.857 40.4893 177.951C40.4893 178.045 40.4551 178.125 40.3867 178.191C40.3203 178.258 40.2402 178.291 40.1465 178.291ZM40.2783 180.67C40.2783 180.787 40.2812 180.963 40.2871 181.197C40.2949 181.43 40.2988 181.604 40.2988 181.722C40.2988 181.808 40.2725 181.878 40.2197 181.933C40.167 181.987 40.0977 182.015 40.0117 182.015C39.9277 182.015 39.8584 181.987 39.8037 181.933C39.751 181.878 39.7246 181.808 39.7246 181.722C39.7246 181.604 39.7207 181.43 39.7129 181.197C39.707 180.963 39.7041 180.787 39.7041 180.67C39.7041 180.486 39.7139 180.258 39.7334 179.984C39.7529 179.709 39.7627 179.479 39.7627 179.296C39.7627 179.208 39.7891 179.137 39.8418 179.082C39.8965 179.027 39.9658 179 40.0498 179C40.1338 179 40.2021 179.027 40.2549 179.082C40.3096 179.137 40.3369 179.208 40.3369 179.296C40.3369 179.479 40.3271 179.709 40.3076 179.984C40.2881 180.258 40.2783 180.486 40.2783 180.67ZM43.6797 180.737L43.6123 181.722C43.6006 182.112 43.5605 182.432 43.4922 182.68C43.4043 182.996 43.2637 183.229 43.0703 183.38C42.8359 183.562 42.4971 183.652 42.0537 183.652C41.7939 183.652 41.5762 183.635 41.4004 183.6C41.1543 183.551 41.0312 183.449 41.0312 183.295C41.0312 183.121 41.1162 183.034 41.2861 183.034C41.3564 183.034 41.4736 183.051 41.6377 183.084C41.8018 183.119 41.9834 183.135 42.1826 183.131C42.5576 183.125 42.8164 182.943 42.959 182.586C43.0527 182.348 43.1025 181.981 43.1084 181.487C43.0029 181.683 42.877 181.829 42.7305 181.927C42.5859 182.024 42.4199 182.073 42.2324 182.073C41.8789 182.073 41.5908 181.953 41.3682 181.713C41.1475 181.471 41.0371 181.157 41.0371 180.772C41.0371 180.245 41.1885 179.82 41.4912 179.498C41.8037 179.166 42.2295 179 42.7686 179C42.9502 179 43.1025 179.023 43.2256 179.07C43.3486 179.117 43.4424 179.188 43.5068 179.281C43.7158 179.287 43.8203 179.403 43.8203 179.63C43.8203 179.769 43.7998 179.954 43.7588 180.187C43.7139 180.456 43.6875 180.64 43.6797 180.737ZM42.7393 179.469C42.3682 179.469 42.0811 179.597 41.8779 179.853C41.6963 180.083 41.6055 180.376 41.6055 180.731C41.6055 181.015 41.6592 181.228 41.7666 181.37C41.874 181.513 42.0352 181.584 42.25 181.584C42.4473 181.584 42.6387 181.473 42.8242 181.25C42.9922 181.045 43.0879 180.842 43.1113 180.641C43.1523 180.43 43.1963 180.099 43.2432 179.647C43.165 179.587 43.084 179.542 43 179.513C42.916 179.483 42.8291 179.469 42.7393 179.469ZM46.8467 180.289C46.8467 180.43 46.8477 180.641 46.8496 180.922C46.8516 181.203 46.8525 181.414 46.8525 181.555C46.8525 181.598 46.8555 181.663 46.8613 181.751C46.8691 181.839 46.873 181.904 46.873 181.947C46.873 182.031 46.8447 182.1 46.7881 182.152C46.7314 182.207 46.6621 182.234 46.5801 182.234C46.4297 182.234 46.334 182.142 46.293 181.956C46.0488 182.083 45.7676 182.146 45.4492 182.146C45.1934 182.146 44.9814 182.09 44.8135 181.977C44.6279 181.852 44.5176 181.669 44.4824 181.429C44.4062 180.911 44.3682 180.45 44.3682 180.046C44.3682 179.778 44.3975 179.474 44.4561 179.132C44.4834 178.962 44.5762 178.877 44.7344 178.877C44.8184 178.877 44.8887 178.904 44.9453 178.959C45.002 179.012 45.0303 179.08 45.0303 179.164C45.0303 179.254 45.0156 179.397 44.9863 179.595C44.959 179.792 44.9453 179.942 44.9453 180.046C44.9453 180.372 44.9561 180.651 44.9775 180.884C44.999 181.116 45.0312 181.303 45.0742 181.443C45.1387 181.479 45.2021 181.506 45.2646 181.525C45.3271 181.543 45.3887 181.552 45.4492 181.552C45.7109 181.552 45.9873 181.51 46.2783 181.426L46.2754 180.831L46.2695 180.263C46.2695 179.841 46.2881 179.475 46.3252 179.164C46.3467 178.984 46.4414 178.895 46.6094 178.895C46.6934 178.895 46.7637 178.922 46.8203 178.977C46.877 179.031 46.9033 179.1 46.8994 179.182L46.8467 180.289ZM49.8584 179.835C49.8447 180.079 49.7471 180.201 49.5654 180.201C49.3975 180.201 49.3135 180.104 49.3135 179.911C49.3135 179.874 49.3105 179.806 49.3047 179.706L49.2959 179.46C48.9873 179.497 48.7402 179.584 48.5547 179.721C48.3809 179.848 48.2363 180.039 48.1211 180.295L48.127 181.9C48.127 182.098 48.0303 182.196 47.8369 182.196C47.665 182.196 47.5791 182.098 47.5791 181.9V179.844C47.5791 179.779 47.5811 179.683 47.585 179.554C47.5908 179.425 47.5938 179.328 47.5938 179.264C47.5938 179.066 47.6797 178.968 47.8516 178.968C48.043 178.968 48.1396 179.13 48.1416 179.454C48.5166 179.093 48.9326 178.912 49.3896 178.912C49.5479 178.912 49.666 178.972 49.7441 179.091C49.8223 179.21 49.8613 179.39 49.8613 179.63C49.8613 179.731 49.8604 179.8 49.8584 179.835ZM51.8301 182.135C51.3887 182.135 51.0312 182.024 50.7578 181.804C50.459 181.56 50.3096 181.218 50.3096 180.778C50.3096 180.271 50.4326 179.845 50.6787 179.501C50.9463 179.126 51.3037 178.938 51.751 178.938C52.0752 178.938 52.3398 178.993 52.5449 179.103C52.7969 179.237 52.9229 179.444 52.9229 179.724C52.9229 179.919 52.8125 180.097 52.5918 180.257C52.4941 180.327 52.2871 180.437 51.9707 180.585L50.8516 181.115C50.9609 181.277 51.0967 181.399 51.2588 181.481C51.4229 181.563 51.6133 181.604 51.8301 181.604C51.9648 181.604 52.123 181.579 52.3047 181.528C52.5352 181.464 52.6836 181.38 52.75 181.276C52.8164 181.171 52.8877 181.118 52.9639 181.118C53.0322 181.118 53.0928 181.145 53.1455 181.197C53.2002 181.248 53.2275 181.308 53.2275 181.376C53.2275 181.593 53.0527 181.779 52.7031 181.936C52.4043 182.068 52.1133 182.135 51.8301 182.135ZM51.751 179.466C51.5127 179.466 51.3145 179.559 51.1562 179.744C50.998 179.928 50.8799 180.205 50.8018 180.576L51.7012 180.148C52.0547 179.977 52.3066 179.827 52.457 179.7C52.2891 179.544 52.0537 179.466 51.751 179.466ZM56.6406 182.173C56.3125 182.173 56.0303 182.052 55.7939 181.81C55.5303 181.54 55.3916 181.178 55.3779 180.723C55.3662 180.281 55.4775 179.893 55.7119 179.557C55.9854 179.16 56.3662 178.962 56.8545 178.962C57.2451 178.962 57.541 179.141 57.7422 179.498C57.9023 179.787 57.9795 180.135 57.9736 180.541C57.9678 180.975 57.8545 181.345 57.6338 181.651C57.3838 181.999 57.0527 182.173 56.6406 182.173ZM56.8164 179.557C56.5293 179.555 56.3057 179.691 56.1455 179.967C56.0186 180.188 55.9551 180.439 55.9551 180.723C55.9551 181.006 56.0322 181.227 56.1865 181.385C56.3154 181.516 56.4668 181.581 56.6406 181.581C56.8438 181.581 57.0186 181.507 57.165 181.358C57.3311 181.194 57.4189 180.973 57.4287 180.693C57.4561 179.938 57.252 179.559 56.8164 179.557ZM61.0908 180.289C61.0908 180.43 61.0918 180.641 61.0938 180.922C61.0957 181.203 61.0967 181.414 61.0967 181.555C61.0967 181.598 61.0996 181.663 61.1055 181.751C61.1133 181.839 61.1172 181.904 61.1172 181.947C61.1172 182.031 61.0889 182.1 61.0322 182.152C60.9756 182.207 60.9062 182.234 60.8242 182.234C60.6738 182.234 60.5781 182.142 60.5371 181.956C60.293 182.083 60.0117 182.146 59.6934 182.146C59.4375 182.146 59.2256 182.09 59.0576 181.977C58.8721 181.852 58.7617 181.669 58.7266 181.429C58.6504 180.911 58.6123 180.45 58.6123 180.046C58.6123 179.778 58.6416 179.474 58.7002 179.132C58.7275 178.962 58.8203 178.877 58.9785 178.877C59.0625 178.877 59.1328 178.904 59.1895 178.959C59.2461 179.012 59.2744 179.08 59.2744 179.164C59.2744 179.254 59.2598 179.397 59.2305 179.595C59.2031 179.792 59.1895 179.942 59.1895 180.046C59.1895 180.372 59.2002 180.651 59.2217 180.884C59.2432 181.116 59.2754 181.303 59.3184 181.443C59.3828 181.479 59.4463 181.506 59.5088 181.525C59.5713 181.543 59.6328 181.552 59.6934 181.552C59.9551 181.552 60.2314 181.51 60.5225 181.426L60.5195 180.831L60.5137 180.263C60.5137 179.841 60.5322 179.475 60.5693 179.164C60.5908 178.984 60.6855 178.895 60.8535 178.895C60.9375 178.895 61.0078 178.922 61.0645 178.977C61.1211 179.031 61.1475 179.1 61.1436 179.182L61.0908 180.289ZM63.7832 179.504C63.7422 179.504 63.6934 179.502 63.6367 179.498C63.582 179.494 63.5342 179.492 63.4932 179.492C63.4482 179.492 63.3154 179.507 63.0947 179.536L63.1504 181.268L63.1533 181.396L63.1562 181.546C63.1641 181.974 63.0615 182.188 62.8486 182.188C62.7705 182.188 62.7021 182.162 62.6436 182.111C62.5869 182.061 62.5586 181.997 62.5586 181.921C62.5586 181.847 62.5615 181.735 62.5674 181.587C62.5732 181.438 62.5762 181.327 62.5762 181.253L62.5176 179.542C62.375 179.536 62.1582 179.52 61.8672 179.492C61.6934 179.469 61.6064 179.372 61.6064 179.202C61.6064 179.116 61.6328 179.045 61.6855 178.988C61.7383 178.932 61.8057 178.903 61.8877 178.903L62.5029 178.953C62.5029 178.854 62.498 178.721 62.4883 178.555C62.4805 178.387 62.4766 178.266 62.4766 178.191C62.4766 178.109 62.5049 178.042 62.5615 177.989C62.6182 177.935 62.6875 177.907 62.7695 177.907C62.9453 177.907 63.0479 178.051 63.0771 178.338C63.083 178.41 63.0859 178.497 63.0859 178.599L63.0801 178.769L63.0771 178.95C63.3193 178.919 63.458 178.903 63.4932 178.903C63.6963 178.903 63.8291 178.913 63.8916 178.933C64.0107 178.972 64.0703 179.063 64.0703 179.208C64.0703 179.294 64.043 179.365 63.9883 179.422C63.9355 179.477 63.8672 179.504 63.7832 179.504ZM68.7344 182.193C68.6973 182.193 68.6299 182.15 68.5322 182.064C68.4443 181.984 68.3789 181.913 68.3359 181.851C68.1484 181.952 67.9834 182.028 67.8408 182.079C67.6982 182.132 67.5791 182.158 67.4834 182.158C67.0264 182.158 66.6934 182.029 66.4844 181.771C66.2871 181.529 66.1885 181.158 66.1885 180.658C66.1885 180.186 66.3506 179.781 66.6748 179.445C67.001 179.109 67.3896 178.941 67.8408 178.941C68.0107 178.941 68.2012 178.985 68.4121 179.073C68.6777 179.183 68.8105 179.314 68.8105 179.469C68.8105 179.521 68.791 179.568 68.752 179.609C68.7324 179.684 68.7168 179.806 68.7051 179.976C68.6953 180.146 68.6895 180.363 68.6875 180.629C68.6855 180.871 68.7021 181.062 68.7373 181.203C68.7568 181.289 68.8184 181.461 68.9219 181.719C68.9355 181.754 68.958 181.806 68.9893 181.874L69.0068 181.924C69.0068 182.002 68.9795 182.066 68.9248 182.117C68.8701 182.168 68.8066 182.193 68.7344 182.193ZM68.125 180.157C68.125 180.073 68.1299 179.982 68.1396 179.885C68.1514 179.785 68.168 179.68 68.1895 179.568C68.1172 179.531 68.0547 179.504 68.002 179.486C67.9512 179.469 67.9102 179.46 67.8789 179.46C67.5762 179.46 67.3145 179.584 67.0938 179.832C66.875 180.078 66.7656 180.362 66.7656 180.685C66.7656 181.005 66.8223 181.245 66.9355 181.405C67.0488 181.565 67.2188 181.646 67.4453 181.646C67.6328 181.646 67.792 181.611 67.9229 181.543C67.9932 181.506 68.0918 181.432 68.2188 181.32C68.1562 180.803 68.125 180.415 68.125 180.157ZM72.6338 182.185C72.2334 182.185 71.8994 182.063 71.6318 181.821C71.3506 181.567 71.21 181.232 71.21 180.816C71.21 180.42 71.3418 180.011 71.6055 179.589C71.8984 179.12 72.2285 178.886 72.5957 178.886C72.7871 178.886 73.001 178.931 73.2373 179.021C73.5361 179.136 73.6855 179.276 73.6855 179.442C73.6855 179.517 73.6611 179.583 73.6123 179.642C73.5635 179.698 73.5029 179.727 73.4307 179.727C73.374 179.727 73.3242 179.71 73.2812 179.677C73.2402 179.642 73.2002 179.607 73.1611 179.574C73.0459 179.482 72.8574 179.437 72.5957 179.437C72.3965 179.437 72.1992 179.614 72.0039 179.97C71.8262 180.296 71.7373 180.578 71.7373 180.816C71.7373 181.074 71.8252 181.277 72.001 181.426C72.165 181.564 72.376 181.634 72.6338 181.634C72.751 181.634 72.876 181.603 73.0088 181.54L73.3486 181.358C73.4072 181.327 73.4492 181.312 73.4746 181.312C73.5469 181.312 73.6094 181.341 73.6621 181.399C73.7148 181.456 73.7412 181.521 73.7412 181.596C73.7412 181.738 73.5908 181.876 73.29 182.009C73.0264 182.126 72.8076 182.185 72.6338 182.185ZM75.4902 182.173C75.1621 182.173 74.8799 182.052 74.6436 181.81C74.3799 181.54 74.2412 181.178 74.2275 180.723C74.2158 180.281 74.3271 179.893 74.5615 179.557C74.835 179.16 75.2158 178.962 75.7041 178.962C76.0947 178.962 76.3906 179.141 76.5918 179.498C76.752 179.787 76.8291 180.135 76.8232 180.541C76.8174 180.975 76.7041 181.345 76.4834 181.651C76.2334 181.999 75.9023 182.173 75.4902 182.173ZM75.666 179.557C75.3789 179.555 75.1553 179.691 74.9951 179.967C74.8682 180.188 74.8047 180.439 74.8047 180.723C74.8047 181.006 74.8818 181.227 75.0361 181.385C75.165 181.516 75.3164 181.581 75.4902 181.581C75.6934 181.581 75.8682 181.507 76.0146 181.358C76.1807 181.194 76.2686 180.973 76.2783 180.693C76.3057 179.938 76.1016 179.559 75.666 179.557ZM81.2705 182.243C81.1104 182.243 81.0166 182.158 80.9893 181.988C80.9541 181.773 80.9189 181.471 80.8838 181.08L80.7842 180.172C80.7646 180.037 80.7314 179.905 80.6846 179.776C80.6182 179.601 80.5459 179.513 80.4678 179.513C80.3955 179.513 80.2607 179.574 80.0635 179.697C79.876 179.811 79.7529 179.901 79.6943 179.97C79.6924 180.153 79.6973 180.337 79.709 180.521L79.7969 181.303C79.834 181.611 79.8525 181.866 79.8525 182.067C79.8525 182.153 79.8252 182.224 79.7705 182.278C79.7178 182.335 79.6494 182.363 79.5654 182.363C79.4814 182.363 79.4121 182.335 79.3574 182.278C79.3047 182.224 79.2783 182.153 79.2783 182.067C79.2783 181.831 79.2539 181.482 79.2051 181.021C79.1582 180.559 79.1348 180.209 79.1348 179.973C79.1348 179.766 79.1055 179.604 79.0469 179.489C78.9102 179.552 78.7715 179.653 78.6309 179.794L78.2852 180.181C78.2539 180.228 78.2041 180.289 78.1357 180.365C78.1357 180.482 78.125 180.655 78.1035 180.884C78.082 181.112 78.0713 181.281 78.0713 181.391C78.0713 181.449 78.0801 181.531 78.0977 181.637C78.1172 181.742 78.127 181.818 78.127 181.865C78.127 181.945 78.0967 182.013 78.0361 182.067C77.9775 182.122 77.9082 182.149 77.8281 182.149C77.6074 182.149 77.4971 181.898 77.4971 181.396C77.4971 181.279 77.5078 181.104 77.5293 180.872C77.5508 180.64 77.5615 180.465 77.5615 180.348C77.5615 180.244 77.5518 180.089 77.5322 179.882C77.5146 179.675 77.5059 179.519 77.5059 179.413C77.5059 178.97 77.6055 178.748 77.8047 178.748C77.8809 178.748 77.9502 178.781 78.0127 178.848C78.0771 178.914 78.1094 178.986 78.1094 179.064C78.1094 179.102 78.1045 179.159 78.0947 179.237C78.085 179.315 78.0801 179.375 78.0801 179.416L78.0859 179.724C78.1875 179.515 78.3369 179.326 78.5342 179.158C78.7314 178.988 78.8994 178.903 79.0381 178.903C79.3447 178.903 79.5557 179.056 79.6709 179.36C79.7783 179.218 79.9062 179.111 80.0547 179.041C80.2031 178.969 80.373 178.933 80.5645 178.933C80.8906 178.933 81.1133 179.108 81.2324 179.46C81.2559 179.53 81.2959 179.805 81.3525 180.283C81.4072 180.619 81.4775 181.179 81.5635 181.962C81.5693 182.04 81.543 182.106 81.4844 182.161C81.4258 182.216 81.3545 182.243 81.2705 182.243ZM82.7734 178.291C82.6797 178.291 82.5986 178.258 82.5303 178.191C82.4619 178.125 82.4277 178.045 82.4277 177.951C82.4277 177.857 82.4619 177.777 82.5303 177.711C82.5986 177.645 82.6797 177.611 82.7734 177.611C82.8672 177.611 82.9473 177.645 83.0137 177.711C83.082 177.777 83.1162 177.857 83.1162 177.951C83.1162 178.045 83.082 178.125 83.0137 178.191C82.9473 178.258 82.8672 178.291 82.7734 178.291ZM82.9053 180.67C82.9053 180.787 82.9082 180.963 82.9141 181.197C82.9219 181.43 82.9258 181.604 82.9258 181.722C82.9258 181.808 82.8994 181.878 82.8467 181.933C82.7939 181.987 82.7246 182.015 82.6387 182.015C82.5547 182.015 82.4854 181.987 82.4307 181.933C82.3779 181.878 82.3516 181.808 82.3516 181.722C82.3516 181.604 82.3477 181.43 82.3398 181.197C82.334 180.963 82.3311 180.787 82.3311 180.67C82.3311 180.486 82.3408 180.258 82.3604 179.984C82.3799 179.709 82.3896 179.479 82.3896 179.296C82.3896 179.208 82.416 179.137 82.4688 179.082C82.5234 179.027 82.5928 179 82.6768 179C82.7607 179 82.8291 179.027 82.8818 179.082C82.9365 179.137 82.9639 179.208 82.9639 179.296C82.9639 179.479 82.9541 179.709 82.9346 179.984C82.915 180.258 82.9053 180.486 82.9053 180.67ZM85.2197 182.185C84.8193 182.185 84.4854 182.063 84.2178 181.821C83.9365 181.567 83.7959 181.232 83.7959 180.816C83.7959 180.42 83.9277 180.011 84.1914 179.589C84.4844 179.12 84.8145 178.886 85.1816 178.886C85.373 178.886 85.5869 178.931 85.8232 179.021C86.1221 179.136 86.2715 179.276 86.2715 179.442C86.2715 179.517 86.2471 179.583 86.1982 179.642C86.1494 179.698 86.0889 179.727 86.0166 179.727C85.96 179.727 85.9102 179.71 85.8672 179.677C85.8262 179.642 85.7861 179.607 85.7471 179.574C85.6318 179.482 85.4434 179.437 85.1816 179.437C84.9824 179.437 84.7852 179.614 84.5898 179.97C84.4121 180.296 84.3232 180.578 84.3232 180.816C84.3232 181.074 84.4111 181.277 84.5869 181.426C84.751 181.564 84.9619 181.634 85.2197 181.634C85.3369 181.634 85.4619 181.603 85.5947 181.54L85.9346 181.358C85.9932 181.327 86.0352 181.312 86.0605 181.312C86.1328 181.312 86.1953 181.341 86.248 181.399C86.3008 181.456 86.3271 181.521 86.3271 181.596C86.3271 181.738 86.1768 181.876 85.876 182.009C85.6123 182.126 85.3936 182.185 85.2197 182.185ZM90.7305 179.504C90.6895 179.504 90.6406 179.502 90.584 179.498C90.5293 179.494 90.4814 179.492 90.4404 179.492C90.3955 179.492 90.2627 179.507 90.042 179.536L90.0977 181.268L90.1006 181.396L90.1035 181.546C90.1113 181.974 90.0088 182.188 89.7959 182.188C89.7178 182.188 89.6494 182.162 89.5908 182.111C89.5342 182.061 89.5059 181.997 89.5059 181.921C89.5059 181.847 89.5088 181.735 89.5146 181.587C89.5205 181.438 89.5234 181.327 89.5234 181.253L89.4648 179.542C89.3223 179.536 89.1055 179.52 88.8145 179.492C88.6406 179.469 88.5537 179.372 88.5537 179.202C88.5537 179.116 88.5801 179.045 88.6328 178.988C88.6855 178.932 88.7529 178.903 88.835 178.903L89.4502 178.953C89.4502 178.854 89.4453 178.721 89.4355 178.555C89.4277 178.387 89.4238 178.266 89.4238 178.191C89.4238 178.109 89.4521 178.042 89.5088 177.989C89.5654 177.935 89.6348 177.907 89.7168 177.907C89.8926 177.907 89.9951 178.051 90.0244 178.338C90.0303 178.41 90.0332 178.497 90.0332 178.599L90.0273 178.769L90.0244 178.95C90.2666 178.919 90.4053 178.903 90.4404 178.903C90.6436 178.903 90.7764 178.913 90.8389 178.933C90.958 178.972 91.0176 179.063 91.0176 179.208C91.0176 179.294 90.9902 179.365 90.9355 179.422C90.8828 179.477 90.8145 179.504 90.7305 179.504ZM92.6992 182.173C92.3711 182.173 92.0889 182.052 91.8525 181.81C91.5889 181.54 91.4502 181.178 91.4365 180.723C91.4248 180.281 91.5361 179.893 91.7705 179.557C92.0439 179.16 92.4248 178.962 92.9131 178.962C93.3037 178.962 93.5996 179.141 93.8008 179.498C93.9609 179.787 94.0381 180.135 94.0322 180.541C94.0264 180.975 93.9131 181.345 93.6924 181.651C93.4424 181.999 93.1113 182.173 92.6992 182.173ZM92.875 179.557C92.5879 179.555 92.3643 179.691 92.2041 179.967C92.0771 180.188 92.0137 180.439 92.0137 180.723C92.0137 181.006 92.0908 181.227 92.2451 181.385C92.374 181.516 92.5254 181.581 92.6992 181.581C92.9023 181.581 93.0771 181.507 93.2236 181.358C93.3896 181.194 93.4775 180.973 93.4873 180.693C93.5146 179.938 93.3105 179.559 92.875 179.557ZM97.1113 178.291C97.0176 178.291 96.9365 178.258 96.8682 178.191C96.7998 178.125 96.7656 178.045 96.7656 177.951C96.7656 177.857 96.7998 177.777 96.8682 177.711C96.9365 177.645 97.0176 177.611 97.1113 177.611C97.2051 177.611 97.2852 177.645 97.3516 177.711C97.4199 177.777 97.4541 177.857 97.4541 177.951C97.4541 178.045 97.4199 178.125 97.3516 178.191C97.2852 178.258 97.2051 178.291 97.1113 178.291ZM97.2432 180.67C97.2432 180.787 97.2461 180.963 97.252 181.197C97.2598 181.43 97.2637 181.604 97.2637 181.722C97.2637 181.808 97.2373 181.878 97.1846 181.933C97.1318 181.987 97.0625 182.015 96.9766 182.015C96.8926 182.015 96.8232 181.987 96.7686 181.933C96.7158 181.878 96.6895 181.808 96.6895 181.722C96.6895 181.604 96.6855 181.43 96.6777 181.197C96.6719 180.963 96.6689 180.787 96.6689 180.67C96.6689 180.486 96.6787 180.258 96.6982 179.984C96.7178 179.709 96.7275 179.479 96.7275 179.296C96.7275 179.208 96.7539 179.137 96.8066 179.082C96.8613 179.027 96.9307 179 97.0146 179C97.0986 179 97.167 179.027 97.2197 179.082C97.2744 179.137 97.3018 179.208 97.3018 179.296C97.3018 179.479 97.292 179.709 97.2725 179.984C97.2529 180.258 97.2432 180.486 97.2432 180.67ZM98.9775 179.697L98.9336 181.153C98.9336 181.308 98.9258 181.534 98.9102 181.833C98.8906 182.028 98.7949 182.126 98.623 182.126C98.4316 182.126 98.3359 182.026 98.3359 181.827C98.3359 181.591 98.3467 181.236 98.3682 180.764C98.3896 180.289 98.4004 179.934 98.4004 179.697C98.4004 179.389 98.4053 179.036 98.415 178.64C98.4248 178.241 98.4297 177.888 98.4297 177.579C98.4297 177.384 98.5254 177.286 98.7168 177.286C98.9102 177.286 99.0068 177.384 99.0068 177.579C99.0068 177.888 99.002 178.241 98.9922 178.64C98.9824 179.036 98.9775 179.389 98.9775 179.697ZM100.624 179.697L100.58 181.153C100.58 181.308 100.572 181.534 100.557 181.833C100.537 182.028 100.441 182.126 100.27 182.126C100.078 182.126 99.9824 182.026 99.9824 181.827C99.9824 181.591 99.9932 181.236 100.015 180.764C100.036 180.289 100.047 179.934 100.047 179.697C100.047 179.389 100.052 179.036 100.062 178.64C100.071 178.241 100.076 177.888 100.076 177.579C100.076 177.384 100.172 177.286 100.363 177.286C100.557 177.286 100.653 177.384 100.653 177.579C100.653 177.888 100.648 178.241 100.639 178.64C100.629 179.036 100.624 179.389 100.624 179.697ZM103.917 180.289C103.917 180.43 103.918 180.641 103.92 180.922C103.922 181.203 103.923 181.414 103.923 181.555C103.923 181.598 103.926 181.663 103.932 181.751C103.939 181.839 103.943 181.904 103.943 181.947C103.943 182.031 103.915 182.1 103.858 182.152C103.802 182.207 103.732 182.234 103.65 182.234C103.5 182.234 103.404 182.142 103.363 181.956C103.119 182.083 102.838 182.146 102.52 182.146C102.264 182.146 102.052 182.09 101.884 181.977C101.698 181.852 101.588 181.669 101.553 181.429C101.477 180.911 101.438 180.45 101.438 180.046C101.438 179.778 101.468 179.474 101.526 179.132C101.554 178.962 101.646 178.877 101.805 178.877C101.889 178.877 101.959 178.904 102.016 178.959C102.072 179.012 102.101 179.08 102.101 179.164C102.101 179.254 102.086 179.397 102.057 179.595C102.029 179.792 102.016 179.942 102.016 180.046C102.016 180.372 102.026 180.651 102.048 180.884C102.069 181.116 102.102 181.303 102.145 181.443C102.209 181.479 102.272 181.506 102.335 181.525C102.397 181.543 102.459 181.552 102.52 181.552C102.781 181.552 103.058 181.51 103.349 181.426L103.346 180.831L103.34 180.263C103.34 179.841 103.358 179.475 103.396 179.164C103.417 178.984 103.512 178.895 103.68 178.895C103.764 178.895 103.834 178.922 103.891 178.977C103.947 179.031 103.974 179.1 103.97 179.182L103.917 180.289ZM106.627 179.744C106.52 179.744 106.444 179.708 106.401 179.636C106.372 179.585 106.347 179.479 106.325 179.319C106.179 179.356 105.953 179.425 105.648 179.524C105.334 179.649 105.176 179.804 105.174 179.987C105.232 180.009 105.29 180.024 105.347 180.034C105.796 180.114 106.13 180.225 106.349 180.365C106.667 180.57 106.826 180.867 106.826 181.256C106.826 181.574 106.688 181.814 106.413 181.977C106.185 182.109 105.896 182.176 105.546 182.176C105.29 182.176 105.046 182.133 104.813 182.047C104.513 181.938 104.362 181.785 104.362 181.59C104.362 181.512 104.393 181.443 104.453 181.385C104.516 181.326 104.586 181.297 104.664 181.297C104.725 181.297 104.803 181.344 104.898 181.438C104.945 181.482 105.051 181.52 105.215 181.549C105.346 181.572 105.456 181.584 105.546 181.584C105.71 181.584 105.854 181.564 105.979 181.525C106.161 181.469 106.252 181.379 106.252 181.256C106.252 180.99 106.066 180.811 105.695 180.717L105.391 180.649C105.131 180.593 104.946 180.526 104.837 180.45C104.679 180.341 104.6 180.176 104.6 179.955C104.6 179.547 104.792 179.256 105.177 179.082C105.294 179.029 105.481 178.967 105.739 178.895C105.997 178.82 106.182 178.758 106.293 178.707C106.373 178.672 106.46 178.654 106.554 178.654C106.638 178.654 106.706 178.682 106.759 178.736C106.813 178.791 106.841 178.862 106.841 178.95C106.841 179.007 106.853 179.09 106.876 179.199C106.901 179.309 106.914 179.392 106.914 179.448C106.914 179.536 106.887 179.607 106.832 179.662C106.779 179.717 106.711 179.744 106.627 179.744ZM109.533 179.504C109.492 179.504 109.443 179.502 109.387 179.498C109.332 179.494 109.284 179.492 109.243 179.492C109.198 179.492 109.065 179.507 108.845 179.536L108.9 181.268L108.903 181.396L108.906 181.546C108.914 181.974 108.812 182.188 108.599 182.188C108.521 182.188 108.452 182.162 108.394 182.111C108.337 182.061 108.309 181.997 108.309 181.921C108.309 181.847 108.312 181.735 108.317 181.587C108.323 181.438 108.326 181.327 108.326 181.253L108.268 179.542C108.125 179.536 107.908 179.52 107.617 179.492C107.443 179.469 107.356 179.372 107.356 179.202C107.356 179.116 107.383 179.045 107.436 178.988C107.488 178.932 107.556 178.903 107.638 178.903L108.253 178.953C108.253 178.854 108.248 178.721 108.238 178.555C108.23 178.387 108.227 178.266 108.227 178.191C108.227 178.109 108.255 178.042 108.312 177.989C108.368 177.935 108.438 177.907 108.52 177.907C108.695 177.907 108.798 178.051 108.827 178.338C108.833 178.41 108.836 178.497 108.836 178.599L108.83 178.769L108.827 178.95C109.069 178.919 109.208 178.903 109.243 178.903C109.446 178.903 109.579 178.913 109.642 178.933C109.761 178.972 109.82 179.063 109.82 179.208C109.82 179.294 109.793 179.365 109.738 179.422C109.686 179.477 109.617 179.504 109.533 179.504ZM112.683 179.835C112.669 180.079 112.571 180.201 112.39 180.201C112.222 180.201 112.138 180.104 112.138 179.911C112.138 179.874 112.135 179.806 112.129 179.706L112.12 179.46C111.812 179.497 111.564 179.584 111.379 179.721C111.205 179.848 111.061 180.039 110.945 180.295L110.951 181.9C110.951 182.098 110.854 182.196 110.661 182.196C110.489 182.196 110.403 182.098 110.403 181.9V179.844C110.403 179.779 110.405 179.683 110.409 179.554C110.415 179.425 110.418 179.328 110.418 179.264C110.418 179.066 110.504 178.968 110.676 178.968C110.867 178.968 110.964 179.13 110.966 179.454C111.341 179.093 111.757 178.912 112.214 178.912C112.372 178.912 112.49 178.972 112.568 179.091C112.646 179.21 112.686 179.39 112.686 179.63C112.686 179.731 112.685 179.8 112.683 179.835ZM115.574 182.193C115.537 182.193 115.47 182.15 115.372 182.064C115.284 181.984 115.219 181.913 115.176 181.851C114.988 181.952 114.823 182.028 114.681 182.079C114.538 182.132 114.419 182.158 114.323 182.158C113.866 182.158 113.533 182.029 113.324 181.771C113.127 181.529 113.028 181.158 113.028 180.658C113.028 180.186 113.19 179.781 113.515 179.445C113.841 179.109 114.229 178.941 114.681 178.941C114.851 178.941 115.041 178.985 115.252 179.073C115.518 179.183 115.65 179.314 115.65 179.469C115.65 179.521 115.631 179.568 115.592 179.609C115.572 179.684 115.557 179.806 115.545 179.976C115.535 180.146 115.529 180.363 115.527 180.629C115.525 180.871 115.542 181.062 115.577 181.203C115.597 181.289 115.658 181.461 115.762 181.719C115.775 181.754 115.798 181.806 115.829 181.874L115.847 181.924C115.847 182.002 115.819 182.066 115.765 182.117C115.71 182.168 115.646 182.193 115.574 182.193ZM114.965 180.157C114.965 180.073 114.97 179.982 114.979 179.885C114.991 179.785 115.008 179.68 115.029 179.568C114.957 179.531 114.895 179.504 114.842 179.486C114.791 179.469 114.75 179.46 114.719 179.46C114.416 179.46 114.154 179.584 113.934 179.832C113.715 180.078 113.605 180.362 113.605 180.685C113.605 181.005 113.662 181.245 113.775 181.405C113.889 181.565 114.059 181.646 114.285 181.646C114.473 181.646 114.632 181.611 114.763 181.543C114.833 181.506 114.932 181.432 115.059 181.32C114.996 180.803 114.965 180.415 114.965 180.157ZM118.316 179.504C118.275 179.504 118.227 179.502 118.17 179.498C118.115 179.494 118.067 179.492 118.026 179.492C117.981 179.492 117.849 179.507 117.628 179.536L117.684 181.268L117.687 181.396L117.689 181.546C117.697 181.974 117.595 182.188 117.382 182.188C117.304 182.188 117.235 182.162 117.177 182.111C117.12 182.061 117.092 181.997 117.092 181.921C117.092 181.847 117.095 181.735 117.101 181.587C117.106 181.438 117.109 181.327 117.109 181.253L117.051 179.542C116.908 179.536 116.691 179.52 116.4 179.492C116.227 179.469 116.14 179.372 116.14 179.202C116.14 179.116 116.166 179.045 116.219 178.988C116.271 178.932 116.339 178.903 116.421 178.903L117.036 178.953C117.036 178.854 117.031 178.721 117.021 178.555C117.014 178.387 117.01 178.266 117.01 178.191C117.01 178.109 117.038 178.042 117.095 177.989C117.151 177.935 117.221 177.907 117.303 177.907C117.479 177.907 117.581 178.051 117.61 178.338C117.616 178.41 117.619 178.497 117.619 178.599L117.613 178.769L117.61 178.95C117.853 178.919 117.991 178.903 118.026 178.903C118.229 178.903 118.362 178.913 118.425 178.933C118.544 178.972 118.604 179.063 118.604 179.208C118.604 179.294 118.576 179.365 118.521 179.422C118.469 179.477 118.4 179.504 118.316 179.504ZM120.555 182.135C120.113 182.135 119.756 182.024 119.482 181.804C119.184 181.56 119.034 181.218 119.034 180.778C119.034 180.271 119.157 179.845 119.403 179.501C119.671 179.126 120.028 178.938 120.476 178.938C120.8 178.938 121.064 178.993 121.27 179.103C121.521 179.237 121.647 179.444 121.647 179.724C121.647 179.919 121.537 180.097 121.316 180.257C121.219 180.327 121.012 180.437 120.695 180.585L119.576 181.115C119.686 181.277 119.821 181.399 119.983 181.481C120.147 181.563 120.338 181.604 120.555 181.604C120.689 181.604 120.848 181.579 121.029 181.528C121.26 181.464 121.408 181.38 121.475 181.276C121.541 181.171 121.612 181.118 121.688 181.118C121.757 181.118 121.817 181.145 121.87 181.197C121.925 181.248 121.952 181.308 121.952 181.376C121.952 181.593 121.777 181.779 121.428 181.936C121.129 182.068 120.838 182.135 120.555 182.135ZM120.476 179.466C120.237 179.466 120.039 179.559 119.881 179.744C119.723 179.928 119.604 180.205 119.526 180.576L120.426 180.148C120.779 179.977 121.031 179.827 121.182 179.7C121.014 179.544 120.778 179.466 120.476 179.466ZM8.15137 187.697L8.10742 189.153C8.10742 189.308 8.09961 189.534 8.08398 189.833C8.06445 190.028 7.96875 190.126 7.79688 190.126C7.60547 190.126 7.50977 190.026 7.50977 189.827C7.50977 189.591 7.52051 189.236 7.54199 188.764C7.56348 188.289 7.57422 187.934 7.57422 187.697C7.57422 187.389 7.5791 187.036 7.58887 186.64C7.59863 186.241 7.60352 185.888 7.60352 185.579C7.60352 185.384 7.69922 185.286 7.89062 185.286C8.08398 185.286 8.18066 185.384 8.18066 185.579C8.18066 185.888 8.17578 186.241 8.16602 186.64C8.15625 187.036 8.15137 187.389 8.15137 187.697ZM10.4219 190.135C9.98047 190.135 9.62305 190.024 9.34961 189.804C9.05078 189.56 8.90137 189.218 8.90137 188.778C8.90137 188.271 9.02441 187.845 9.27051 187.501C9.53809 187.126 9.89551 186.938 10.3428 186.938C10.667 186.938 10.9316 186.993 11.1367 187.103C11.3887 187.237 11.5146 187.444 11.5146 187.724C11.5146 187.919 11.4043 188.097 11.1836 188.257C11.0859 188.327 10.8789 188.437 10.5625 188.585L9.44336 189.115C9.55273 189.277 9.68848 189.399 9.85059 189.481C10.0146 189.563 10.2051 189.604 10.4219 189.604C10.5566 189.604 10.7148 189.579 10.8965 189.528C11.127 189.464 11.2754 189.38 11.3418 189.276C11.4082 189.171 11.4795 189.118 11.5557 189.118C11.624 189.118 11.6846 189.145 11.7373 189.197C11.792 189.248 11.8193 189.308 11.8193 189.376C11.8193 189.593 11.6445 189.779 11.2949 189.936C10.9961 190.068 10.7051 190.135 10.4219 190.135ZM10.3428 187.466C10.1045 187.466 9.90625 187.559 9.74805 187.744C9.58984 187.928 9.47168 188.205 9.39355 188.576L10.293 188.148C10.6465 187.977 10.8984 187.827 11.0488 187.7C10.8809 187.544 10.6455 187.466 10.3428 187.466ZM14.6289 190.193C14.5918 190.193 14.5244 190.15 14.4268 190.064C14.3389 189.984 14.2734 189.913 14.2305 189.851C14.043 189.952 13.8779 190.028 13.7354 190.079C13.5928 190.132 13.4736 190.158 13.3779 190.158C12.9209 190.158 12.5879 190.029 12.3789 189.771C12.1816 189.529 12.083 189.158 12.083 188.658C12.083 188.186 12.2451 187.781 12.5693 187.445C12.8955 187.109 13.2842 186.941 13.7354 186.941C13.9053 186.941 14.0957 186.985 14.3066 187.073C14.5723 187.183 14.7051 187.314 14.7051 187.469C14.7051 187.521 14.6855 187.568 14.6465 187.609C14.627 187.684 14.6113 187.806 14.5996 187.976C14.5898 188.146 14.584 188.363 14.582 188.629C14.5801 188.871 14.5967 189.062 14.6318 189.203C14.6514 189.289 14.7129 189.461 14.8164 189.719C14.8301 189.754 14.8525 189.806 14.8838 189.874L14.9014 189.924C14.9014 190.002 14.874 190.066 14.8193 190.117C14.7646 190.168 14.7012 190.193 14.6289 190.193ZM14.0195 188.157C14.0195 188.073 14.0244 187.982 14.0342 187.885C14.0459 187.785 14.0625 187.68 14.084 187.568C14.0117 187.531 13.9492 187.504 13.8965 187.486C13.8457 187.469 13.8047 187.46 13.7734 187.46C13.4707 187.46 13.209 187.584 12.9883 187.832C12.7695 188.078 12.6602 188.362 12.6602 188.685C12.6602 189.005 12.7168 189.245 12.8301 189.405C12.9434 189.565 13.1133 189.646 13.3398 189.646C13.5273 189.646 13.6865 189.611 13.8174 189.543C13.8877 189.506 13.9863 189.432 14.1133 189.32C14.0508 188.803 14.0195 188.415 14.0195 188.157ZM17.6904 187.835C17.6768 188.079 17.5791 188.201 17.3975 188.201C17.2295 188.201 17.1455 188.104 17.1455 187.911C17.1455 187.874 17.1426 187.806 17.1367 187.706L17.1279 187.46C16.8193 187.497 16.5723 187.584 16.3867 187.721C16.2129 187.848 16.0684 188.039 15.9531 188.295L15.959 189.9C15.959 190.098 15.8623 190.196 15.6689 190.196C15.4971 190.196 15.4111 190.098 15.4111 189.9V187.844C15.4111 187.779 15.4131 187.683 15.417 187.554C15.4229 187.425 15.4258 187.328 15.4258 187.264C15.4258 187.066 15.5117 186.968 15.6836 186.968C15.875 186.968 15.9717 187.13 15.9736 187.454C16.3486 187.093 16.7646 186.912 17.2217 186.912C17.3799 186.912 17.498 186.972 17.5762 187.091C17.6543 187.21 17.6934 187.39 17.6934 187.63C17.6934 187.731 17.6924 187.8 17.6904 187.835ZM20.541 190.208C20.373 190.208 20.2783 190.116 20.2568 189.933L20.1748 189.291C20.1475 189.062 20.1338 188.849 20.1338 188.649C20.1338 188.595 20.1367 188.502 20.1426 188.371C20.1504 188.24 20.1543 188.147 20.1543 188.093C20.1543 187.671 20.0762 187.46 19.9199 187.46C19.7012 187.46 19.4922 187.59 19.293 187.85C19.1133 188.086 18.9727 188.385 18.8711 188.746C18.8672 188.822 18.8584 188.918 18.8447 189.033C18.833 189.131 18.8271 189.226 18.8271 189.317C18.8271 189.376 18.833 189.464 18.8447 189.581C18.8564 189.698 18.8623 189.786 18.8623 189.845C18.8623 189.933 18.835 190.004 18.7803 190.059C18.7275 190.113 18.6592 190.141 18.5752 190.141C18.4893 190.141 18.4199 190.113 18.3672 190.059C18.3145 190.004 18.2881 189.933 18.2881 189.845C18.2881 189.786 18.2812 189.698 18.2676 189.581C18.2559 189.464 18.25 189.376 18.25 189.317C18.25 189.116 18.2637 188.838 18.291 188.482C18.3203 188.125 18.335 187.846 18.335 187.645C18.335 187.582 18.3311 187.489 18.3232 187.366C18.3174 187.243 18.3145 187.15 18.3145 187.088C18.3145 187.004 18.3418 186.936 18.3965 186.883C18.4531 186.828 18.5225 186.801 18.6045 186.801C18.7842 186.801 18.8828 186.928 18.9004 187.182L18.9092 187.524C19.2373 187.087 19.5742 186.868 19.9199 186.868C20.2324 186.868 20.4502 187.006 20.5732 187.281C20.6572 187.465 20.7031 187.736 20.7109 188.096V188.392L20.708 188.664C20.708 188.826 20.7285 189.036 20.7695 189.294C20.8125 189.55 20.834 189.758 20.834 189.918C20.834 190.004 20.8057 190.073 20.749 190.126C20.6943 190.181 20.625 190.208 20.541 190.208ZM21.9941 186.291C21.9004 186.291 21.8193 186.258 21.751 186.191C21.6826 186.125 21.6484 186.045 21.6484 185.951C21.6484 185.857 21.6826 185.777 21.751 185.711C21.8193 185.645 21.9004 185.611 21.9941 185.611C22.0879 185.611 22.168 185.645 22.2344 185.711C22.3027 185.777 22.3369 185.857 22.3369 185.951C22.3369 186.045 22.3027 186.125 22.2344 186.191C22.168 186.258 22.0879 186.291 21.9941 186.291ZM22.126 188.67C22.126 188.787 22.1289 188.963 22.1348 189.197C22.1426 189.43 22.1465 189.604 22.1465 189.722C22.1465 189.808 22.1201 189.878 22.0674 189.933C22.0146 189.987 21.9453 190.015 21.8594 190.015C21.7754 190.015 21.7061 189.987 21.6514 189.933C21.5986 189.878 21.5723 189.808 21.5723 189.722C21.5723 189.604 21.5684 189.43 21.5605 189.197C21.5547 188.963 21.5518 188.787 21.5518 188.67C21.5518 188.486 21.5615 188.258 21.5811 187.984C21.6006 187.709 21.6104 187.479 21.6104 187.296C21.6104 187.208 21.6367 187.137 21.6895 187.082C21.7441 187.027 21.8135 187 21.8975 187C21.9814 187 22.0498 187.027 22.1025 187.082C22.1572 187.137 22.1846 187.208 22.1846 187.296C22.1846 187.479 22.1748 187.709 22.1553 187.984C22.1357 188.258 22.126 188.486 22.126 188.67ZM25.3633 190.208C25.1953 190.208 25.1006 190.116 25.0791 189.933L24.9971 189.291C24.9697 189.062 24.9561 188.849 24.9561 188.649C24.9561 188.595 24.959 188.502 24.9648 188.371C24.9727 188.24 24.9766 188.147 24.9766 188.093C24.9766 187.671 24.8984 187.46 24.7422 187.46C24.5234 187.46 24.3145 187.59 24.1152 187.85C23.9355 188.086 23.7949 188.385 23.6934 188.746C23.6895 188.822 23.6807 188.918 23.667 189.033C23.6553 189.131 23.6494 189.226 23.6494 189.317C23.6494 189.376 23.6553 189.464 23.667 189.581C23.6787 189.698 23.6846 189.786 23.6846 189.845C23.6846 189.933 23.6572 190.004 23.6025 190.059C23.5498 190.113 23.4814 190.141 23.3975 190.141C23.3115 190.141 23.2422 190.113 23.1895 190.059C23.1367 190.004 23.1104 189.933 23.1104 189.845C23.1104 189.786 23.1035 189.698 23.0898 189.581C23.0781 189.464 23.0723 189.376 23.0723 189.317C23.0723 189.116 23.0859 188.838 23.1133 188.482C23.1426 188.125 23.1572 187.846 23.1572 187.645C23.1572 187.582 23.1533 187.489 23.1455 187.366C23.1396 187.243 23.1367 187.15 23.1367 187.088C23.1367 187.004 23.1641 186.936 23.2188 186.883C23.2754 186.828 23.3447 186.801 23.4268 186.801C23.6064 186.801 23.7051 186.928 23.7227 187.182L23.7314 187.524C24.0596 187.087 24.3965 186.868 24.7422 186.868C25.0547 186.868 25.2725 187.006 25.3955 187.281C25.4795 187.465 25.5254 187.736 25.5332 188.096V188.392L25.5303 188.664C25.5303 188.826 25.5508 189.036 25.5918 189.294C25.6348 189.55 25.6562 189.758 25.6562 189.918C25.6562 190.004 25.6279 190.073 25.5713 190.126C25.5166 190.181 25.4473 190.208 25.3633 190.208ZM28.668 188.737L28.6006 189.722C28.5889 190.112 28.5488 190.432 28.4805 190.68C28.3926 190.996 28.252 191.229 28.0586 191.38C27.8242 191.562 27.4854 191.652 27.042 191.652C26.7822 191.652 26.5645 191.635 26.3887 191.6C26.1426 191.551 26.0195 191.449 26.0195 191.295C26.0195 191.121 26.1045 191.034 26.2744 191.034C26.3447 191.034 26.4619 191.051 26.626 191.084C26.79 191.119 26.9717 191.135 27.1709 191.131C27.5459 191.125 27.8047 190.943 27.9473 190.586C28.041 190.348 28.0908 189.981 28.0967 189.487C27.9912 189.683 27.8652 189.829 27.7188 189.927C27.5742 190.024 27.4082 190.073 27.2207 190.073C26.8672 190.073 26.5791 189.953 26.3564 189.713C26.1357 189.471 26.0254 189.157 26.0254 188.772C26.0254 188.245 26.1768 187.82 26.4795 187.498C26.792 187.166 27.2178 187 27.7568 187C27.9385 187 28.0908 187.023 28.2139 187.07C28.3369 187.117 28.4307 187.188 28.4951 187.281C28.7041 187.287 28.8086 187.403 28.8086 187.63C28.8086 187.769 28.7881 187.954 28.7471 188.187C28.7021 188.456 28.6758 188.64 28.668 188.737ZM27.7275 187.469C27.3564 187.469 27.0693 187.597 26.8662 187.853C26.6846 188.083 26.5938 188.376 26.5938 188.731C26.5938 189.015 26.6475 189.228 26.7549 189.37C26.8623 189.513 27.0234 189.584 27.2383 189.584C27.4355 189.584 27.627 189.473 27.8125 189.25C27.9805 189.045 28.0762 188.842 28.0996 188.641C28.1406 188.43 28.1846 188.099 28.2314 187.647C28.1533 187.587 28.0723 187.542 27.9883 187.513C27.9043 187.483 27.8174 187.469 27.7275 187.469ZM34.8203 186.3C34.6758 186.3 34.4531 186.288 34.1523 186.265C33.8594 186.243 33.6367 186.233 33.4844 186.235H33.2764C33.2822 186.505 33.3086 186.942 33.3555 187.548C33.3984 188.112 33.4199 188.551 33.4199 188.863C33.4199 188.932 33.4268 189.035 33.4404 189.174C33.4541 189.312 33.4609 189.417 33.4609 189.487C33.4609 189.62 33.4395 189.734 33.3965 189.83C33.3418 189.959 33.2568 190.023 33.1416 190.023C33.0635 190.023 32.9932 189.996 32.9307 189.941C32.8682 189.887 32.8369 189.816 32.8369 189.73C32.8369 189.701 32.8418 189.657 32.8516 189.599C32.8613 189.54 32.8662 189.496 32.8662 189.467C32.8662 189.371 32.8594 189.228 32.8457 189.036C32.834 188.845 32.8281 188.7 32.8281 188.603C32.8281 188.323 32.8057 187.931 32.7607 187.425C32.7139 186.878 32.6875 186.485 32.6816 186.247L32.415 186.25C31.9873 186.25 31.6514 186.219 31.4072 186.156C31.249 186.115 31.1699 186.019 31.1699 185.866C31.1699 185.786 31.1953 185.716 31.2461 185.655C31.3047 185.587 31.3799 185.556 31.4717 185.562C31.54 185.565 31.6963 185.583 31.9404 185.614C32.1357 185.638 32.2939 185.649 32.415 185.649C32.5322 185.649 32.71 185.647 32.9482 185.644C33.1865 185.638 33.3643 185.635 33.4814 185.635C33.6318 185.635 33.8545 185.646 34.1494 185.667C34.4463 185.688 34.6699 185.699 34.8203 185.699C34.9043 185.699 34.9746 185.729 35.0312 185.787C35.0879 185.844 35.1162 185.915 35.1162 186.001C35.1162 186.085 35.0879 186.156 35.0312 186.215C34.9746 186.271 34.9043 186.3 34.8203 186.3ZM37.8701 187.387L36.8564 189.578C36.6064 190.111 36.415 190.558 36.2822 190.917L36.0889 191.485C36.0381 191.626 35.9502 191.696 35.8252 191.696C35.7432 191.696 35.6719 191.669 35.6113 191.614C35.5527 191.562 35.5234 191.495 35.5234 191.415C35.5234 191.22 35.7344 190.654 36.1562 189.719L35.1074 187.7L34.9756 187.486C34.9229 187.396 34.8965 187.321 34.8965 187.261C34.8965 187.181 34.9268 187.11 34.9873 187.05C35.0498 186.989 35.1191 186.959 35.1953 186.959C35.2852 186.959 35.3545 186.993 35.4033 187.062C35.7354 187.522 36.0918 188.179 36.4727 189.03L36.9062 188.02C37.0625 187.67 37.2129 187.369 37.3574 187.117C37.4199 187.008 37.502 186.953 37.6035 186.953C37.6836 186.953 37.7539 186.981 37.8145 187.038C37.877 187.095 37.9082 187.162 37.9082 187.24C37.9082 187.283 37.8955 187.332 37.8701 187.387ZM39.6836 190.103C39.4883 190.103 39.2734 190.071 39.0391 190.009L39.0332 191.409C39.0332 191.495 39.0059 191.565 38.9512 191.62C38.8984 191.675 38.8301 191.702 38.7461 191.702C38.6621 191.702 38.5928 191.675 38.5381 191.62C38.4854 191.565 38.459 191.495 38.459 191.409L38.4678 190.237V189.068C38.4619 188.641 38.4473 188.251 38.4238 187.899L38.3799 187.305C38.3799 187.166 38.4053 187.049 38.4561 186.953C38.5146 186.838 38.5996 186.78 38.7109 186.78C38.7871 186.78 38.8506 186.808 38.9014 186.862C38.9541 186.915 38.9805 186.98 38.9805 187.059C38.9805 187.076 38.9775 187.108 38.9717 187.155C38.9619 187.216 38.9551 187.271 38.9512 187.322C39.1191 187.207 39.2812 187.121 39.4375 187.064C39.5938 187.006 39.7432 186.977 39.8857 186.977C40.2861 186.977 40.5791 187.154 40.7646 187.51C40.9111 187.791 40.9844 188.163 40.9844 188.626C40.9844 189.048 40.8711 189.396 40.6445 189.669C40.4043 189.958 40.084 190.103 39.6836 190.103ZM39.8857 187.562C39.7061 187.562 39.5439 187.603 39.3994 187.683C39.2959 187.739 39.165 187.843 39.0068 187.993C39.0322 188.437 39.0449 188.902 39.0449 189.391C39.2578 189.473 39.4707 189.514 39.6836 189.514C39.9277 189.514 40.1143 189.423 40.2432 189.241C40.3545 189.083 40.4102 188.878 40.4102 188.626C40.4102 188.271 40.3662 188.005 40.2783 187.829C40.1924 187.651 40.0615 187.562 39.8857 187.562ZM43.0176 190.135C42.5762 190.135 42.2188 190.024 41.9453 189.804C41.6465 189.56 41.4971 189.218 41.4971 188.778C41.4971 188.271 41.6201 187.845 41.8662 187.501C42.1338 187.126 42.4912 186.938 42.9385 186.938C43.2627 186.938 43.5273 186.993 43.7324 187.103C43.9844 187.237 44.1104 187.444 44.1104 187.724C44.1104 187.919 44 188.097 43.7793 188.257C43.6816 188.327 43.4746 188.437 43.1582 188.585L42.0391 189.115C42.1484 189.277 42.2842 189.399 42.4463 189.481C42.6104 189.563 42.8008 189.604 43.0176 189.604C43.1523 189.604 43.3105 189.579 43.4922 189.528C43.7227 189.464 43.8711 189.38 43.9375 189.276C44.0039 189.171 44.0752 189.118 44.1514 189.118C44.2197 189.118 44.2803 189.145 44.333 189.197C44.3877 189.248 44.415 189.308 44.415 189.376C44.415 189.593 44.2402 189.779 43.8906 189.936C43.5918 190.068 43.3008 190.135 43.0176 190.135ZM42.9385 187.466C42.7002 187.466 42.502 187.559 42.3438 187.744C42.1855 187.928 42.0674 188.205 41.9893 188.576L42.8887 188.148C43.2422 187.977 43.4941 187.827 43.6445 187.7C43.4766 187.544 43.2412 187.466 42.9385 187.466ZM46.9141 187.744C46.8066 187.744 46.7314 187.708 46.6885 187.636C46.6592 187.585 46.6338 187.479 46.6123 187.319C46.4658 187.356 46.2402 187.425 45.9355 187.524C45.6211 187.649 45.4629 187.804 45.4609 187.987C45.5195 188.009 45.5771 188.024 45.6338 188.034C46.083 188.114 46.417 188.225 46.6357 188.365C46.9541 188.57 47.1133 188.867 47.1133 189.256C47.1133 189.574 46.9756 189.814 46.7002 189.977C46.4717 190.109 46.1826 190.176 45.833 190.176C45.5771 190.176 45.333 190.133 45.1006 190.047C44.7998 189.938 44.6494 189.785 44.6494 189.59C44.6494 189.512 44.6797 189.443 44.7402 189.385C44.8027 189.326 44.873 189.297 44.9512 189.297C45.0117 189.297 45.0898 189.344 45.1855 189.438C45.2324 189.482 45.3379 189.52 45.502 189.549C45.6328 189.572 45.7432 189.584 45.833 189.584C45.9971 189.584 46.1416 189.564 46.2666 189.525C46.4482 189.469 46.5391 189.379 46.5391 189.256C46.5391 188.99 46.3535 188.811 45.9824 188.717L45.6777 188.649C45.418 188.593 45.2334 188.526 45.124 188.45C44.9658 188.341 44.8867 188.176 44.8867 187.955C44.8867 187.547 45.0791 187.256 45.4639 187.082C45.5811 187.029 45.7686 186.967 46.0264 186.895C46.2842 186.82 46.4688 186.758 46.5801 186.707C46.6602 186.672 46.7471 186.654 46.8408 186.654C46.9248 186.654 46.9932 186.682 47.0459 186.736C47.1006 186.791 47.1279 186.862 47.1279 186.95C47.1279 187.007 47.1396 187.09 47.1631 187.199C47.1885 187.309 47.2012 187.392 47.2012 187.448C47.2012 187.536 47.1738 187.607 47.1191 187.662C47.0664 187.717 46.998 187.744 46.9141 187.744ZM49.1846 190.185C48.7842 190.185 48.4502 190.063 48.1826 189.821C47.9014 189.567 47.7607 189.232 47.7607 188.816C47.7607 188.42 47.8926 188.011 48.1562 187.589C48.4492 187.12 48.7793 186.886 49.1465 186.886C49.3379 186.886 49.5518 186.931 49.7881 187.021C50.0869 187.136 50.2363 187.276 50.2363 187.442C50.2363 187.517 50.2119 187.583 50.1631 187.642C50.1143 187.698 50.0537 187.727 49.9814 187.727C49.9248 187.727 49.875 187.71 49.832 187.677C49.791 187.642 49.751 187.607 49.7119 187.574C49.5967 187.482 49.4082 187.437 49.1465 187.437C48.9473 187.437 48.75 187.614 48.5547 187.97C48.377 188.296 48.2881 188.578 48.2881 188.816C48.2881 189.074 48.376 189.277 48.5518 189.426C48.7158 189.564 48.9268 189.634 49.1846 189.634C49.3018 189.634 49.4268 189.603 49.5596 189.54L49.8994 189.358C49.958 189.327 50 189.312 50.0254 189.312C50.0977 189.312 50.1602 189.341 50.2129 189.399C50.2656 189.456 50.292 189.521 50.292 189.596C50.292 189.738 50.1416 189.876 49.8408 190.009C49.5771 190.126 49.3584 190.185 49.1846 190.185ZM53.2217 187.835C53.208 188.079 53.1104 188.201 52.9287 188.201C52.7607 188.201 52.6768 188.104 52.6768 187.911C52.6768 187.874 52.6738 187.806 52.668 187.706L52.6592 187.46C52.3506 187.497 52.1035 187.584 51.918 187.721C51.7441 187.848 51.5996 188.039 51.4844 188.295L51.4902 189.9C51.4902 190.098 51.3936 190.196 51.2002 190.196C51.0283 190.196 50.9424 190.098 50.9424 189.9V187.844C50.9424 187.779 50.9443 187.683 50.9482 187.554C50.9541 187.425 50.957 187.328 50.957 187.264C50.957 187.066 51.043 186.968 51.2148 186.968C51.4062 186.968 51.5029 187.13 51.5049 187.454C51.8799 187.093 52.2959 186.912 52.7529 186.912C52.9111 186.912 53.0293 186.972 53.1074 187.091C53.1855 187.21 53.2246 187.39 53.2246 187.63C53.2246 187.731 53.2236 187.8 53.2217 187.835ZM54.3848 186.291C54.291 186.291 54.21 186.258 54.1416 186.191C54.0732 186.125 54.0391 186.045 54.0391 185.951C54.0391 185.857 54.0732 185.777 54.1416 185.711C54.21 185.645 54.291 185.611 54.3848 185.611C54.4785 185.611 54.5586 185.645 54.625 185.711C54.6934 185.777 54.7275 185.857 54.7275 185.951C54.7275 186.045 54.6934 186.125 54.625 186.191C54.5586 186.258 54.4785 186.291 54.3848 186.291ZM54.5166 188.67C54.5166 188.787 54.5195 188.963 54.5254 189.197C54.5332 189.43 54.5371 189.604 54.5371 189.722C54.5371 189.808 54.5107 189.878 54.458 189.933C54.4053 189.987 54.3359 190.015 54.25 190.015C54.166 190.015 54.0967 189.987 54.042 189.933C53.9893 189.878 53.9629 189.808 53.9629 189.722C53.9629 189.604 53.959 189.43 53.9512 189.197C53.9453 188.963 53.9424 188.787 53.9424 188.67C53.9424 188.486 53.9521 188.258 53.9717 187.984C53.9912 187.709 54.001 187.479 54.001 187.296C54.001 187.208 54.0273 187.137 54.0801 187.082C54.1348 187.027 54.2041 187 54.2881 187C54.3721 187 54.4404 187.027 54.4932 187.082C54.5479 187.137 54.5752 187.208 54.5752 187.296C54.5752 187.479 54.5654 187.709 54.5459 187.984C54.5264 188.258 54.5166 188.486 54.5166 188.67ZM56.752 190.103C56.5566 190.103 56.3418 190.071 56.1074 190.009L56.1016 191.409C56.1016 191.495 56.0742 191.565 56.0195 191.62C55.9668 191.675 55.8984 191.702 55.8145 191.702C55.7305 191.702 55.6611 191.675 55.6064 191.62C55.5537 191.565 55.5273 191.495 55.5273 191.409L55.5361 190.237V189.068C55.5303 188.641 55.5156 188.251 55.4922 187.899L55.4482 187.305C55.4482 187.166 55.4736 187.049 55.5244 186.953C55.583 186.838 55.668 186.78 55.7793 186.78C55.8555 186.78 55.9189 186.808 55.9697 186.862C56.0225 186.915 56.0488 186.98 56.0488 187.059C56.0488 187.076 56.0459 187.108 56.04 187.155C56.0303 187.216 56.0234 187.271 56.0195 187.322C56.1875 187.207 56.3496 187.121 56.5059 187.064C56.6621 187.006 56.8115 186.977 56.9541 186.977C57.3545 186.977 57.6475 187.154 57.833 187.51C57.9795 187.791 58.0527 188.163 58.0527 188.626C58.0527 189.048 57.9395 189.396 57.7129 189.669C57.4727 189.958 57.1523 190.103 56.752 190.103ZM56.9541 187.562C56.7744 187.562 56.6123 187.603 56.4678 187.683C56.3643 187.739 56.2334 187.843 56.0752 187.993C56.1006 188.437 56.1133 188.902 56.1133 189.391C56.3262 189.473 56.5391 189.514 56.752 189.514C56.9961 189.514 57.1826 189.423 57.3115 189.241C57.4229 189.083 57.4785 188.878 57.4785 188.626C57.4785 188.271 57.4346 188.005 57.3467 187.829C57.2607 187.651 57.1299 187.562 56.9541 187.562ZM60.6777 187.504C60.6367 187.504 60.5879 187.502 60.5312 187.498C60.4766 187.494 60.4287 187.492 60.3877 187.492C60.3428 187.492 60.21 187.507 59.9893 187.536L60.0449 189.268L60.0479 189.396L60.0508 189.546C60.0586 189.974 59.9561 190.188 59.7432 190.188C59.665 190.188 59.5967 190.162 59.5381 190.111C59.4814 190.061 59.4531 189.997 59.4531 189.921C59.4531 189.847 59.4561 189.735 59.4619 189.587C59.4678 189.438 59.4707 189.327 59.4707 189.253L59.4121 187.542C59.2695 187.536 59.0527 187.52 58.7617 187.492C58.5879 187.469 58.501 187.372 58.501 187.202C58.501 187.116 58.5273 187.045 58.5801 186.988C58.6328 186.932 58.7002 186.903 58.7822 186.903L59.3975 186.953C59.3975 186.854 59.3926 186.721 59.3828 186.555C59.375 186.387 59.3711 186.266 59.3711 186.191C59.3711 186.109 59.3994 186.042 59.4561 185.989C59.5127 185.935 59.582 185.907 59.6641 185.907C59.8398 185.907 59.9424 186.051 59.9717 186.338C59.9775 186.41 59.9805 186.497 59.9805 186.599L59.9746 186.769L59.9717 186.95C60.2139 186.919 60.3525 186.903 60.3877 186.903C60.5908 186.903 60.7236 186.913 60.7861 186.933C60.9053 186.972 60.9648 187.063 60.9648 187.208C60.9648 187.294 60.9375 187.365 60.8828 187.422C60.8301 187.477 60.7617 187.504 60.6777 187.504ZM65.6289 190.193C65.5918 190.193 65.5244 190.15 65.4268 190.064C65.3389 189.984 65.2734 189.913 65.2305 189.851C65.043 189.952 64.8779 190.028 64.7354 190.079C64.5928 190.132 64.4736 190.158 64.3779 190.158C63.9209 190.158 63.5879 190.029 63.3789 189.771C63.1816 189.529 63.083 189.158 63.083 188.658C63.083 188.186 63.2451 187.781 63.5693 187.445C63.8955 187.109 64.2842 186.941 64.7354 186.941C64.9053 186.941 65.0957 186.985 65.3066 187.073C65.5723 187.183 65.7051 187.314 65.7051 187.469C65.7051 187.521 65.6855 187.568 65.6465 187.609C65.627 187.684 65.6113 187.806 65.5996 187.976C65.5898 188.146 65.584 188.363 65.582 188.629C65.5801 188.871 65.5967 189.062 65.6318 189.203C65.6514 189.289 65.7129 189.461 65.8164 189.719C65.8301 189.754 65.8525 189.806 65.8838 189.874L65.9014 189.924C65.9014 190.002 65.874 190.066 65.8193 190.117C65.7646 190.168 65.7012 190.193 65.6289 190.193ZM65.0195 188.157C65.0195 188.073 65.0244 187.982 65.0342 187.885C65.0459 187.785 65.0625 187.68 65.084 187.568C65.0117 187.531 64.9492 187.504 64.8965 187.486C64.8457 187.469 64.8047 187.46 64.7734 187.46C64.4707 187.46 64.209 187.584 63.9883 187.832C63.7695 188.078 63.6602 188.362 63.6602 188.685C63.6602 189.005 63.7168 189.245 63.8301 189.405C63.9434 189.565 64.1133 189.646 64.3398 189.646C64.5273 189.646 64.6865 189.611 64.8174 189.543C64.8877 189.506 64.9863 189.432 65.1133 189.32C65.0508 188.803 65.0195 188.415 65.0195 188.157ZM68.6582 190.208C68.4902 190.208 68.3955 190.116 68.374 189.933L68.292 189.291C68.2646 189.062 68.251 188.849 68.251 188.649C68.251 188.595 68.2539 188.502 68.2598 188.371C68.2676 188.24 68.2715 188.147 68.2715 188.093C68.2715 187.671 68.1934 187.46 68.0371 187.46C67.8184 187.46 67.6094 187.59 67.4102 187.85C67.2305 188.086 67.0898 188.385 66.9883 188.746C66.9844 188.822 66.9756 188.918 66.9619 189.033C66.9502 189.131 66.9443 189.226 66.9443 189.317C66.9443 189.376 66.9502 189.464 66.9619 189.581C66.9736 189.698 66.9795 189.786 66.9795 189.845C66.9795 189.933 66.9521 190.004 66.8975 190.059C66.8447 190.113 66.7764 190.141 66.6924 190.141C66.6064 190.141 66.5371 190.113 66.4844 190.059C66.4316 190.004 66.4053 189.933 66.4053 189.845C66.4053 189.786 66.3984 189.698 66.3848 189.581C66.373 189.464 66.3672 189.376 66.3672 189.317C66.3672 189.116 66.3809 188.838 66.4082 188.482C66.4375 188.125 66.4521 187.846 66.4521 187.645C66.4521 187.582 66.4482 187.489 66.4404 187.366C66.4346 187.243 66.4316 187.15 66.4316 187.088C66.4316 187.004 66.459 186.936 66.5137 186.883C66.5703 186.828 66.6396 186.801 66.7217 186.801C66.9014 186.801 67 186.928 67.0176 187.182L67.0264 187.524C67.3545 187.087 67.6914 186.868 68.0371 186.868C68.3496 186.868 68.5674 187.006 68.6904 187.281C68.7744 187.465 68.8203 187.736 68.8281 188.096V188.392L68.8252 188.664C68.8252 188.826 68.8457 189.036 68.8867 189.294C68.9297 189.55 68.9512 189.758 68.9512 189.918C68.9512 190.004 68.9229 190.073 68.8662 190.126C68.8115 190.181 68.7422 190.208 68.6582 190.208ZM72.25 187.413C72.2266 187.7 72.2148 187.987 72.2148 188.274C72.2148 188.925 72.2451 189.416 72.3057 189.748C72.3096 189.775 72.3115 189.798 72.3115 189.815C72.3115 189.894 72.2842 189.958 72.2295 190.009C72.1748 190.06 72.1113 190.085 72.0391 190.085C71.918 190.085 71.8291 189.997 71.7725 189.821C71.6318 189.925 71.4854 190.003 71.333 190.056C71.1826 190.108 71.0254 190.135 70.8613 190.135C70.457 190.135 70.1221 190 69.8564 189.73C69.583 189.455 69.4463 189.102 69.4463 188.67C69.4463 188.148 69.584 187.73 69.8594 187.416C70.1367 187.102 70.4961 186.944 70.9375 186.944C71.1641 186.944 71.3389 186.979 71.4619 187.05L71.7373 187.252C71.7646 186.43 71.7969 185.876 71.834 185.591C71.8594 185.417 71.9482 185.33 72.1006 185.33C72.2783 185.33 72.3672 185.425 72.3672 185.614C72.3672 185.886 72.3281 186.485 72.25 187.413ZM70.9492 187.489C70.6211 187.489 70.375 187.587 70.2109 187.782C70.0469 187.976 69.9648 188.268 69.9648 188.658C69.9648 188.91 70.0537 189.127 70.2314 189.309C70.4111 189.49 70.6211 189.581 70.8613 189.581C71.0254 189.581 71.1641 189.551 71.2773 189.49C71.3438 189.455 71.4521 189.374 71.6025 189.247C71.6318 189.222 71.6602 189.191 71.6875 189.156L71.6787 188.649L71.6816 188.31L71.6875 187.964C71.6133 187.806 71.5146 187.688 71.3916 187.609C71.2686 187.529 71.1211 187.489 70.9492 187.489ZM77.7637 190.032C77.6895 190.032 77.6201 190.001 77.5557 189.938C76.9092 189.3 76.1904 188.87 75.3994 188.649L75.4229 189.224L75.4375 189.801C75.4375 189.887 75.4092 189.958 75.3525 190.015C75.2979 190.073 75.2285 190.103 75.1445 190.103C75.0605 190.103 74.9902 190.073 74.9336 190.015C74.8789 189.958 74.8516 189.887 74.8516 189.801C74.8516 189.646 74.8438 189.417 74.8281 189.112C74.8145 188.806 74.8076 188.575 74.8076 188.421C74.8076 188.241 74.8271 187.974 74.8662 187.618C74.9053 187.263 74.9248 186.996 74.9248 186.818C74.9248 186.719 74.915 186.571 74.8955 186.376C74.8779 186.181 74.8691 186.033 74.8691 185.934C74.8691 185.822 74.9004 185.725 74.9629 185.641C75.0371 185.537 75.1396 185.49 75.2705 185.5L75.9766 185.556C76.2441 185.589 76.4697 185.654 76.6533 185.752C77.4443 186.172 77.8398 186.685 77.8398 187.29C77.8398 187.587 77.7051 187.85 77.4355 188.078C77.2188 188.262 76.9482 188.401 76.624 188.497C77.2314 188.823 77.6855 189.167 77.9863 189.528C78.0371 189.591 78.0625 189.657 78.0625 189.728C78.0625 189.81 78.0322 189.881 77.9717 189.941C77.9131 190.002 77.8438 190.032 77.7637 190.032ZM75.8975 186.159L75.4639 186.124L75.4932 186.479C75.5068 186.623 75.5137 186.741 75.5137 186.833C75.5137 186.989 75.501 187.184 75.4756 187.416L75.4141 187.999C75.4414 187.999 75.4834 188 75.54 188.002C75.5986 188.004 75.6426 188.005 75.6719 188.005C76.1699 188.005 76.543 187.938 76.791 187.806C76.9004 187.745 77.002 187.666 77.0957 187.568C77.1992 187.459 77.251 187.366 77.251 187.29C77.251 187.019 77.0967 186.766 76.7881 186.531C76.5049 186.316 76.208 186.192 75.8975 186.159ZM80.0137 190.135C79.5723 190.135 79.2148 190.024 78.9414 189.804C78.6426 189.56 78.4932 189.218 78.4932 188.778C78.4932 188.271 78.6162 187.845 78.8623 187.501C79.1299 187.126 79.4873 186.938 79.9346 186.938C80.2588 186.938 80.5234 186.993 80.7285 187.103C80.9805 187.237 81.1064 187.444 81.1064 187.724C81.1064 187.919 80.9961 188.097 80.7754 188.257C80.6777 188.327 80.4707 188.437 80.1543 188.585L79.0352 189.115C79.1445 189.277 79.2803 189.399 79.4424 189.481C79.6064 189.563 79.7969 189.604 80.0137 189.604C80.1484 189.604 80.3066 189.579 80.4883 189.528C80.7188 189.464 80.8672 189.38 80.9336 189.276C81 189.171 81.0713 189.118 81.1475 189.118C81.2158 189.118 81.2764 189.145 81.3291 189.197C81.3838 189.248 81.4111 189.308 81.4111 189.376C81.4111 189.593 81.2363 189.779 80.8867 189.936C80.5879 190.068 80.2969 190.135 80.0137 190.135ZM79.9346 187.466C79.6963 187.466 79.498 187.559 79.3398 187.744C79.1816 187.928 79.0635 188.205 78.9854 188.576L79.8848 188.148C80.2383 187.977 80.4902 187.827 80.6406 187.7C80.4727 187.544 80.2373 187.466 79.9346 187.466ZM84.2207 190.193C84.1836 190.193 84.1162 190.15 84.0186 190.064C83.9307 189.984 83.8652 189.913 83.8223 189.851C83.6348 189.952 83.4697 190.028 83.3271 190.079C83.1846 190.132 83.0654 190.158 82.9697 190.158C82.5127 190.158 82.1797 190.029 81.9707 189.771C81.7734 189.529 81.6748 189.158 81.6748 188.658C81.6748 188.186 81.8369 187.781 82.1611 187.445C82.4873 187.109 82.876 186.941 83.3271 186.941C83.4971 186.941 83.6875 186.985 83.8984 187.073C84.1641 187.183 84.2969 187.314 84.2969 187.469C84.2969 187.521 84.2773 187.568 84.2383 187.609C84.2188 187.684 84.2031 187.806 84.1914 187.976C84.1816 188.146 84.1758 188.363 84.1738 188.629C84.1719 188.871 84.1885 189.062 84.2236 189.203C84.2432 189.289 84.3047 189.461 84.4082 189.719C84.4219 189.754 84.4443 189.806 84.4756 189.874L84.4932 189.924C84.4932 190.002 84.4658 190.066 84.4111 190.117C84.3564 190.168 84.293 190.193 84.2207 190.193ZM83.6113 188.157C83.6113 188.073 83.6162 187.982 83.626 187.885C83.6377 187.785 83.6543 187.68 83.6758 187.568C83.6035 187.531 83.541 187.504 83.4883 187.486C83.4375 187.469 83.3965 187.46 83.3652 187.46C83.0625 187.46 82.8008 187.584 82.5801 187.832C82.3613 188.078 82.252 188.362 82.252 188.685C82.252 189.005 82.3086 189.245 82.4219 189.405C82.5352 189.565 82.7051 189.646 82.9316 189.646C83.1191 189.646 83.2783 189.611 83.4092 189.543C83.4795 189.506 83.5781 189.432 83.7051 189.32C83.6426 188.803 83.6113 188.415 83.6113 188.157ZM86.3271 190.185C85.9268 190.185 85.5928 190.063 85.3252 189.821C85.0439 189.567 84.9033 189.232 84.9033 188.816C84.9033 188.42 85.0352 188.011 85.2988 187.589C85.5918 187.12 85.9219 186.886 86.2891 186.886C86.4805 186.886 86.6943 186.931 86.9307 187.021C87.2295 187.136 87.3789 187.276 87.3789 187.442C87.3789 187.517 87.3545 187.583 87.3057 187.642C87.2568 187.698 87.1963 187.727 87.124 187.727C87.0674 187.727 87.0176 187.71 86.9746 187.677C86.9336 187.642 86.8936 187.607 86.8545 187.574C86.7393 187.482 86.5508 187.437 86.2891 187.437C86.0898 187.437 85.8926 187.614 85.6973 187.97C85.5195 188.296 85.4307 188.578 85.4307 188.816C85.4307 189.074 85.5186 189.277 85.6943 189.426C85.8584 189.564 86.0693 189.634 86.3271 189.634C86.4443 189.634 86.5693 189.603 86.7021 189.54L87.042 189.358C87.1006 189.327 87.1426 189.312 87.168 189.312C87.2402 189.312 87.3027 189.341 87.3555 189.399C87.4082 189.456 87.4346 189.521 87.4346 189.596C87.4346 189.738 87.2842 189.876 86.9834 190.009C86.7197 190.126 86.501 190.185 86.3271 190.185ZM90.0449 187.504C90.0039 187.504 89.9551 187.502 89.8984 187.498C89.8438 187.494 89.7959 187.492 89.7549 187.492C89.71 187.492 89.5771 187.507 89.3564 187.536L89.4121 189.268L89.415 189.396L89.418 189.546C89.4258 189.974 89.3232 190.188 89.1104 190.188C89.0322 190.188 88.9639 190.162 88.9053 190.111C88.8486 190.061 88.8203 189.997 88.8203 189.921C88.8203 189.847 88.8232 189.735 88.8291 189.587C88.835 189.438 88.8379 189.327 88.8379 189.253L88.7793 187.542C88.6367 187.536 88.4199 187.52 88.1289 187.492C87.9551 187.469 87.8682 187.372 87.8682 187.202C87.8682 187.116 87.8945 187.045 87.9473 186.988C88 186.932 88.0674 186.903 88.1494 186.903L88.7646 186.953C88.7646 186.854 88.7598 186.721 88.75 186.555C88.7422 186.387 88.7383 186.266 88.7383 186.191C88.7383 186.109 88.7666 186.042 88.8232 185.989C88.8799 185.935 88.9492 185.907 89.0312 185.907C89.207 185.907 89.3096 186.051 89.3389 186.338C89.3447 186.41 89.3477 186.497 89.3477 186.599L89.3418 186.769L89.3389 186.95C89.5811 186.919 89.7197 186.903 89.7549 186.903C89.958 186.903 90.0908 186.913 90.1533 186.933C90.2725 186.972 90.332 187.063 90.332 187.208C90.332 187.294 90.3047 187.365 90.25 187.422C90.1973 187.477 90.1289 187.504 90.0449 187.504ZM91.29 190.272C91.1885 190.272 91.1025 190.237 91.0322 190.167C90.9619 190.097 90.9268 190.011 90.9268 189.909C90.9268 189.81 90.9619 189.725 91.0322 189.654C91.1025 189.582 91.1885 189.546 91.29 189.546C91.3896 189.546 91.4746 189.582 91.5449 189.654C91.6172 189.725 91.6533 189.81 91.6533 189.909C91.6533 190.011 91.6172 190.097 91.5449 190.167C91.4746 190.237 91.3896 190.272 91.29 190.272ZM92.7842 190.272C92.6826 190.272 92.5967 190.237 92.5264 190.167C92.4561 190.097 92.4209 190.011 92.4209 189.909C92.4209 189.81 92.4561 189.725 92.5264 189.654C92.5967 189.582 92.6826 189.546 92.7842 189.546C92.8838 189.546 92.9688 189.582 93.0391 189.654C93.1113 189.725 93.1475 189.81 93.1475 189.909C93.1475 190.011 93.1113 190.097 93.0391 190.167C92.9688 190.237 92.8838 190.272 92.7842 190.272ZM94.2783 190.272C94.1768 190.272 94.0908 190.237 94.0205 190.167C93.9502 190.097 93.915 190.011 93.915 189.909C93.915 189.81 93.9502 189.725 94.0205 189.654C94.0908 189.582 94.1768 189.546 94.2783 189.546C94.3779 189.546 94.4629 189.582 94.5332 189.654C94.6055 189.725 94.6416 189.81 94.6416 189.909C94.6416 190.011 94.6055 190.097 94.5332 190.167C94.4629 190.237 94.3779 190.272 94.2783 190.272Z" fill="black"/>
</svg>
