<svg width="200" height="200" viewBox="0 0 200 200" fill="none" xmlns="http://www.w3.org/2000/svg">
<rect width="200" height="200" fill="white"/>
<rect x="132.143" y="68.8091" width="6.85714" height="65.7324" fill="#6F4200"/>
<rect x="115" y="54.1405" width="33.5422" height="14.8257" fill="#6F4200"/>
<path d="M163 61.5533L148.253 68.9607V54.1459L163 61.5533Z" fill="#6F4200"/>
<path d="M122.314 64.1172C121.707 64.1172 121.254 63.9424 120.955 63.5928C120.713 63.3115 120.561 62.8955 120.498 62.3447C120.469 62.0967 120.454 61.6016 120.454 60.8594C120.454 60.5859 120.46 60.3652 120.472 60.1973C120.483 60.0195 120.501 59.8955 120.524 59.8252C120.573 59.6826 120.661 59.6113 120.788 59.6113C120.968 59.6113 121.058 59.7764 121.058 60.1064V61.8262C121.058 63.0098 121.472 63.6016 122.3 63.6016C123.079 63.6016 123.469 62.6055 123.469 60.6133C123.469 60.5391 123.469 60.4434 123.469 60.3262C123.467 60.209 123.466 60.1309 123.466 60.0918C123.466 59.9707 123.487 59.8643 123.53 59.7725C123.585 59.6553 123.666 59.5967 123.773 59.5967C123.969 59.5967 124.066 59.7305 124.066 59.998C124.066 60.0781 124.067 60.1992 124.069 60.3613C124.069 60.5234 124.069 60.6445 124.069 60.7246C124.069 62.9863 123.484 64.1172 122.314 64.1172ZM127.078 64.208C126.91 64.208 126.815 64.1162 126.794 63.9326L126.712 63.291C126.685 63.0625 126.671 62.8486 126.671 62.6494C126.671 62.5947 126.674 62.502 126.68 62.3711C126.688 62.2402 126.691 62.1475 126.691 62.0928C126.691 61.6709 126.613 61.46 126.457 61.46C126.238 61.46 126.029 61.5898 125.83 61.8496C125.65 62.0859 125.51 62.3848 125.408 62.7461C125.404 62.8223 125.396 62.918 125.382 63.0332C125.37 63.1309 125.364 63.2256 125.364 63.3174C125.364 63.376 125.37 63.4639 125.382 63.5811C125.394 63.6982 125.399 63.7861 125.399 63.8447C125.399 63.9326 125.372 64.0039 125.317 64.0586C125.265 64.1133 125.196 64.1406 125.112 64.1406C125.026 64.1406 124.957 64.1133 124.904 64.0586C124.852 64.0039 124.825 63.9326 124.825 63.8447C124.825 63.7861 124.818 63.6982 124.805 63.5811C124.793 63.4639 124.787 63.376 124.787 63.3174C124.787 63.1162 124.801 62.8379 124.828 62.4824C124.857 62.125 124.872 61.8457 124.872 61.6445C124.872 61.582 124.868 61.4893 124.86 61.3662C124.854 61.2432 124.852 61.1504 124.852 61.0879C124.852 61.0039 124.879 60.9355 124.934 60.8828C124.99 60.8281 125.06 60.8008 125.142 60.8008C125.321 60.8008 125.42 60.9277 125.438 61.1816L125.446 61.5244C125.774 61.0869 126.111 60.8682 126.457 60.8682C126.77 60.8682 126.987 61.0059 127.11 61.2812C127.194 61.4648 127.24 61.7363 127.248 62.0957V62.3916L127.245 62.6641C127.245 62.8262 127.266 63.0361 127.307 63.2939C127.35 63.5498 127.371 63.7578 127.371 63.918C127.371 64.0039 127.343 64.0732 127.286 64.126C127.231 64.1807 127.162 64.208 127.078 64.208ZM128.531 60.291C128.438 60.291 128.356 60.2578 128.288 60.1914C128.22 60.125 128.186 60.0449 128.186 59.9512C128.186 59.8574 128.22 59.7773 128.288 59.7109C128.356 59.6445 128.438 59.6113 128.531 59.6113C128.625 59.6113 128.705 59.6445 128.771 59.7109C128.84 59.7773 128.874 59.8574 128.874 59.9512C128.874 60.0449 128.84 60.125 128.771 60.1914C128.705 60.2578 128.625 60.291 128.531 60.291ZM128.663 62.6699C128.663 62.7871 128.666 62.9629 128.672 63.1973C128.68 63.4297 128.684 63.6045 128.684 63.7217C128.684 63.8076 128.657 63.8779 128.604 63.9326C128.552 63.9873 128.482 64.0146 128.396 64.0146C128.312 64.0146 128.243 63.9873 128.188 63.9326C128.136 63.8779 128.109 63.8076 128.109 63.7217C128.109 63.6045 128.105 63.4297 128.098 63.1973C128.092 62.9629 128.089 62.7871 128.089 62.6699C128.089 62.4863 128.099 62.2578 128.118 61.9844C128.138 61.709 128.147 61.4795 128.147 61.2959C128.147 61.208 128.174 61.1367 128.227 61.082C128.281 61.0273 128.351 61 128.435 61C128.519 61 128.587 61.0273 128.64 61.082C128.694 61.1367 128.722 61.208 128.722 61.2959C128.722 61.4795 128.712 61.709 128.692 61.9844C128.673 62.2578 128.663 62.4863 128.663 62.6699ZM131.004 63.8477C130.998 64.0273 130.909 64.1172 130.737 64.1172C130.595 64.1172 130.491 64.0332 130.427 63.8652L129.979 62.6758L129.457 61.3311C129.438 61.2803 129.428 61.2354 129.428 61.1963C129.428 61.1162 129.458 61.0479 129.519 60.9912C129.579 60.9346 129.649 60.9062 129.729 60.9062C129.847 60.9062 129.931 60.9658 129.981 61.085L130.726 63.1328C130.872 62.8203 131.057 62.3672 131.279 61.7734C131.332 61.6172 131.415 61.3965 131.528 61.1113C131.589 60.9863 131.675 60.9238 131.786 60.9238C131.866 60.9238 131.937 60.9521 131.997 61.0088C132.058 61.0654 132.088 61.1328 132.088 61.2109C132.088 61.2852 131.927 61.7031 131.604 62.4648L131.004 63.8477ZM133.939 64.1348C133.498 64.1348 133.141 64.0244 132.867 63.8037C132.568 63.5596 132.419 63.2178 132.419 62.7783C132.419 62.2705 132.542 61.8447 132.788 61.501C133.056 61.126 133.413 60.9385 133.86 60.9385C134.185 60.9385 134.449 60.9932 134.654 61.1025C134.906 61.2373 135.032 61.4443 135.032 61.7236C135.032 61.9189 134.922 62.0967 134.701 62.2568C134.604 62.3271 134.396 62.4365 134.08 62.585L132.961 63.1152C133.07 63.2773 133.206 63.3994 133.368 63.4814C133.532 63.5635 133.723 63.6045 133.939 63.6045C134.074 63.6045 134.232 63.5791 134.414 63.5283C134.645 63.4639 134.793 63.3799 134.859 63.2764C134.926 63.1709 134.997 63.1182 135.073 63.1182C135.142 63.1182 135.202 63.1445 135.255 63.1973C135.31 63.248 135.337 63.3076 135.337 63.376C135.337 63.5928 135.162 63.7793 134.812 63.9355C134.514 64.0684 134.223 64.1348 133.939 64.1348ZM133.86 61.4658C133.622 61.4658 133.424 61.5586 133.266 61.7441C133.107 61.9277 132.989 62.2051 132.911 62.5762L133.811 62.1484C134.164 61.9766 134.416 61.8271 134.566 61.7002C134.398 61.5439 134.163 61.4658 133.86 61.4658ZM138.138 61.835C138.124 62.0791 138.026 62.2012 137.845 62.2012C137.677 62.2012 137.593 62.1045 137.593 61.9111C137.593 61.874 137.59 61.8057 137.584 61.7061L137.575 61.46C137.267 61.4971 137.02 61.584 136.834 61.7207C136.66 61.8477 136.516 62.0391 136.4 62.2949L136.406 63.9004C136.406 64.0977 136.31 64.1963 136.116 64.1963C135.944 64.1963 135.858 64.0977 135.858 63.9004V61.8438C135.858 61.7793 135.86 61.6826 135.864 61.5537C135.87 61.4248 135.873 61.3281 135.873 61.2637C135.873 61.0664 135.959 60.9678 136.131 60.9678C136.322 60.9678 136.419 61.1299 136.421 61.4541C136.796 61.0928 137.212 60.9121 137.669 60.9121C137.827 60.9121 137.945 60.9717 138.023 61.0908C138.102 61.21 138.141 61.3896 138.141 61.6299C138.141 61.7314 138.14 61.7998 138.138 61.835ZM140.719 61.7441C140.611 61.7441 140.536 61.708 140.493 61.6357C140.464 61.585 140.438 61.4795 140.417 61.3193C140.271 61.3564 140.045 61.4248 139.74 61.5244C139.426 61.6494 139.268 61.8037 139.266 61.9873C139.324 62.0088 139.382 62.0244 139.438 62.0342C139.888 62.1143 140.222 62.2246 140.44 62.3652C140.759 62.5703 140.918 62.8672 140.918 63.2559C140.918 63.5742 140.78 63.8145 140.505 63.9766C140.276 64.1094 139.987 64.1758 139.638 64.1758C139.382 64.1758 139.138 64.1328 138.905 64.0469C138.604 63.9375 138.454 63.7852 138.454 63.5898C138.454 63.5117 138.484 63.4434 138.545 63.3848C138.607 63.3262 138.678 63.2969 138.756 63.2969C138.816 63.2969 138.895 63.3438 138.99 63.4375C139.037 63.4824 139.143 63.5195 139.307 63.5488C139.438 63.5723 139.548 63.584 139.638 63.584C139.802 63.584 139.946 63.5645 140.071 63.5254C140.253 63.4688 140.344 63.3789 140.344 63.2559C140.344 62.9902 140.158 62.8105 139.787 62.7168L139.482 62.6494C139.223 62.5928 139.038 62.5264 138.929 62.4502C138.771 62.3408 138.691 62.1758 138.691 61.9551C138.691 61.5469 138.884 61.2559 139.269 61.082C139.386 61.0293 139.573 60.9668 139.831 60.8945C140.089 60.8203 140.273 60.7578 140.385 60.707C140.465 60.6719 140.552 60.6543 140.646 60.6543C140.729 60.6543 140.798 60.6816 140.851 60.7363C140.905 60.791 140.933 60.8623 140.933 60.9502C140.933 61.0068 140.944 61.0898 140.968 61.1992C140.993 61.3086 141.006 61.3916 141.006 61.4482C141.006 61.5361 140.979 61.6074 140.924 61.6621C140.871 61.7168 140.803 61.7441 140.719 61.7441ZM142.225 60.291C142.131 60.291 142.05 60.2578 141.981 60.1914C141.913 60.125 141.879 60.0449 141.879 59.9512C141.879 59.8574 141.913 59.7773 141.981 59.7109C142.05 59.6445 142.131 59.6113 142.225 59.6113C142.318 59.6113 142.398 59.6445 142.465 59.7109C142.533 59.7773 142.567 59.8574 142.567 59.9512C142.567 60.0449 142.533 60.125 142.465 60.1914C142.398 60.2578 142.318 60.291 142.225 60.291ZM142.356 62.6699C142.356 62.7871 142.359 62.9629 142.365 63.1973C142.373 63.4297 142.377 63.6045 142.377 63.7217C142.377 63.8076 142.351 63.8779 142.298 63.9326C142.245 63.9873 142.176 64.0146 142.09 64.0146C142.006 64.0146 141.937 63.9873 141.882 63.9326C141.829 63.8779 141.803 63.8076 141.803 63.7217C141.803 63.6045 141.799 63.4297 141.791 63.1973C141.785 62.9629 141.782 62.7871 141.782 62.6699C141.782 62.4863 141.792 62.2578 141.812 61.9844C141.831 61.709 141.841 61.4795 141.841 61.2959C141.841 61.208 141.867 61.1367 141.92 61.082C141.975 61.0273 142.044 61 142.128 61C142.212 61 142.28 61.0273 142.333 61.082C142.388 61.1367 142.415 61.208 142.415 61.2959C142.415 61.4795 142.405 61.709 142.386 61.9844C142.366 62.2578 142.356 62.4863 142.356 62.6699ZM145.307 61.5039C145.266 61.5039 145.217 61.502 145.16 61.498C145.105 61.4941 145.058 61.4922 145.017 61.4922C144.972 61.4922 144.839 61.5068 144.618 61.5361L144.674 63.2676L144.677 63.3965L144.68 63.5459C144.688 63.9736 144.585 64.1875 144.372 64.1875C144.294 64.1875 144.226 64.1621 144.167 64.1113C144.11 64.0605 144.082 63.9971 144.082 63.9209C144.082 63.8467 144.085 63.7354 144.091 63.5869C144.097 63.4385 144.1 63.3271 144.1 63.2529L144.041 61.542C143.898 61.5361 143.682 61.5195 143.391 61.4922C143.217 61.4688 143.13 61.3721 143.13 61.2021C143.13 61.1162 143.156 61.0449 143.209 60.9883C143.262 60.9316 143.329 60.9033 143.411 60.9033L144.026 60.9531C144.026 60.8535 144.021 60.7207 144.012 60.5547C144.004 60.3867 144 60.2656 144 60.1914C144 60.1094 144.028 60.042 144.085 59.9893C144.142 59.9346 144.211 59.9072 144.293 59.9072C144.469 59.9072 144.571 60.0508 144.601 60.3379C144.606 60.4102 144.609 60.4971 144.609 60.5986L144.604 60.7686L144.601 60.9502C144.843 60.9189 144.981 60.9033 145.017 60.9033C145.22 60.9033 145.353 60.9131 145.415 60.9326C145.534 60.9717 145.594 61.0635 145.594 61.208C145.594 61.2939 145.566 61.3652 145.512 61.4219C145.459 61.4766 145.391 61.5039 145.307 61.5039ZM148.731 61.3867L147.718 63.5781C147.468 64.1113 147.276 64.5576 147.144 64.917L146.95 65.4854C146.899 65.626 146.812 65.6963 146.687 65.6963C146.604 65.6963 146.533 65.6689 146.473 65.6143C146.414 65.5615 146.385 65.4951 146.385 65.415C146.385 65.2197 146.596 64.6543 147.018 63.7188L145.969 61.7002L145.837 61.4863C145.784 61.3965 145.758 61.3213 145.758 61.2607C145.758 61.1807 145.788 61.1104 145.849 61.0498C145.911 60.9893 145.98 60.959 146.057 60.959C146.146 60.959 146.216 60.9932 146.265 61.0615C146.597 61.5225 146.953 62.1787 147.334 63.0303L147.768 62.0195C147.924 61.6699 148.074 61.3691 148.219 61.1172C148.281 61.0078 148.363 60.9531 148.465 60.9531C148.545 60.9531 148.615 60.9814 148.676 61.0381C148.738 61.0947 148.77 61.1621 148.77 61.2402C148.77 61.2832 148.757 61.332 148.731 61.3867Z" fill="#EEEEEE"/>
<path d="M139 122.781L140.433 133.953H137.567L139 122.781Z" fill="#077A0C"/>
<path d="M139 127.485L140.433 136.306H137.567L139 127.485Z" fill="#0A5B0E"/>
<path d="M137.345 127.485L138.778 135.13H135.911L137.345 127.485Z" fill="#007C05"/>
<path d="M141.34 125.161L141.741 136.41L138.885 136.173L141.34 125.161Z" fill="#007C05"/>
<path d="M137.759 121.997L138.117 133.169H137.4L137.759 121.997Z" fill="#038A08"/>
<path d="M131.552 121.997L132.985 133.169H130.118L131.552 121.997Z" fill="#077A0C"/>
<path d="M131.552 126.701L132.985 135.522H130.118L131.552 126.701Z" fill="#0A5B0E"/>
<path d="M129.897 126.701L131.33 134.345H128.463L129.897 126.701Z" fill="#007C05"/>
<path d="M133.892 124.377L134.292 135.626L131.436 135.389L133.892 124.377Z" fill="#007C05"/>
<path d="M130.31 121.213L130.669 132.385H129.952L130.31 121.213Z" fill="#038A08"/>
<rect x="47.1057" y="113" width="1" height="35" transform="rotate(18.5 47.1057 113)" fill="black"/>
<rect x="47.1057" y="80" width="1" height="35" transform="rotate(18.5 47.1057 80)" fill="black"/>
<rect x="47" y="79" width="1" height="35" fill="black"/>
<rect x="47" y="113.317" width="1" height="35" transform="rotate(-18.5 47 113.317)" fill="black"/>
<path d="M55 71.5C55 75.6421 51.6421 79 47.5 79C43.3579 79 40 75.6421 40 71.5C40 67.3579 43.3579 64 47.5 64C51.6421 64 55 67.3579 55 71.5ZM41.1013 71.5C41.1013 75.0339 43.9661 77.8987 47.5 77.8987C51.0339 77.8987 53.8987 75.0339 53.8987 71.5C53.8987 67.9661 51.0339 65.1013 47.5 65.1013C43.9661 65.1013 41.1013 67.9661 41.1013 71.5Z" fill="black"/>
<rect x="47" y="80.6157" width="1" height="16.9958" transform="rotate(-38 47 80.6157)" fill="black"/>
<rect x="69.5885" y="81" width="1" height="17.5" transform="rotate(46 69.5885 81)" fill="black"/>
<path d="M66.2301 81.762C65.8848 80.7983 65.9207 80.1886 66.3641 79.4832C66.8075 78.7779 67.3414 78.4813 68.3596 78.3747" stroke="black" stroke-width="0.5"/>
<path d="M71.0002 79.4272C71.9877 79.6968 72.4668 80.0757 72.7905 80.8433C73.1142 81.611 73.0512 82.2185 72.5548 83.1138" stroke="black" stroke-width="0.5"/>
<path d="M70.9999 77.6898C72.2462 77.9531 72.9996 78.4194 73.8158 79.4324C74.6319 80.4453 74.9273 81.2807 74.9195 82.5545" stroke="black" stroke-width="0.5"/>
<path d="M63.9748 81.5326C63.9176 80.1594 64.2129 79.3029 65.0784 78.3318C65.944 77.3607 66.7609 76.9693 68.1316 76.8689" stroke="black" stroke-width="0.5"/>
<path d="M63.3926 61.2705C63.3906 61.1885 63.418 61.1221 63.4746 61.0713C63.5332 61.0186 63.6045 60.9922 63.6885 60.9922C63.7842 60.9922 63.8682 61.0469 63.9404 61.1562C64.04 61.3047 64.1289 61.4053 64.207 61.458C64.373 61.5674 64.6143 61.6221 64.9307 61.6221C65.2334 61.6221 65.5146 61.5566 65.7744 61.4258C66.1064 61.2578 66.2725 61.0244 66.2725 60.7256C66.2725 60.4795 66.1328 60.2852 65.8535 60.1426C65.6172 60.0195 65.3252 59.9531 64.9775 59.9434C64.6689 59.9316 64.4062 59.8643 64.1895 59.7412C63.9121 59.583 63.7734 59.3564 63.7734 59.0615C63.7734 58.7139 63.9707 58.3965 64.3652 58.1094C64.7422 57.8379 65.1318 57.7021 65.5342 57.7021C65.7236 57.7021 65.9375 57.7344 66.1758 57.7988C66.4922 57.8828 66.6504 57.9902 66.6504 58.1211C66.6504 58.293 66.5625 58.3789 66.3867 58.3789C66.3086 58.3789 66.1719 58.3584 65.9766 58.3174C65.7812 58.2744 65.6299 58.2539 65.5225 58.2559C65.2178 58.2598 64.959 58.335 64.7461 58.4814C64.5273 58.6318 64.418 58.8145 64.418 59.0293C64.418 59.1914 64.5625 59.3057 64.8516 59.3721C64.959 59.3975 65.167 59.4209 65.4756 59.4424C65.9229 59.4756 66.2725 59.6162 66.5244 59.8643C66.7549 60.0908 66.8701 60.3672 66.8701 60.6934C66.8701 61.1582 66.6553 61.5293 66.2256 61.8066C65.8525 62.0469 65.4199 62.167 64.9277 62.167C64.5703 62.167 64.2432 62.0986 63.9463 61.9619C63.583 61.7939 63.3984 61.5635 63.3926 61.2705ZM68.9355 62.1348C68.4941 62.1348 68.1367 62.0244 67.8633 61.8037C67.5645 61.5596 67.415 61.2178 67.415 60.7783C67.415 60.2705 67.5381 59.8447 67.7842 59.501C68.0518 59.126 68.4092 58.9385 68.8564 58.9385C69.1807 58.9385 69.4453 58.9932 69.6504 59.1025C69.9023 59.2373 70.0283 59.4443 70.0283 59.7236C70.0283 59.9189 69.918 60.0967 69.6973 60.2568C69.5996 60.3271 69.3926 60.4365 69.0762 60.585L67.957 61.1152C68.0664 61.2773 68.2021 61.3994 68.3643 61.4814C68.5283 61.5635 68.7188 61.6045 68.9355 61.6045C69.0703 61.6045 69.2285 61.5791 69.4102 61.5283C69.6406 61.4639 69.7891 61.3799 69.8555 61.2764C69.9219 61.1709 69.9932 61.1182 70.0693 61.1182C70.1377 61.1182 70.1982 61.1445 70.251 61.1973C70.3057 61.248 70.333 61.3076 70.333 61.376C70.333 61.5928 70.1582 61.7793 69.8086 61.9355C69.5098 62.0684 69.2188 62.1348 68.9355 62.1348ZM68.8564 59.4658C68.6182 59.4658 68.4199 59.5586 68.2617 59.7441C68.1035 59.9277 67.9854 60.2051 67.9072 60.5762L68.8066 60.1484C69.1602 59.9766 69.4121 59.8271 69.5625 59.7002C69.3945 59.5439 69.1592 59.4658 68.8564 59.4658ZM72.2227 62.1348C71.7812 62.1348 71.4238 62.0244 71.1504 61.8037C70.8516 61.5596 70.7021 61.2178 70.7021 60.7783C70.7021 60.2705 70.8252 59.8447 71.0713 59.501C71.3389 59.126 71.6963 58.9385 72.1436 58.9385C72.4678 58.9385 72.7324 58.9932 72.9375 59.1025C73.1895 59.2373 73.3154 59.4443 73.3154 59.7236C73.3154 59.9189 73.2051 60.0967 72.9844 60.2568C72.8867 60.3271 72.6797 60.4365 72.3633 60.585L71.2441 61.1152C71.3535 61.2773 71.4893 61.3994 71.6514 61.4814C71.8154 61.5635 72.0059 61.6045 72.2227 61.6045C72.3574 61.6045 72.5156 61.5791 72.6973 61.5283C72.9277 61.4639 73.0762 61.3799 73.1426 61.2764C73.209 61.1709 73.2803 61.1182 73.3564 61.1182C73.4248 61.1182 73.4854 61.1445 73.5381 61.1973C73.5928 61.248 73.6201 61.3076 73.6201 61.376C73.6201 61.5928 73.4453 61.7793 73.0957 61.9355C72.7969 62.0684 72.5059 62.1348 72.2227 62.1348ZM72.1436 59.4658C71.9053 59.4658 71.707 59.5586 71.5488 59.7441C71.3906 59.9277 71.2725 60.2051 71.1943 60.5762L72.0938 60.1484C72.4473 59.9766 72.6992 59.8271 72.8496 59.7002C72.6816 59.5439 72.4463 59.4658 72.1436 59.4658ZM78.4893 59.3867L77.4756 61.5781C77.2256 62.1113 77.0342 62.5576 76.9014 62.917L76.708 63.4854C76.6572 63.626 76.5693 63.6963 76.4443 63.6963C76.3623 63.6963 76.291 63.6689 76.2305 63.6143C76.1719 63.5615 76.1426 63.4951 76.1426 63.415C76.1426 63.2197 76.3535 62.6543 76.7754 61.7188L75.7266 59.7002L75.5947 59.4863C75.542 59.3965 75.5156 59.3213 75.5156 59.2607C75.5156 59.1807 75.5459 59.1104 75.6064 59.0498C75.6689 58.9893 75.7383 58.959 75.8145 58.959C75.9043 58.959 75.9736 58.9932 76.0225 59.0615C76.3545 59.5225 76.7109 60.1787 77.0918 61.0303L77.5254 60.0195C77.6816 59.6699 77.832 59.3691 77.9766 59.1172C78.0391 59.0078 78.1211 58.9531 78.2227 58.9531C78.3027 58.9531 78.373 58.9814 78.4336 59.0381C78.4961 59.0947 78.5273 59.1621 78.5273 59.2402C78.5273 59.2832 78.5146 59.332 78.4893 59.3867ZM80.1562 62.1729C79.8281 62.1729 79.5459 62.0518 79.3096 61.8096C79.0459 61.54 78.9072 61.1777 78.8936 60.7227C78.8818 60.2812 78.9932 59.8926 79.2275 59.5566C79.501 59.1602 79.8818 58.9619 80.3701 58.9619C80.7607 58.9619 81.0566 59.1406 81.2578 59.498C81.418 59.7871 81.4951 60.1348 81.4893 60.541C81.4834 60.9746 81.3701 61.3447 81.1494 61.6514C80.8994 61.999 80.5684 62.1729 80.1562 62.1729ZM80.332 59.5566C80.0449 59.5547 79.8213 59.6914 79.6611 59.9668C79.5342 60.1875 79.4707 60.4395 79.4707 60.7227C79.4707 61.0059 79.5479 61.2266 79.7021 61.3848C79.8311 61.5156 79.9824 61.5811 80.1562 61.5811C80.3594 61.5811 80.5342 61.5068 80.6807 61.3584C80.8467 61.1943 80.9346 60.9727 80.9443 60.6934C80.9717 59.9375 80.7676 59.5586 80.332 59.5566ZM84.6064 60.2891C84.6064 60.4297 84.6074 60.6406 84.6094 60.9219C84.6113 61.2031 84.6123 61.4141 84.6123 61.5547C84.6123 61.5977 84.6152 61.6631 84.6211 61.751C84.6289 61.8389 84.6328 61.9043 84.6328 61.9473C84.6328 62.0312 84.6045 62.0996 84.5479 62.1523C84.4912 62.207 84.4219 62.2344 84.3398 62.2344C84.1895 62.2344 84.0938 62.1416 84.0527 61.9561C83.8086 62.083 83.5273 62.1465 83.209 62.1465C82.9531 62.1465 82.7412 62.0898 82.5732 61.9766C82.3877 61.8516 82.2773 61.6689 82.2422 61.4287C82.166 60.9111 82.1279 60.4502 82.1279 60.0459C82.1279 59.7783 82.1572 59.4736 82.2158 59.1318C82.2432 58.9619 82.3359 58.877 82.4941 58.877C82.5781 58.877 82.6484 58.9043 82.7051 58.959C82.7617 59.0117 82.79 59.0801 82.79 59.1641C82.79 59.2539 82.7754 59.3975 82.7461 59.5947C82.7188 59.792 82.7051 59.9424 82.7051 60.0459C82.7051 60.3721 82.7158 60.6514 82.7373 60.8838C82.7588 61.1162 82.791 61.3027 82.834 61.4434C82.8984 61.4785 82.9619 61.5059 83.0244 61.5254C83.0869 61.543 83.1484 61.5518 83.209 61.5518C83.4707 61.5518 83.7471 61.5098 84.0381 61.4258L84.0352 60.8311L84.0293 60.2627C84.0293 59.8408 84.0479 59.4746 84.085 59.1641C84.1064 58.9844 84.2012 58.8945 84.3691 58.8945C84.4531 58.8945 84.5234 58.9219 84.5801 58.9766C84.6367 59.0312 84.6631 59.0996 84.6592 59.1816L84.6064 60.2891ZM89.1094 59.7441C89.002 59.7441 88.9268 59.708 88.8838 59.6357C88.8545 59.585 88.8291 59.4795 88.8076 59.3193C88.6611 59.3564 88.4355 59.4248 88.1309 59.5244C87.8164 59.6494 87.6582 59.8037 87.6562 59.9873C87.7148 60.0088 87.7725 60.0244 87.8291 60.0342C88.2783 60.1143 88.6123 60.2246 88.8311 60.3652C89.1494 60.5703 89.3086 60.8672 89.3086 61.2559C89.3086 61.5742 89.1709 61.8145 88.8955 61.9766C88.667 62.1094 88.3779 62.1758 88.0283 62.1758C87.7725 62.1758 87.5283 62.1328 87.2959 62.0469C86.9951 61.9375 86.8447 61.7852 86.8447 61.5898C86.8447 61.5117 86.875 61.4434 86.9355 61.3848C86.998 61.3262 87.0684 61.2969 87.1465 61.2969C87.207 61.2969 87.2852 61.3438 87.3809 61.4375C87.4277 61.4824 87.5332 61.5195 87.6973 61.5488C87.8281 61.5723 87.9385 61.584 88.0283 61.584C88.1924 61.584 88.3369 61.5645 88.4619 61.5254C88.6436 61.4688 88.7344 61.3789 88.7344 61.2559C88.7344 60.9902 88.5488 60.8105 88.1777 60.7168L87.873 60.6494C87.6133 60.5928 87.4287 60.5264 87.3193 60.4502C87.1611 60.3408 87.082 60.1758 87.082 59.9551C87.082 59.5469 87.2744 59.2559 87.6592 59.082C87.7764 59.0293 87.9639 58.9668 88.2217 58.8945C88.4795 58.8203 88.6641 58.7578 88.7754 58.707C88.8555 58.6719 88.9424 58.6543 89.0361 58.6543C89.1201 58.6543 89.1885 58.6816 89.2412 58.7363C89.2959 58.791 89.3232 58.8623 89.3232 58.9502C89.3232 59.0068 89.335 59.0898 89.3584 59.1992C89.3838 59.3086 89.3965 59.3916 89.3965 59.4482C89.3965 59.5361 89.3691 59.6074 89.3145 59.6621C89.2617 59.7168 89.1934 59.7441 89.1094 59.7441ZM91.1543 62.1729C90.8262 62.1729 90.5439 62.0518 90.3076 61.8096C90.0439 61.54 89.9053 61.1777 89.8916 60.7227C89.8799 60.2812 89.9912 59.8926 90.2256 59.5566C90.499 59.1602 90.8799 58.9619 91.3682 58.9619C91.7588 58.9619 92.0547 59.1406 92.2559 59.498C92.416 59.7871 92.4932 60.1348 92.4873 60.541C92.4814 60.9746 92.3682 61.3447 92.1475 61.6514C91.8975 61.999 91.5664 62.1729 91.1543 62.1729ZM91.3301 59.5566C91.043 59.5547 90.8193 59.6914 90.6592 59.9668C90.5322 60.1875 90.4688 60.4395 90.4688 60.7227C90.4688 61.0059 90.5459 61.2266 90.7002 61.3848C90.8291 61.5156 90.9805 61.5811 91.1543 61.5811C91.3574 61.5811 91.5322 61.5068 91.6787 61.3584C91.8447 61.1943 91.9326 60.9727 91.9424 60.6934C91.9697 59.9375 91.7656 59.5586 91.3301 59.5566ZM94.3125 62.1729C93.9844 62.1729 93.7021 62.0518 93.4658 61.8096C93.2021 61.54 93.0635 61.1777 93.0498 60.7227C93.0381 60.2812 93.1494 59.8926 93.3838 59.5566C93.6572 59.1602 94.0381 58.9619 94.5264 58.9619C94.917 58.9619 95.2129 59.1406 95.4141 59.498C95.5742 59.7871 95.6514 60.1348 95.6455 60.541C95.6396 60.9746 95.5264 61.3447 95.3057 61.6514C95.0557 61.999 94.7246 62.1729 94.3125 62.1729ZM94.4883 59.5566C94.2012 59.5547 93.9775 59.6914 93.8174 59.9668C93.6904 60.1875 93.627 60.4395 93.627 60.7227C93.627 61.0059 93.7041 61.2266 93.8584 61.3848C93.9873 61.5156 94.1387 61.5811 94.3125 61.5811C94.5156 61.5811 94.6904 61.5068 94.8369 61.3584C95.0029 61.1943 95.0908 60.9727 95.1006 60.6934C95.1279 59.9375 94.9238 59.5586 94.4883 59.5566ZM98.6191 62.208C98.4512 62.208 98.3564 62.1162 98.335 61.9326L98.2529 61.291C98.2256 61.0625 98.2119 60.8486 98.2119 60.6494C98.2119 60.5947 98.2148 60.502 98.2207 60.3711C98.2285 60.2402 98.2324 60.1475 98.2324 60.0928C98.2324 59.6709 98.1543 59.46 97.998 59.46C97.7793 59.46 97.5703 59.5898 97.3711 59.8496C97.1914 60.0859 97.0508 60.3848 96.9492 60.7461C96.9453 60.8223 96.9365 60.918 96.9229 61.0332C96.9111 61.1309 96.9053 61.2256 96.9053 61.3174C96.9053 61.376 96.9111 61.4639 96.9229 61.5811C96.9346 61.6982 96.9404 61.7861 96.9404 61.8447C96.9404 61.9326 96.9131 62.0039 96.8584 62.0586C96.8057 62.1133 96.7373 62.1406 96.6533 62.1406C96.5674 62.1406 96.498 62.1133 96.4453 62.0586C96.3926 62.0039 96.3662 61.9326 96.3662 61.8447C96.3662 61.7861 96.3594 61.6982 96.3457 61.5811C96.334 61.4639 96.3281 61.376 96.3281 61.3174C96.3281 61.1162 96.3418 60.8379 96.3691 60.4824C96.3984 60.125 96.4131 59.8457 96.4131 59.6445C96.4131 59.582 96.4092 59.4893 96.4014 59.3662C96.3955 59.2432 96.3926 59.1504 96.3926 59.0879C96.3926 59.0039 96.4199 58.9355 96.4746 58.8828C96.5312 58.8281 96.6006 58.8008 96.6826 58.8008C96.8623 58.8008 96.9609 58.9277 96.9785 59.1816L96.9873 59.5244C97.3154 59.0869 97.6523 58.8682 97.998 58.8682C98.3105 58.8682 98.5283 59.0059 98.6514 59.2812C98.7354 59.4648 98.7812 59.7363 98.7891 60.0957V60.3916L98.7861 60.6641C98.7861 60.8262 98.8066 61.0361 98.8477 61.2939C98.8906 61.5498 98.9121 61.7578 98.9121 61.918C98.9121 62.0039 98.8838 62.0732 98.8271 62.126C98.7725 62.1807 98.7031 62.208 98.6191 62.208Z" fill="black"/>
</svg>
