<svg width="200" height="200" viewBox="0 0 200 200" fill="none" xmlns="http://www.w3.org/2000/svg">
<rect width="200" height="200" fill="#121212"/>
<rect x="111.106" y="120" width="1" height="35" transform="rotate(18.5 111.106 120)" fill="#E5E5E5"/>
<rect x="111.106" y="87" width="1" height="35" transform="rotate(18.5 111.106 87)" fill="#E5E5E5"/>
<rect x="111" y="86" width="1" height="35" fill="#E5E5E5"/>
<rect x="111" y="120.317" width="1" height="35" transform="rotate(-18.5 111 120.317)" fill="#E5E5E5"/>
<path d="M119 78.5C119 82.6421 115.642 86 111.5 86C107.358 86 104 82.6421 104 78.5C104 74.3579 107.358 71 111.5 71C115.642 71 119 74.3579 119 78.5ZM105.101 78.5C105.101 82.0339 107.966 84.8987 111.5 84.8987C115.034 84.8987 117.899 82.0339 117.899 78.5C117.899 74.9661 115.034 72.1013 111.5 72.1013C107.966 72.1013 105.101 74.9661 105.101 78.5Z" fill="#E5E5E5"/>
<rect x="111" y="87.6157" width="1" height="16.9958" transform="rotate(-38 111 87.6157)" fill="#E5E5E5"/>
<rect x="133.589" y="88" width="1" height="17.5" transform="rotate(46 133.589 88)" fill="#E5E5E5"/>
<path d="M130.23 88.762C129.885 87.7983 129.921 87.1886 130.364 86.4832C130.808 85.7779 131.342 85.4813 132.36 85.3747" stroke="white" stroke-width="0.5"/>
<path d="M135 86.4272C135.988 86.6968 136.467 87.0757 136.79 87.8433C137.114 88.611 137.051 89.2185 136.555 90.1138" stroke="white" stroke-width="0.5"/>
<path d="M135 84.6898C136.246 84.9531 137 85.4194 137.816 86.4324C138.632 87.4453 138.927 88.2807 138.92 89.5545" stroke="white" stroke-width="0.5"/>
<path d="M127.975 88.5326C127.918 87.1594 128.213 86.3029 129.078 85.3318C129.944 84.3607 130.761 83.9693 132.132 83.8689" stroke="white" stroke-width="0.5"/>
<path d="M129.99 66.2998C129.846 66.2998 129.623 66.2881 129.322 66.2646C129.029 66.2432 128.807 66.2334 128.654 66.2354H128.446C128.452 66.5049 128.479 66.9424 128.525 67.5479C128.568 68.1123 128.59 68.5508 128.59 68.8633C128.59 68.9316 128.597 69.0352 128.61 69.1738C128.624 69.3125 128.631 69.417 128.631 69.4873C128.631 69.6201 128.609 69.7344 128.566 69.8301C128.512 69.959 128.427 70.0234 128.312 70.0234C128.233 70.0234 128.163 69.9961 128.101 69.9414C128.038 69.8867 128.007 69.8164 128.007 69.7305C128.007 69.7012 128.012 69.6572 128.021 69.5986C128.031 69.54 128.036 69.4961 128.036 69.4668C128.036 69.3711 128.029 69.2275 128.016 69.0361C128.004 68.8447 127.998 68.7002 127.998 68.6025C127.998 68.3232 127.976 67.9307 127.931 67.4248C127.884 66.8779 127.857 66.4854 127.852 66.2471L127.585 66.25C127.157 66.25 126.821 66.2188 126.577 66.1562C126.419 66.1152 126.34 66.0186 126.34 65.8662C126.34 65.7861 126.365 65.7158 126.416 65.6553C126.475 65.5869 126.55 65.5557 126.642 65.5615C126.71 65.5654 126.866 65.583 127.11 65.6143C127.306 65.6377 127.464 65.6494 127.585 65.6494C127.702 65.6494 127.88 65.6475 128.118 65.6436C128.356 65.6377 128.534 65.6348 128.651 65.6348C128.802 65.6348 129.024 65.6455 129.319 65.667C129.616 65.6885 129.84 65.6992 129.99 65.6992C130.074 65.6992 130.145 65.7285 130.201 65.7871C130.258 65.8438 130.286 65.915 130.286 66.001C130.286 66.085 130.258 66.1562 130.201 66.2148C130.145 66.2715 130.074 66.2998 129.99 66.2998ZM132.463 67.7441C132.355 67.7441 132.28 67.708 132.237 67.6357C132.208 67.585 132.183 67.4795 132.161 67.3193C132.015 67.3564 131.789 67.4248 131.484 67.5244C131.17 67.6494 131.012 67.8037 131.01 67.9873C131.068 68.0088 131.126 68.0244 131.183 68.0342C131.632 68.1143 131.966 68.2246 132.185 68.3652C132.503 68.5703 132.662 68.8672 132.662 69.2559C132.662 69.5742 132.524 69.8145 132.249 69.9766C132.021 70.1094 131.731 70.1758 131.382 70.1758C131.126 70.1758 130.882 70.1328 130.649 70.0469C130.349 69.9375 130.198 69.7852 130.198 69.5898C130.198 69.5117 130.229 69.4434 130.289 69.3848C130.352 69.3262 130.422 69.2969 130.5 69.2969C130.561 69.2969 130.639 69.3438 130.734 69.4375C130.781 69.4824 130.887 69.5195 131.051 69.5488C131.182 69.5723 131.292 69.584 131.382 69.584C131.546 69.584 131.69 69.5645 131.815 69.5254C131.997 69.4688 132.088 69.3789 132.088 69.2559C132.088 68.9902 131.902 68.8105 131.531 68.7168L131.227 68.6494C130.967 68.5928 130.782 68.5264 130.673 68.4502C130.515 68.3408 130.436 68.1758 130.436 67.9551C130.436 67.5469 130.628 67.2559 131.013 67.082C131.13 67.0293 131.317 66.9668 131.575 66.8945C131.833 66.8203 132.018 66.7578 132.129 66.707C132.209 66.6719 132.296 66.6543 132.39 66.6543C132.474 66.6543 132.542 66.6816 132.595 66.7363C132.649 66.791 132.677 66.8623 132.677 66.9502C132.677 67.0068 132.688 67.0898 132.712 67.1992C132.737 67.3086 132.75 67.3916 132.75 67.4482C132.75 67.5361 132.723 67.6074 132.668 67.6621C132.615 67.7168 132.547 67.7441 132.463 67.7441ZM134.733 70.1846C134.333 70.1846 133.999 70.0635 133.731 69.8213C133.45 69.5674 133.31 69.2324 133.31 68.8164C133.31 68.4199 133.441 68.0107 133.705 67.5889C133.998 67.1201 134.328 66.8857 134.695 66.8857C134.887 66.8857 135.101 66.9307 135.337 67.0205C135.636 67.1357 135.785 67.2764 135.785 67.4424C135.785 67.5166 135.761 67.583 135.712 67.6416C135.663 67.6982 135.603 67.7266 135.53 67.7266C135.474 67.7266 135.424 67.71 135.381 67.6768C135.34 67.6416 135.3 67.6074 135.261 67.5742C135.146 67.4824 134.957 67.4365 134.695 67.4365C134.496 67.4365 134.299 67.6143 134.104 67.9697C133.926 68.2959 133.837 68.5781 133.837 68.8164C133.837 69.0742 133.925 69.2773 134.101 69.4258C134.265 69.5645 134.476 69.6338 134.733 69.6338C134.851 69.6338 134.976 69.6025 135.108 69.54L135.448 69.3584C135.507 69.3271 135.549 69.3115 135.574 69.3115C135.646 69.3115 135.709 69.3408 135.762 69.3994C135.814 69.4561 135.841 69.5215 135.841 69.5957C135.841 69.7383 135.69 69.876 135.39 70.0088C135.126 70.126 134.907 70.1846 134.733 70.1846ZM138.943 70.1816C138.805 70.1816 138.714 70.1074 138.671 69.959C138.626 69.7988 138.585 69.5713 138.548 69.2764C138.513 68.9932 138.495 68.7607 138.495 68.5791C138.495 68.5283 138.497 68.4512 138.501 68.3477C138.507 68.2441 138.51 68.167 138.51 68.1162C138.51 67.749 138.418 67.5654 138.234 67.5654C137.986 67.5654 137.765 67.6777 137.569 67.9023C137.47 68.0176 137.333 68.2373 137.159 68.5615C137.159 69.3057 137.128 69.7461 137.065 69.8828C137.011 70.0039 136.926 70.0645 136.811 70.0645C136.73 70.0645 136.66 70.0371 136.6 69.9824C136.539 69.9277 136.509 69.8613 136.509 69.7832C136.509 69.7559 136.518 69.7129 136.535 69.6543C136.551 69.6055 136.562 69.4629 136.567 69.2266L136.576 68.793L136.585 66.6396C136.599 66.3975 136.605 66.2344 136.605 66.1504C136.605 66.0508 136.596 65.957 136.576 65.8691C136.559 65.7793 136.55 65.6865 136.55 65.5908C136.55 65.5088 136.578 65.4414 136.635 65.3887C136.691 65.334 136.761 65.3066 136.843 65.3066C137.003 65.3066 137.097 65.3926 137.124 65.5645C137.155 65.7539 137.171 65.9248 137.171 66.0771C137.171 66.2822 137.164 66.4961 137.15 66.7188C137.139 66.9316 137.134 67.1455 137.136 67.3604L137.139 67.6182C137.299 67.4033 137.47 67.2432 137.651 67.1377C137.835 67.0303 138.029 66.9766 138.234 66.9766C138.559 66.9766 138.781 67.082 138.902 67.293C138.988 67.4414 139.037 67.6914 139.049 68.043L139.072 68.6025L139.131 69.2119C139.158 69.4404 139.191 69.6416 139.23 69.8154C139.238 69.8486 139.242 69.877 139.242 69.9004C139.242 69.9805 139.213 70.0469 139.154 70.0996C139.096 70.1543 139.025 70.1816 138.943 70.1816ZM142.351 68.2891C142.351 68.4297 142.352 68.6406 142.354 68.9219C142.355 69.2031 142.356 69.4141 142.356 69.5547C142.356 69.5977 142.359 69.6631 142.365 69.751C142.373 69.8389 142.377 69.9043 142.377 69.9473C142.377 70.0312 142.349 70.0996 142.292 70.1523C142.235 70.207 142.166 70.2344 142.084 70.2344C141.934 70.2344 141.838 70.1416 141.797 69.9561C141.553 70.083 141.271 70.1465 140.953 70.1465C140.697 70.1465 140.485 70.0898 140.317 69.9766C140.132 69.8516 140.021 69.6689 139.986 69.4287C139.91 68.9111 139.872 68.4502 139.872 68.0459C139.872 67.7783 139.901 67.4736 139.96 67.1318C139.987 66.9619 140.08 66.877 140.238 66.877C140.322 66.877 140.393 66.9043 140.449 66.959C140.506 67.0117 140.534 67.0801 140.534 67.1641C140.534 67.2539 140.52 67.3975 140.49 67.5947C140.463 67.792 140.449 67.9424 140.449 68.0459C140.449 68.3721 140.46 68.6514 140.481 68.8838C140.503 69.1162 140.535 69.3027 140.578 69.4434C140.643 69.4785 140.706 69.5059 140.769 69.5254C140.831 69.543 140.893 69.5518 140.953 69.5518C141.215 69.5518 141.491 69.5098 141.782 69.4258L141.779 68.8311L141.773 68.2627C141.773 67.8408 141.792 67.4746 141.829 67.1641C141.851 66.9844 141.945 66.8945 142.113 66.8945C142.197 66.8945 142.268 66.9219 142.324 66.9766C142.381 67.0312 142.407 67.0996 142.403 67.1816L142.351 68.2891ZM140.522 65.7109C140.778 65.7109 140.906 65.8135 140.906 66.0186C140.906 66.0771 140.863 66.1338 140.777 66.1885C140.699 66.2373 140.626 66.2617 140.558 66.2617C140.317 66.2617 140.197 66.1611 140.197 65.96C140.197 65.9033 140.233 65.8477 140.306 65.793C140.38 65.7383 140.452 65.7109 140.522 65.7109ZM142.102 65.6875C142.168 65.6875 142.235 65.7188 142.304 65.7812C142.372 65.8418 142.406 65.9014 142.406 65.96C142.406 66.1396 142.267 66.2295 141.987 66.2295C141.907 66.2295 141.836 66.209 141.773 66.168C141.703 66.1211 141.668 66.0596 141.668 65.9834C141.668 65.8486 141.712 65.7617 141.8 65.7227C141.849 65.6992 141.949 65.6875 142.102 65.6875ZM145.061 67.7441C144.953 67.7441 144.878 67.708 144.835 67.6357C144.806 67.585 144.78 67.4795 144.759 67.3193C144.612 67.3564 144.387 67.4248 144.082 67.5244C143.768 67.6494 143.609 67.8037 143.607 67.9873C143.666 68.0088 143.724 68.0244 143.78 68.0342C144.229 68.1143 144.563 68.2246 144.782 68.3652C145.101 68.5703 145.26 68.8672 145.26 69.2559C145.26 69.5742 145.122 69.8145 144.847 69.9766C144.618 70.1094 144.329 70.1758 143.979 70.1758C143.724 70.1758 143.479 70.1328 143.247 70.0469C142.946 69.9375 142.796 69.7852 142.796 69.5898C142.796 69.5117 142.826 69.4434 142.887 69.3848C142.949 69.3262 143.02 69.2969 143.098 69.2969C143.158 69.2969 143.236 69.3438 143.332 69.4375C143.379 69.4824 143.484 69.5195 143.648 69.5488C143.779 69.5723 143.89 69.584 143.979 69.584C144.144 69.584 144.288 69.5645 144.413 69.5254C144.595 69.4688 144.686 69.3789 144.686 69.2559C144.686 68.9902 144.5 68.8105 144.129 68.7168L143.824 68.6494C143.564 68.5928 143.38 68.5264 143.271 68.4502C143.112 68.3408 143.033 68.1758 143.033 67.9551C143.033 67.5469 143.226 67.2559 143.61 67.082C143.728 67.0293 143.915 66.9668 144.173 66.8945C144.431 66.8203 144.615 66.7578 144.727 66.707C144.807 66.6719 144.894 66.6543 144.987 66.6543C145.071 66.6543 145.14 66.6816 145.192 66.7363C145.247 66.791 145.274 66.8623 145.274 66.9502C145.274 67.0068 145.286 67.0898 145.31 67.1992C145.335 67.3086 145.348 67.3916 145.348 67.4482C145.348 67.5361 145.32 67.6074 145.266 67.6621C145.213 67.7168 145.145 67.7441 145.061 67.7441ZM147.984 67.7441C147.877 67.7441 147.802 67.708 147.759 67.6357C147.729 67.585 147.704 67.4795 147.683 67.3193C147.536 67.3564 147.311 67.4248 147.006 67.5244C146.691 67.6494 146.533 67.8037 146.531 67.9873C146.59 68.0088 146.647 68.0244 146.704 68.0342C147.153 68.1143 147.487 68.2246 147.706 68.3652C148.024 68.5703 148.184 68.8672 148.184 69.2559C148.184 69.5742 148.046 69.8145 147.771 69.9766C147.542 70.1094 147.253 70.1758 146.903 70.1758C146.647 70.1758 146.403 70.1328 146.171 70.0469C145.87 69.9375 145.72 69.7852 145.72 69.5898C145.72 69.5117 145.75 69.4434 145.811 69.3848C145.873 69.3262 145.943 69.2969 146.021 69.2969C146.082 69.2969 146.16 69.3438 146.256 69.4375C146.303 69.4824 146.408 69.5195 146.572 69.5488C146.703 69.5723 146.813 69.584 146.903 69.584C147.067 69.584 147.212 69.5645 147.337 69.5254C147.519 69.4688 147.609 69.3789 147.609 69.2559C147.609 68.9902 147.424 68.8105 147.053 68.7168L146.748 68.6494C146.488 68.5928 146.304 68.5264 146.194 68.4502C146.036 68.3408 145.957 68.1758 145.957 67.9551C145.957 67.5469 146.149 67.2559 146.534 67.082C146.651 67.0293 146.839 66.9668 147.097 66.8945C147.354 66.8203 147.539 66.7578 147.65 66.707C147.73 66.6719 147.817 66.6543 147.911 66.6543C147.995 66.6543 148.063 66.6816 148.116 66.7363C148.171 66.791 148.198 66.8623 148.198 66.9502C148.198 67.0068 148.21 67.0898 148.233 67.1992C148.259 67.3086 148.271 67.3916 148.271 67.4482C148.271 67.5361 148.244 67.6074 148.189 67.6621C148.137 67.7168 148.068 67.7441 147.984 67.7441Z" fill="white"/>
<path d="M51.4727 49.5566L51.209 49.7363C50.972 49.9199 50.7038 50.2135 50.4043 50.6172L49.7188 51.6152C49.6862 51.6647 49.6543 51.7103 49.623 51.752L50.3828 51.7227C50.7148 51.707 50.9688 51.6992 51.1445 51.6992C51.3164 51.6992 51.4434 51.707 51.5254 51.7227C51.6309 51.7435 51.6855 51.7969 51.6895 51.8828C51.6921 51.9466 51.6712 51.9974 51.627 52.0352C51.5879 52.0677 51.5391 52.084 51.4805 52.084C51.4427 52.084 51.3861 52.0814 51.3105 52.0762C51.235 52.0723 51.1784 52.0703 51.1406 52.0703C50.9427 52.0703 50.6452 52.0749 50.248 52.084C49.8522 52.0944 49.5553 52.0996 49.3574 52.0996C49.2077 52.0996 49.1328 52.0339 49.1328 51.9023C49.1328 51.8164 49.1732 51.7083 49.2539 51.5781L49.4629 51.2871L50.168 50.3066C50.4583 49.9225 50.7285 49.6243 50.9785 49.4121L50.2949 49.4512H49.5059C49.4915 49.4512 49.4701 49.4525 49.4414 49.4551C49.4141 49.4564 49.3939 49.457 49.3809 49.457C49.2428 49.457 49.1738 49.39 49.1738 49.2559C49.1738 49.1673 49.209 49.1087 49.2793 49.0801C49.3223 49.0618 49.3932 49.0527 49.4922 49.0527C49.582 49.0527 49.7155 49.0625 49.8926 49.082C50.071 49.1003 50.2051 49.1094 50.2949 49.1094C50.3952 49.1094 50.5449 49.1029 50.7441 49.0898C50.9447 49.0768 51.0957 49.0703 51.1973 49.0703C51.5319 49.0703 51.6992 49.1335 51.6992 49.2598C51.6992 49.3457 51.6237 49.4447 51.4727 49.5566ZM52.418 49.5273C52.3555 49.5273 52.3014 49.5052 52.2559 49.4609C52.2103 49.4167 52.1875 49.3633 52.1875 49.3008C52.1875 49.2383 52.2103 49.1849 52.2559 49.1406C52.3014 49.0964 52.3555 49.0742 52.418 49.0742C52.4805 49.0742 52.5339 49.0964 52.5781 49.1406C52.6237 49.1849 52.6465 49.2383 52.6465 49.3008C52.6465 49.3633 52.6237 49.4167 52.5781 49.4609C52.5339 49.5052 52.4805 49.5273 52.418 49.5273ZM52.5059 51.1133C52.5059 51.1914 52.5078 51.3086 52.5117 51.4648C52.5169 51.6198 52.5195 51.7363 52.5195 51.8145C52.5195 51.8717 52.502 51.9186 52.4668 51.9551C52.4316 51.9915 52.3854 52.0098 52.3281 52.0098C52.2721 52.0098 52.2259 51.9915 52.1895 51.9551C52.1543 51.9186 52.1367 51.8717 52.1367 51.8145C52.1367 51.7363 52.1341 51.6198 52.1289 51.4648C52.125 51.3086 52.123 51.1914 52.123 51.1133C52.123 50.9909 52.1296 50.8385 52.1426 50.6562C52.1556 50.4727 52.1621 50.3197 52.1621 50.1973C52.1621 50.1387 52.1797 50.0911 52.2148 50.0547C52.2513 50.0182 52.2975 50 52.3535 50C52.4095 50 52.4551 50.0182 52.4902 50.0547C52.5267 50.0911 52.5449 50.1387 52.5449 50.1973C52.5449 50.3197 52.5384 50.4727 52.5254 50.6562C52.5124 50.8385 52.5059 50.9909 52.5059 51.1133ZM54.4844 50.4961C54.4128 50.4961 54.3626 50.472 54.334 50.4238C54.3145 50.39 54.2975 50.3197 54.2832 50.2129C54.1855 50.2376 54.0352 50.2832 53.832 50.3496C53.6224 50.4329 53.5169 50.5358 53.5156 50.6582C53.5547 50.6725 53.5931 50.6829 53.6309 50.6895C53.9303 50.7428 54.153 50.8164 54.2988 50.9102C54.5111 51.0469 54.6172 51.2448 54.6172 51.5039C54.6172 51.7161 54.5254 51.8763 54.3418 51.9844C54.1895 52.0729 53.9967 52.1172 53.7637 52.1172C53.5931 52.1172 53.4303 52.0885 53.2754 52.0312C53.0749 51.9583 52.9746 51.8568 52.9746 51.7266C52.9746 51.6745 52.9948 51.6289 53.0352 51.5898C53.0768 51.5508 53.1237 51.5312 53.1758 51.5312C53.2161 51.5312 53.2682 51.5625 53.332 51.625C53.3633 51.6549 53.4336 51.6797 53.543 51.6992C53.6302 51.7148 53.7038 51.7227 53.7637 51.7227C53.873 51.7227 53.9694 51.7096 54.0527 51.6836C54.1738 51.6458 54.2344 51.5859 54.2344 51.5039C54.2344 51.3268 54.1107 51.207 53.8633 51.1445L53.6602 51.0996C53.487 51.0618 53.3639 51.0176 53.291 50.9668C53.1855 50.8939 53.1328 50.7839 53.1328 50.6367C53.1328 50.3646 53.2611 50.1706 53.5176 50.0547C53.5957 50.0195 53.7207 49.9779 53.8926 49.9297C54.0645 49.8802 54.1875 49.8385 54.2617 49.8047C54.3151 49.7812 54.373 49.7695 54.4355 49.7695C54.4915 49.7695 54.5371 49.7878 54.5723 49.8242C54.6087 49.8607 54.627 49.9082 54.627 49.9668C54.627 50.0046 54.6348 50.0599 54.6504 50.1328C54.6673 50.2057 54.6758 50.2611 54.6758 50.2988C54.6758 50.3574 54.6576 50.4049 54.6211 50.4414C54.5859 50.4779 54.5404 50.4961 54.4844 50.4961ZM56.6836 49.5273C56.6211 49.5273 56.5671 49.5052 56.5215 49.4609C56.4759 49.4167 56.4531 49.3633 56.4531 49.3008C56.4531 49.2383 56.4759 49.1849 56.5215 49.1406C56.5671 49.0964 56.6211 49.0742 56.6836 49.0742C56.7461 49.0742 56.7995 49.0964 56.8438 49.1406C56.8893 49.1849 56.9121 49.2383 56.9121 49.3008C56.9121 49.3633 56.8893 49.4167 56.8438 49.4609C56.7995 49.5052 56.7461 49.5273 56.6836 49.5273ZM56.7715 51.1133C56.7715 51.1914 56.7734 51.3086 56.7773 51.4648C56.7826 51.6198 56.7852 51.7363 56.7852 51.8145C56.7852 51.8717 56.7676 51.9186 56.7324 51.9551C56.6973 51.9915 56.651 52.0098 56.5938 52.0098C56.5378 52.0098 56.4915 51.9915 56.4551 51.9551C56.4199 51.9186 56.4023 51.8717 56.4023 51.8145C56.4023 51.7363 56.3997 51.6198 56.3945 51.4648C56.3906 51.3086 56.3887 51.1914 56.3887 51.1133C56.3887 50.9909 56.3952 50.8385 56.4082 50.6562C56.4212 50.4727 56.4277 50.3197 56.4277 50.1973C56.4277 50.1387 56.4453 50.0911 56.4805 50.0547C56.5169 50.0182 56.5632 50 56.6191 50C56.6751 50 56.7207 50.0182 56.7559 50.0547C56.7923 50.0911 56.8105 50.1387 56.8105 50.1973C56.8105 50.3197 56.804 50.4727 56.791 50.6562C56.778 50.8385 56.7715 50.9909 56.7715 51.1133ZM58.75 50.4961C58.6784 50.4961 58.6283 50.472 58.5996 50.4238C58.5801 50.39 58.5632 50.3197 58.5488 50.2129C58.4512 50.2376 58.3008 50.2832 58.0977 50.3496C57.888 50.4329 57.7826 50.5358 57.7812 50.6582C57.8203 50.6725 57.8587 50.6829 57.8965 50.6895C58.196 50.7428 58.4186 50.8164 58.5645 50.9102C58.7767 51.0469 58.8828 51.2448 58.8828 51.5039C58.8828 51.7161 58.791 51.8763 58.6074 51.9844C58.4551 52.0729 58.2624 52.1172 58.0293 52.1172C57.8587 52.1172 57.696 52.0885 57.541 52.0312C57.3405 51.9583 57.2402 51.8568 57.2402 51.7266C57.2402 51.6745 57.2604 51.6289 57.3008 51.5898C57.3424 51.5508 57.3893 51.5312 57.4414 51.5312C57.4818 51.5312 57.5339 51.5625 57.5977 51.625C57.6289 51.6549 57.6992 51.6797 57.8086 51.6992C57.8958 51.7148 57.9694 51.7227 58.0293 51.7227C58.1387 51.7227 58.235 51.7096 58.3184 51.6836C58.4395 51.6458 58.5 51.5859 58.5 51.5039C58.5 51.3268 58.3763 51.207 58.1289 51.1445L57.9258 51.0996C57.7526 51.0618 57.6296 51.0176 57.5566 50.9668C57.4512 50.8939 57.3984 50.7839 57.3984 50.6367C57.3984 50.3646 57.5267 50.1706 57.7832 50.0547C57.8613 50.0195 57.9863 49.9779 58.1582 49.9297C58.3301 49.8802 58.4531 49.8385 58.5273 49.8047C58.5807 49.7812 58.6387 49.7695 58.7012 49.7695C58.7572 49.7695 58.8027 49.7878 58.8379 49.8242C58.8743 49.8607 58.8926 49.9082 58.8926 49.9668C58.8926 50.0046 58.9004 50.0599 58.916 50.1328C58.9329 50.2057 58.9414 50.2611 58.9414 50.2988C58.9414 50.3574 58.9232 50.4049 58.8867 50.4414C58.8516 50.4779 58.806 50.4961 58.75 50.4961ZM62.8438 50.8184C62.763 51.2181 62.5931 51.5378 62.334 51.7773C62.0762 52.0156 61.7715 52.1348 61.4199 52.1348C61.0996 52.1348 60.8594 52.0456 60.6992 51.8672C60.5391 51.6875 60.459 51.4186 60.459 51.0605C60.459 50.7233 60.5384 50.3763 60.6973 50.0195C60.8574 49.6615 61.0625 49.3724 61.3125 49.1523C61.4792 49.0052 61.6556 48.9316 61.8418 48.9316C61.9603 48.9316 62.1165 48.9707 62.3105 49.0488C62.5475 49.1426 62.666 49.2461 62.666 49.3594C62.666 49.4128 62.6465 49.4603 62.6074 49.502C62.5684 49.5436 62.5215 49.5645 62.4668 49.5645C62.4382 49.5645 62.3978 49.5482 62.3457 49.5156C62.1465 49.3945 61.9785 49.334 61.8418 49.334C61.7441 49.334 61.6419 49.3848 61.5352 49.4863C61.4818 49.5371 61.4049 49.6296 61.3047 49.7637C61.0039 50.1621 60.8535 50.5944 60.8535 51.0605C60.8535 51.3053 60.8913 51.4766 60.9668 51.5742C61.0488 51.681 61.1999 51.7344 61.4199 51.7344C61.653 51.7344 61.8555 51.6608 62.0273 51.5137C62.2083 51.3574 62.3346 51.1341 62.4062 50.8438C62.0456 50.862 61.7363 50.9316 61.4785 51.0527C61.4486 51.0671 61.4193 51.0742 61.3906 51.0742C61.3333 51.0742 61.2858 51.0521 61.248 51.0078C61.2129 50.9674 61.1953 50.9206 61.1953 50.8672C61.1953 50.7956 61.2298 50.7383 61.2988 50.6953C61.5801 50.5234 62.0651 50.4375 62.7539 50.4375C62.8099 50.4375 62.8568 50.4564 62.8945 50.4941C62.9323 50.5319 62.9512 50.5794 62.9512 50.6367C62.9512 50.7214 62.9154 50.7819 62.8438 50.8184ZM65.2012 49.3711C65.1829 49.3711 65.1628 49.3678 65.1406 49.3613C64.9206 49.2988 64.7083 49.2676 64.5039 49.2676C64.3971 49.2676 64.2806 49.2773 64.1543 49.2969C64.028 49.3164 63.8919 49.3464 63.7461 49.3867C63.7578 49.4714 63.7637 49.5391 63.7637 49.5898C63.7637 49.7708 63.7526 50.0195 63.7305 50.3359L64.5859 50.2539C64.8372 50.2279 64.9915 50.2148 65.0488 50.2148C65.1061 50.2148 65.1543 50.2331 65.1934 50.2695C65.2324 50.306 65.252 50.3548 65.252 50.416C65.252 50.5345 65.1921 50.6009 65.0723 50.6152L64.6074 50.6562L63.7051 50.7383C63.6999 50.8307 63.6953 50.9186 63.6914 51.002C63.6888 51.084 63.6875 51.1608 63.6875 51.2324C63.6875 51.5202 63.7083 51.6895 63.75 51.7402C63.7812 51.7767 63.8835 51.7949 64.0566 51.7949C64.1374 51.7949 64.2585 51.793 64.4199 51.7891C64.5827 51.7839 64.7051 51.7812 64.7871 51.7812C64.8132 51.7812 64.8516 51.7773 64.9023 51.7695C64.9531 51.7604 64.9909 51.7559 65.0156 51.7559C65.1536 51.7559 65.2227 51.8236 65.2227 51.959C65.2227 52.0684 65.1673 52.1341 65.0566 52.1562C64.9342 52.181 64.6693 52.1934 64.2617 52.1934C63.8581 52.1934 63.599 52.14 63.4844 52.0332C63.3594 51.9173 63.2969 51.6504 63.2969 51.2324C63.2969 51.1491 63.2988 51.0579 63.3027 50.959C63.3066 50.86 63.3118 50.7533 63.3184 50.6387C63.304 50.6087 63.2969 50.5768 63.2969 50.543C63.2969 50.4987 63.3092 50.459 63.334 50.4238C63.36 50.0475 63.373 49.7695 63.373 49.5898C63.373 49.5417 63.3665 49.4714 63.3535 49.3789C63.3405 49.2852 63.334 49.2142 63.334 49.166C63.334 49.0111 63.3991 48.9336 63.5293 48.9336C63.584 48.9336 63.6309 48.9525 63.6699 48.9902C63.8262 48.9486 63.9733 48.9173 64.1113 48.8965C64.2507 48.8757 64.3815 48.8652 64.5039 48.8652C64.8203 48.8652 65.0729 48.903 65.2617 48.9785C65.349 49.0137 65.3926 49.0762 65.3926 49.166C65.3926 49.2181 65.3757 49.2643 65.3418 49.3047C65.304 49.349 65.2572 49.3711 65.2012 49.3711ZM67.7227 52.0215C67.6732 52.0215 67.627 52.0007 67.584 51.959C67.153 51.5332 66.6738 51.2467 66.1465 51.0996L66.1621 51.4824L66.1719 51.8672C66.1719 51.9245 66.153 51.972 66.1152 52.0098C66.0788 52.0488 66.0326 52.0684 65.9766 52.0684C65.9206 52.0684 65.8737 52.0488 65.8359 52.0098C65.7995 51.972 65.7812 51.9245 65.7812 51.8672C65.7812 51.7643 65.776 51.6113 65.7656 51.4082C65.7565 51.2038 65.752 51.0501 65.752 50.9473C65.752 50.8275 65.765 50.6491 65.791 50.4121C65.8171 50.1751 65.8301 49.9974 65.8301 49.8789C65.8301 49.8125 65.8236 49.7142 65.8105 49.584C65.7988 49.4538 65.793 49.3555 65.793 49.2891C65.793 49.2148 65.8138 49.1497 65.8555 49.0938C65.9049 49.0247 65.9733 48.9935 66.0605 49L66.5312 49.0371C66.7096 49.0592 66.86 49.1029 66.9824 49.168C67.5098 49.4479 67.7734 49.7897 67.7734 50.1934C67.7734 50.3913 67.6836 50.5664 67.5039 50.7188C67.3594 50.8411 67.179 50.9342 66.9629 50.998C67.3678 51.2155 67.6706 51.4447 67.8711 51.6855C67.9049 51.7272 67.9219 51.7715 67.9219 51.8184C67.9219 51.873 67.9017 51.9206 67.8613 51.9609C67.8223 52.0013 67.776 52.0215 67.7227 52.0215ZM66.4785 49.4395L66.1895 49.416L66.209 49.6523C66.2181 49.7487 66.2227 49.8275 66.2227 49.8887C66.2227 49.9928 66.2142 50.1224 66.1973 50.2773L66.1562 50.666C66.1745 50.666 66.2025 50.6667 66.2402 50.668C66.2793 50.6693 66.3086 50.6699 66.3281 50.6699C66.6602 50.6699 66.9089 50.6257 67.0742 50.5371C67.1471 50.4967 67.2148 50.444 67.2773 50.3789C67.3464 50.306 67.3809 50.2441 67.3809 50.1934C67.3809 50.0124 67.278 49.8438 67.0723 49.6875C66.8835 49.5443 66.6855 49.4616 66.4785 49.4395ZM71.2129 52.1621C71.1426 52.1621 71.0846 52.1257 71.0391 52.0527C71 51.9902 70.9648 51.8861 70.9336 51.7402L70.8633 51.4043C70.8099 51.196 70.7253 50.7363 70.6094 50.0254L70.2188 51.2031L70.1035 51.5742C70.0566 51.7214 70.0078 51.8418 69.957 51.9355C69.9023 52.0345 69.8288 52.084 69.7363 52.084C69.6595 52.084 69.599 52.0423 69.5547 51.959C69.526 51.9043 69.5 51.8346 69.4766 51.75L69.4199 51.5332C69.2884 51.0736 69.1725 50.5814 69.0723 50.0566L69.002 50.4062L68.75 51.4375C68.7396 51.5586 68.707 51.7376 68.6523 51.9746C68.6133 52.0762 68.5488 52.127 68.459 52.127C68.3952 52.127 68.3444 52.1042 68.3066 52.0586C68.2741 52.0195 68.2578 51.9714 68.2578 51.9141C68.2578 51.6966 68.3027 51.4297 68.3926 51.1133L68.6074 50.3262L68.7207 49.7109C68.778 49.4232 68.8385 49.235 68.9023 49.1465C68.9544 49.071 69.0189 49.0332 69.0957 49.0332C69.1803 49.0332 69.2435 49.0814 69.2852 49.1777C69.3359 49.2936 69.3906 49.5299 69.4492 49.8867C69.5182 50.3151 69.6257 50.7786 69.7715 51.2773C69.9642 50.776 70.1309 50.2539 70.2715 49.7109L70.3301 49.4258C70.3535 49.3112 70.3841 49.2188 70.4219 49.1484C70.4727 49.0521 70.5423 49.0039 70.6309 49.0039C70.7428 49.0039 70.8281 49.112 70.8867 49.3281C70.9076 49.4023 70.9329 49.556 70.9629 49.7891C71.0397 50.3776 71.1354 50.8802 71.25 51.2969L71.3457 51.6328C71.3952 51.8125 71.4199 51.9232 71.4199 51.9648C71.4199 52.0208 71.3984 52.0677 71.3555 52.1055C71.3138 52.1432 71.2663 52.1621 71.2129 52.1621ZM74.0117 52.0586C73.8919 52.0586 73.7878 51.9049 73.6992 51.5977C73.6654 51.4805 73.623 51.2754 73.5723 50.9824C73.4395 51.0007 73.2656 51.0332 73.0508 51.0801L72.5312 51.1875C72.4661 51.3581 72.3548 51.6074 72.1973 51.9355C72.1556 52.0085 72.099 52.0449 72.0273 52.0449C71.9753 52.0449 71.9284 52.026 71.8867 51.9883C71.8464 51.9505 71.8262 51.9036 71.8262 51.8477C71.8262 51.7852 71.9245 51.5475 72.1211 51.1348C72.099 51.1009 72.0879 51.0618 72.0879 51.0176C72.0879 50.9121 72.1517 50.8444 72.2793 50.8145C72.4277 50.5358 72.6152 50.2155 72.8418 49.8535C73.1504 49.36 73.3424 49.1133 73.418 49.1133C73.5208 49.1133 73.5911 49.1849 73.6289 49.3281L73.752 49.9844L74.043 51.3418L74.1543 51.6504C74.1921 51.7559 74.2109 51.8262 74.2109 51.8613C74.2109 51.9173 74.1908 51.9642 74.1504 52.002C74.11 52.0397 74.0638 52.0586 74.0117 52.0586ZM73.3223 49.8262L72.7637 50.7266C72.9212 50.6862 73.1602 50.6374 73.4805 50.5801L73.3223 49.8262ZM77.5059 51.5664C77.5059 51.6289 77.4954 51.7331 77.4746 51.8789C77.4538 52.0104 77.3841 52.0762 77.2656 52.0762C77.194 52.0762 77.1087 52.0293 77.0098 51.9355C76.4798 51.4342 75.8717 50.7109 75.1855 49.7656L75.1758 50.209L75.1699 50.6543C75.1699 50.7624 75.1719 50.9245 75.1758 51.1406C75.181 51.3568 75.1836 51.5195 75.1836 51.6289C75.1836 51.9792 75.1159 52.1543 74.9805 52.1543C74.9089 52.1543 74.8522 52.1315 74.8105 52.0859C74.7728 52.0456 74.7539 51.9974 74.7539 51.9414C74.7539 51.8867 74.7578 51.804 74.7656 51.6934C74.7747 51.5827 74.7793 51.5 74.7793 51.4453C74.7793 51.3646 74.7819 51.2441 74.7871 51.084C74.7923 50.9225 74.7949 50.8014 74.7949 50.7207C74.7949 50.6348 74.793 50.5052 74.7891 50.332C74.7852 50.1576 74.7832 50.0273 74.7832 49.9414C74.7832 49.8594 74.7754 49.7376 74.7598 49.5762C74.7441 49.4134 74.7363 49.291 74.7363 49.209C74.7363 49.1491 74.7617 49.0944 74.8125 49.0449C74.8646 48.9954 74.9232 48.9707 74.9883 48.9707C75.0573 48.9707 75.1426 49.0462 75.2441 49.1973C75.5684 49.6829 75.86 50.0866 76.1191 50.4082C76.4277 50.7897 76.7663 51.1543 77.1348 51.502C77.1387 51.446 77.1387 51.3633 77.1348 51.2539L77.1289 51.0078C77.1289 50.4362 77.1068 49.9811 77.0625 49.6426C77.0573 49.6087 77.0397 49.5404 77.0098 49.4375C76.9837 49.349 76.9707 49.2799 76.9707 49.2305C76.9707 49.0794 77.0397 49.0039 77.1777 49.0039C77.4043 49.0039 77.5176 49.4264 77.5176 50.2715C77.5176 50.416 77.5156 50.6322 77.5117 50.9199C77.5078 51.2064 77.5059 51.4219 77.5059 51.5664ZM80.4629 49.2539C80.1478 49.2539 79.9714 49.4727 79.9336 49.9102L79.9277 50.0312C80.1491 50.0156 80.2923 50.0078 80.3574 50.0078C80.5645 50.0078 80.668 50.0729 80.668 50.2031C80.668 50.2982 80.6172 50.3548 80.5156 50.373C80.4714 50.3809 80.4193 50.3841 80.3594 50.3828C80.3008 50.3802 80.151 50.3887 79.9102 50.4082L79.8945 50.8535C79.8945 50.9342 79.8971 51.0553 79.9023 51.2168C79.9076 51.3783 79.9102 51.4987 79.9102 51.5781C79.9102 51.8255 79.8958 52.0182 79.8672 52.1562C79.8451 52.2604 79.7845 52.3125 79.6855 52.3125C79.6322 52.3125 79.5866 52.2949 79.5488 52.2598C79.5111 52.2259 79.4922 52.1829 79.4922 52.1309C79.4922 52.1204 79.4935 52.1074 79.4961 52.0918C79.5234 51.9225 79.5371 51.7383 79.5371 51.5391L79.5312 51.0059V50.4395C79.3685 50.4525 79.2656 50.459 79.2227 50.459C79.0911 50.459 79.0254 50.3958 79.0254 50.2695C79.0254 50.1406 79.1393 50.0729 79.3672 50.0664L79.5547 50.0605C79.5586 49.9876 79.5684 49.8887 79.584 49.7637C79.6178 49.4746 79.6908 49.2617 79.8027 49.125C79.9382 48.9596 80.1497 48.877 80.4375 48.877C80.6237 48.877 80.7168 48.9401 80.7168 49.0664C80.7168 49.1914 80.6322 49.2539 80.4629 49.2539ZM81.918 52.1152C81.6992 52.1152 81.5111 52.0345 81.3535 51.873C81.1777 51.6934 81.0853 51.4518 81.0762 51.1484C81.0684 50.8542 81.1426 50.5951 81.2988 50.3711C81.4811 50.1068 81.735 49.9746 82.0605 49.9746C82.321 49.9746 82.5182 50.0938 82.6523 50.332C82.7591 50.5247 82.8105 50.7565 82.8066 51.0273C82.8027 51.3164 82.7272 51.5632 82.5801 51.7676C82.4134 51.9993 82.1927 52.1152 81.918 52.1152ZM82.0352 50.3711C81.8438 50.3698 81.6947 50.4609 81.5879 50.6445C81.5033 50.7917 81.4609 50.9596 81.4609 51.1484C81.4609 51.3372 81.5124 51.4844 81.6152 51.5898C81.7012 51.6771 81.8021 51.7207 81.918 51.7207C82.0534 51.7207 82.1699 51.6712 82.2676 51.5723C82.3783 51.4629 82.4368 51.3151 82.4434 51.1289C82.4616 50.625 82.3255 50.3724 82.0352 50.3711ZM84.8105 50.5566C84.8014 50.7194 84.7363 50.8008 84.6152 50.8008C84.5033 50.8008 84.4473 50.7363 84.4473 50.6074C84.4473 50.5827 84.4453 50.5371 84.4414 50.4707L84.4355 50.3066C84.2298 50.3314 84.0651 50.3893 83.9414 50.4805C83.8255 50.5651 83.7292 50.6927 83.6523 50.8633L83.6562 51.9336C83.6562 52.0651 83.5918 52.1309 83.4629 52.1309C83.3483 52.1309 83.291 52.0651 83.291 51.9336V50.5625C83.291 50.5195 83.2923 50.4551 83.2949 50.3691C83.2988 50.2832 83.3008 50.2188 83.3008 50.1758C83.3008 50.0443 83.3581 49.9785 83.4727 49.9785C83.6003 49.9785 83.6647 50.0866 83.666 50.3027C83.916 50.0618 84.1934 49.9414 84.498 49.9414C84.6035 49.9414 84.6823 49.9811 84.7344 50.0605C84.7865 50.14 84.8125 50.2598 84.8125 50.4199C84.8125 50.4876 84.8118 50.5332 84.8105 50.5566ZM87.2598 49.873C87.1725 49.873 87.1152 49.8294 87.0879 49.7422C86.9499 49.2969 86.8809 49.056 86.8809 49.0195C86.8809 48.9688 86.8991 48.9271 86.9355 48.8945C86.972 48.862 87.0156 48.8457 87.0664 48.8457C87.1589 48.8457 87.2161 48.8939 87.2383 48.9902L87.3535 49.3633C87.4121 49.5469 87.4414 49.6582 87.4414 49.6973C87.4414 49.7467 87.4232 49.7884 87.3867 49.8223C87.3516 49.8561 87.3092 49.873 87.2598 49.873ZM86.6328 49.8672C86.5547 49.8672 86.5 49.8294 86.4688 49.7539C86.4505 49.7122 86.4141 49.5964 86.3594 49.4062C86.3034 49.2109 86.2754 49.0996 86.2754 49.0723C86.2754 49.0228 86.2936 48.9818 86.3301 48.9492C86.3678 48.9154 86.4121 48.8984 86.4629 48.8984C86.5462 48.8984 86.6016 48.9414 86.6289 49.0273L86.7285 49.375L86.8164 49.6895C86.8164 49.7389 86.7975 49.7812 86.7598 49.8164C86.7233 49.8503 86.681 49.8672 86.6328 49.8672ZM89.4414 51.9219C89.1484 52.0365 88.7741 52.0938 88.3184 52.0938C88.2624 52.0938 88.209 52.0671 88.1582 52.0137C88.1087 51.9616 88.084 51.9076 88.084 51.8516V51.2832C88.084 51.097 88.0957 50.8314 88.1191 50.4863C88.1452 50.1139 88.1595 49.8444 88.1621 49.6777C88.1608 49.5579 88.168 49.3796 88.1836 49.1426C88.1927 49.0775 88.2142 49.0345 88.248 49.0137C88.4251 48.959 88.6263 48.9316 88.8516 48.9316C89.0807 48.9316 89.3008 49.0098 89.5117 49.166C89.7552 49.3457 89.877 49.5677 89.877 49.832C89.877 50.1667 89.7467 50.4303 89.4863 50.623C89.6816 50.7064 89.8275 50.7988 89.9238 50.9004C90.0215 51.002 90.0703 51.1126 90.0703 51.2324C90.0703 51.39 89.985 51.5423 89.8145 51.6895C89.696 51.7936 89.5716 51.8711 89.4414 51.9219ZM88.8516 49.3301C88.7096 49.3301 88.61 49.3346 88.5527 49.3438L88.5488 49.6855L88.5098 50.4414C88.6947 50.457 88.7936 50.4642 88.8066 50.4629C89.0033 50.4473 89.1641 50.3861 89.2891 50.2793C89.4232 50.1634 89.4902 50.0143 89.4902 49.832C89.4902 49.7083 89.4219 49.5938 89.2852 49.4883C89.1484 49.3828 89.0039 49.3301 88.8516 49.3301ZM89.0703 50.8945L88.8633 50.8613C88.8464 50.8613 88.8203 50.8626 88.7852 50.8652C88.7513 50.8665 88.7253 50.8672 88.707 50.8672C88.6367 50.8672 88.5618 50.8613 88.4824 50.8496C88.4746 51.0137 88.4707 51.1602 88.4707 51.2891V51.6934C88.8118 51.6816 89.0898 51.6335 89.3047 51.5488C89.3958 51.5137 89.4831 51.459 89.5664 51.3848C89.6458 51.3171 89.6855 51.2663 89.6855 51.2324C89.6855 51.1712 89.6022 51.1022 89.4355 51.0254C89.3105 50.9668 89.1888 50.9232 89.0703 50.8945ZM92.209 50.2578L91.5332 51.7188C91.3665 52.0742 91.2389 52.3717 91.1504 52.6113L91.0215 52.9902C90.9876 53.084 90.929 53.1309 90.8457 53.1309C90.791 53.1309 90.7435 53.1126 90.7031 53.0762C90.6641 53.041 90.6445 52.9967 90.6445 52.9434C90.6445 52.8132 90.7852 52.4362 91.0664 51.8125L90.3672 50.4668L90.2793 50.3242C90.2441 50.2643 90.2266 50.2142 90.2266 50.1738C90.2266 50.1204 90.2467 50.0736 90.2871 50.0332C90.3288 49.9928 90.375 49.9727 90.4258 49.9727C90.4857 49.9727 90.5319 49.9954 90.5645 50.041C90.7858 50.3483 91.0234 50.7858 91.2773 51.3535L91.5664 50.6797C91.6706 50.4466 91.7708 50.2461 91.8672 50.0781C91.9089 50.0052 91.9635 49.9688 92.0312 49.9688C92.0846 49.9688 92.1315 49.9876 92.1719 50.0254C92.2135 50.0632 92.2344 50.1081 92.2344 50.1602C92.2344 50.1888 92.2259 50.2214 92.209 50.2578ZM93.5 52.0898C93.2057 52.0898 92.9674 52.0163 92.7852 51.8691C92.5859 51.7064 92.4863 51.4785 92.4863 51.1855C92.4863 50.847 92.5684 50.5632 92.7324 50.334C92.9108 50.084 93.1491 49.959 93.4473 49.959C93.6634 49.959 93.8398 49.9954 93.9766 50.0684C94.1445 50.1582 94.2285 50.2962 94.2285 50.4824C94.2285 50.6126 94.1549 50.7311 94.0078 50.8379C93.9427 50.8848 93.8047 50.9577 93.5938 51.0566L92.8477 51.4102C92.9206 51.5182 93.0111 51.5996 93.1191 51.6543C93.2285 51.709 93.3555 51.7363 93.5 51.7363C93.5898 51.7363 93.6953 51.7194 93.8164 51.6855C93.9701 51.6426 94.069 51.5866 94.1133 51.5176C94.1576 51.4473 94.2051 51.4121 94.2559 51.4121C94.3014 51.4121 94.3418 51.4297 94.377 51.4648C94.4134 51.4987 94.4316 51.5384 94.4316 51.584C94.4316 51.7285 94.3151 51.8529 94.082 51.957C93.8828 52.0456 93.6888 52.0898 93.5 52.0898ZM93.4473 50.3105C93.2884 50.3105 93.1562 50.3724 93.0508 50.4961C92.9453 50.6185 92.8665 50.8034 92.8145 51.0508L93.4141 50.7656C93.6497 50.651 93.8177 50.5514 93.918 50.4668C93.806 50.3626 93.6491 50.3105 93.4473 50.3105ZM95.5664 50.0508C95.5143 50.0508 95.4707 50.0345 95.4355 50.002C95.4004 49.9681 95.3828 49.9251 95.3828 49.873C95.3828 49.7272 95.446 49.4518 95.5723 49.0469C95.6009 48.9583 95.6569 48.9141 95.7402 48.9141C95.791 48.9141 95.8346 48.931 95.8711 48.9648C95.9089 48.9987 95.9277 49.0404 95.9277 49.0898L95.8125 49.5195C95.7826 49.6328 95.7591 49.7546 95.7422 49.8848C95.7292 49.9954 95.6706 50.0508 95.5664 50.0508ZM94.8945 50.0508C94.8424 50.0508 94.7988 50.0345 94.7637 50.002C94.7285 49.9681 94.7109 49.9251 94.7109 49.873C94.7109 49.7272 94.7741 49.4518 94.9004 49.0469C94.929 48.9583 94.985 48.9141 95.0684 48.9141C95.1191 48.9141 95.1628 48.931 95.1992 48.9648C95.237 48.9987 95.2559 49.0404 95.2559 49.0898L95.1406 49.5195C95.1107 49.6328 95.0872 49.7546 95.0703 49.8848C95.0573 49.9954 94.9987 50.0508 94.8945 50.0508Z" fill="white"/>
<path d="M123.13 64.2136C123.248 64.1419 123.285 63.9881 123.214 63.8701L122.045 61.9475C121.973 61.8295 121.819 61.792 121.701 61.8637C121.583 61.9354 121.546 62.0892 121.618 62.2072L122.657 63.9162L120.947 64.9551C120.829 65.0268 120.792 65.1806 120.864 65.2985C120.935 65.4165 121.089 65.454 121.207 65.3823L123.13 64.2136ZM81.9408 54.2429L122.941 64.2429L123.059 63.7571L82.0592 53.7571L81.9408 54.2429Z" fill="white"/>
</svg>
