<svg width="200" height="200" viewBox="0 0 200 200" fill="none" xmlns="http://www.w3.org/2000/svg">
<rect width="200" height="200" fill="white"/>
<path d="M51 133.846H52C52 133.846 51.5212 138.244 50 140.931C47.785 144.843 42 150 42 150H41C41 150 46.785 144.843 49 140.931C50.5212 138.244 51 133.846 51 133.846Z" fill="#C4C4C4"/>
<path d="M53 133.846H52C52 133.846 52.4788 138.244 54 140.931C56.215 144.843 62 150 62 150H63C63 150 57.215 144.843 55 140.931C53.4788 138.244 53 133.846 53 133.846Z" fill="#C4C4C4"/>
<path d="M43.8947 128.677C45.6316 127.385 58.3684 127.385 60.1053 128.677C61.8421 129.969 63 133.846 63 133.846H41C41 133.846 42.1579 129.969 43.8947 128.677Z" fill="#C4C4C4"/>
<path d="M45.9668 110.721C47.0637 112.353 47.0637 124.324 45.9668 125.956C44.8698 127.589 41.5789 128.677 41.5789 128.677V108C41.5789 108 44.8698 109.088 45.9668 110.721Z" fill="#C4C4C4"/>
<rect x="41" y="108" width="0.578947" height="25.8462" fill="#C4C4C4"/>
<path d="M60 86.5C60 90.6421 56.6421 94 52.5 94C48.3579 94 45 90.6421 45 86.5C45 82.3579 48.3579 79 52.5 79C56.6421 79 60 82.3579 60 86.5ZM46.1013 86.5C46.1013 90.0339 48.9661 92.8987 52.5 92.8987C56.0339 92.8987 58.8987 90.0339 58.8987 86.5C58.8987 82.9661 56.0339 80.1013 52.5 80.1013C48.9661 80.1013 46.1013 82.9661 46.1013 86.5Z" fill="black"/>
<rect x="48" y="127" width="1" height="17.5" transform="rotate(-90 48 127)" fill="black"/>
<rect x="49.0934" y="126.63" width="1" height="17.5" transform="rotate(-95.3593 49.0934 126.63)" fill="black"/>
<rect x="48" y="95.7721" width="1" height="17.5" transform="rotate(-50.5445 48 95.7721)" fill="black"/>
<rect x="48" y="95.918" width="1" height="17.5" transform="rotate(-66.6412 48 95.918)" fill="black"/>
<rect x="61" y="107" width="1" height="17.5" transform="rotate(-88.4026 61 107)" fill="black"/>
<rect x="64" y="103" width="1" height="13.6304" transform="rotate(-89.377 64 103)" fill="black"/>
<rect x="65" y="126.374" width="1" height="17.5" transform="rotate(-21.9829 65 126.374)" fill="black"/>
<rect x="66" y="124.374" width="1" height="17.5" transform="rotate(-21.9829 66 124.374)" fill="black"/>
<rect x="48" y="92" width="1" height="35" fill="black"/>
<rect x="82.9344" y="95" width="1" height="18" transform="rotate(19.2499 82.9344 95)" fill="#C4C4C4"/>
<rect x="81" y="101" width="1" height="11" fill="#C4C4C4"/>
<rect x="67" y="112" width="52" height="3" fill="#C4C4C4"/>
<rect x="77" y="115" width="3" height="35" fill="#C4C4C4"/>
<rect x="106" y="115" width="3" height="35" fill="#C4C4C4"/>
<ellipse cx="78.5" cy="65" rx="17.5" ry="8" fill="#C4C4C4"/>
<path d="M72.2656 62.8721C72.2363 62.9541 72.2217 63.0742 72.2217 63.2324C72.2217 63.291 72.2236 63.3779 72.2275 63.4932C72.2314 63.6084 72.2334 63.6953 72.2334 63.7539C72.2334 63.9492 72.2158 64.2402 72.1807 64.627C72.1475 65.0137 72.1309 65.3047 72.1309 65.5C72.1309 65.6484 72.1416 65.8711 72.1631 66.168C72.1846 66.4648 72.1953 66.6885 72.1953 66.8389C72.1953 66.9189 72.168 66.9863 72.1133 67.041C72.0605 67.0957 71.9941 67.123 71.9141 67.123C71.8359 67.123 71.7695 67.0957 71.7148 67.041C71.6602 66.9863 71.6328 66.9189 71.6328 66.8389C71.6328 66.6885 71.6221 66.4648 71.6006 66.168C71.5791 65.8711 71.5684 65.6484 71.5684 65.5C71.5684 65.3574 71.5732 65.2129 71.583 65.0664C71.249 65.0723 70.8359 65.1221 70.3438 65.2158L69.1133 65.4561C69.1133 65.6318 69.0957 65.8818 69.0605 66.2061C69.0254 66.5283 69.0078 66.7783 69.0078 66.9561C69.0078 67.0361 68.9805 67.1035 68.9258 67.1582C68.873 67.2148 68.8066 67.2432 68.7266 67.2432C68.6465 67.2432 68.5791 67.2148 68.5244 67.1582C68.4717 67.1035 68.4453 67.0361 68.4453 66.9561C68.4453 66.749 68.4619 66.4404 68.4951 66.0303C68.5303 65.6182 68.5479 65.3086 68.5479 65.1016C68.5479 64.9941 68.5439 64.832 68.5361 64.6152C68.5283 64.3984 68.5244 64.2354 68.5244 64.126C68.5244 63.9717 68.5342 63.7402 68.5537 63.4316C68.5732 63.1211 68.583 62.8887 68.583 62.7344C68.583 62.6523 68.6094 62.584 68.6621 62.5293C68.7168 62.4746 68.7842 62.4473 68.8643 62.4473C68.9443 62.4473 69.0107 62.4746 69.0635 62.5293C69.1182 62.584 69.1455 62.6523 69.1455 62.7344C69.1455 62.8906 69.1348 63.125 69.1133 63.4375C69.0938 63.748 69.084 63.9814 69.084 64.1377L69.1016 64.8789L70.3584 64.6416C70.8604 64.5479 71.2832 64.499 71.627 64.4951C71.6484 64.2158 71.6592 63.7949 71.6592 63.2324C71.6592 63.084 71.6836 62.9336 71.7324 62.7812C71.7969 62.5723 71.8877 62.4678 72.0049 62.4678C72.0791 62.4678 72.1455 62.4951 72.2041 62.5498C72.2627 62.6025 72.292 62.6699 72.292 62.752C72.292 62.7812 72.2832 62.8213 72.2656 62.8721ZM75.3066 67.1934C75.2695 67.1934 75.2021 67.1504 75.1045 67.0645C75.0166 66.9844 74.9512 66.9131 74.9082 66.8506C74.7207 66.9521 74.5557 67.0283 74.4131 67.0791C74.2705 67.1318 74.1514 67.1582 74.0557 67.1582C73.5986 67.1582 73.2656 67.0293 73.0566 66.7715C72.8594 66.5293 72.7607 66.1582 72.7607 65.6582C72.7607 65.1855 72.9229 64.7812 73.2471 64.4453C73.5732 64.1094 73.9619 63.9414 74.4131 63.9414C74.583 63.9414 74.7734 63.9854 74.9844 64.0732C75.25 64.1826 75.3828 64.3145 75.3828 64.4688C75.3828 64.5215 75.3633 64.5684 75.3242 64.6094C75.3047 64.6836 75.2891 64.8057 75.2773 64.9756C75.2676 65.1455 75.2617 65.3633 75.2598 65.6289C75.2578 65.8711 75.2744 66.0625 75.3096 66.2031C75.3291 66.2891 75.3906 66.4609 75.4941 66.7188C75.5078 66.7539 75.5303 66.8057 75.5615 66.874L75.5791 66.9238C75.5791 67.002 75.5518 67.0664 75.4971 67.1172C75.4424 67.168 75.3789 67.1934 75.3066 67.1934ZM74.6973 65.1572C74.6973 65.0732 74.7021 64.9824 74.7119 64.8848C74.7236 64.7852 74.7402 64.6797 74.7617 64.5684C74.6895 64.5312 74.627 64.5039 74.5742 64.4863C74.5234 64.4688 74.4824 64.46 74.4512 64.46C74.1484 64.46 73.8867 64.584 73.666 64.832C73.4473 65.0781 73.3379 65.3623 73.3379 65.6846C73.3379 66.0049 73.3945 66.2451 73.5078 66.4053C73.6211 66.5654 73.791 66.6455 74.0176 66.6455C74.2051 66.6455 74.3643 66.6113 74.4951 66.543C74.5654 66.5059 74.6641 66.4316 74.791 66.3203C74.7285 65.8027 74.6973 65.415 74.6973 65.1572ZM77.4131 67.1846C77.0127 67.1846 76.6787 67.0635 76.4111 66.8213C76.1299 66.5674 75.9893 66.2324 75.9893 65.8164C75.9893 65.4199 76.1211 65.0107 76.3848 64.5889C76.6777 64.1201 77.0078 63.8857 77.375 63.8857C77.5664 63.8857 77.7803 63.9307 78.0166 64.0205C78.3154 64.1357 78.4648 64.2764 78.4648 64.4424C78.4648 64.5166 78.4404 64.583 78.3916 64.6416C78.3428 64.6982 78.2822 64.7266 78.21 64.7266C78.1533 64.7266 78.1035 64.71 78.0605 64.6768C78.0195 64.6416 77.9795 64.6074 77.9404 64.5742C77.8252 64.4824 77.6367 64.4365 77.375 64.4365C77.1758 64.4365 76.9785 64.6143 76.7832 64.9697C76.6055 65.2959 76.5166 65.5781 76.5166 65.8164C76.5166 66.0742 76.6045 66.2773 76.7803 66.4258C76.9443 66.5645 77.1553 66.6338 77.4131 66.6338C77.5303 66.6338 77.6553 66.6025 77.7881 66.54L78.1279 66.3584C78.1865 66.3271 78.2285 66.3115 78.2539 66.3115C78.3262 66.3115 78.3887 66.3408 78.4414 66.3994C78.4941 66.4561 78.5205 66.5215 78.5205 66.5957C78.5205 66.7383 78.3701 66.876 78.0693 67.0088C77.8057 67.126 77.5869 67.1846 77.4131 67.1846ZM81.6113 67.1201C81.5039 67.1201 81.4209 67.0635 81.3623 66.9502C81.2607 66.7529 81.1074 66.5195 80.9023 66.25L80.3838 65.5439C80.2705 65.6338 80.0947 65.7598 79.8564 65.9219C79.835 66.2246 79.8242 66.5195 79.8242 66.8066C79.8242 66.8945 79.7969 66.9658 79.7422 67.0205C79.6895 67.0752 79.6211 67.1025 79.5371 67.1025C79.3398 67.1025 79.2412 66.9697 79.2412 66.7041C79.2412 66.542 79.252 66.2998 79.2734 65.9775C79.2969 65.6533 79.3086 65.4102 79.3086 65.248C79.3086 64.9512 79.3125 64.6123 79.3203 64.2314C79.3301 63.8486 79.335 63.5107 79.335 63.2178C79.335 63.1299 79.3301 63.0264 79.3203 62.9072C79.3125 62.7881 79.3086 62.6846 79.3086 62.5967C79.3086 62.5088 79.335 62.4375 79.3877 62.3828C79.4424 62.3281 79.5117 62.3008 79.5957 62.3008C79.6797 62.3008 79.748 62.3281 79.8008 62.3828C79.8555 62.4375 79.8828 62.5088 79.8828 62.5967C79.8828 62.6865 79.8877 62.793 79.8975 62.916C79.9072 63.0371 79.9121 63.1426 79.9121 63.2324L79.8916 64.1758C79.8818 64.5156 79.8789 64.8555 79.8828 65.1953C80.1484 64.9922 80.4043 64.7695 80.6504 64.5273L81.2949 63.8623C81.3594 63.7959 81.4287 63.7627 81.5029 63.7627C81.5791 63.7627 81.6475 63.793 81.708 63.8535C81.7705 63.9141 81.8018 63.9844 81.8018 64.0645C81.8018 64.1309 81.7734 64.1963 81.7168 64.2607C81.4766 64.542 81.1807 64.8438 80.8291 65.166L81.4678 66.0361C81.7666 66.4443 81.916 66.71 81.916 66.833C81.916 66.9111 81.8848 66.9785 81.8223 67.0352C81.7617 67.0918 81.6914 67.1201 81.6113 67.1201ZM83.7793 67.1348C83.3379 67.1348 82.9805 67.0244 82.707 66.8037C82.4082 66.5596 82.2588 66.2178 82.2588 65.7783C82.2588 65.2705 82.3818 64.8447 82.6279 64.501C82.8955 64.126 83.2529 63.9385 83.7002 63.9385C84.0244 63.9385 84.2891 63.9932 84.4941 64.1025C84.7461 64.2373 84.8721 64.4443 84.8721 64.7236C84.8721 64.9189 84.7617 65.0967 84.541 65.2568C84.4434 65.3271 84.2363 65.4365 83.9199 65.585L82.8008 66.1152C82.9102 66.2773 83.0459 66.3994 83.208 66.4814C83.3721 66.5635 83.5625 66.6045 83.7793 66.6045C83.9141 66.6045 84.0723 66.5791 84.2539 66.5283C84.4844 66.4639 84.6328 66.3799 84.6992 66.2764C84.7656 66.1709 84.8369 66.1182 84.9131 66.1182C84.9814 66.1182 85.042 66.1445 85.0947 66.1973C85.1494 66.248 85.1768 66.3076 85.1768 66.376C85.1768 66.5928 85.002 66.7793 84.6523 66.9355C84.3535 67.0684 84.0625 67.1348 83.7793 67.1348ZM83.7002 64.4658C83.4619 64.4658 83.2637 64.5586 83.1055 64.7441C82.9473 64.9277 82.8291 65.2051 82.751 65.5762L83.6504 65.1484C84.0039 64.9766 84.2559 64.8271 84.4062 64.7002C84.2383 64.5439 84.0029 64.4658 83.7002 64.4658ZM87.9775 64.835C87.9639 65.0791 87.8662 65.2012 87.6846 65.2012C87.5166 65.2012 87.4326 65.1045 87.4326 64.9111C87.4326 64.874 87.4297 64.8057 87.4238 64.7061L87.415 64.46C87.1064 64.4971 86.8594 64.584 86.6738 64.7207C86.5 64.8477 86.3555 65.0391 86.2402 65.2949L86.2461 66.9004C86.2461 67.0977 86.1494 67.1963 85.9561 67.1963C85.7842 67.1963 85.6982 67.0977 85.6982 66.9004V64.8438C85.6982 64.7793 85.7002 64.6826 85.7041 64.5537C85.71 64.4248 85.7129 64.3281 85.7129 64.2637C85.7129 64.0664 85.7988 63.9678 85.9707 63.9678C86.1621 63.9678 86.2588 64.1299 86.2607 64.4541C86.6357 64.0928 87.0518 63.9121 87.5088 63.9121C87.667 63.9121 87.7852 63.9717 87.8633 64.0908C87.9414 64.21 87.9805 64.3896 87.9805 64.6299C87.9805 64.7314 87.9795 64.7998 87.9775 64.835Z" fill="black"/>
<circle cx="63" cy="81" r="1" fill="#C4C4C4"/>
<circle cx="65.5" cy="78.5" r="1.5" fill="#C4C4C4"/>
<circle cx="69" cy="75" r="2" fill="#C4C4C4"/>
<path d="M114.804 82.3496C114.679 82.3496 114.521 82.3369 114.332 82.3115L113.86 82.25C113.815 82.8184 113.793 83.3613 113.793 83.8789C113.793 84.0156 113.797 84.1846 113.805 84.3857C113.812 84.5869 113.816 84.7559 113.816 84.8926C113.816 85.0762 113.81 85.2432 113.796 85.3936L114.719 85.3818C114.801 85.3818 114.869 85.4111 114.924 85.4697C114.98 85.5264 115.009 85.5967 115.009 85.6807C115.009 85.7666 114.98 85.8389 114.924 85.8975C114.869 85.9541 114.801 85.9824 114.719 85.9824C114.609 85.9824 114.445 85.9854 114.227 85.9912C114.008 85.9951 113.844 85.9971 113.734 85.9971C113.605 85.9971 113.412 86.0146 113.154 86.0498C112.898 86.0869 112.705 86.1055 112.574 86.1055C112.492 86.1055 112.423 86.0762 112.366 86.0176C112.312 85.9609 112.284 85.8906 112.284 85.8066C112.284 85.7227 112.312 85.6514 112.366 85.5928C112.423 85.5342 112.492 85.5049 112.574 85.5049C112.701 85.5049 112.911 85.4844 113.204 85.4434C113.224 85.2852 113.233 85.1045 113.233 84.9014C113.233 84.7666 113.227 84.6025 113.213 84.4092C113.201 84.2139 113.195 84.0498 113.195 83.917C113.195 83.4658 113.223 82.9023 113.277 82.2266L112.896 82.2383L112.516 82.2471C112.432 82.2471 112.361 82.2188 112.305 82.1621C112.248 82.1055 112.22 82.0332 112.22 81.9453C112.22 81.7637 112.312 81.6641 112.495 81.6465C112.653 81.6309 112.949 81.623 113.383 81.623C113.771 81.623 114.259 81.665 114.845 81.749C115.019 81.7744 115.105 81.8789 115.105 82.0625C115.105 82.1543 115.072 82.2275 115.006 82.2822C114.947 82.3271 114.88 82.3496 114.804 82.3496ZM119.409 86.2432C119.249 86.2432 119.155 86.1582 119.128 85.9883C119.093 85.7734 119.058 85.4707 119.022 85.0801L118.923 84.1719C118.903 84.0371 118.87 83.9053 118.823 83.7764C118.757 83.6006 118.685 83.5127 118.606 83.5127C118.534 83.5127 118.399 83.5742 118.202 83.6973C118.015 83.8105 117.892 83.9014 117.833 83.9697C117.831 84.1533 117.836 84.3369 117.848 84.5205L117.936 85.3027C117.973 85.6113 117.991 85.8662 117.991 86.0674C117.991 86.1533 117.964 86.2236 117.909 86.2783C117.856 86.335 117.788 86.3633 117.704 86.3633C117.62 86.3633 117.551 86.335 117.496 86.2783C117.443 86.2236 117.417 86.1533 117.417 86.0674C117.417 85.8311 117.393 85.4824 117.344 85.0215C117.297 84.5586 117.273 84.209 117.273 83.9727C117.273 83.7656 117.244 83.6045 117.186 83.4893C117.049 83.5518 116.91 83.6533 116.77 83.7939L116.424 84.1807C116.393 84.2275 116.343 84.2891 116.274 84.3652C116.274 84.4824 116.264 84.6553 116.242 84.8838C116.221 85.1123 116.21 85.2812 116.21 85.3906C116.21 85.4492 116.219 85.5312 116.236 85.6367C116.256 85.7422 116.266 85.8184 116.266 85.8652C116.266 85.9453 116.235 86.0127 116.175 86.0674C116.116 86.1221 116.047 86.1494 115.967 86.1494C115.746 86.1494 115.636 85.8984 115.636 85.3965C115.636 85.2793 115.646 85.1045 115.668 84.8721C115.689 84.6396 115.7 84.4648 115.7 84.3477C115.7 84.2441 115.69 84.0889 115.671 83.8818C115.653 83.6748 115.645 83.5186 115.645 83.4131C115.645 82.9697 115.744 82.748 115.943 82.748C116.02 82.748 116.089 82.7812 116.151 82.8477C116.216 82.9141 116.248 82.9863 116.248 83.0645C116.248 83.1016 116.243 83.1592 116.233 83.2373C116.224 83.3154 116.219 83.375 116.219 83.416L116.225 83.7236C116.326 83.5146 116.476 83.3262 116.673 83.1582C116.87 82.9883 117.038 82.9033 117.177 82.9033C117.483 82.9033 117.694 83.0557 117.81 83.3604C117.917 83.2178 118.045 83.1113 118.193 83.041C118.342 82.9688 118.512 82.9326 118.703 82.9326C119.029 82.9326 119.252 83.1084 119.371 83.46C119.395 83.5303 119.435 83.8047 119.491 84.2832C119.546 84.6191 119.616 85.1787 119.702 85.9619C119.708 86.04 119.682 86.1064 119.623 86.1611C119.564 86.2158 119.493 86.2432 119.409 86.2432ZM122.641 86.1934C122.604 86.1934 122.536 86.1504 122.438 86.0645C122.351 85.9844 122.285 85.9131 122.242 85.8506C122.055 85.9521 121.89 86.0283 121.747 86.0791C121.604 86.1318 121.485 86.1582 121.39 86.1582C120.933 86.1582 120.6 86.0293 120.391 85.7715C120.193 85.5293 120.095 85.1582 120.095 84.6582C120.095 84.1855 120.257 83.7812 120.581 83.4453C120.907 83.1094 121.296 82.9414 121.747 82.9414C121.917 82.9414 122.107 82.9854 122.318 83.0732C122.584 83.1826 122.717 83.3145 122.717 83.4688C122.717 83.5215 122.697 83.5684 122.658 83.6094C122.639 83.6836 122.623 83.8057 122.611 83.9756C122.602 84.1455 122.596 84.3633 122.594 84.6289C122.592 84.8711 122.608 85.0625 122.644 85.2031C122.663 85.2891 122.725 85.4609 122.828 85.7188C122.842 85.7539 122.864 85.8057 122.896 85.874L122.913 85.9238C122.913 86.002 122.886 86.0664 122.831 86.1172C122.776 86.168 122.713 86.1934 122.641 86.1934ZM122.031 84.1572C122.031 84.0732 122.036 83.9824 122.046 83.8848C122.058 83.7852 122.074 83.6797 122.096 83.5684C122.023 83.5312 121.961 83.5039 121.908 83.4863C121.857 83.4688 121.816 83.46 121.785 83.46C121.482 83.46 121.221 83.584 121 83.832C120.781 84.0781 120.672 84.3623 120.672 84.6846C120.672 85.0049 120.729 85.2451 120.842 85.4053C120.955 85.5654 121.125 85.6455 121.352 85.6455C121.539 85.6455 121.698 85.6113 121.829 85.543C121.899 85.5059 121.998 85.4316 122.125 85.3203C122.062 84.8027 122.031 84.415 122.031 84.1572ZM125.834 84.7373L125.767 85.7217C125.755 86.1123 125.715 86.4316 125.646 86.6797C125.559 86.9961 125.418 87.2295 125.225 87.3799C124.99 87.5615 124.651 87.6523 124.208 87.6523C123.948 87.6523 123.73 87.6348 123.555 87.5996C123.309 87.5508 123.186 87.4492 123.186 87.2949C123.186 87.1211 123.271 87.0342 123.44 87.0342C123.511 87.0342 123.628 87.0508 123.792 87.084C123.956 87.1191 124.138 87.1348 124.337 87.1309C124.712 87.125 124.971 86.9434 125.113 86.5859C125.207 86.3477 125.257 85.9814 125.263 85.4873C125.157 85.6826 125.031 85.8291 124.885 85.9268C124.74 86.0244 124.574 86.0732 124.387 86.0732C124.033 86.0732 123.745 85.9531 123.522 85.7129C123.302 85.4707 123.191 85.1572 123.191 84.7725C123.191 84.2451 123.343 83.8203 123.646 83.498C123.958 83.166 124.384 83 124.923 83C125.104 83 125.257 83.0234 125.38 83.0703C125.503 83.1172 125.597 83.1875 125.661 83.2812C125.87 83.2871 125.975 83.4033 125.975 83.6299C125.975 83.7686 125.954 83.9541 125.913 84.1865C125.868 84.4561 125.842 84.6396 125.834 84.7373ZM124.894 83.4688C124.522 83.4688 124.235 83.5967 124.032 83.8525C123.851 84.083 123.76 84.376 123.76 84.7314C123.76 85.0146 123.813 85.2275 123.921 85.3701C124.028 85.5127 124.189 85.584 124.404 85.584C124.602 85.584 124.793 85.4727 124.979 85.25C125.146 85.0449 125.242 84.8418 125.266 84.6406C125.307 84.4297 125.351 84.0986 125.397 83.6475C125.319 83.5869 125.238 83.542 125.154 83.5127C125.07 83.4834 124.983 83.4688 124.894 83.4688ZM127.17 82.291C127.076 82.291 126.995 82.2578 126.927 82.1914C126.858 82.125 126.824 82.0449 126.824 81.9512C126.824 81.8574 126.858 81.7773 126.927 81.7109C126.995 81.6445 127.076 81.6113 127.17 81.6113C127.264 81.6113 127.344 81.6445 127.41 81.7109C127.479 81.7773 127.513 81.8574 127.513 81.9512C127.513 82.0449 127.479 82.125 127.41 82.1914C127.344 82.2578 127.264 82.291 127.17 82.291ZM127.302 84.6699C127.302 84.7871 127.305 84.9629 127.311 85.1973C127.318 85.4297 127.322 85.6045 127.322 85.7217C127.322 85.8076 127.296 85.8779 127.243 85.9326C127.19 85.9873 127.121 86.0146 127.035 86.0146C126.951 86.0146 126.882 85.9873 126.827 85.9326C126.774 85.8779 126.748 85.8076 126.748 85.7217C126.748 85.6045 126.744 85.4297 126.736 85.1973C126.73 84.9629 126.728 84.7871 126.728 84.6699C126.728 84.4863 126.737 84.2578 126.757 83.9844C126.776 83.709 126.786 83.4795 126.786 83.2959C126.786 83.208 126.812 83.1367 126.865 83.082C126.92 83.0273 126.989 83 127.073 83C127.157 83 127.226 83.0273 127.278 83.082C127.333 83.1367 127.36 83.208 127.36 83.2959C127.36 83.4795 127.351 83.709 127.331 83.9844C127.312 84.2578 127.302 84.4863 127.302 84.6699ZM130.539 86.208C130.371 86.208 130.276 86.1162 130.255 85.9326L130.173 85.291C130.146 85.0625 130.132 84.8486 130.132 84.6494C130.132 84.5947 130.135 84.502 130.141 84.3711C130.148 84.2402 130.152 84.1475 130.152 84.0928C130.152 83.6709 130.074 83.46 129.918 83.46C129.699 83.46 129.49 83.5898 129.291 83.8496C129.111 84.0859 128.971 84.3848 128.869 84.7461C128.865 84.8223 128.856 84.918 128.843 85.0332C128.831 85.1309 128.825 85.2256 128.825 85.3174C128.825 85.376 128.831 85.4639 128.843 85.5811C128.854 85.6982 128.86 85.7861 128.86 85.8447C128.86 85.9326 128.833 86.0039 128.778 86.0586C128.726 86.1133 128.657 86.1406 128.573 86.1406C128.487 86.1406 128.418 86.1133 128.365 86.0586C128.312 86.0039 128.286 85.9326 128.286 85.8447C128.286 85.7861 128.279 85.6982 128.266 85.5811C128.254 85.4639 128.248 85.376 128.248 85.3174C128.248 85.1162 128.262 84.8379 128.289 84.4824C128.318 84.125 128.333 83.8457 128.333 83.6445C128.333 83.582 128.329 83.4893 128.321 83.3662C128.315 83.2432 128.312 83.1504 128.312 83.0879C128.312 83.0039 128.34 82.9355 128.395 82.8828C128.451 82.8281 128.521 82.8008 128.603 82.8008C128.782 82.8008 128.881 82.9277 128.898 83.1816L128.907 83.5244C129.235 83.0869 129.572 82.8682 129.918 82.8682C130.23 82.8682 130.448 83.0059 130.571 83.2812C130.655 83.4648 130.701 83.7363 130.709 84.0957V84.3916L130.706 84.6641C130.706 84.8262 130.727 85.0361 130.768 85.2939C130.811 85.5498 130.832 85.7578 130.832 85.918C130.832 86.0039 130.804 86.0732 130.747 86.126C130.692 86.1807 130.623 86.208 130.539 86.208ZM132.801 86.1348C132.359 86.1348 132.002 86.0244 131.729 85.8037C131.43 85.5596 131.28 85.2178 131.28 84.7783C131.28 84.2705 131.403 83.8447 131.649 83.501C131.917 83.126 132.274 82.9385 132.722 82.9385C133.046 82.9385 133.311 82.9932 133.516 83.1025C133.768 83.2373 133.894 83.4443 133.894 83.7236C133.894 83.9189 133.783 84.0967 133.562 84.2568C133.465 84.3271 133.258 84.4365 132.941 84.585L131.822 85.1152C131.932 85.2773 132.067 85.3994 132.229 85.4814C132.394 85.5635 132.584 85.6045 132.801 85.6045C132.936 85.6045 133.094 85.5791 133.275 85.5283C133.506 85.4639 133.654 85.3799 133.721 85.2764C133.787 85.1709 133.858 85.1182 133.935 85.1182C134.003 85.1182 134.063 85.1445 134.116 85.1973C134.171 85.248 134.198 85.3076 134.198 85.376C134.198 85.5928 134.023 85.7793 133.674 85.9355C133.375 86.0684 133.084 86.1348 132.801 86.1348ZM132.722 83.4658C132.483 83.4658 132.285 83.5586 132.127 83.7441C131.969 83.9277 131.851 84.2051 131.772 84.5762L132.672 84.1484C133.025 83.9766 133.277 83.8271 133.428 83.7002C133.26 83.5439 133.024 83.4658 132.722 83.4658ZM138.473 83.5039C138.432 83.5039 138.383 83.502 138.326 83.498C138.271 83.4941 138.224 83.4922 138.183 83.4922C138.138 83.4922 138.005 83.5068 137.784 83.5361L137.84 85.2676L137.843 85.3965L137.846 85.5459C137.854 85.9736 137.751 86.1875 137.538 86.1875C137.46 86.1875 137.392 86.1621 137.333 86.1113C137.276 86.0605 137.248 85.9971 137.248 85.9209C137.248 85.8467 137.251 85.7354 137.257 85.5869C137.263 85.4385 137.266 85.3271 137.266 85.2529L137.207 83.542C137.064 83.5361 136.848 83.5195 136.557 83.4922C136.383 83.4688 136.296 83.3721 136.296 83.2021C136.296 83.1162 136.322 83.0449 136.375 82.9883C136.428 82.9316 136.495 82.9033 136.577 82.9033L137.192 82.9531C137.192 82.8535 137.188 82.7207 137.178 82.5547C137.17 82.3867 137.166 82.2656 137.166 82.1914C137.166 82.1094 137.194 82.042 137.251 81.9893C137.308 81.9346 137.377 81.9072 137.459 81.9072C137.635 81.9072 137.737 82.0508 137.767 82.3379C137.772 82.4102 137.775 82.4971 137.775 82.5986L137.77 82.7686L137.767 82.9502C138.009 82.9189 138.147 82.9033 138.183 82.9033C138.386 82.9033 138.519 82.9131 138.581 82.9326C138.7 82.9717 138.76 83.0635 138.76 83.208C138.76 83.2939 138.732 83.3652 138.678 83.4219C138.625 83.4766 138.557 83.5039 138.473 83.5039ZM141.795 86.1816C141.656 86.1816 141.565 86.1074 141.522 85.959C141.478 85.7988 141.437 85.5713 141.399 85.2764C141.364 84.9932 141.347 84.7607 141.347 84.5791C141.347 84.5283 141.349 84.4512 141.353 84.3477C141.358 84.2441 141.361 84.167 141.361 84.1162C141.361 83.749 141.27 83.5654 141.086 83.5654C140.838 83.5654 140.616 83.6777 140.421 83.9023C140.321 84.0176 140.185 84.2373 140.011 84.5615C140.011 85.3057 139.979 85.7461 139.917 85.8828C139.862 86.0039 139.777 86.0645 139.662 86.0645C139.582 86.0645 139.512 86.0371 139.451 85.9824C139.391 85.9277 139.36 85.8613 139.36 85.7832C139.36 85.7559 139.369 85.7129 139.387 85.6543C139.402 85.6055 139.413 85.4629 139.419 85.2266L139.428 84.793L139.437 82.6396C139.45 82.3975 139.457 82.2344 139.457 82.1504C139.457 82.0508 139.447 81.957 139.428 81.8691C139.41 81.7793 139.401 81.6865 139.401 81.5908C139.401 81.5088 139.43 81.4414 139.486 81.3887C139.543 81.334 139.612 81.3066 139.694 81.3066C139.854 81.3066 139.948 81.3926 139.976 81.5645C140.007 81.7539 140.022 81.9248 140.022 82.0771C140.022 82.2822 140.016 82.4961 140.002 82.7188C139.99 82.9316 139.985 83.1455 139.987 83.3604L139.99 83.6182C140.15 83.4033 140.321 83.2432 140.503 83.1377C140.687 83.0303 140.881 82.9766 141.086 82.9766C141.41 82.9766 141.633 83.082 141.754 83.293C141.84 83.4414 141.889 83.6914 141.9 84.043L141.924 84.6025L141.982 85.2119C142.01 85.4404 142.043 85.6416 142.082 85.8154C142.09 85.8486 142.094 85.877 142.094 85.9004C142.094 85.9805 142.064 86.0469 142.006 86.0996C141.947 86.1543 141.877 86.1816 141.795 86.1816ZM143.371 82.291C143.277 82.291 143.196 82.2578 143.128 82.1914C143.06 82.125 143.025 82.0449 143.025 81.9512C143.025 81.8574 143.06 81.7773 143.128 81.7109C143.196 81.6445 143.277 81.6113 143.371 81.6113C143.465 81.6113 143.545 81.6445 143.611 81.7109C143.68 81.7773 143.714 81.8574 143.714 81.9512C143.714 82.0449 143.68 82.125 143.611 82.1914C143.545 82.2578 143.465 82.291 143.371 82.291ZM143.503 84.6699C143.503 84.7871 143.506 84.9629 143.512 85.1973C143.52 85.4297 143.523 85.6045 143.523 85.7217C143.523 85.8076 143.497 85.8779 143.444 85.9326C143.392 85.9873 143.322 86.0146 143.236 86.0146C143.152 86.0146 143.083 85.9873 143.028 85.9326C142.976 85.8779 142.949 85.8076 142.949 85.7217C142.949 85.6045 142.945 85.4297 142.938 85.1973C142.932 84.9629 142.929 84.7871 142.929 84.6699C142.929 84.4863 142.938 84.2578 142.958 83.9844C142.978 83.709 142.987 83.4795 142.987 83.2959C142.987 83.208 143.014 83.1367 143.066 83.082C143.121 83.0273 143.19 83 143.274 83C143.358 83 143.427 83.0273 143.479 83.082C143.534 83.1367 143.562 83.208 143.562 83.2959C143.562 83.4795 143.552 83.709 143.532 83.9844C143.513 84.2578 143.503 84.4863 143.503 84.6699ZM146.471 83.7441C146.363 83.7441 146.288 83.708 146.245 83.6357C146.216 83.585 146.19 83.4795 146.169 83.3193C146.022 83.3564 145.797 83.4248 145.492 83.5244C145.178 83.6494 145.02 83.8037 145.018 83.9873C145.076 84.0088 145.134 84.0244 145.19 84.0342C145.64 84.1143 145.974 84.2246 146.192 84.3652C146.511 84.5703 146.67 84.8672 146.67 85.2559C146.67 85.5742 146.532 85.8145 146.257 85.9766C146.028 86.1094 145.739 86.1758 145.39 86.1758C145.134 86.1758 144.89 86.1328 144.657 86.0469C144.356 85.9375 144.206 85.7852 144.206 85.5898C144.206 85.5117 144.236 85.4434 144.297 85.3848C144.359 85.3262 144.43 85.2969 144.508 85.2969C144.568 85.2969 144.646 85.3438 144.742 85.4375C144.789 85.4824 144.895 85.5195 145.059 85.5488C145.189 85.5723 145.3 85.584 145.39 85.584C145.554 85.584 145.698 85.5645 145.823 85.5254C146.005 85.4688 146.096 85.3789 146.096 85.2559C146.096 84.9902 145.91 84.8105 145.539 84.7168L145.234 84.6494C144.975 84.5928 144.79 84.5264 144.681 84.4502C144.522 84.3408 144.443 84.1758 144.443 83.9551C144.443 83.5469 144.636 83.2559 145.021 83.082C145.138 83.0293 145.325 82.9668 145.583 82.8945C145.841 82.8203 146.025 82.7578 146.137 82.707C146.217 82.6719 146.304 82.6543 146.397 82.6543C146.481 82.6543 146.55 82.6816 146.603 82.7363C146.657 82.791 146.685 82.8623 146.685 82.9502C146.685 83.0068 146.696 83.0898 146.72 83.1992C146.745 83.3086 146.758 83.3916 146.758 83.4482C146.758 83.5361 146.73 83.6074 146.676 83.6621C146.623 83.7168 146.555 83.7441 146.471 83.7441ZM151.17 83.5039C151.129 83.5039 151.08 83.502 151.023 83.498C150.969 83.4941 150.921 83.4922 150.88 83.4922C150.835 83.4922 150.702 83.5068 150.481 83.5361L150.537 85.2676L150.54 85.3965L150.543 85.5459C150.551 85.9736 150.448 86.1875 150.235 86.1875C150.157 86.1875 150.089 86.1621 150.03 86.1113C149.974 86.0605 149.945 85.9971 149.945 85.9209C149.945 85.8467 149.948 85.7354 149.954 85.5869C149.96 85.4385 149.963 85.3271 149.963 85.2529L149.904 83.542C149.762 83.5361 149.545 83.5195 149.254 83.4922C149.08 83.4688 148.993 83.3721 148.993 83.2021C148.993 83.1162 149.02 83.0449 149.072 82.9883C149.125 82.9316 149.192 82.9033 149.274 82.9033L149.89 82.9531C149.89 82.8535 149.885 82.7207 149.875 82.5547C149.867 82.3867 149.863 82.2656 149.863 82.1914C149.863 82.1094 149.892 82.042 149.948 81.9893C150.005 81.9346 150.074 81.9072 150.156 81.9072C150.332 81.9072 150.435 82.0508 150.464 82.3379C150.47 82.4102 150.473 82.4971 150.473 82.5986L150.467 82.7686L150.464 82.9502C150.706 82.9189 150.845 82.9033 150.88 82.9033C151.083 82.9033 151.216 82.9131 151.278 82.9326C151.397 82.9717 151.457 83.0635 151.457 83.208C151.457 83.2939 151.43 83.3652 151.375 83.4219C151.322 83.4766 151.254 83.5039 151.17 83.5039ZM153.139 86.1729C152.811 86.1729 152.528 86.0518 152.292 85.8096C152.028 85.54 151.89 85.1777 151.876 84.7227C151.864 84.2812 151.976 83.8926 152.21 83.5566C152.483 83.1602 152.864 82.9619 153.353 82.9619C153.743 82.9619 154.039 83.1406 154.24 83.498C154.4 83.7871 154.478 84.1348 154.472 84.541C154.466 84.9746 154.353 85.3447 154.132 85.6514C153.882 85.999 153.551 86.1729 153.139 86.1729ZM153.314 83.5566C153.027 83.5547 152.804 83.6914 152.644 83.9668C152.517 84.1875 152.453 84.4395 152.453 84.7227C152.453 85.0059 152.53 85.2266 152.685 85.3848C152.813 85.5156 152.965 85.5811 153.139 85.5811C153.342 85.5811 153.517 85.5068 153.663 85.3584C153.829 85.1943 153.917 84.9727 153.927 84.6934C153.954 83.9375 153.75 83.5586 153.314 83.5566ZM113.775 94.123C113.477 94.123 113.205 94.0645 112.961 93.9473C112.898 94.041 112.822 94.0879 112.732 94.0879C112.658 94.0879 112.595 94.0615 112.542 94.0088C112.491 93.958 112.466 93.8936 112.466 93.8154C112.466 93.7646 112.468 93.6895 112.472 93.5898C112.478 93.4902 112.48 93.415 112.48 93.3643C112.48 93.1572 112.475 92.8477 112.463 92.4355C112.453 92.0215 112.448 91.7109 112.448 91.5039C112.448 91.3613 112.449 91.0918 112.451 90.6953C112.453 90.2969 112.454 90.0254 112.454 89.8809C112.454 89.7637 112.479 89.6582 112.527 89.5645C112.592 89.4453 112.681 89.3857 112.794 89.3857C112.94 89.3857 113.014 89.4707 113.014 89.6406C113.014 89.668 113.009 89.708 112.999 89.7607C112.989 89.8135 112.984 89.8535 112.984 89.8809L112.976 90.5225L112.97 91.2695C113.14 91.1543 113.301 91.0684 113.453 91.0117C113.607 90.9531 113.752 90.9238 113.887 90.9238C114.307 90.9238 114.647 91.085 114.909 91.4072C115.155 91.71 115.278 92.082 115.278 92.5234C115.278 92.9688 115.135 93.3467 114.848 93.6572C114.561 93.9678 114.203 94.123 113.775 94.123ZM113.887 91.4775C113.727 91.4775 113.562 91.5225 113.395 91.6123C113.312 91.6572 113.172 91.7539 112.973 91.9023L112.967 92.4092L112.97 92.8662L112.973 93.3467C113.066 93.3896 113.198 93.4443 113.368 93.5107C113.489 93.5479 113.625 93.5664 113.775 93.5664C114.059 93.5664 114.291 93.4668 114.473 93.2676C114.654 93.0684 114.745 92.8203 114.745 92.5234C114.745 92.2324 114.672 91.9893 114.525 91.7939C114.367 91.583 114.154 91.4775 113.887 91.4775ZM117.338 94.1348C116.896 94.1348 116.539 94.0244 116.266 93.8037C115.967 93.5596 115.817 93.2178 115.817 92.7783C115.817 92.2705 115.94 91.8447 116.187 91.501C116.454 91.126 116.812 90.9385 117.259 90.9385C117.583 90.9385 117.848 90.9932 118.053 91.1025C118.305 91.2373 118.431 91.4443 118.431 91.7236C118.431 91.9189 118.32 92.0967 118.1 92.2568C118.002 92.3271 117.795 92.4365 117.479 92.585L116.359 93.1152C116.469 93.2773 116.604 93.3994 116.767 93.4814C116.931 93.5635 117.121 93.6045 117.338 93.6045C117.473 93.6045 117.631 93.5791 117.812 93.5283C118.043 93.4639 118.191 93.3799 118.258 93.2764C118.324 93.1709 118.396 93.1182 118.472 93.1182C118.54 93.1182 118.601 93.1445 118.653 93.1973C118.708 93.248 118.735 93.3076 118.735 93.376C118.735 93.5928 118.561 93.7793 118.211 93.9355C117.912 94.0684 117.621 94.1348 117.338 94.1348ZM117.259 91.4658C117.021 91.4658 116.822 91.5586 116.664 91.7441C116.506 91.9277 116.388 92.2051 116.31 92.5762L117.209 92.1484C117.562 91.9766 117.814 91.8271 117.965 91.7002C117.797 91.5439 117.562 91.4658 117.259 91.4658ZM123.338 94.1934C123.301 94.1934 123.233 94.1504 123.136 94.0645C123.048 93.9844 122.982 93.9131 122.939 93.8506C122.752 93.9521 122.587 94.0283 122.444 94.0791C122.302 94.1318 122.183 94.1582 122.087 94.1582C121.63 94.1582 121.297 94.0293 121.088 93.7715C120.891 93.5293 120.792 93.1582 120.792 92.6582C120.792 92.1855 120.954 91.7812 121.278 91.4453C121.604 91.1094 121.993 90.9414 122.444 90.9414C122.614 90.9414 122.805 90.9854 123.016 91.0732C123.281 91.1826 123.414 91.3145 123.414 91.4688C123.414 91.5215 123.395 91.5684 123.355 91.6094C123.336 91.6836 123.32 91.8057 123.309 91.9756C123.299 92.1455 123.293 92.3633 123.291 92.6289C123.289 92.8711 123.306 93.0625 123.341 93.2031C123.36 93.2891 123.422 93.4609 123.525 93.7188C123.539 93.7539 123.562 93.8057 123.593 93.874L123.61 93.9238C123.61 94.002 123.583 94.0664 123.528 94.1172C123.474 94.168 123.41 94.1934 123.338 94.1934ZM122.729 92.1572C122.729 92.0732 122.733 91.9824 122.743 91.8848C122.755 91.7852 122.771 91.6797 122.793 91.5684C122.721 91.5312 122.658 91.5039 122.605 91.4863C122.555 91.4688 122.514 91.46 122.482 91.46C122.18 91.46 121.918 91.584 121.697 91.832C121.479 92.0781 121.369 92.3623 121.369 92.6846C121.369 93.0049 121.426 93.2451 121.539 93.4053C121.652 93.5654 121.822 93.6455 122.049 93.6455C122.236 93.6455 122.396 93.6113 122.526 93.543C122.597 93.5059 122.695 93.4316 122.822 93.3203C122.76 92.8027 122.729 92.415 122.729 92.1572ZM126.367 94.208C126.199 94.208 126.104 94.1162 126.083 93.9326L126.001 93.291C125.974 93.0625 125.96 92.8486 125.96 92.6494C125.96 92.5947 125.963 92.502 125.969 92.3711C125.977 92.2402 125.98 92.1475 125.98 92.0928C125.98 91.6709 125.902 91.46 125.746 91.46C125.527 91.46 125.318 91.5898 125.119 91.8496C124.939 92.0859 124.799 92.3848 124.697 92.7461C124.693 92.8223 124.685 92.918 124.671 93.0332C124.659 93.1309 124.653 93.2256 124.653 93.3174C124.653 93.376 124.659 93.4639 124.671 93.5811C124.683 93.6982 124.688 93.7861 124.688 93.8447C124.688 93.9326 124.661 94.0039 124.606 94.0586C124.554 94.1133 124.485 94.1406 124.401 94.1406C124.315 94.1406 124.246 94.1133 124.193 94.0586C124.141 94.0039 124.114 93.9326 124.114 93.8447C124.114 93.7861 124.107 93.6982 124.094 93.5811C124.082 93.4639 124.076 93.376 124.076 93.3174C124.076 93.1162 124.09 92.8379 124.117 92.4824C124.146 92.125 124.161 91.8457 124.161 91.6445C124.161 91.582 124.157 91.4893 124.149 91.3662C124.144 91.2432 124.141 91.1504 124.141 91.0879C124.141 91.0039 124.168 90.9355 124.223 90.8828C124.279 90.8281 124.349 90.8008 124.431 90.8008C124.61 90.8008 124.709 90.9277 124.727 91.1816L124.735 91.5244C125.063 91.0869 125.4 90.8682 125.746 90.8682C126.059 90.8682 126.276 91.0059 126.399 91.2812C126.483 91.4648 126.529 91.7363 126.537 92.0957V92.3916L126.534 92.6641C126.534 92.8262 126.555 93.0361 126.596 93.2939C126.639 93.5498 126.66 93.7578 126.66 93.918C126.66 94.0039 126.632 94.0732 126.575 94.126C126.521 94.1807 126.451 94.208 126.367 94.208ZM131.45 90.3496C131.325 90.3496 131.168 90.3369 130.979 90.3115L130.507 90.25C130.462 90.8184 130.439 91.3613 130.439 91.8789C130.439 92.0156 130.443 92.1846 130.451 92.3857C130.459 92.5869 130.463 92.7559 130.463 92.8926C130.463 93.0762 130.456 93.2432 130.442 93.3936L131.365 93.3818C131.447 93.3818 131.516 93.4111 131.57 93.4697C131.627 93.5264 131.655 93.5967 131.655 93.6807C131.655 93.7666 131.627 93.8389 131.57 93.8975C131.516 93.9541 131.447 93.9824 131.365 93.9824C131.256 93.9824 131.092 93.9854 130.873 93.9912C130.654 93.9951 130.49 93.9971 130.381 93.9971C130.252 93.9971 130.059 94.0146 129.801 94.0498C129.545 94.0869 129.352 94.1055 129.221 94.1055C129.139 94.1055 129.069 94.0762 129.013 94.0176C128.958 93.9609 128.931 93.8906 128.931 93.8066C128.931 93.7227 128.958 93.6514 129.013 93.5928C129.069 93.5342 129.139 93.5049 129.221 93.5049C129.348 93.5049 129.558 93.4844 129.851 93.4434C129.87 93.2852 129.88 93.1045 129.88 92.9014C129.88 92.7666 129.873 92.6025 129.859 92.4092C129.848 92.2139 129.842 92.0498 129.842 91.917C129.842 91.4658 129.869 90.9023 129.924 90.2266L129.543 90.2383L129.162 90.2471C129.078 90.2471 129.008 90.2188 128.951 90.1621C128.895 90.1055 128.866 90.0332 128.866 89.9453C128.866 89.7637 128.958 89.6641 129.142 89.6465C129.3 89.6309 129.596 89.623 130.029 89.623C130.418 89.623 130.905 89.665 131.491 89.749C131.665 89.7744 131.752 89.8789 131.752 90.0625C131.752 90.1543 131.719 90.2275 131.652 90.2822C131.594 90.3271 131.526 90.3496 131.45 90.3496ZM133.138 92.2803C133.083 92.2803 132.964 92.2676 132.78 92.2422C132.765 92.5371 132.757 93.0537 132.757 93.792C132.757 93.8701 132.731 93.9365 132.681 93.9912C132.63 94.0439 132.566 94.0703 132.49 94.0703C132.412 94.0703 132.348 94.0439 132.297 93.9912C132.246 93.9365 132.221 93.8701 132.221 93.792V92.9307C132.221 92.6436 132.238 92.2393 132.273 91.7178C132.312 91.1533 132.334 90.749 132.338 90.5049V90.1006C132.338 89.9072 132.35 89.7666 132.373 89.6787C132.418 89.5068 132.514 89.4326 132.66 89.4561C132.723 89.4365 132.812 89.4219 132.927 89.4121C133.042 89.4023 133.184 89.3975 133.352 89.3975C133.709 89.3975 134.044 89.5195 134.356 89.7637C134.7 90.0332 134.872 90.3574 134.872 90.7363C134.872 91.2207 134.688 91.6064 134.321 91.8936C133.993 92.1514 133.599 92.2803 133.138 92.2803ZM133.284 89.9541C133.198 89.9541 133.121 89.9561 133.053 89.96C132.986 89.9639 132.93 89.9697 132.883 89.9775L132.877 90.5166L132.815 91.6826L133.138 91.7207C133.466 91.7207 133.742 91.6377 133.967 91.4717C134.213 91.29 134.336 91.0449 134.336 90.7363C134.336 90.5176 134.219 90.3291 133.984 90.1709C133.768 90.0264 133.534 89.9541 133.284 89.9541ZM137.746 94.1934C137.709 94.1934 137.642 94.1504 137.544 94.0645C137.456 93.9844 137.391 93.9131 137.348 93.8506C137.16 93.9521 136.995 94.0283 136.853 94.0791C136.71 94.1318 136.591 94.1582 136.495 94.1582C136.038 94.1582 135.705 94.0293 135.496 93.7715C135.299 93.5293 135.2 93.1582 135.2 92.6582C135.2 92.1855 135.362 91.7812 135.687 91.4453C136.013 91.1094 136.401 90.9414 136.853 90.9414C137.022 90.9414 137.213 90.9854 137.424 91.0732C137.689 91.1826 137.822 91.3145 137.822 91.4688C137.822 91.5215 137.803 91.5684 137.764 91.6094C137.744 91.6836 137.729 91.8057 137.717 91.9756C137.707 92.1455 137.701 92.3633 137.699 92.6289C137.697 92.8711 137.714 93.0625 137.749 93.2031C137.769 93.2891 137.83 93.4609 137.934 93.7188C137.947 93.7539 137.97 93.8057 138.001 93.874L138.019 93.9238C138.019 94.002 137.991 94.0664 137.937 94.1172C137.882 94.168 137.818 94.1934 137.746 94.1934ZM137.137 92.1572C137.137 92.0732 137.142 91.9824 137.151 91.8848C137.163 91.7852 137.18 91.6797 137.201 91.5684C137.129 91.5312 137.066 91.5039 137.014 91.4863C136.963 91.4688 136.922 91.46 136.891 91.46C136.588 91.46 136.326 91.584 136.105 91.832C135.887 92.0781 135.777 92.3623 135.777 92.6846C135.777 93.0049 135.834 93.2451 135.947 93.4053C136.061 93.5654 136.23 93.6455 136.457 93.6455C136.645 93.6455 136.804 93.6113 136.935 93.543C137.005 93.5059 137.104 93.4316 137.23 93.3203C137.168 92.8027 137.137 92.415 137.137 92.1572ZM141.227 91.4131C141.203 91.7002 141.191 91.9873 141.191 92.2744C141.191 92.9248 141.222 93.416 141.282 93.748C141.286 93.7754 141.288 93.7979 141.288 93.8154C141.288 93.8936 141.261 93.958 141.206 94.0088C141.151 94.0596 141.088 94.085 141.016 94.085C140.895 94.085 140.806 93.9971 140.749 93.8213C140.608 93.9248 140.462 94.0029 140.31 94.0557C140.159 94.1084 140.002 94.1348 139.838 94.1348C139.434 94.1348 139.099 94 138.833 93.7305C138.56 93.4551 138.423 93.1016 138.423 92.6699C138.423 92.1484 138.561 91.7305 138.836 91.416C139.113 91.1016 139.473 90.9443 139.914 90.9443C140.141 90.9443 140.315 90.9795 140.438 91.0498L140.714 91.252C140.741 90.4297 140.773 89.876 140.811 89.5908C140.836 89.417 140.925 89.3301 141.077 89.3301C141.255 89.3301 141.344 89.4248 141.344 89.6143C141.344 89.8857 141.305 90.4854 141.227 91.4131ZM139.926 91.4893C139.598 91.4893 139.352 91.5869 139.188 91.7822C139.023 91.9756 138.941 92.2676 138.941 92.6582C138.941 92.9102 139.03 93.127 139.208 93.3086C139.388 93.4902 139.598 93.5811 139.838 93.5811C140.002 93.5811 140.141 93.5508 140.254 93.4902C140.32 93.4551 140.429 93.374 140.579 93.2471C140.608 93.2217 140.637 93.1914 140.664 93.1562L140.655 92.6494L140.658 92.3096L140.664 91.9639C140.59 91.8057 140.491 91.6875 140.368 91.6094C140.245 91.5293 140.098 91.4893 139.926 91.4893Z" fill="black"/>
<path d="M86.7764 100.888C86.7146 101.012 86.7647 101.162 86.8882 101.224L88.9007 102.23C89.0242 102.292 89.1743 102.242 89.2361 102.118C89.2978 101.995 89.2478 101.844 89.1243 101.783L87.3354 100.888L88.2298 99.0993C88.2916 98.9758 88.2415 98.8257 88.118 98.7639C87.9945 98.7022 87.8444 98.7522 87.7826 98.8757L86.7764 100.888ZM107.921 93.7628L86.9209 100.763L87.0791 101.237L108.079 94.2372L107.921 93.7628Z" fill="black"/>
</svg>
