<svg width="634" height="854" viewBox="0 0 634 854" fill="none" xmlns="http://www.w3.org/2000/svg">
<line x1="382.795" y1="845.333" x2="382.795" y2="210.735" stroke="currentColor" stroke-width="20"/>
<line x1="287.935" y1="848.852" x2="287.935" y2="215.427" stroke="currentColor" stroke-width="20"/>
<line x1="247.11" y1="812.488" x2="247.11" y2="522.488" stroke="currentColor" stroke-width="20"/>
<line x1="247" y1="434" x2="247" y2="217" stroke="currentColor" stroke-width="20"/>
<line y1="-3" x2="95.9775" y2="-1.9435" transform="matrix(0.997057 -0.0766653 0.0990566 0.995082 289.735 852.456)" stroke="currentColor" stroke-width="20"/>
<line y1="-3" x2="60.9048" y2="-1.86962" transform="matrix(0.751132 0.660152 -0.751132 0.660152 243.56 811.92)" stroke="currentColor" stroke-width="20"/>
<line y1="-3" x2="576.264" y2="-1.82678" transform="matrix(0.996368 -0.0851564 0.0892013 0.996014 58.8373 147.199)" stroke="currentColor" stroke-width="20"/>
<line y1="-3" x2="575.063" y2="-1.82678" transform="matrix(0.996368 -0.0851564 0.0892013 0.996014 26.4167 114.741)" stroke="currentColor" stroke-width="20"/>
<line y1="-3" x2="233" y2="-1.82678" transform="matrix(0.996368 -0.0851564 0.0892013 0.996014 58.8373 238.693)" stroke="currentColor" stroke-width="20"/>
<line y1="-3" x2="251" y2="-1.82678" transform="matrix(0.996368 -0.0851564 0.0892013 0.996014 381 211)" stroke="currentColor" stroke-width="20"/>
<line x1="60.6403" y1="236.541" x2="61.841" y2="145.047" stroke="currentColor" stroke-width="20"/>
<line x1="28.2198" y1="204.87" x2="29.4206" y2="109.856" stroke="currentColor" stroke-width="20"/>
<line x1="629.799" y1="189.621" x2="631" y2="98.1262" stroke="currentColor" stroke-width="20"/>
<line y1="-3" x2="47.4786" y2="-1.81304" transform="matrix(0.715324 0.698793 -0.715324 0.698793 24.5126 204.87)" stroke="currentColor" stroke-width="20"/>
<line y1="-3" x2="47.4786" y2="-1.81304" transform="matrix(0.715324 0.698793 -0.715324 0.698793 25.7134 114.548)" stroke="currentColor" stroke-width="20"/>
<line y1="-3" x2="47.4786" y2="-1.81304" transform="matrix(0.714838 0.699291 -0.714838 0.699291 594.375 64.109)" stroke="currentColor" stroke-width="20"/>
<line y1="-3" x2="262.642" y2="-1.86962" transform="matrix(0.751132 0.660152 -0.751132 0.660152 47.6785 356.172)" stroke="currentColor" stroke-width="20"/>
<line y1="-3" x2="256.7" y2="-1.86962" transform="matrix(0.751132 0.660152 -0.751132 0.660152 51.2809 264.677)" stroke="currentColor" stroke-width="20"/>
<line y1="-3" x2="140.234" y2="-1.24753" transform="matrix(0.751132 0.660152 0.751132 -0.660152 143.739 254.12)" stroke="currentColor" stroke-width="20"/>
<line y1="-3" x2="95.9775" y2="-1.9435" transform="matrix(0.997057 -0.0766653 0.0990566 0.995082 52.4817 264.997)" stroke="currentColor" stroke-width="20"/>
<line x1="49.8334" y1="641.229" x2="49.8334" y2="352.229" stroke="currentColor" stroke-width="20"/>
<line x1="50" y1="265" x2="50" y2="224" stroke="currentColor" stroke-width="20"/>
<line x1="49.8334" y1="111.029" x2="49.8334" y2="50.0328" stroke="currentColor" stroke-width="20"/>
<line x1="144.693" y1="633.018" x2="144.693" y2="439.472" stroke="currentColor" stroke-width="20"/>
<line x1="144.693" y1="258.828" x2="144.693" y2="230.676" stroke="currentColor" stroke-width="20"/>
<line x1="144.693" y1="103.991" x2="144.693" y2="47.6868" stroke="currentColor" stroke-width="20"/>
<line x1="4.20465" y1="601.347" x2="4.20465" y2="115.721" stroke="currentColor" stroke-width="20"/>
<line x1="4.20465" y1="115.721" x2="4.20465" y2="13.6696" stroke="currentColor" stroke-width="20"/>
<line y1="-3" x2="95.9775" y2="-1.9435" transform="matrix(0.997057 -0.0766653 0.0990566 0.995082 51.6326 641.549)" stroke="currentColor" stroke-width="20"/>
<line y1="-3" x2="60.9048" y2="-1.86962" transform="matrix(0.751132 0.660152 -0.751132 0.660152 0.84906 600.174)" stroke="currentColor" stroke-width="20"/>
<line y1="-3" x2="95.9775" y2="-1.9435" transform="matrix(0.997057 -0.0766653 0.0990566 0.995082 51.6326 55.045)" stroke="currentColor" stroke-width="20"/>
<line y1="-3" x2="99.6489" y2="-1.9435" transform="matrix(0.997057 -0.0766653 0.0990566 0.995082 1.20087 13.9897)" stroke="currentColor" stroke-width="20"/>
<line y1="-3" x2="60.6097" y2="-1.86962" transform="matrix(0.751132 0.660152 -0.751132 0.660152 4.45142 13.6696)" stroke="currentColor" stroke-width="20"/>
<line y1="-3" x2="60.6097" y2="-1.86962" transform="matrix(0.750677 0.66067 -0.750677 0.66067 96.0573 6)" stroke="currentColor" stroke-width="20"/>
</svg>
