<svg width="1000" height="719" viewBox="0 0 1000 719" fill="none" xmlns="http://www.w3.org/2000/svg">
<path d="M100 191.159H899.001L847.066 254.761L899.001 318.362H100L149.438 254.761L100 191.159Z" fill="#C0C0C0"/>
<g filter="url(#filter0_dd)">
<ellipse cx="549.938" cy="305.842" rx="17.4782" ry="10.5167" fill="#D4AF37"/>
<ellipse cx="518.976" cy="314.856" rx="17.4782" ry="10.5167" fill="#D4AF37"/>
<ellipse cx="618.851" cy="325.874" rx="17.4782" ry="10.5167" fill="#D4AF37"/>
<ellipse cx="632.834" cy="296.828" rx="17.4782" ry="10.5167" fill="#D4AF37"/>
<ellipse cx="599.875" cy="305.842" rx="17.4782" ry="10.5167" fill="#D4AF37"/>
<ellipse cx="599.875" cy="285.81" rx="17.4782" ry="10.5167" fill="#D4AF37"/>
<ellipse cx="583.895" cy="315.858" rx="17.4782" ry="10.5167" fill="#D4AF37"/>
<ellipse cx="566.916" cy="274.793" rx="17.4782" ry="10.5167" fill="#D4AF37"/>
<ellipse cx="534.956" cy="284.809" rx="17.4782" ry="10.5167" fill="#D4AF37"/>
<ellipse cx="567.915" cy="295.826" rx="17.4782" ry="10.5167" fill="#D4AF37"/>
<ellipse cx="514.981" cy="295.826" rx="17.4782" ry="10.5167" fill="#D4AF37"/>
<ellipse cx="638.827" cy="348.911" rx="17.4782" ry="10.5167" fill="#D4AF37"/>
<ellipse cx="607.865" cy="357.925" rx="17.4782" ry="10.5167" fill="#D4AF37"/>
<ellipse cx="707.74" cy="368.943" rx="17.4782" ry="10.5167" fill="#D4AF37"/>
<ellipse cx="721.723" cy="339.896" rx="17.4782" ry="10.5167" fill="#D4AF37"/>
<ellipse cx="688.764" cy="348.911" rx="17.4782" ry="10.5167" fill="#D4AF37"/>
<ellipse cx="688.764" cy="328.879" rx="17.4782" ry="10.5167" fill="#D4AF37"/>
<ellipse cx="672.784" cy="358.927" rx="17.4782" ry="10.5167" fill="#D4AF37"/>
<ellipse cx="655.805" cy="317.861" rx="17.4782" ry="10.5167" fill="#D4AF37"/>
<ellipse cx="623.845" cy="327.877" rx="17.4782" ry="10.5167" fill="#D4AF37"/>
<ellipse cx="656.804" cy="338.895" rx="17.4782" ry="10.5167" fill="#D4AF37"/>
<ellipse cx="603.87" cy="338.895" rx="17.4782" ry="10.5167" fill="#D4AF37"/>
<ellipse cx="668.789" cy="293.823" rx="17.4782" ry="10.5167" fill="#D4AF37"/>
<ellipse cx="637.828" cy="302.837" rx="17.4782" ry="10.5167" fill="#D4AF37"/>
<ellipse cx="737.703" cy="313.855" rx="17.4782" ry="10.5167" fill="#D4AF37"/>
<ellipse cx="751.685" cy="284.809" rx="17.4782" ry="10.5167" fill="#D4AF37"/>
<ellipse cx="718.727" cy="293.823" rx="17.4782" ry="10.5167" fill="#D4AF37"/>
<ellipse cx="718.727" cy="273.791" rx="17.4782" ry="10.5167" fill="#D4AF37"/>
<ellipse cx="702.747" cy="303.839" rx="17.4782" ry="10.5167" fill="#D4AF37"/>
<ellipse cx="685.768" cy="262.774" rx="17.4782" ry="10.5167" fill="#D4AF37"/>
<ellipse cx="653.808" cy="272.789" rx="17.4782" ry="10.5167" fill="#D4AF37"/>
<ellipse cx="686.766" cy="283.807" rx="17.4782" ry="10.5167" fill="#D4AF37"/>
<ellipse cx="633.833" cy="283.807" rx="17.4782" ry="10.5167" fill="#D4AF37"/>
<ellipse cx="446.067" cy="291.82" rx="17.4782" ry="10.5167" fill="#D4AF37"/>
<ellipse cx="415.106" cy="300.834" rx="17.4782" ry="10.5167" fill="#D4AF37"/>
<ellipse cx="514.981" cy="311.852" rx="17.4782" ry="10.5167" fill="#D4AF37"/>
<ellipse cx="528.964" cy="282.805" rx="17.4782" ry="10.5167" fill="#D4AF37"/>
<ellipse cx="496.005" cy="291.82" rx="17.4782" ry="10.5167" fill="#D4AF37"/>
<ellipse cx="496.005" cy="271.788" rx="17.4782" ry="10.5167" fill="#D4AF37"/>
<ellipse cx="480.025" cy="301.836" rx="17.4782" ry="10.5167" fill="#D4AF37"/>
<ellipse cx="463.046" cy="260.77" rx="17.4782" ry="10.5167" fill="#D4AF37"/>
<ellipse cx="431.086" cy="270.786" rx="17.4782" ry="10.5167" fill="#D4AF37"/>
<ellipse cx="464.045" cy="281.804" rx="17.4782" ry="10.5167" fill="#D4AF37"/>
<ellipse cx="411.111" cy="281.804" rx="17.4782" ry="10.5167" fill="#D4AF37"/>
<ellipse cx="500" cy="330.882" rx="17.4782" ry="10.5167" fill="#D4AF37"/>
<ellipse cx="469.039" cy="339.896" rx="17.4782" ry="10.5167" fill="#D4AF37"/>
<ellipse cx="568.914" cy="350.914" rx="17.4782" ry="10.5167" fill="#D4AF37"/>
<ellipse cx="582.896" cy="321.868" rx="17.4782" ry="10.5167" fill="#D4AF37"/>
<ellipse cx="549.938" cy="330.882" rx="17.4782" ry="10.5167" fill="#D4AF37"/>
<ellipse cx="549.938" cy="310.85" rx="17.4782" ry="10.5167" fill="#D4AF37"/>
<ellipse cx="533.958" cy="340.898" rx="17.4782" ry="10.5167" fill="#D4AF37"/>
<ellipse cx="516.979" cy="299.833" rx="17.4782" ry="10.5167" fill="#D4AF37"/>
<ellipse cx="485.019" cy="309.848" rx="17.4782" ry="10.5167" fill="#D4AF37"/>
<ellipse cx="517.978" cy="320.866" rx="17.4782" ry="10.5167" fill="#D4AF37"/>
<ellipse cx="465.044" cy="320.866" rx="17.4782" ry="10.5167" fill="#D4AF37"/>
<ellipse cx="549.938" cy="305.842" rx="17.4782" ry="10.5167" fill="#D4AF37"/>
<ellipse cx="518.976" cy="314.856" rx="17.4782" ry="10.5167" fill="#D4AF37"/>
<ellipse cx="618.851" cy="325.874" rx="17.4782" ry="10.5167" fill="#D4AF37"/>
<ellipse cx="632.834" cy="296.828" rx="17.4782" ry="10.5167" fill="#D4AF37"/>
<ellipse cx="599.875" cy="305.842" rx="17.4782" ry="10.5167" fill="#D4AF37"/>
<ellipse cx="599.875" cy="285.81" rx="17.4782" ry="10.5167" fill="#D4AF37"/>
<ellipse cx="583.895" cy="315.858" rx="17.4782" ry="10.5167" fill="#D4AF37"/>
<ellipse cx="566.916" cy="274.793" rx="17.4782" ry="10.5167" fill="#D4AF37"/>
<ellipse cx="534.956" cy="284.809" rx="17.4782" ry="10.5167" fill="#D4AF37"/>
<ellipse cx="567.915" cy="295.826" rx="17.4782" ry="10.5167" fill="#D4AF37"/>
<ellipse cx="514.981" cy="295.826" rx="17.4782" ry="10.5167" fill="#D4AF37"/>
<ellipse cx="362.172" cy="312.853" rx="17.4782" ry="10.5167" fill="#D4AF37"/>
<ellipse cx="331.211" cy="321.868" rx="17.4782" ry="10.5167" fill="#D4AF37"/>
<ellipse cx="431.086" cy="332.885" rx="17.4782" ry="10.5167" fill="#D4AF37"/>
<ellipse cx="445.069" cy="303.839" rx="17.4782" ry="10.5167" fill="#D4AF37"/>
<ellipse cx="412.11" cy="312.853" rx="17.4782" ry="10.5167" fill="#D4AF37"/>
<ellipse cx="412.11" cy="292.821" rx="17.4782" ry="10.5167" fill="#D4AF37"/>
<ellipse cx="396.13" cy="322.869" rx="17.4782" ry="10.5167" fill="#D4AF37"/>
<ellipse cx="379.151" cy="281.804" rx="17.4782" ry="10.5167" fill="#D4AF37"/>
<ellipse cx="347.191" cy="291.82" rx="17.4782" ry="10.5167" fill="#D4AF37"/>
<ellipse cx="380.15" cy="302.837" rx="17.4782" ry="10.5167" fill="#D4AF37"/>
<ellipse cx="327.216" cy="302.837" rx="17.4782" ry="10.5167" fill="#D4AF37"/>
<ellipse cx="451.061" cy="355.922" rx="17.4782" ry="10.5167" fill="#D4AF37"/>
<ellipse cx="420.1" cy="364.936" rx="17.4782" ry="10.5167" fill="#D4AF37"/>
<ellipse cx="519.975" cy="375.954" rx="17.4782" ry="10.5167" fill="#D4AF37"/>
<ellipse cx="533.958" cy="346.908" rx="17.4782" ry="10.5167" fill="#D4AF37"/>
<ellipse cx="500.999" cy="355.922" rx="17.4782" ry="10.5167" fill="#D4AF37"/>
<ellipse cx="500.999" cy="335.89" rx="17.4782" ry="10.5167" fill="#D4AF37"/>
<ellipse cx="485.019" cy="365.938" rx="17.4782" ry="10.5167" fill="#D4AF37"/>
<ellipse cx="468.04" cy="324.872" rx="17.4782" ry="10.5167" fill="#D4AF37"/>
<ellipse cx="436.08" cy="334.888" rx="17.4782" ry="10.5167" fill="#D4AF37"/>
<ellipse cx="469.039" cy="345.906" rx="17.4782" ry="10.5167" fill="#D4AF37"/>
<ellipse cx="416.105" cy="345.906" rx="17.4782" ry="10.5167" fill="#D4AF37"/>
<ellipse cx="481.024" cy="300.834" rx="17.4782" ry="10.5167" fill="#D4AF37"/>
<ellipse cx="450.062" cy="309.848" rx="17.4782" ry="10.5167" fill="#D4AF37"/>
<ellipse cx="549.938" cy="320.866" rx="17.4782" ry="10.5167" fill="#D4AF37"/>
<ellipse cx="563.92" cy="291.82" rx="17.4782" ry="10.5167" fill="#D4AF37"/>
<ellipse cx="530.961" cy="300.834" rx="17.4782" ry="10.5167" fill="#D4AF37"/>
<ellipse cx="530.961" cy="280.802" rx="17.4782" ry="10.5167" fill="#D4AF37"/>
<ellipse cx="514.981" cy="310.85" rx="17.4782" ry="10.5167" fill="#D4AF37"/>
<ellipse cx="498.003" cy="269.785" rx="17.4782" ry="10.5167" fill="#D4AF37"/>
<ellipse cx="466.042" cy="279.801" rx="17.4782" ry="10.5167" fill="#D4AF37"/>
<ellipse cx="499.001" cy="290.818" rx="17.4782" ry="10.5167" fill="#D4AF37"/>
<ellipse cx="446.067" cy="290.818" rx="17.4782" ry="10.5167" fill="#D4AF37"/>
<ellipse cx="258.302" cy="298.831" rx="17.4782" ry="10.5167" fill="#D4AF37"/>
<ellipse cx="227.341" cy="307.845" rx="17.4782" ry="10.5167" fill="#D4AF37"/>
<ellipse cx="327.216" cy="318.863" rx="17.4782" ry="10.5167" fill="#D4AF37"/>
<ellipse cx="341.198" cy="289.817" rx="17.4782" ry="10.5167" fill="#D4AF37"/>
<ellipse cx="308.24" cy="298.831" rx="17.4782" ry="10.5167" fill="#D4AF37"/>
<ellipse cx="308.24" cy="278.799" rx="17.4782" ry="10.5167" fill="#D4AF37"/>
<ellipse cx="292.26" cy="308.847" rx="17.4782" ry="10.5167" fill="#D4AF37"/>
<ellipse cx="275.281" cy="267.781" rx="17.4782" ry="10.5167" fill="#D4AF37"/>
<ellipse cx="243.321" cy="277.797" rx="17.4782" ry="10.5167" fill="#D4AF37"/>
<ellipse cx="276.28" cy="288.815" rx="17.4782" ry="10.5167" fill="#D4AF37"/>
<ellipse cx="223.346" cy="288.815" rx="17.4782" ry="10.5167" fill="#D4AF37"/>
<ellipse cx="312.235" cy="337.893" rx="17.4782" ry="10.5167" fill="#D4AF37"/>
<ellipse cx="281.273" cy="346.908" rx="17.4782" ry="10.5167" fill="#D4AF37"/>
<ellipse cx="381.149" cy="357.925" rx="17.4782" ry="10.5167" fill="#D4AF37"/>
<ellipse cx="395.131" cy="328.879" rx="17.4782" ry="10.5167" fill="#D4AF37"/>
<ellipse cx="362.172" cy="337.893" rx="17.4782" ry="10.5167" fill="#D4AF37"/>
<ellipse cx="362.172" cy="317.861" rx="17.4782" ry="10.5167" fill="#D4AF37"/>
<ellipse cx="346.192" cy="347.909" rx="17.4782" ry="10.5167" fill="#D4AF37"/>
<ellipse cx="329.214" cy="306.844" rx="17.4782" ry="10.5167" fill="#D4AF37"/>
<ellipse cx="297.253" cy="316.86" rx="17.4782" ry="10.5167" fill="#D4AF37"/>
<ellipse cx="330.212" cy="327.877" rx="17.4782" ry="10.5167" fill="#D4AF37"/>
<ellipse cx="277.278" cy="327.877" rx="17.4782" ry="10.5167" fill="#D4AF37"/>
<ellipse cx="362.172" cy="312.853" rx="17.4782" ry="10.5167" fill="#D4AF37"/>
<ellipse cx="331.211" cy="321.868" rx="17.4782" ry="10.5167" fill="#D4AF37"/>
<ellipse cx="431.086" cy="332.885" rx="17.4782" ry="10.5167" fill="#D4AF37"/>
<ellipse cx="445.069" cy="303.839" rx="17.4782" ry="10.5167" fill="#D4AF37"/>
<ellipse cx="412.11" cy="312.853" rx="17.4782" ry="10.5167" fill="#D4AF37"/>
<ellipse cx="412.11" cy="292.821" rx="17.4782" ry="10.5167" fill="#D4AF37"/>
<ellipse cx="396.13" cy="322.869" rx="17.4782" ry="10.5167" fill="#D4AF37"/>
<ellipse cx="379.151" cy="281.804" rx="17.4782" ry="10.5167" fill="#D4AF37"/>
<ellipse cx="347.191" cy="291.82" rx="17.4782" ry="10.5167" fill="#D4AF37"/>
<ellipse cx="380.15" cy="302.837" rx="17.4782" ry="10.5167" fill="#D4AF37"/>
<ellipse cx="327.216" cy="302.837" rx="17.4782" ry="10.5167" fill="#D4AF37"/>
</g>
<rect x="110" y="328.362" width="779.001" height="380.638" fill="#8B4513" stroke="#9E9E9E" stroke-width="20"/>
<rect x="593.383" y="329.38" width="19.975" height="377.601" fill="#9E9E9E"/>
<rect x="698.252" y="329.38" width="19.9751" height="377.601" fill="#9E9E9E"/>
<rect x="793.134" y="329.38" width="19.975" height="377.601" fill="#9E9E9E"/>
<rect x="388.639" y="330.381" width="19.975" height="377.601" fill="#9E9E9E"/>
<rect x="292.759" y="329.38" width="19.975" height="377.601" fill="#9E9E9E"/>
<rect x="187.89" y="330.381" width="19.975" height="377.601" fill="#9E9E9E"/>
<rect x="485.518" y="329.38" width="24.9688" height="377.601" fill="#9E9E9E"/>
<path d="M537.447 361.431C537.447 381.752 532.789 399.904 525.514 412.8C518.151 425.849 508.759 432.552 499.501 432.552C490.242 432.552 480.85 425.849 473.488 412.8C466.212 399.904 461.554 381.752 461.554 361.431C461.554 341.109 466.212 322.957 473.488 310.062C480.85 297.012 490.242 290.309 499.501 290.309C508.759 290.309 518.151 297.012 525.514 310.062C532.789 322.957 537.447 341.109 537.447 361.431Z" fill="#D4AF37" stroke="#9E9E9E" stroke-width="10"/>
<rect x="487.516" y="330.381" width="22.9713" height="61.0973" fill="#9E9E9E"/>
<path d="M200.375 101L778.152 101C835.68 101 862.826 124.684 876.19 146.997C883.066 158.476 886.544 170.037 888.29 178.781C888.568 180.174 888.801 181.49 888.996 182.717H111.799C111.968 181.388 112.173 179.954 112.422 178.43C113.87 169.534 116.749 157.828 122.406 146.248C128.047 134.701 136.339 123.492 148.559 115.153C160.706 106.865 177.329 101 200.375 101Z" fill="#8B4513" stroke="#9E9E9E" stroke-width="20"/>
<path d="M267.026 101L718.414 101C740.321 101 756.101 106.814 767.646 115.038C779.288 123.331 787.231 134.514 792.651 146.097C798.082 157.703 800.848 169.439 802.24 178.364C802.482 179.913 802.681 181.369 802.845 182.717H200C200.14 181.289 200.311 179.739 200.521 178.085C201.672 169.042 203.956 157.162 208.436 145.424C212.929 133.65 219.434 122.536 228.72 114.425C237.807 106.488 250.024 101 267.026 101Z" fill="#8B4513" stroke="#9E9E9E" stroke-width="20"/>
<path d="M347.051 101L653.995 101C679.447 101 693.344 120.498 701.106 144.89C704.879 156.75 706.803 168.749 707.771 177.878C707.955 179.61 708.103 181.23 708.223 182.717H304.663C304.763 181.175 304.889 179.49 305.045 177.685C305.841 168.478 307.424 156.36 310.536 144.37C313.682 132.245 318.198 121.029 324.42 113.036C330.414 105.337 337.621 101 347.051 101Z" fill="#8B4513" stroke="#9E9E9E" stroke-width="20"/>
<path d="M417.088 101L579.588 101C582.307 101 586.157 102.859 590.475 111.404C594.613 119.592 597.626 131.132 599.713 143.519C601.772 155.742 602.814 168.06 603.338 177.384C603.446 179.304 603.531 181.091 603.599 182.717H399.348C399.404 181.062 399.475 179.24 399.565 177.281C399.994 167.917 400.848 155.528 402.539 143.219C404.252 130.754 406.736 119.047 410.175 110.704C411.9 106.518 413.611 103.819 415.07 102.302C416.336 100.986 416.943 100.997 417.075 101C417.08 101 417.084 101 417.088 101Z" fill="#8B4513" stroke="#9E9E9E" stroke-width="20"/>
<path d="M500.313 107.418C500.423 105.01 500.54 102.859 500.663 101L501.954 101C502.107 102.868 502.254 105.053 502.392 107.521C502.916 116.906 503.271 129.525 503.508 142.268C503.745 154.982 503.864 167.707 503.923 177.262C503.936 179.401 503.947 181.379 503.955 183.163H499.036C499.043 181.376 499.051 179.393 499.062 177.25C499.11 167.692 499.207 154.958 499.401 142.233C499.594 129.486 499.884 116.839 500.313 107.418Z" fill="#A79E9E" stroke="#9E9E9E" stroke-width="20"/>
<defs>
<filter id="filter0_dd" x="-44.1323" y="0.253586" width="1063.3" height="636.217" filterUnits="userSpaceOnUse" color-interpolation-filters="sRGB">
<feFlood flood-opacity="0" result="BackgroundImageFix"/>
<feColorMatrix in="SourceAlpha" type="matrix" values="0 0 0 0 0 0 0 0 0 0 0 0 0 0 0 0 0 0 127 0"/>
<feOffset/>
<feGaussianBlur stdDeviation="125"/>
<feColorMatrix type="matrix" values="0 0 0 0 0.670833 0 0 0 0 0.574001 0 0 0 0 0.259948 0 0 0 1 0"/>
<feBlend mode="color-burn" in2="BackgroundImageFix" result="effect1_dropShadow"/>
<feColorMatrix in="SourceAlpha" type="matrix" values="0 0 0 0 0 0 0 0 0 0 0 0 0 0 0 0 0 0 127 0"/>
<feOffset dy="4"/>
<feGaussianBlur stdDeviation="2"/>
<feColorMatrix type="matrix" values="0 0 0 0 0 0 0 0 0 0 0 0 0 0 0 0 0 0 0.25 0"/>
<feBlend mode="normal" in2="effect1_dropShadow" result="effect2_dropShadow"/>
<feBlend mode="normal" in="SourceGraphic" in2="effect2_dropShadow" result="shape"/>
</filter>
</defs>
</svg>
