<svg width="800" height="628" viewBox="0 0 800 628" fill="none" xmlns="http://www.w3.org/2000/svg">
<path d="M99.5001 10.0001L678 10.0001C704.858 10.0001 725.056 22.3536 740.733 41.8845C756.648 61.7136 767.629 88.6986 775.09 116.585C782.516 144.341 786.257 172.228 788.133 193.263C789.04 203.426 789.506 211.94 789.746 218H10.2058C10.4017 211.909 10.7837 203.338 11.5283 193.1C13.063 172.001 16.1249 144.008 22.2076 116.132C28.3247 88.0978 37.3312 60.9799 50.3434 41.102C63.2394 21.4016 79.1722 10.0001 99.5001 10.0001Z" fill="#8B4513" stroke="#9E9E9E" stroke-width="20"/>
<path d="M166.234 10L618.188 10C637.262 10 652.417 21.1617 664.818 40.9375C677.294 60.8347 685.932 87.9852 691.797 116.046C697.629 143.946 700.564 171.959 702.035 193.07C702.749 203.322 703.115 211.904 703.303 218H98.6599C98.813 211.88 99.1126 203.253 99.6985 192.942C100.901 171.781 103.301 143.683 108.075 115.68C112.876 87.5126 119.959 60.1976 130.197 40.1782C140.6 19.8377 152.587 10 166.234 10Z" fill="#8B4513" stroke="#9E9E9E" stroke-width="20"/>
<path d="M246.359 10L553.688 10C563.147 10 572.949 18.4174 581.959 39.5473C590.553 59.7028 596.484 87.1676 600.498 115.407C604.489 143.488 606.494 171.651 607.499 192.848C607.989 203.202 608.239 211.863 608.367 218H203.608C203.712 211.847 203.917 203.155 204.318 192.761C205.139 171.531 206.777 143.307 210.041 115.151C213.321 86.852 218.179 59.2278 225.245 38.9097C228.794 28.7055 232.668 21.038 236.677 16.0978C240.614 11.2453 243.814 10 246.359 10Z" fill="#8B4513" stroke="#9E9E9E" stroke-width="20"/>
<path d="M316.435 13.7439C317.227 11.9006 317.907 10.7136 318.398 10L478.54 10C478.969 10.3405 480.067 11.4225 481.666 14.4572C484.336 19.5266 486.921 27.4215 489.27 37.827C493.928 58.4639 497.104 86.3703 499.239 114.75C501.367 143.024 502.433 171.345 502.967 192.626C503.229 203.082 503.363 211.822 503.43 218H298.557C298.612 211.813 298.721 203.057 298.935 192.58C299.371 171.281 300.242 142.928 301.979 114.613C303.722 86.2081 306.318 58.1975 310.141 37.4357C312.068 26.9659 314.205 18.937 316.435 13.7439Z" fill="#8B4513" stroke="#9E9E9E" stroke-width="20"/>
<path d="M400.572 10.3146C400.577 10.2087 400.582 10.1039 400.587 10L400.938 10C400.946 10.1386 400.955 10.2791 400.963 10.4216C401.318 16.5113 401.627 25.3213 401.895 36.0309C402.429 57.4134 402.786 85.9706 403.024 114.583C403.262 143.183 403.381 171.788 403.44 193.246C403.47 203.877 403.485 212.751 403.492 219H398.506C398.512 212.75 398.524 203.874 398.549 193.241C398.597 171.781 398.694 143.172 398.888 114.568C399.083 85.953 399.374 57.3833 399.81 35.9849C400.028 25.2707 400.281 16.4358 400.572 10.3146Z" fill="#A79E9E" stroke="#9E9E9E" stroke-width="20"/>
<rect x="10.0001" y="238" width="780" height="380" fill="#8B4513" stroke="#9E9E9E" stroke-width="20"/>
<rect x="494" y="239" width="20" height="377" fill="#9E9E9E"/>
<rect x="599" y="239" width="20" height="377" fill="#9E9E9E"/>
<rect x="694" y="239" width="20" height="377" fill="#9E9E9E"/>
<rect x="289" y="240" width="20" height="377" fill="#9E9E9E"/>
<rect x="193" y="239" width="20" height="377" fill="#9E9E9E"/>
<rect x="88" y="240" width="20" height="377" fill="#9E9E9E"/>
<rect x="386" y="239" width="25" height="377" fill="#9E9E9E"/>
<path d="M438 271C438 291.286 433.337 309.405 426.054 322.278C418.685 335.302 409.28 342 400 342C390.72 342 381.315 335.302 373.946 322.278C366.663 309.405 362 291.286 362 271C362 250.714 366.663 232.595 373.946 219.722C381.315 206.698 390.72 200 400 200C409.28 200 418.685 206.698 426.054 219.722C433.337 232.595 438 250.714 438 271Z" fill="#D4AF37" stroke="#9E9E9E" stroke-width="10"/>
<rect x="388" y="240" width="23" height="61" fill="#9E9E9E"/>
</svg>
