<svg width="297" height="297" viewBox="0 0 297 297" fill="none" xmlns="http://www.w3.org/2000/svg">
<path d="M266.28 276.392L244.743 2.73828" stroke="black" stroke-opacity="0.24" stroke-linecap="round" stroke-dasharray="2 5"/>
<path d="M3.31146 51.3306L276.965 29.7936" stroke="black" stroke-opacity="0.24" stroke-linecap="round" stroke-dasharray="2 5"/>
<path d="M19.2617 266.743L292.916 245.206" stroke="black" stroke-opacity="0.24" stroke-linecap="round" stroke-dasharray="2 5"/>
<line x1="50.9853" y1="293.838" x2="29.4483" y2="20.1839" stroke="black" stroke-opacity="0.24" stroke-linecap="round" stroke-dasharray="2 5"/>
<circle cx="148.363" cy="148.249" r="92.5" transform="rotate(-4.5 148.363 148.249)" stroke="black" stroke-opacity="0.24" stroke-linecap="round" stroke-dasharray="2 5"/>
<rect x="76.0563" y="115.32" width="138" height="77" rx="6.5" transform="rotate(-4.5 76.0563 115.32)" stroke="black" stroke-opacity="0.24" stroke-linecap="round" stroke-dasharray="2 5"/>
<circle cx="84.1216" cy="122.209" r="2.5" transform="rotate(-4.5 84.1216 122.209)" stroke="black" stroke-opacity="0.24" stroke-dasharray="2 2"/>
<circle cx="92.097" cy="121.581" r="2.5" transform="rotate(-4.5 92.097 121.581)" stroke="black" stroke-opacity="0.24" stroke-dasharray="2 2"/>
<circle cx="100.072" cy="120.953" r="2.5" transform="rotate(-4.5 100.072 120.953)" stroke="black" stroke-opacity="0.24" stroke-dasharray="2 2"/>
<g clip-path="url(#clip0_110_108)">
<path d="M114.727 119.024C114.834 119.24 115.085 119.353 115.323 119.278C115.398 119.255 115.477 119.24 115.56 119.233L116.794 119.136C117.069 119.114 117.275 118.874 117.253 118.598L122.424 118.191C122.446 118.467 122.687 118.672 122.962 118.65L124.196 118.553C124.279 118.547 124.359 118.55 124.437 118.561C124.683 118.597 124.914 118.447 124.986 118.217C125.214 118.331 125.412 118.5 125.561 118.707C125.345 118.815 125.232 119.066 125.306 119.304C125.33 119.379 125.345 119.458 125.352 119.541L125.426 120.488C125.448 120.763 125.689 120.969 125.964 120.947L126.258 124.685C125.983 124.707 125.777 124.948 125.799 125.223L125.948 127.117C125.97 127.393 126.211 127.598 126.486 127.576L126.78 131.315C126.505 131.337 126.299 131.577 126.321 131.853L126.47 133.747C126.492 134.022 126.732 134.228 127.008 134.206L127.302 137.944C127.027 137.966 126.821 138.207 126.843 138.482L126.992 140.376C127.013 140.652 127.254 140.857 127.529 140.836L127.824 144.574C127.548 144.596 127.343 144.836 127.364 145.112L127.513 147.006C127.535 147.281 127.776 147.487 128.051 147.465L128.345 151.203C128.07 151.225 127.864 151.466 127.886 151.741L128.035 153.635C128.057 153.911 128.298 154.116 128.573 154.095L128.867 157.833C128.592 157.855 128.386 158.095 128.408 158.371L128.557 160.265C128.579 160.54 128.819 160.746 129.095 160.724L129.389 164.462C129.114 164.484 128.908 164.725 128.93 165L129.079 166.894C129.1 167.17 129.341 167.375 129.616 167.354L129.911 171.092C129.635 171.114 129.43 171.354 129.451 171.63L129.6 173.524C129.622 173.799 129.863 174.005 130.138 173.983L130.432 177.721C130.157 177.743 129.951 177.984 129.973 178.259L130.048 179.206C130.054 179.289 130.051 179.37 130.04 179.447C130.004 179.694 130.154 179.924 130.384 179.997C130.27 180.225 130.101 180.422 129.894 180.571C129.786 180.355 129.535 180.243 129.297 180.317C129.222 180.34 129.143 180.356 129.06 180.362L127.827 180.459C127.551 180.481 127.346 180.722 127.367 180.997L122.196 181.404C122.174 181.129 121.933 180.923 121.658 180.945L120.425 181.042C120.342 181.048 120.261 181.045 120.183 181.034C119.937 180.998 119.706 181.148 119.634 181.378C119.406 181.264 119.209 181.095 119.06 180.888C119.276 180.78 119.388 180.529 119.314 180.291C119.291 180.216 119.275 180.137 119.268 180.055L119.194 179.107C119.172 178.832 118.932 178.627 118.656 178.648L118.362 174.91C118.637 174.888 118.843 174.647 118.821 174.372L118.672 172.478C118.651 172.203 118.41 171.997 118.135 172.019L117.84 168.28C118.116 168.259 118.321 168.018 118.3 167.743L118.15 165.848C118.129 165.573 117.888 165.368 117.613 165.389L117.319 161.651C117.594 161.629 117.799 161.388 117.778 161.113L117.629 159.219C117.607 158.944 117.366 158.738 117.091 158.76L116.797 155.021C117.072 155 117.278 154.759 117.256 154.484L117.107 152.589C117.085 152.314 116.845 152.109 116.569 152.13L116.275 148.392C116.55 148.37 116.756 148.129 116.734 147.854L116.585 145.96C116.564 145.685 116.323 145.479 116.048 145.501L115.753 141.762C116.029 141.741 116.234 141.5 116.213 141.225L116.063 139.33C116.042 139.055 115.801 138.85 115.526 138.871L115.232 135.133C115.507 135.111 115.712 134.87 115.691 134.595L115.542 132.701C115.52 132.426 115.279 132.22 115.004 132.242L114.71 128.503C114.985 128.482 115.191 128.241 115.169 127.966L115.02 126.071C114.998 125.796 114.758 125.591 114.482 125.612L114.188 121.874C114.463 121.852 114.669 121.611 114.647 121.336L114.573 120.389C114.566 120.306 114.569 120.226 114.581 120.148C114.617 119.902 114.466 119.671 114.236 119.599C114.351 119.371 114.52 119.173 114.727 119.024Z" stroke="black" stroke-opacity="0.24" stroke-linecap="round" stroke-dasharray="2 5"/>
<path d="M165.757 115.008C165.864 115.224 166.115 115.336 166.353 115.262C166.428 115.239 166.507 115.223 166.59 115.217L167.823 115.12C168.099 115.098 168.304 114.857 168.283 114.582L173.454 114.175C173.476 114.45 173.717 114.656 173.992 114.634L175.226 114.537C175.308 114.531 175.389 114.534 175.467 114.545C175.713 114.581 175.944 114.431 176.016 114.201C176.244 114.315 176.441 114.484 176.59 114.691C176.374 114.799 176.262 115.05 176.336 115.288C176.36 115.363 176.375 115.442 176.382 115.525L176.456 116.472C176.478 116.747 176.719 116.953 176.994 116.931L177.288 120.669C177.013 120.691 176.807 120.932 176.829 121.207L176.978 123.101C177 123.376 177.24 123.582 177.516 123.56L177.81 127.299C177.535 127.32 177.329 127.561 177.351 127.836L177.5 129.731C177.521 130.006 177.762 130.212 178.037 130.19L178.332 133.928C178.056 133.95 177.851 134.191 177.872 134.466L178.021 136.36C178.043 136.635 178.284 136.841 178.559 136.819L178.853 140.558C178.578 140.579 178.372 140.82 178.394 141.096L178.543 142.99C178.565 143.265 178.806 143.471 179.081 143.449L179.375 147.187C179.1 147.209 178.894 147.45 178.916 147.725L179.065 149.619C179.087 149.894 179.327 150.1 179.603 150.078L179.897 153.817C179.622 153.838 179.416 154.079 179.438 154.355L179.587 156.249C179.608 156.524 179.849 156.73 180.124 156.708L180.419 160.446C180.143 160.468 179.938 160.709 179.959 160.984L180.108 162.878C180.13 163.153 180.371 163.359 180.646 163.337L180.94 167.076C180.665 167.097 180.459 167.338 180.481 167.614L180.63 169.508C180.652 169.783 180.893 169.989 181.168 169.967L181.462 173.705C181.187 173.727 180.981 173.968 181.003 174.243L181.077 175.19C181.084 175.273 181.081 175.353 181.07 175.431C181.034 175.678 181.184 175.908 181.414 175.98C181.299 176.208 181.131 176.406 180.923 176.555C180.816 176.339 180.565 176.227 180.327 176.301C180.252 176.324 180.173 176.34 180.09 176.346L178.856 176.443C178.581 176.465 178.375 176.706 178.397 176.981L173.226 177.388C173.204 177.113 172.963 176.907 172.688 176.929L171.454 177.026C171.372 177.032 171.291 177.029 171.213 177.018C170.967 176.982 170.736 177.132 170.664 177.362C170.436 177.248 170.238 177.079 170.089 176.872C170.305 176.764 170.418 176.513 170.344 176.275C170.32 176.2 170.305 176.121 170.298 176.038L170.224 175.091C170.202 174.816 169.961 174.61 169.686 174.632L169.392 170.894C169.667 170.872 169.873 170.631 169.851 170.356L169.702 168.462C169.68 168.187 169.44 167.981 169.164 168.003L168.87 164.264C169.145 164.243 169.351 164.002 169.329 163.726L169.18 161.832C169.159 161.557 168.918 161.351 168.642 161.373L168.348 157.635C168.624 157.613 168.829 157.372 168.807 157.097L168.658 155.203C168.637 154.928 168.396 154.722 168.121 154.744L167.827 151.005C168.102 150.984 168.307 150.743 168.286 150.467L168.137 148.573C168.115 148.298 167.874 148.092 167.599 148.114L167.305 144.376C167.58 144.354 167.786 144.113 167.764 143.838L167.615 141.944C167.593 141.669 167.353 141.463 167.077 141.485L166.783 137.746C167.058 137.725 167.264 137.484 167.242 137.208L167.093 135.314C167.071 135.039 166.831 134.833 166.555 134.855L166.261 131.117C166.537 131.095 166.742 130.854 166.72 130.579L166.571 128.685C166.55 128.41 166.309 128.204 166.034 128.226L165.739 124.487C166.015 124.466 166.22 124.225 166.199 123.949L166.05 122.055C166.028 121.78 165.787 121.574 165.512 121.596L165.218 117.858C165.493 117.836 165.699 117.595 165.677 117.32L165.602 116.373C165.596 116.29 165.599 116.21 165.61 116.132C165.646 115.885 165.496 115.655 165.266 115.583C165.381 115.355 165.549 115.157 165.757 115.008Z" stroke="black" stroke-opacity="0.24" stroke-linecap="round" stroke-dasharray="2 5"/>
<path d="M138.279 117.171C138.386 117.387 138.638 117.499 138.875 117.425C138.95 117.401 139.03 117.386 139.112 117.379L140.009 117.309C140.285 117.287 140.49 117.046 140.469 116.771L143.958 116.497C143.98 116.772 144.22 116.977 144.496 116.956L146.29 116.815C146.565 116.793 146.771 116.552 146.749 116.277L150.238 116.002C150.26 116.278 150.501 116.483 150.776 116.461L151.673 116.391C151.756 116.384 151.837 116.387 151.915 116.399C152.161 116.435 152.391 116.284 152.464 116.054C152.692 116.169 152.889 116.338 153.038 116.545C152.822 116.652 152.71 116.904 152.784 117.141C152.807 117.216 152.823 117.295 152.829 117.378L152.906 118.35C152.928 118.625 153.168 118.831 153.444 118.809L153.748 122.672C153.472 122.694 153.267 122.935 153.288 123.21L153.441 125.154C153.463 125.429 153.704 125.635 153.979 125.613L154.283 129.476C154.008 129.498 153.802 129.739 153.824 130.014L153.977 131.958C153.999 132.233 154.239 132.439 154.515 132.417L154.819 136.28C154.543 136.302 154.338 136.543 154.359 136.818L154.436 137.79C154.442 137.873 154.439 137.953 154.428 138.031C154.392 138.278 154.542 138.508 154.772 138.58C154.658 138.808 154.489 139.006 154.282 139.155C154.174 138.939 153.923 138.827 153.685 138.901C153.61 138.924 153.531 138.94 153.449 138.946L152.551 139.017C152.276 139.038 152.07 139.279 152.092 139.554L148.603 139.829C148.581 139.554 148.34 139.348 148.065 139.37L146.271 139.511C145.995 139.533 145.79 139.773 145.812 140.049L142.322 140.323C142.301 140.048 142.06 139.842 141.785 139.864L140.887 139.935C140.805 139.941 140.724 139.938 140.646 139.927C140.4 139.891 140.169 140.041 140.097 140.271C139.869 140.157 139.671 139.988 139.523 139.781C139.739 139.673 139.851 139.422 139.777 139.184C139.753 139.109 139.738 139.03 139.731 138.947L139.655 137.975C139.633 137.7 139.392 137.494 139.117 137.516L138.813 133.653C139.088 133.631 139.294 133.391 139.272 133.115L139.119 131.171C139.098 130.896 138.857 130.69 138.582 130.712L138.278 126.849C138.553 126.827 138.759 126.587 138.737 126.311L138.584 124.367C138.562 124.092 138.321 123.887 138.046 123.908L137.742 120.045C138.017 120.023 138.223 119.783 138.201 119.507L138.125 118.535C138.118 118.453 138.121 118.372 138.133 118.294C138.169 118.048 138.019 117.817 137.788 117.745C137.903 117.517 138.072 117.32 138.279 117.171Z" stroke="black" stroke-opacity="0.24" stroke-linecap="round" stroke-dasharray="2 5"/>
<path d="M141.368 156.424C141.476 156.64 141.727 156.753 141.965 156.678C142.04 156.655 142.119 156.64 142.202 156.633L143.099 156.562C143.374 156.541 143.58 156.3 143.558 156.025L147.047 155.75C147.069 156.025 147.31 156.231 147.585 156.209L149.379 156.068C149.655 156.046 149.86 155.806 149.839 155.53L153.328 155.256C153.349 155.531 153.59 155.737 153.866 155.715L154.763 155.644C154.845 155.638 154.926 155.641 155.004 155.652C155.25 155.688 155.481 155.538 155.553 155.308C155.781 155.423 155.979 155.591 156.127 155.799C155.911 155.906 155.799 156.157 155.873 156.395C155.897 156.47 155.912 156.549 155.919 156.632L155.995 157.604C156.017 157.879 156.258 158.085 156.533 158.063L156.837 161.926C156.562 161.948 156.356 162.188 156.378 162.464L156.531 164.408C156.552 164.683 156.793 164.889 157.068 164.867L157.372 168.73C157.097 168.752 156.892 168.992 156.913 169.268L157.066 171.212C157.088 171.487 157.329 171.693 157.604 171.671L157.908 175.534C157.633 175.556 157.427 175.796 157.449 176.072L157.525 177.044C157.532 177.126 157.529 177.207 157.517 177.285C157.481 177.531 157.632 177.762 157.862 177.834C157.747 178.062 157.578 178.26 157.371 178.408C157.264 178.192 157.012 178.08 156.775 178.154C156.7 178.178 156.621 178.193 156.538 178.2L155.641 178.27C155.365 178.292 155.16 178.533 155.181 178.808L151.692 179.083C151.671 178.807 151.43 178.602 151.155 178.623L149.36 178.765C149.085 178.786 148.879 179.027 148.901 179.302L145.412 179.577C145.39 179.302 145.149 179.096 144.874 179.118L143.977 179.188C143.894 179.195 143.813 179.192 143.736 179.18C143.489 179.144 143.259 179.295 143.186 179.525C142.958 179.41 142.761 179.241 142.612 179.034C142.828 178.927 142.94 178.676 142.866 178.438C142.843 178.363 142.827 178.284 142.821 178.201L142.744 177.229C142.723 176.954 142.482 176.748 142.206 176.77L141.902 172.907C142.178 172.885 142.383 172.644 142.362 172.369L142.209 170.425C142.187 170.15 141.946 169.944 141.671 169.966L141.367 166.103C141.642 166.081 141.848 165.84 141.826 165.565L141.673 163.621C141.652 163.346 141.411 163.14 141.136 163.162L140.831 159.299C141.107 159.277 141.312 159.036 141.291 158.761L141.214 157.789C141.208 157.706 141.211 157.626 141.222 157.548C141.258 157.302 141.108 157.071 140.878 156.999C140.992 156.771 141.161 156.573 141.368 156.424Z" stroke="black" stroke-opacity="0.24" stroke-linecap="round" stroke-dasharray="2 5"/>
</g>
<defs>
<clipPath id="clip0_110_108">
<rect width="63" height="63" fill="white" transform="translate(113.951 118.858) rotate(-4.5)"/>
</clipPath>
</defs>
</svg>
