<svg width="1024" height="1024" viewBox="0 0 1024 1024" fill="none" xmlns="http://www.w3.org/2000/svg">
<g clip-path="url(#clip0_31_579)">
<rect width="1024" height="1024" fill="#FFD2E3"/>
<path d="M31.0303 0H0V31.0303H31.0303V0Z" fill="#F8C4D7"/>
<path d="M62.0606 0H31.0303V31.0303H62.0606V0Z" fill="#F8C4D7"/>
<path d="M93.0909 0H62.0606V31.0303H93.0909V0Z" fill="#F8C4D7"/>
<path d="M124.121 0H93.0909V31.0303H124.121V0Z" fill="#F8C4D7"/>
<path d="M155.152 0H124.121V31.0303H155.152V0Z" fill="#F8C4D7"/>
<path d="M186.182 0H155.152V31.0303H186.182V0Z" fill="#F8C4D7"/>
<path d="M217.212 0H186.182V31.0303H217.212V0Z" fill="#F8C4D7"/>
<path d="M279.273 0H248.242V31.0303H279.273V0Z" fill="#F8C4D7"/>
<path d="M310.303 0H279.273V31.0303H310.303V0Z" fill="#F8C4D7"/>
<path d="M341.333 0H310.303V31.0303H341.333V0Z" fill="#F8C4D7"/>
<path d="M372.364 0H341.333V31.0303H372.364V0Z" fill="#F8C4D7"/>
<path d="M465.455 0H434.424V31.0303H465.455V0Z" fill="#F8C4D7"/>
<path d="M496.485 0H465.455V31.0303H496.485V0Z" fill="#F8C4D7"/>
<path d="M558.545 0H527.515V31.0303H558.545V0Z" fill="#F8C4D7"/>
<path d="M620.606 0H589.576V31.0303H620.606V0Z" fill="#F8C4D7"/>
<path d="M651.636 0H620.606V31.0303H651.636V0Z" fill="#F8C4D7"/>
<path d="M682.667 0H651.636V31.0303H682.667V0Z" fill="#F8C4D7"/>
<path d="M713.697 0H682.667V31.0303H713.697V0Z" fill="#F8C4D7"/>
<path d="M744.727 0H713.697V31.0303H744.727V0Z" fill="#F8C4D7"/>
<path d="M775.758 0H744.727V31.0303H775.758V0Z" fill="#F8C4D7"/>
<path d="M837.818 0H806.788V31.0303H837.818V0Z" fill="#F8C4D7"/>
<path d="M868.849 0H837.818V31.0303H868.849V0Z" fill="#F8C4D7"/>
<path d="M899.879 0H868.849V31.0303H899.879V0Z" fill="#F8C4D7"/>
<path d="M930.909 0H899.879V31.0303H930.909V0Z" fill="#F8C4D7"/>
<path d="M961.939 0H930.909V31.0303H961.939V0Z" fill="#F8C4D7"/>
<path d="M992.97 0H961.939V31.0303H992.97V0Z" fill="#F8C4D7"/>
<path d="M1024 0H992.97V31.0303H1024V0Z" fill="#F8C4D7"/>
<path d="M31.0303 31.0303H0V62.0606H31.0303V31.0303Z" fill="#F8C4D7"/>
<path d="M217.212 31.0303H186.182V62.0606H217.212V31.0303Z" fill="#F8C4D7"/>
<path d="M372.364 31.0303H341.333V62.0606H372.364V31.0303Z" fill="#F8C4D7"/>
<path d="M403.394 31.0303H372.364V62.0606H403.394V31.0303Z" fill="#F8C4D7"/>
<path d="M434.424 31.0303H403.394V62.0606H434.424V31.0303Z" fill="#F8C4D7"/>
<path d="M558.545 31.0303H527.515V62.0606H558.545V31.0303Z" fill="#F8C4D7"/>
<path d="M620.606 31.0303H589.576V62.0606H620.606V31.0303Z" fill="#F8C4D7"/>
<path d="M837.818 31.0303H806.788V62.0606H837.818V31.0303Z" fill="#F8C4D7"/>
<path d="M1024 31.0303H992.97V62.0606H1024V31.0303Z" fill="#F8C4D7"/>
<path d="M31.0303 62.0606H0V93.0909H31.0303V62.0606Z" fill="#F8C4D7"/>
<path d="M93.0909 62.0606H62.0606V93.0909H93.0909V62.0606Z" fill="#F8C4D7"/>
<path d="M124.121 62.0606H93.0909V93.0909H124.121V62.0606Z" fill="#F8C4D7"/>
<path d="M155.152 62.0606H124.121V93.0909H155.152V62.0606Z" fill="#F8C4D7"/>
<path d="M217.212 62.0606H186.182V93.0909H217.212V62.0606Z" fill="#F8C4D7"/>
<path d="M279.273 62.0606H248.242V93.0909H279.273V62.0606Z" fill="#F8C4D7"/>
<path d="M310.303 62.0606H279.273V93.0909H310.303V62.0606Z" fill="#F8C4D7"/>
<path d="M341.333 62.0606H310.303V93.0909H341.333V62.0606Z" fill="#F8C4D7"/>
<path d="M403.394 62.0606H372.364V93.0909H403.394V62.0606Z" fill="#F8C4D7"/>
<path d="M434.424 62.0606H403.394V93.0909H434.424V62.0606Z" fill="#F8C4D7"/>
<path d="M465.455 62.0606H434.424V93.0909H465.455V62.0606Z" fill="#F8C4D7"/>
<path d="M558.545 62.0606H527.515V93.0909H558.545V62.0606Z" fill="#F8C4D7"/>
<path d="M589.576 62.0606H558.545V93.0909H589.576L589.576 62.0606Z" fill="#F8C4D7"/>
<path d="M651.636 62.0606H620.606V93.0909H651.636V62.0606Z" fill="#F8C4D7"/>
<path d="M713.697 62.0606H682.667V93.0909H713.697V62.0606Z" fill="#F8C4D7"/>
<path d="M744.727 62.0606H713.697V93.0909H744.727V62.0606Z" fill="#F8C4D7"/>
<path d="M775.758 62.0606H744.727V93.0909H775.758V62.0606Z" fill="#F8C4D7"/>
<path d="M837.818 62.0606H806.788V93.0909H837.818V62.0606Z" fill="#F8C4D7"/>
<path d="M899.879 62.0606H868.849V93.0909H899.879V62.0606Z" fill="#F8C4D7"/>
<path d="M930.909 62.0606H899.879V93.0909H930.909V62.0606Z" fill="#F8C4D7"/>
<path d="M961.939 62.0606H930.909V93.0909H961.939V62.0606Z" fill="#F8C4D7"/>
<path d="M1024 62.0606H992.97V93.0909H1024V62.0606Z" fill="#F8C4D7"/>
<path d="M31.0303 93.0909H0V124.121H31.0303V93.0909Z" fill="#F8C4D7"/>
<path d="M93.0909 93.0909H62.0606V124.121H93.0909V93.0909Z" fill="#F8C4D7"/>
<path d="M124.121 93.0909H93.0909V124.121H124.121V93.0909Z" fill="#F8C4D7"/>
<path d="M155.152 93.0909H124.121V124.121H155.152V93.0909Z" fill="#F8C4D7"/>
<path d="M217.212 93.0909H186.182V124.121H217.212V93.0909Z" fill="#F8C4D7"/>
<path d="M279.273 93.0909H248.242V124.121H279.273V93.0909Z" fill="#F8C4D7"/>
<path d="M310.303 93.0909H279.273V124.121H310.303V93.0909Z" fill="#F8C4D7"/>
<path d="M496.485 93.0909H465.455V124.121H496.485V93.0909Z" fill="#F8C4D7"/>
<path d="M558.545 93.0909H527.515V124.121H558.545V93.0909Z" fill="#F8C4D7"/>
<path d="M589.576 93.0909H558.545V124.121H589.576V93.0909Z" fill="#F8C4D7"/>
<path d="M620.606 93.0909H589.576V124.121H620.606V93.0909Z" fill="#F8C4D7"/>
<path d="M651.636 93.0909H620.606V124.121H651.636V93.0909Z" fill="#F8C4D7"/>
<path d="M713.697 93.0909H682.667V124.121H713.697V93.0909Z" fill="#F8C4D7"/>
<path d="M744.727 93.0909H713.697V124.121H744.727V93.0909Z" fill="#F8C4D7"/>
<path d="M837.818 93.0909H806.788V124.121H837.818V93.0909Z" fill="#F8C4D7"/>
<path d="M899.879 93.0909H868.849V124.121H899.879V93.0909Z" fill="#F8C4D7"/>
<path d="M930.909 93.0909H899.879V124.121H930.909V93.0909Z" fill="#F8C4D7"/>
<path d="M961.939 93.0909H930.909V124.121H961.939V93.0909Z" fill="#F8C4D7"/>
<path d="M1024 93.0909H992.97V124.121H1024V93.0909Z" fill="#F8C4D7"/>
<path d="M31.0303 124.121H0V155.152H31.0303V124.121Z" fill="#F8C4D7"/>
<path d="M93.0909 124.121H62.0606V155.152H93.0909V124.121Z" fill="#F8C4D7"/>
<path d="M124.121 124.121H93.0909V155.152H124.121V124.121Z" fill="#F8C4D7"/>
<path d="M155.152 124.121H124.121V155.152H155.152V124.121Z" fill="#F8C4D7"/>
<path d="M217.212 124.121H186.182V155.152H217.212V124.121Z" fill="#F8C4D7"/>
<path d="M279.273 124.121H248.242V155.152H279.273V124.121Z" fill="#F8C4D7"/>
<path d="M341.333 124.121H310.303V155.152H341.333V124.121Z" fill="#F8C4D7"/>
<path d="M372.364 124.121H341.333V155.152H372.364V124.121Z" fill="#F8C4D7"/>
<path d="M434.424 124.121H403.394V155.152H434.424V124.121Z" fill="#F8C4D7"/>
<path d="M465.455 124.121H434.424V155.152H465.455V124.121Z" fill="#F8C4D7"/>
<path d="M527.515 124.121H496.485V155.152H527.515V124.121Z" fill="#F8C4D7"/>
<path d="M558.545 124.121H527.515V155.152H558.545V124.121Z" fill="#F8C4D7"/>
<path d="M589.576 124.121H558.545V155.152H589.576V124.121Z" fill="#F8C4D7"/>
<path d="M620.606 124.121H589.576V155.152H620.606V124.121Z" fill="#F8C4D7"/>
<path d="M713.697 124.121H682.667V155.152H713.697V124.121Z" fill="#F8C4D7"/>
<path d="M744.727 124.121H713.697V155.152H744.727V124.121Z" fill="#F8C4D7"/>
<path d="M775.758 124.121H744.727V155.152H775.758V124.121Z" fill="#F8C4D7"/>
<path d="M837.818 124.121H806.788V155.152H837.818V124.121Z" fill="#F8C4D7"/>
<path d="M899.879 124.121H868.849V155.152H899.879V124.121Z" fill="#F8C4D7"/>
<path d="M930.909 124.121H899.879V155.152H930.909V124.121Z" fill="#F8C4D7"/>
<path d="M961.939 124.121H930.909V155.152H961.939V124.121Z" fill="#F8C4D7"/>
<path d="M1024 124.121H992.97V155.152H1024V124.121Z" fill="#F8C4D7"/>
<path d="M31.0303 155.152H0V186.182H31.0303V155.152Z" fill="#F8C4D7"/>
<path d="M217.212 155.152H186.182V186.182H217.212V155.152Z" fill="#F8C4D7"/>
<path d="M279.273 155.152H248.242V186.182H279.273V155.152Z" fill="#F8C4D7"/>
<path d="M341.333 155.152H310.303V186.182H341.333V155.152Z" fill="#F8C4D7"/>
<path d="M434.424 155.152H403.394V186.182H434.424V155.152Z" fill="#F8C4D7"/>
<path d="M651.636 155.152H620.606V186.182H651.636V155.152Z" fill="#F8C4D7"/>
<path d="M713.697 155.152H682.667V186.182H713.697V155.152Z" fill="#F8C4D7"/>
<path d="M775.758 155.152H744.727V186.182H775.758V155.152Z" fill="#F8C4D7"/>
<path d="M837.818 155.152H806.788V186.182H837.818V155.152Z" fill="#F8C4D7"/>
<path d="M1024 155.152H992.97V186.182H1024V155.152Z" fill="#F8C4D7"/>
<path d="M31.0303 186.182H0V217.212H31.0303V186.182Z" fill="#F8C4D7"/>
<path d="M62.0606 186.182H31.0303V217.212H62.0606V186.182Z" fill="#F8C4D7"/>
<path d="M93.0909 186.182H62.0606V217.212H93.0909V186.182Z" fill="#F8C4D7"/>
<path d="M124.121 186.182H93.0909V217.212H124.121V186.182Z" fill="#F8C4D7"/>
<path d="M155.152 186.182H124.121V217.212H155.152V186.182Z" fill="#F8C4D7"/>
<path d="M186.182 186.182H155.152V217.212H186.182V186.182Z" fill="#F8C4D7"/>
<path d="M217.212 186.182H186.182V217.212H217.212V186.182Z" fill="#F8C4D7"/>
<path d="M279.273 186.182H248.242V217.212H279.273V186.182Z" fill="#F8C4D7"/>
<path d="M341.333 186.182H310.303V217.212H341.333V186.182Z" fill="#F8C4D7"/>
<path d="M403.394 186.182H372.364V217.212H403.394V186.182Z" fill="#F8C4D7"/>
<path d="M465.455 186.182H434.424V217.212H465.455V186.182Z" fill="#F8C4D7"/>
<path d="M527.515 186.182H496.485V217.212H527.515V186.182Z" fill="#F8C4D7"/>
<path d="M589.576 186.182H558.545V217.212H589.576V186.182Z" fill="#F8C4D7"/>
<path d="M651.636 186.182H620.606V217.212H651.636V186.182Z" fill="#F8C4D7"/>
<path d="M713.697 186.182H682.667V217.212H713.697V186.182Z" fill="#F8C4D7"/>
<path d="M775.758 186.182H744.727V217.212H775.758V186.182Z" fill="#F8C4D7"/>
<path d="M837.818 186.182H806.788V217.212H837.818V186.182Z" fill="#F8C4D7"/>
<path d="M868.849 186.182H837.818V217.212H868.849V186.182Z" fill="#F8C4D7"/>
<path d="M899.879 186.182H868.849V217.212H899.879V186.182Z" fill="#F8C4D7"/>
<path d="M930.909 186.182H899.879V217.212H930.909V186.182Z" fill="#F8C4D7"/>
<path d="M961.939 186.182H930.909V217.212H961.939V186.182Z" fill="#F8C4D7"/>
<path d="M992.97 186.182H961.939V217.212H992.97V186.182Z" fill="#F8C4D7"/>
<path d="M1024 186.182H992.97V217.212H1024V186.182Z" fill="#F8C4D7"/>
<path d="M434.424 217.212H403.394V248.242H434.424V217.212Z" fill="#F8C4D7"/>
<path d="M465.455 217.212H434.424V248.242H465.455V217.212Z" fill="#F8C4D7"/>
<path d="M527.515 217.212H496.485V248.242H527.515V217.212Z" fill="#F8C4D7"/>
<path d="M558.545 217.212H527.515V248.242H558.545V217.212Z" fill="#F8C4D7"/>
<path d="M651.636 217.212H620.606V248.242H651.636V217.212Z" fill="#F8C4D7"/>
<path d="M713.697 217.212H682.667V248.242H713.697V217.212Z" fill="#F8C4D7"/>
<path d="M744.727 217.212H713.697V248.242H744.727V217.212Z" fill="#F8C4D7"/>
<path d="M775.758 217.212H744.727V248.242H775.758V217.212Z" fill="#F8C4D7"/>
<path d="M93.0909 248.242H62.0606V279.273H93.0909V248.242Z" fill="#F8C4D7"/>
<path d="M124.121 248.242H93.0909V279.273H124.121V248.242Z" fill="#F8C4D7"/>
<path d="M155.152 248.242H124.121V279.273H155.152V248.242Z" fill="#F8C4D7"/>
<path d="M186.182 248.242H155.152V279.273H186.182V248.242Z" fill="#F8C4D7"/>
<path d="M217.212 248.242H186.182V279.273H217.212V248.242Z" fill="#F8C4D7"/>
<path d="M248.242 248.242H217.212V279.273H248.242V248.242Z" fill="#F8C4D7"/>
<path d="M310.303 248.242H279.273V279.273H310.303V248.242Z" fill="#F8C4D7"/>
<path d="M341.333 248.242H310.303V279.273H341.333V248.242Z" fill="#F8C4D7"/>
<path d="M372.364 248.242H341.333V279.273H372.364V248.242Z" fill="#F8C4D7"/>
<path d="M403.394 248.242H372.364V279.273H403.394V248.242Z" fill="#F8C4D7"/>
<path d="M434.424 248.242H403.394V279.273H434.424V248.242Z" fill="#F8C4D7"/>
<path d="M527.515 248.242H496.485V279.273H527.515V248.242Z" fill="#F8C4D7"/>
<path d="M558.545 248.242H527.515V279.273H558.545V248.242Z" fill="#F8C4D7"/>
<path d="M589.576 248.242H558.545V279.273H589.576V248.242Z" fill="#F8C4D7"/>
<path d="M620.606 248.242H589.576V279.273H620.606V248.242Z" fill="#F8C4D7"/>
<path d="M651.636 248.242H620.606V279.273H651.636V248.242Z" fill="#F8C4D7"/>
<path d="M682.667 248.242H651.636V279.273H682.667V248.242Z" fill="#F8C4D7"/>
<path d="M713.697 248.242H682.667V279.273H713.697V248.242Z" fill="#F8C4D7"/>
<path d="M775.758 248.242H744.727V279.273H775.758V248.242Z" fill="#F8C4D7"/>
<path d="M806.788 248.242H775.758V279.273H806.788V248.242Z" fill="#F8C4D7"/>
<path d="M868.849 248.242H837.818V279.273H868.849V248.242Z" fill="#F8C4D7"/>
<path d="M899.879 248.242H868.849V279.273H899.879V248.242Z" fill="#F8C4D7"/>
<path d="M930.909 248.242H899.879V279.273H930.909V248.242Z" fill="#F8C4D7"/>
<path d="M961.939 248.242H930.909V279.273H961.939V248.242Z" fill="#F8C4D7"/>
<path d="M1024 248.242H992.97V279.273H1024V248.242Z" fill="#F8C4D7"/>
<path d="M31.0303 279.273H0V310.303H31.0303V279.273Z" fill="#F8C4D7"/>
<path d="M155.152 279.273H124.121V310.303H155.152V279.273Z" fill="#F8C4D7"/>
<path d="M186.182 279.273H155.152V310.303H186.182V279.273Z" fill="#F8C4D7"/>
<path d="M372.364 279.273H341.333V310.303H372.364V279.273Z" fill="#F8C4D7"/>
<path d="M527.515 279.273H496.485V310.303H527.515V279.273Z" fill="#F8C4D7"/>
<path d="M558.545 279.273H527.515V310.303H558.545V279.273Z" fill="#F8C4D7"/>
<path d="M713.697 279.273H682.667V310.303H713.697V279.273Z" fill="#F8C4D7"/>
<path d="M775.758 279.273H744.727V310.303H775.758V279.273Z" fill="#F8C4D7"/>
<path d="M806.788 279.273H775.758V310.303H806.788V279.273Z" fill="#F8C4D7"/>
<path d="M837.818 279.273H806.788V310.303H837.818V279.273Z" fill="#F8C4D7"/>
<path d="M868.849 279.273H837.818V310.303H868.849V279.273Z" fill="#F8C4D7"/>
<path d="M930.909 279.273H899.879V310.303H930.909V279.273Z" fill="#F8C4D7"/>
<path d="M961.939 279.273H930.909V310.303H961.939V279.273Z" fill="#F8C4D7"/>
<path d="M31.0303 310.303H0V341.333H31.0303V310.303Z" fill="#F8C4D7"/>
<path d="M62.0606 310.303H31.0303V341.333H62.0606V310.303Z" fill="#F8C4D7"/>
<path d="M124.121 310.303H93.0909V341.333H124.121V310.303Z" fill="#F8C4D7"/>
<path d="M155.152 310.303H124.121V341.333H155.152V310.303Z" fill="#F8C4D7"/>
<path d="M186.182 310.303H155.152V341.333H186.182V310.303Z" fill="#F8C4D7"/>
<path d="M217.212 310.303H186.182V341.333H217.212V310.303Z" fill="#F8C4D7"/>
<path d="M279.273 310.303H248.242V341.333H279.273V310.303Z" fill="#F8C4D7"/>
<path d="M496.485 310.303H465.455V341.333H496.485V310.303Z" fill="#F8C4D7"/>
<path d="M651.636 310.303H620.606V341.333H651.636V310.303Z" fill="#F8C4D7"/>
<path d="M682.667 310.303H651.636V341.333H682.667V310.303Z" fill="#F8C4D7"/>
<path d="M744.727 310.303H713.697V341.333H744.727V310.303Z" fill="#F8C4D7"/>
<path d="M837.818 310.303H806.788V341.333H837.818V310.303Z" fill="#F8C4D7"/>
<path d="M868.849 310.303H837.818V341.333H868.849V310.303Z" fill="#F8C4D7"/>
<path d="M930.909 310.303H899.879V341.333H930.909V310.303Z" fill="#F8C4D7"/>
<path d="M992.97 310.303H961.939V341.333H992.97V310.303Z" fill="#F8C4D7"/>
<path d="M62.0606 341.333H31.0303V372.364H62.0606V341.333Z" fill="#F8C4D7"/>
<path d="M124.121 341.333H93.0909V372.364H124.121V341.333Z" fill="#F8C4D7"/>
<path d="M248.242 341.333H217.212V372.364H248.242V341.333Z" fill="#F8C4D7"/>
<path d="M341.333 341.333H310.303V372.364H341.333V341.333Z" fill="#F8C4D7"/>
<path d="M372.364 341.333H341.333V372.364H372.364V341.333Z" fill="#F8C4D7"/>
<path d="M403.394 341.333H372.364V372.364H403.394V341.333Z" fill="#F8C4D7"/>
<path d="M589.576 341.333H558.545V372.364H589.576V341.333Z" fill="#F8C4D7"/>
<path d="M775.758 341.333H744.727V372.364H775.758V341.333Z" fill="#F8C4D7"/>
<path d="M806.788 341.333H775.758V372.364H806.788V341.333Z" fill="#F8C4D7"/>
<path d="M837.818 341.333H806.788V372.364H837.818V341.333Z" fill="#F8C4D7"/>
<path d="M868.849 341.333H837.818V372.364H868.849V341.333Z" fill="#F8C4D7"/>
<path d="M930.909 341.333H899.879V372.364H930.909V341.333Z" fill="#F8C4D7"/>
<path d="M992.97 341.333H961.939V372.364H992.97V341.333Z" fill="#F8C4D7"/>
<path d="M1024 341.333H992.97V372.364H1024V341.333Z" fill="#F8C4D7"/>
<path d="M62.0606 372.364H31.0303V403.394H62.0606V372.364Z" fill="#F8C4D7"/>
<path d="M124.121 372.364H93.0909V403.394H124.121V372.364Z" fill="#F8C4D7"/>
<path d="M155.152 372.364H124.121V403.394H155.152V372.364Z" fill="#F8C4D7"/>
<path d="M217.212 372.364H186.182V403.394H217.212V372.364Z" fill="#F8C4D7"/>
<path d="M310.303 372.364H279.273V403.394H310.303V372.364Z" fill="#F8C4D7"/>
<path d="M341.333 372.364H310.303V403.394H341.333V372.364Z" fill="#F8C4D7"/>
<path d="M403.394 372.364H372.364V403.394H403.394V372.364Z" fill="#F8C4D7"/>
<path d="M465.455 372.364H434.424V403.394H465.455V372.364Z" fill="#F8C4D7"/>
<path d="M496.485 372.364H465.455V403.394H496.485V372.364Z" fill="#F8C4D7"/>
<path d="M558.545 372.364H527.515V403.394H558.545V372.364Z" fill="#F8C4D7"/>
<path d="M589.576 372.364H558.545V403.394H589.576V372.364Z" fill="#F8C4D7"/>
<path d="M744.727 372.364H713.697V403.394H744.727V372.364Z" fill="#F8C4D7"/>
<path d="M837.818 372.364H806.788V403.394H837.818V372.364Z" fill="#F8C4D7"/>
<path d="M868.849 372.364H837.818V403.394H868.849V372.364Z" fill="#F8C4D7"/>
<path d="M992.97 372.364H961.939V403.394H992.97V372.364Z" fill="#F8C4D7"/>
<path d="M1024 372.364H992.97V403.394H1024V372.364Z" fill="#F8C4D7"/>
<path d="M31.0303 403.394H0V434.424H31.0303V403.394Z" fill="#F8C4D7"/>
<path d="M62.0606 403.394H31.0303V434.424H62.0606V403.394Z" fill="#F8C4D7"/>
<path d="M93.0909 403.394H62.0606V434.424H93.0909V403.394Z" fill="#F8C4D7"/>
<path d="M155.152 403.394H124.121V434.424H155.152V403.394Z" fill="#F8C4D7"/>
<path d="M279.273 403.394H248.242V434.424H279.273V403.394Z" fill="#F8C4D7"/>
<path d="M434.424 403.394H403.394V434.424H434.424V403.394Z" fill="#F8C4D7"/>
<path d="M496.485 403.394H465.455V434.424H496.485V403.394Z" fill="#F8C4D7"/>
<path d="M527.515 403.394H496.485V434.424H527.515V403.394Z" fill="#F8C4D7"/>
<path d="M558.545 403.394H527.515V434.424H558.545V403.394Z" fill="#F8C4D7"/>
<path d="M589.576 403.394H558.545V434.424H589.576V403.394Z" fill="#F8C4D7"/>
<path d="M651.636 403.394H620.606V434.424H651.636V403.394Z" fill="#F8C4D7"/>
<path d="M682.667 403.394H651.636V434.424H682.667V403.394Z" fill="#F8C4D7"/>
<path d="M713.697 403.394H682.667V434.424H713.697V403.394Z" fill="#F8C4D7"/>
<path d="M775.758 403.394H744.727V434.424H775.758V403.394Z" fill="#F8C4D7"/>
<path d="M806.788 403.394H775.758V434.424H806.788V403.394Z" fill="#F8C4D7"/>
<path d="M837.818 403.394H806.788V434.424H837.818V403.394Z" fill="#F8C4D7"/>
<path d="M1024 403.394H992.97V434.424H1024V403.394Z" fill="#F8C4D7"/>
<path d="M31.0303 434.424H0V465.455H31.0303V434.424Z" fill="#F8C4D7"/>
<path d="M62.0606 434.424H31.0303V465.455H62.0606V434.424Z" fill="#F8C4D7"/>
<path d="M124.121 434.424H93.0909V465.455H124.121V434.424Z" fill="#F8C4D7"/>
<path d="M217.212 434.424H186.182V465.455H217.212V434.424Z" fill="#F8C4D7"/>
<path d="M248.242 434.424H217.212V465.455H248.242V434.424Z" fill="#F8C4D7"/>
<path d="M279.273 434.424H248.242V465.455H279.273V434.424Z" fill="#F8C4D7"/>
<path d="M372.364 434.424H341.333V465.455H372.364V434.424Z" fill="#F8C4D7"/>
<path d="M434.424 434.424H403.394V465.455H434.424V434.424Z" fill="#F8C4D7"/>
<path d="M465.455 434.424H434.424V465.455H465.455V434.424Z" fill="#F8C4D7"/>
<path d="M496.485 434.424H465.455V465.455H496.485V434.424Z" fill="#F8C4D7"/>
<path d="M620.606 434.424H589.576L589.576 465.455H620.606V434.424Z" fill="#F8C4D7"/>
<path d="M713.697 434.424H682.667V465.455H713.697V434.424Z" fill="#F8C4D7"/>
<path d="M744.727 434.424H713.697V465.455H744.727V434.424Z" fill="#F8C4D7"/>
<path d="M775.758 434.424H744.727V465.455H775.758V434.424Z" fill="#F8C4D7"/>
<path d="M806.788 434.424H775.758V465.455H806.788V434.424Z" fill="#F8C4D7"/>
<path d="M868.849 434.424H837.818V465.455H868.849V434.424Z" fill="#F8C4D7"/>
<path d="M899.879 434.424H868.849V465.455H899.879V434.424Z" fill="#F8C4D7"/>
<path d="M930.909 434.424H899.879V465.455H930.909V434.424Z" fill="#F8C4D7"/>
<path d="M961.939 434.424H930.909V465.455H961.939V434.424Z" fill="#F8C4D7"/>
<path d="M1024 434.424H992.97V465.455H1024V434.424Z" fill="#F8C4D7"/>
<path d="M62.0606 465.455H31.0303V496.485H62.0606V465.455Z" fill="#F8C4D7"/>
<path d="M93.0909 465.455H62.0606V496.485H93.0909V465.455Z" fill="#F8C4D7"/>
<path d="M124.121 465.455H93.0909V496.485H124.121V465.455Z" fill="#F8C4D7"/>
<path d="M155.152 465.455H124.121V496.485H155.152V465.455Z" fill="#F8C4D7"/>
<path d="M186.182 465.455H155.152V496.485H186.182V465.455Z" fill="#F8C4D7"/>
<path d="M248.242 465.455H217.212V496.485H248.242V465.455Z" fill="#F8C4D7"/>
<path d="M279.273 465.455H248.242V496.485H279.273V465.455Z" fill="#F8C4D7"/>
<path d="M341.333 465.455H310.303V496.485H341.333V465.455Z" fill="#F8C4D7"/>
<path d="M434.424 465.455H403.394V496.485H434.424V465.455Z" fill="#F8C4D7"/>
<path d="M589.576 465.455H558.545V496.485H589.576L589.576 465.455Z" fill="#F8C4D7"/>
<path d="M620.606 465.455H589.576L589.576 496.485H620.606V465.455Z" fill="#F8C4D7"/>
<path d="M651.636 465.455H620.606V496.485H651.636V465.455Z" fill="#F8C4D7"/>
<path d="M682.667 465.455H651.636V496.485H682.667V465.455Z" fill="#F8C4D7"/>
<path d="M713.697 465.455H682.667V496.485H713.697V465.455Z" fill="#F8C4D7"/>
<path d="M744.727 465.455H713.697V496.485H744.727V465.455Z" fill="#F8C4D7"/>
<path d="M775.758 465.455H744.727V496.485H775.758V465.455Z" fill="#F8C4D7"/>
<path d="M837.818 465.455H806.788V496.485H837.818V465.455Z" fill="#F8C4D7"/>
<path d="M899.879 465.455H868.849V496.485H899.879V465.455Z" fill="#F8C4D7"/>
<path d="M930.909 465.455H899.879V496.485H930.909V465.455Z" fill="#F8C4D7"/>
<path d="M31.0303 496.485H0V527.515H31.0303V496.485Z" fill="#F8C4D7"/>
<path d="M124.121 496.485H93.0909V527.515H124.121V496.485Z" fill="#F8C4D7"/>
<path d="M186.182 496.485H155.152V527.515H186.182V496.485Z" fill="#F8C4D7"/>
<path d="M217.212 496.485H186.182V527.515H217.212V496.485Z" fill="#F8C4D7"/>
<path d="M372.364 496.485H341.333V527.515H372.364V496.485Z" fill="#F8C4D7"/>
<path d="M434.424 496.485H403.394V527.515H434.424V496.485Z" fill="#F8C4D7"/>
<path d="M496.485 496.485H465.455V527.515H496.485V496.485Z" fill="#F8C4D7"/>
<path d="M558.545 496.485H527.515V527.515H558.545V496.485Z" fill="#F8C4D7"/>
<path d="M589.576 496.485H558.545V527.515H589.576V496.485Z" fill="#F8C4D7"/>
<path d="M651.636 496.485H620.606V527.515H651.636V496.485Z" fill="#F8C4D7"/>
<path d="M713.697 496.485H682.667V527.515H713.697V496.485Z" fill="#F8C4D7"/>
<path d="M806.788 496.485H775.758V527.515H806.788V496.485Z" fill="#F8C4D7"/>
<path d="M837.818 496.485H806.788V527.515H837.818V496.485Z" fill="#F8C4D7"/>
<path d="M930.909 496.485H899.879V527.515H930.909V496.485Z" fill="#F8C4D7"/>
<path d="M992.97 496.485H961.939V527.515H992.97V496.485Z" fill="#F8C4D7"/>
<path d="M31.0303 527.515H0V558.545H31.0303V527.515Z" fill="#F8C4D7"/>
<path d="M62.0606 527.515H31.0303V558.545H62.0606V527.515Z" fill="#F8C4D7"/>
<path d="M93.0909 527.515H62.0606V558.545H93.0909V527.515Z" fill="#F8C4D7"/>
<path d="M155.152 527.515H124.121V558.545H155.152V527.515Z" fill="#F8C4D7"/>
<path d="M186.182 527.515H155.152V558.545H186.182V527.515Z" fill="#F8C4D7"/>
<path d="M279.273 527.515H248.242V558.545H279.273V527.515Z" fill="#F8C4D7"/>
<path d="M465.455 527.515H434.424V558.545H465.455V527.515Z" fill="#F8C4D7"/>
<path d="M527.515 527.515H496.485V558.545H527.515V527.515Z" fill="#F8C4D7"/>
<path d="M558.545 527.515H527.515V558.545H558.545V527.515Z" fill="#F8C4D7"/>
<path d="M589.576 527.515H558.545V558.545H589.576V527.515Z" fill="#F8C4D7"/>
<path d="M620.606 527.515H589.576V558.545H620.606V527.515Z" fill="#F8C4D7"/>
<path d="M775.758 527.515H744.727V558.545H775.758V527.515Z" fill="#F8C4D7"/>
<path d="M31.0303 558.545H0V589.576H31.0303V558.545Z" fill="#F8C4D7"/>
<path d="M93.0909 558.545H62.0606V589.576H93.0909V558.545Z" fill="#F8C4D7"/>
<path d="M155.152 558.545H124.121V589.576H155.152V558.545Z" fill="#F8C4D7"/>
<path d="M217.212 558.545H186.182V589.576H217.212V558.545Z" fill="#F8C4D7"/>
<path d="M341.333 558.545H310.303V589.576H341.333V558.545Z" fill="#F8C4D7"/>
<path d="M403.394 558.545H372.364V589.576H403.394V558.545Z" fill="#F8C4D7"/>
<path d="M527.515 558.545H496.485V589.576H527.515V558.545Z" fill="#F8C4D7"/>
<path d="M558.545 558.545H527.515V589.576H558.545V558.545Z" fill="#F8C4D7"/>
<path d="M620.606 558.545H589.576L589.576 589.576H620.606V558.545Z" fill="#F8C4D7"/>
<path d="M682.667 558.545H651.636V589.576H682.667V558.545Z" fill="#F8C4D7"/>
<path d="M713.697 558.545H682.667V589.576H713.697V558.545Z" fill="#F8C4D7"/>
<path d="M775.758 558.545H744.727V589.576H775.758V558.545Z" fill="#F8C4D7"/>
<path d="M806.788 558.545H775.758V589.576H806.788V558.545Z" fill="#F8C4D7"/>
<path d="M837.818 558.545H806.788V589.576H837.818V558.545Z" fill="#F8C4D7"/>
<path d="M899.879 558.545H868.849V589.576H899.879V558.545Z" fill="#F8C4D7"/>
<path d="M961.939 558.545H930.909V589.576H961.939V558.545Z" fill="#F8C4D7"/>
<path d="M992.97 558.545H961.939V589.576H992.97V558.545Z" fill="#F8C4D7"/>
<path d="M31.0303 589.576H0V620.606H31.0303V589.576Z" fill="#F8C4D7"/>
<path d="M93.0909 589.576H62.0606V620.606H93.0909V589.576Z" fill="#F8C4D7"/>
<path d="M124.121 589.576H93.0909V620.606H124.121V589.576Z" fill="#F8C4D7"/>
<path d="M310.303 589.576L279.273 589.576V620.606H310.303V589.576Z" fill="#F8C4D7"/>
<path d="M465.455 589.576H434.424V620.606H465.455V589.576Z" fill="#F8C4D7"/>
<path d="M496.485 589.576L465.455 589.576V620.606H496.485V589.576Z" fill="#F8C4D7"/>
<path d="M527.515 589.576H496.485V620.606H527.515V589.576Z" fill="#F8C4D7"/>
<path d="M558.545 589.576H527.515V620.606H558.545V589.576Z" fill="#F8C4D7"/>
<path d="M620.606 589.576H589.576V620.606H620.606V589.576Z" fill="#F8C4D7"/>
<path d="M806.788 589.576H775.758V620.606H806.788V589.576Z" fill="#F8C4D7"/>
<path d="M961.939 589.576H930.909V620.606H961.939V589.576Z" fill="#F8C4D7"/>
<path d="M992.97 589.576H961.939V620.606H992.97V589.576Z" fill="#F8C4D7"/>
<path d="M1024 589.576L992.97 589.576V620.606H1024V589.576Z" fill="#F8C4D7"/>
<path d="M31.0303 620.606H0V651.636H31.0303V620.606Z" fill="#F8C4D7"/>
<path d="M93.0909 620.606H62.0606V651.636H93.0909V620.606Z" fill="#F8C4D7"/>
<path d="M124.121 620.606H93.0909V651.636H124.121V620.606Z" fill="#F8C4D7"/>
<path d="M186.182 620.606H155.152V651.636H186.182V620.606Z" fill="#F8C4D7"/>
<path d="M217.212 620.606H186.182V651.636H217.212V620.606Z" fill="#F8C4D7"/>
<path d="M310.303 620.606H279.273V651.636H310.303V620.606Z" fill="#F8C4D7"/>
<path d="M434.424 620.606H403.394V651.636H434.424V620.606Z" fill="#F8C4D7"/>
<path d="M496.485 620.606H465.455V651.636H496.485V620.606Z" fill="#F8C4D7"/>
<path d="M589.576 620.606H558.545V651.636H589.576L589.576 620.606Z" fill="#F8C4D7"/>
<path d="M651.636 620.606H620.606V651.636H651.636V620.606Z" fill="#F8C4D7"/>
<path d="M713.697 620.606H682.667V651.636H713.697V620.606Z" fill="#F8C4D7"/>
<path d="M775.758 620.606H744.727V651.636H775.758V620.606Z" fill="#F8C4D7"/>
<path d="M806.788 620.606H775.758V651.636H806.788V620.606Z" fill="#F8C4D7"/>
<path d="M837.818 620.606H806.788V651.636H837.818V620.606Z" fill="#F8C4D7"/>
<path d="M868.849 620.606H837.818V651.636H868.849V620.606Z" fill="#F8C4D7"/>
<path d="M930.909 620.606H899.879V651.636H930.909V620.606Z" fill="#F8C4D7"/>
<path d="M992.97 620.606H961.939V651.636H992.97V620.606Z" fill="#F8C4D7"/>
<path d="M1024 620.606H992.97V651.636H1024V620.606Z" fill="#F8C4D7"/>
<path d="M31.0303 651.636H0V682.667H31.0303V651.636Z" fill="#F8C4D7"/>
<path d="M62.0606 651.636H31.0303V682.667H62.0606V651.636Z" fill="#F8C4D7"/>
<path d="M93.0909 651.636H62.0606V682.667H93.0909V651.636Z" fill="#F8C4D7"/>
<path d="M155.152 651.636H124.121V682.667H155.152V651.636Z" fill="#F8C4D7"/>
<path d="M248.242 651.636H217.212V682.667H248.242V651.636Z" fill="#F8C4D7"/>
<path d="M372.364 651.636H341.333V682.667H372.364V651.636Z" fill="#F8C4D7"/>
<path d="M403.394 651.636H372.364V682.667H403.394V651.636Z" fill="#F8C4D7"/>
<path d="M434.424 651.636H403.394V682.667H434.424V651.636Z" fill="#F8C4D7"/>
<path d="M465.455 651.636H434.424V682.667H465.455V651.636Z" fill="#F8C4D7"/>
<path d="M496.485 651.636H465.455V682.667H496.485V651.636Z" fill="#F8C4D7"/>
<path d="M651.636 651.636H620.606V682.667H651.636V651.636Z" fill="#F8C4D7"/>
<path d="M713.697 651.636H682.667V682.667H713.697V651.636Z" fill="#F8C4D7"/>
<path d="M744.727 651.636H713.697V682.667H744.727V651.636Z" fill="#F8C4D7"/>
<path d="M806.788 651.636H775.758V682.667H806.788V651.636Z" fill="#F8C4D7"/>
<path d="M837.818 651.636H806.788V682.667H837.818V651.636Z" fill="#F8C4D7"/>
<path d="M868.849 651.636H837.818V682.667H868.849V651.636Z" fill="#F8C4D7"/>
<path d="M899.879 651.636H868.849V682.667H899.879V651.636Z" fill="#F8C4D7"/>
<path d="M992.97 651.636H961.939V682.667H992.97V651.636Z" fill="#F8C4D7"/>
<path d="M62.0606 682.667H31.0303V713.697H62.0606V682.667Z" fill="#F8C4D7"/>
<path d="M155.152 682.667H124.121V713.697H155.152V682.667Z" fill="#F8C4D7"/>
<path d="M186.182 682.667H155.152V713.697H186.182V682.667Z" fill="#F8C4D7"/>
<path d="M217.212 682.667H186.182V713.697H217.212V682.667Z" fill="#F8C4D7"/>
<path d="M279.273 682.667H248.242V713.697H279.273V682.667Z" fill="#F8C4D7"/>
<path d="M341.333 682.667H310.303V713.697H341.333V682.667Z" fill="#F8C4D7"/>
<path d="M372.364 682.667H341.333V713.697H372.364V682.667Z" fill="#F8C4D7"/>
<path d="M496.485 682.667H465.455V713.697H496.485V682.667Z" fill="#F8C4D7"/>
<path d="M527.515 682.667H496.485V713.697H527.515V682.667Z" fill="#F8C4D7"/>
<path d="M589.576 682.667H558.545V713.697H589.576V682.667Z" fill="#F8C4D7"/>
<path d="M651.636 682.667H620.606V713.697H651.636V682.667Z" fill="#F8C4D7"/>
<path d="M713.697 682.667H682.667V713.697H713.697V682.667Z" fill="#F8C4D7"/>
<path d="M744.727 682.667H713.697V713.697H744.727V682.667Z" fill="#F8C4D7"/>
<path d="M775.758 682.667H744.727V713.697H775.758V682.667Z" fill="#F8C4D7"/>
<path d="M868.849 682.667H837.818V713.697H868.849V682.667Z" fill="#F8C4D7"/>
<path d="M930.909 682.667H899.879V713.697H930.909V682.667Z" fill="#F8C4D7"/>
<path d="M961.939 682.667H930.909V713.697H961.939V682.667Z" fill="#F8C4D7"/>
<path d="M992.97 682.667H961.939V713.697H992.97V682.667Z" fill="#F8C4D7"/>
<path d="M1024 682.667H992.97V713.697H1024V682.667Z" fill="#F8C4D7"/>
<path d="M31.0303 713.697H0V744.727H31.0303V713.697Z" fill="#F8C4D7"/>
<path d="M155.152 713.697H124.121V744.727H155.152V713.697Z" fill="#F8C4D7"/>
<path d="M310.303 713.697H279.273V744.727H310.303V713.697Z" fill="#F8C4D7"/>
<path d="M403.394 713.697H372.364V744.727H403.394V713.697Z" fill="#F8C4D7"/>
<path d="M434.424 713.697H403.394V744.727H434.424V713.697Z" fill="#F8C4D7"/>
<path d="M527.515 713.697H496.485V744.727H527.515V713.697Z" fill="#F8C4D7"/>
<path d="M558.545 713.697H527.515V744.727H558.545V713.697Z" fill="#F8C4D7"/>
<path d="M682.667 713.697H651.636V744.727H682.667V713.697Z" fill="#F8C4D7"/>
<path d="M837.818 713.697H806.788V744.727H837.818V713.697Z" fill="#F8C4D7"/>
<path d="M868.849 713.697H837.818V744.727H868.849V713.697Z" fill="#F8C4D7"/>
<path d="M992.97 713.697H961.939V744.727H992.97V713.697Z" fill="#F8C4D7"/>
<path d="M1024 713.697H992.97V744.727H1024V713.697Z" fill="#F8C4D7"/>
<path d="M62.0606 744.727H31.0303V775.758H62.0606V744.727Z" fill="#F8C4D7"/>
<path d="M93.0909 744.727H62.0606V775.758H93.0909V744.727Z" fill="#F8C4D7"/>
<path d="M217.212 744.727H186.182V775.758H217.212V744.727Z" fill="#F8C4D7"/>
<path d="M248.242 744.727H217.212V775.758H248.242V744.727Z" fill="#F8C4D7"/>
<path d="M279.273 744.727H248.242V775.758H279.273V744.727Z" fill="#F8C4D7"/>
<path d="M310.303 744.727H279.273V775.758H310.303V744.727Z" fill="#F8C4D7"/>
<path d="M403.394 744.727H372.364V775.758H403.394V744.727Z" fill="#F8C4D7"/>
<path d="M465.455 744.727H434.424V775.758H465.455V744.727Z" fill="#F8C4D7"/>
<path d="M496.485 744.727H465.455V775.758H496.485V744.727Z" fill="#F8C4D7"/>
<path d="M527.515 744.727H496.485V775.758H527.515V744.727Z" fill="#F8C4D7"/>
<path d="M620.606 744.727H589.576V775.758H620.606V744.727Z" fill="#F8C4D7"/>
<path d="M651.636 744.727H620.606V775.758H651.636V744.727Z" fill="#F8C4D7"/>
<path d="M713.697 744.727H682.667V775.758H713.697V744.727Z" fill="#F8C4D7"/>
<path d="M775.758 744.727H744.727V775.758H775.758V744.727Z" fill="#F8C4D7"/>
<path d="M806.788 744.727H775.758V775.758H806.788V744.727Z" fill="#F8C4D7"/>
<path d="M837.818 744.727H806.788V775.758H837.818V744.727Z" fill="#F8C4D7"/>
<path d="M868.849 744.727H837.818V775.758H868.849V744.727Z" fill="#F8C4D7"/>
<path d="M899.879 744.727H868.849V775.758H899.879V744.727Z" fill="#F8C4D7"/>
<path d="M930.909 744.727H899.879V775.758H930.909V744.727Z" fill="#F8C4D7"/>
<path d="M961.939 744.727H930.909V775.758H961.939V744.727Z" fill="#F8C4D7"/>
<path d="M1024 744.727H992.97V775.758H1024V744.727Z" fill="#F8C4D7"/>
<path d="M341.333 775.758H310.303V806.788H341.333V775.758Z" fill="#F8C4D7"/>
<path d="M403.394 775.758H372.364V806.788H403.394V775.758Z" fill="#F8C4D7"/>
<path d="M527.515 775.758H496.485V806.788H527.515V775.758Z" fill="#F8C4D7"/>
<path d="M589.576 775.758H558.545V806.788H589.576L589.576 775.758Z" fill="#F8C4D7"/>
<path d="M620.606 775.758H589.576L589.576 806.788H620.606V775.758Z" fill="#F8C4D7"/>
<path d="M744.727 775.758H713.697V806.788H744.727V775.758Z" fill="#F8C4D7"/>
<path d="M775.758 775.758H744.727V806.788H775.758V775.758Z" fill="#F8C4D7"/>
<path d="M899.879 775.758H868.849V806.788H899.879V775.758Z" fill="#F8C4D7"/>
<path d="M31.0303 806.788H0V837.818H31.0303V806.788Z" fill="#F8C4D7"/>
<path d="M62.0606 806.788H31.0303V837.818H62.0606V806.788Z" fill="#F8C4D7"/>
<path d="M93.0909 806.788H62.0606V837.818H93.0909V806.788Z" fill="#F8C4D7"/>
<path d="M124.121 806.788H93.0909V837.818H124.121V806.788Z" fill="#F8C4D7"/>
<path d="M155.152 806.788H124.121V837.818H155.152V806.788Z" fill="#F8C4D7"/>
<path d="M186.182 806.788H155.152V837.818H186.182V806.788Z" fill="#F8C4D7"/>
<path d="M217.212 806.788H186.182V837.818H217.212V806.788Z" fill="#F8C4D7"/>
<path d="M279.273 806.788H248.242V837.818H279.273V806.788Z" fill="#F8C4D7"/>
<path d="M310.303 806.788H279.273V837.818H310.303V806.788Z" fill="#F8C4D7"/>
<path d="M372.364 806.788H341.333V837.818H372.364V806.788Z" fill="#F8C4D7"/>
<path d="M434.424 806.788H403.394V837.818H434.424V806.788Z" fill="#F8C4D7"/>
<path d="M682.667 806.788H651.636V837.818H682.667V806.788Z" fill="#F8C4D7"/>
<path d="M713.697 806.788H682.667V837.818H713.697V806.788Z" fill="#F8C4D7"/>
<path d="M775.758 806.788H744.727V837.818H775.758V806.788Z" fill="#F8C4D7"/>
<path d="M837.818 806.788H806.788V837.818H837.818V806.788Z" fill="#F8C4D7"/>
<path d="M899.879 806.788H868.849V837.818H899.879V806.788Z" fill="#F8C4D7"/>
<path d="M961.939 806.788H930.909V837.818H961.939V806.788Z" fill="#F8C4D7"/>
<path d="M31.0303 837.818H0V868.849H31.0303V837.818Z" fill="#F8C4D7"/>
<path d="M217.212 837.818H186.182V868.849H217.212V837.818Z" fill="#F8C4D7"/>
<path d="M279.273 837.818H248.242V868.849H279.273V837.818Z" fill="#F8C4D7"/>
<path d="M310.303 837.818H279.273V868.849H310.303V837.818Z" fill="#F8C4D7"/>
<path d="M341.333 837.818H310.303V868.849H341.333V837.818Z" fill="#F8C4D7"/>
<path d="M527.515 837.818H496.485V868.849H527.515V837.818Z" fill="#F8C4D7"/>
<path d="M558.545 837.818H527.515V868.849H558.545V837.818Z" fill="#F8C4D7"/>
<path d="M651.636 837.818H620.606V868.849H651.636V837.818Z" fill="#F8C4D7"/>
<path d="M744.727 837.818H713.697V868.849H744.727V837.818Z" fill="#F8C4D7"/>
<path d="M775.758 837.818H744.727V868.849H775.758V837.818Z" fill="#F8C4D7"/>
<path d="M899.879 837.818H868.849V868.849H899.879V837.818Z" fill="#F8C4D7"/>
<path d="M930.909 837.818H899.879V868.849H930.909V837.818Z" fill="#F8C4D7"/>
<path d="M31.0303 868.849H0V899.879H31.0303V868.849Z" fill="#F8C4D7"/>
<path d="M93.0909 868.849H62.0606V899.879H93.0909V868.849Z" fill="#F8C4D7"/>
<path d="M124.121 868.849H93.0909V899.879H124.121V868.849Z" fill="#F8C4D7"/>
<path d="M155.152 868.849H124.121V899.879H155.152V868.849Z" fill="#F8C4D7"/>
<path d="M217.212 868.849H186.182V899.879H217.212V868.849Z" fill="#F8C4D7"/>
<path d="M279.273 868.849H248.242V899.879H279.273V868.849Z" fill="#F8C4D7"/>
<path d="M372.364 868.849H341.333V899.879H372.364V868.849Z" fill="#F8C4D7"/>
<path d="M403.394 868.849H372.364V899.879H403.394V868.849Z" fill="#F8C4D7"/>
<path d="M527.515 868.849H496.485V899.879H527.515V868.849Z" fill="#F8C4D7"/>
<path d="M620.606 868.849H589.576V899.879H620.606V868.849Z" fill="#F8C4D7"/>
<path d="M651.636 868.849H620.606V899.879H651.636V868.849Z" fill="#F8C4D7"/>
<path d="M744.727 868.849H713.697V899.879H744.727V868.849Z" fill="#F8C4D7"/>
<path d="M775.758 868.849H744.727V899.879H775.758V868.849Z" fill="#F8C4D7"/>
<path d="M806.788 868.849H775.758V899.879H806.788V868.849Z" fill="#F8C4D7"/>
<path d="M837.818 868.849H806.788V899.879H837.818V868.849Z" fill="#F8C4D7"/>
<path d="M868.849 868.849H837.818V899.879H868.849V868.849Z" fill="#F8C4D7"/>
<path d="M899.879 868.849H868.849V899.879H899.879V868.849Z" fill="#F8C4D7"/>
<path d="M930.909 868.849H899.879V899.879H930.909V868.849Z" fill="#F8C4D7"/>
<path d="M992.97 868.849H961.939V899.879H992.97V868.849Z" fill="#F8C4D7"/>
<path d="M1024 868.849H992.97V899.879H1024V868.849Z" fill="#F8C4D7"/>
<path d="M31.0303 899.879H0V930.909H31.0303V899.879Z" fill="#F8C4D7"/>
<path d="M93.0909 899.879H62.0606V930.909H93.0909V899.879Z" fill="#F8C4D7"/>
<path d="M124.121 899.879H93.0909V930.909H124.121V899.879Z" fill="#F8C4D7"/>
<path d="M155.152 899.879H124.121V930.909H155.152V899.879Z" fill="#F8C4D7"/>
<path d="M217.212 899.879H186.182V930.909H217.212V899.879Z" fill="#F8C4D7"/>
<path d="M279.273 899.879H248.242V930.909H279.273V899.879Z" fill="#F8C4D7"/>
<path d="M341.333 899.879H310.303V930.909H341.333V899.879Z" fill="#F8C4D7"/>
<path d="M496.485 899.879H465.455V930.909H496.485V899.879Z" fill="#F8C4D7"/>
<path d="M620.606 899.879H589.576V930.909H620.606V899.879Z" fill="#F8C4D7"/>
<path d="M682.667 899.879H651.636V930.909H682.667V899.879Z" fill="#F8C4D7"/>
<path d="M713.697 899.879H682.667V930.909H713.697V899.879Z" fill="#F8C4D7"/>
<path d="M744.727 899.879H713.697V930.909H744.727V899.879Z" fill="#F8C4D7"/>
<path d="M806.788 899.879H775.758V930.909H806.788V899.879Z" fill="#F8C4D7"/>
<path d="M837.818 899.879H806.788V930.909H837.818V899.879Z" fill="#F8C4D7"/>
<path d="M868.849 899.879H837.818V930.909H868.849V899.879Z" fill="#F8C4D7"/>
<path d="M930.909 899.879H899.879V930.909H930.909V899.879Z" fill="#F8C4D7"/>
<path d="M992.97 899.879H961.939V930.909H992.97V899.879Z" fill="#F8C4D7"/>
<path d="M31.0303 930.909H0V961.939H31.0303V930.909Z" fill="#F8C4D7"/>
<path d="M93.0909 930.909H62.0606V961.939H93.0909V930.909Z" fill="#F8C4D7"/>
<path d="M124.121 930.909H93.0909V961.939H124.121V930.909Z" fill="#F8C4D7"/>
<path d="M155.152 930.909H124.121V961.939H155.152V930.909Z" fill="#F8C4D7"/>
<path d="M217.212 930.909H186.182V961.939H217.212V930.909Z" fill="#F8C4D7"/>
<path d="M279.273 930.909H248.242V961.939H279.273V930.909Z" fill="#F8C4D7"/>
<path d="M341.333 930.909H310.303V961.939H341.333V930.909Z" fill="#F8C4D7"/>
<path d="M372.364 930.909H341.333V961.939H372.364V930.909Z" fill="#F8C4D7"/>
<path d="M434.424 930.909H403.394V961.939H434.424V930.909Z" fill="#F8C4D7"/>
<path d="M496.485 930.909H465.455V961.939H496.485V930.909Z" fill="#F8C4D7"/>
<path d="M558.545 930.909H527.515V961.939H558.545V930.909Z" fill="#F8C4D7"/>
<path d="M589.576 930.909H558.545V961.939H589.576L589.576 930.909Z" fill="#F8C4D7"/>
<path d="M620.606 930.909H589.576L589.576 961.939H620.606V930.909Z" fill="#F8C4D7"/>
<path d="M651.636 930.909H620.606V961.939H651.636V930.909Z" fill="#F8C4D7"/>
<path d="M682.667 930.909H651.636V961.939H682.667V930.909Z" fill="#F8C4D7"/>
<path d="M713.697 930.909H682.667V961.939H713.697V930.909Z" fill="#F8C4D7"/>
<path d="M744.727 930.909H713.697V961.939H744.727V930.909Z" fill="#F8C4D7"/>
<path d="M837.818 930.909H806.788V961.939H837.818V930.909Z" fill="#F8C4D7"/>
<path d="M868.849 930.909H837.818V961.939H868.849V930.909Z" fill="#F8C4D7"/>
<path d="M961.939 930.909H930.909V961.939H961.939V930.909Z" fill="#F8C4D7"/>
<path d="M992.97 930.909H961.939V961.939H992.97V930.909Z" fill="#F8C4D7"/>
<path d="M31.0303 961.939H0V992.97H31.0303V961.939Z" fill="#F8C4D7"/>
<path d="M217.212 961.939H186.182V992.97H217.212V961.939Z" fill="#F8C4D7"/>
<path d="M341.333 961.939H310.303V992.97H341.333V961.939Z" fill="#F8C4D7"/>
<path d="M465.455 961.939H434.424V992.97H465.455V961.939Z" fill="#F8C4D7"/>
<path d="M620.606 961.939H589.576L589.576 992.97H620.606V961.939Z" fill="#F8C4D7"/>
<path d="M651.636 961.939H620.606V992.97H651.636V961.939Z" fill="#F8C4D7"/>
<path d="M713.697 961.939H682.667V992.97H713.697V961.939Z" fill="#F8C4D7"/>
<path d="M775.758 961.939H744.727V992.97H775.758V961.939Z" fill="#F8C4D7"/>
<path d="M806.788 961.939H775.758V992.97H806.788V961.939Z" fill="#F8C4D7"/>
<path d="M837.818 961.939H806.788V992.97H837.818V961.939Z" fill="#F8C4D7"/>
<path d="M868.849 961.939H837.818V992.97H868.849V961.939Z" fill="#F8C4D7"/>
<path d="M899.879 961.939H868.849V992.97H899.879V961.939Z" fill="#F8C4D7"/>
<path d="M1024 961.939H992.97V992.97H1024V961.939Z" fill="#F8C4D7"/>
<path d="M31.0303 992.97H0V1024H31.0303V992.97Z" fill="#F8C4D7"/>
<path d="M62.0606 992.97H31.0303V1024H62.0606V992.97Z" fill="#F8C4D7"/>
<path d="M93.0909 992.97H62.0606V1024H93.0909V992.97Z" fill="#F8C4D7"/>
<path d="M124.121 992.97H93.0909V1024H124.121V992.97Z" fill="#F8C4D7"/>
<path d="M155.152 992.97H124.121V1024H155.152V992.97Z" fill="#F8C4D7"/>
<path d="M186.182 992.97H155.152V1024H186.182V992.97Z" fill="#F8C4D7"/>
<path d="M217.212 992.97H186.182V1024H217.212V992.97Z" fill="#F8C4D7"/>
<path d="M310.303 992.97H279.273V1024H310.303V992.97Z" fill="#F8C4D7"/>
<path d="M434.424 992.97H403.394V1024H434.424V992.97Z" fill="#F8C4D7"/>
<path d="M527.515 992.97H496.485V1024H527.515V992.97Z" fill="#F8C4D7"/>
<path d="M558.545 992.97H527.515V1024H558.545V992.97Z" fill="#F8C4D7"/>
<path d="M744.727 992.97H713.697V1024H744.727V992.97Z" fill="#F8C4D7"/>
<path d="M775.758 992.97H744.727V1024H775.758V992.97Z" fill="#F8C4D7"/>
<path d="M806.788 992.97H775.758V1024H806.788V992.97Z" fill="#F8C4D7"/>
<path d="M868.849 992.97H837.818V1024H868.849V992.97Z" fill="#F8C4D7"/>
<path d="M899.879 992.97H868.849V1024H899.879V992.97Z" fill="#F8C4D7"/>
<path d="M930.909 992.97H899.879V1024H930.909V992.97Z" fill="#F8C4D7"/>
</g>
<defs>
<clipPath id="clip0_31_579">
<rect width="1024" height="1024" fill="white"/>
</clipPath>
</defs>
</svg>
